<svg width="900" height="580" viewBox="0 0 900 580" fill="none" xmlns="http://www.w3.org/2000/svg">
<g clip-path="url(#clip0_793_14)">
<path d="M374.083 523.036L356.53 539.196L370.48 515.789C359.489 495.859 341.514 478.634 341.514 478.634C341.514 478.634 304.223 514.362 304.223 542.447C304.223 570.532 320.919 580.338 341.514 580.338C362.11 580.338 378.806 570.532 378.806 542.447C378.806 536.196 376.956 529.567 374.083 523.036Z" fill="#F2F2F2"/>
<path d="M352.014 540.071V541.455C351.932 557.547 349.218 570.102 343.893 578.942C343.818 579.073 343.736 579.196 343.66 579.326L343.064 578.963L342.495 578.607C348.403 569.06 350.493 555.566 350.568 541.531C350.575 541.078 350.582 540.619 350.575 540.16C350.555 534.218 350.191 528.208 349.609 522.369C349.568 521.917 349.52 521.458 349.472 520.998C348.663 513.295 347.498 505.935 346.306 499.541C346.223 499.089 346.134 498.636 346.045 498.191C343.982 487.377 341.878 479.543 341.399 477.809C341.344 477.597 341.31 477.481 341.303 477.453L341.954 477.268L341.961 477.261L342.619 477.076C342.625 477.104 342.742 477.494 342.934 478.221C343.667 480.935 345.572 488.302 347.443 498.02C347.525 498.458 347.615 498.911 347.697 499.363C348.67 504.551 349.623 510.349 350.376 516.434C350.568 517.963 350.74 519.47 350.89 520.957C350.945 521.416 350.993 521.876 351.034 522.328C351.665 528.64 351.991 534.554 352.014 540.071Z" fill="white"/>
<path d="M347.445 498.02C346.986 498.081 346.52 498.143 346.047 498.191C344.763 498.323 343.473 498.39 342.182 498.39C336.68 498.397 331.247 497.17 326.282 494.799C325.995 495.162 325.707 495.525 325.412 495.895C330.635 498.445 336.37 499.767 342.182 499.761C343.56 499.76 344.937 499.687 346.308 499.541C346.774 499.493 347.24 499.432 347.699 499.363C351.489 498.819 355.175 497.703 358.63 496.053C358.335 495.676 358.047 495.306 357.766 494.943C354.496 496.471 351.018 497.508 347.445 498.02V498.02Z" fill="white"/>
<path d="M350.892 520.958C350.419 520.985 349.946 520.999 349.473 520.999C349.329 521.006 349.179 521.006 349.035 521.006C343.073 521.006 337.2 519.564 331.916 516.804C326.632 514.044 322.094 510.047 318.689 505.154C318.414 505.559 318.14 505.963 317.873 506.374C321.423 511.325 326.101 515.359 331.52 518.142C336.939 520.924 342.943 522.376 349.035 522.376C349.227 522.376 349.418 522.376 349.61 522.37C350.09 522.363 350.563 522.349 351.036 522.328C358.353 521.954 365.407 519.479 371.356 515.201C371.136 514.797 370.917 514.392 370.691 513.988C364.91 518.188 358.029 520.611 350.892 520.958V520.958Z" fill="white"/>
<path d="M352.015 540.071C351.536 540.112 351.056 540.139 350.576 540.16C350.062 540.181 349.548 540.194 349.034 540.194C341.024 540.185 333.232 537.581 326.825 532.773C320.418 527.965 315.741 521.21 313.494 513.521C313.185 514.077 312.877 514.625 312.582 515.18C315.114 522.851 319.999 529.529 326.542 534.266C333.086 539.002 340.956 541.556 349.034 541.565C349.548 541.565 350.062 541.558 350.569 541.531C351.056 541.517 351.536 541.489 352.015 541.455C361.705 540.697 370.745 536.285 377.304 529.113C377.16 528.605 376.995 528.105 376.831 527.598C370.496 534.824 361.594 539.298 352.015 540.071V540.071Z" fill="white"/>
<path d="M750 5H134.076V331.325H750V5Z" fill="#F0F0F0"/>
<path d="M749.999 66.0827V62.8825H630.104V5H626.903V62.8825H507.007V5H503.807V62.8825H383.911V5H380.711V62.8825H260.814V5H257.614V62.8825H134.076V66.0827H257.614V130.028H134.076V133.228H257.614V197.174H134.076V200.374H257.614V264.307H134.076V267.508H257.614V331.325H260.814V267.508H380.711V331.325H383.911V267.508H503.807V331.325H507.007V267.508H626.903V331.325H630.104V267.508H749.999V264.307H630.104V200.374H749.999V197.174H630.104V133.228H749.999V130.028H630.104V66.0827L749.999 66.0827ZM380.711 264.307H260.814V200.374H380.711V264.307ZM380.711 197.174H260.814V133.228H380.711V197.174ZM380.711 130.028H260.814V66.0827H380.711V130.028ZM503.807 264.308H383.911V200.374H503.807V264.308ZM503.807 197.174H383.911V133.228H503.807V197.174ZM503.807 130.028H383.911V66.0828H503.807V130.028ZM626.903 264.308H507.007V200.374H626.903V264.308ZM626.903 197.174H507.007V133.228H626.903V197.174ZM626.903 130.028H507.007V66.0828H626.903V130.028Z" fill="white"/>
<path d="M325.872 81.6338H284.666V121.526H325.872V81.6338Z" fill="#CACACA"/>
<path d="M705.239 210.805H664.033V250.697H705.239V210.805Z" fill="#CACACA"/>
<path d="M338.672 277.136H297.467V317.028H338.672V277.136Z" fill="#CACACA"/>
<path d="M350.85 74.2324H309.645V114.124H350.85V74.2324Z" fill="#3F3D56"/>
<path d="M544.551 240.056L593.448 196.49L607.874 203.638L549.228 265.149L544.551 240.056Z" fill="#FFB6B6"/>
<path d="M599.883 211.463C606.31 211.463 611.52 206.253 611.52 199.826C611.52 193.4 606.31 188.189 599.883 188.189C593.456 188.189 588.246 193.4 588.246 199.826C588.246 206.253 593.456 211.463 599.883 211.463Z" fill="#FFB6B6"/>
<path d="M498.782 567.964H487.211L481.707 523.336L498.783 523.337L498.782 567.964Z" fill="#FFB6B6"/>
<path d="M501.731 579.179L464.424 579.178V578.706C464.424 574.855 465.954 571.162 468.677 568.439C471.4 565.716 475.094 564.186 478.945 564.186H478.946L501.731 564.186L501.731 579.179Z" fill="#2F2E41"/>
<path d="M456.889 567.964H445.319L439.814 523.336L456.891 523.337L456.889 567.964Z" fill="#FFB6B6"/>
<path d="M459.838 579.179L422.531 579.178V578.706C422.532 574.855 424.061 571.162 426.785 568.439C429.508 565.716 433.201 564.186 437.052 564.186H437.053L459.839 564.186L459.838 579.179Z" fill="#2F2E41"/>
<path d="M508.498 312.861C508.498 312.861 537.591 310.534 528.281 361.736C518.972 412.939 499.688 553.004 499.688 553.004L482.205 555.407L471.877 368.564L464.062 555.407L441.827 553.004L420.057 352.427C420.057 352.427 413.067 336.3 420.053 325.162C427.039 314.025 508.498 312.861 508.498 312.861Z" fill="#2F2E41"/>
<path d="M489.877 186.018L497.954 181.69C497.954 181.69 517.855 179.993 525.976 203.37L547.515 235.902L582.426 205.646L597.554 216.119L553.556 268.631L535.261 270.968L495.695 219.765L489.877 186.018Z" fill="#3F3D56"/>
<path d="M460.569 91.6025C427.383 91.6025 418.094 128.058 418.094 148.624C418.094 169.19 437.11 166.079 460.569 166.079C470.638 166.079 479.882 166.648 487.162 165.676L490.663 157.126L493.481 164.21C499.456 162.015 503.044 157.552 503.044 148.624C503.044 128.058 494.898 91.6025 460.569 91.6025Z" fill="#2F2E41"/>
<path d="M460.427 166.045C476.213 166.045 489.009 153.249 489.009 137.464C489.009 121.678 476.213 108.882 460.427 108.882C444.642 108.882 431.846 121.678 431.846 137.464C431.846 153.249 444.642 166.045 460.427 166.045Z" fill="#FFB6B6"/>
<path d="M427.404 134.66H438.709L443.696 120.695L444.693 134.66H450.096L453.006 126.514L453.588 134.66H493.735C493.735 126.635 490.548 118.939 484.873 113.265C479.199 107.591 471.503 104.403 463.479 104.403H457.661C449.636 104.403 441.94 107.591 436.266 113.265C430.592 118.939 427.404 126.635 427.404 134.66Z" fill="#2F2E41"/>
<path d="M618.502 155.691H577.297V195.583H618.502V155.691Z" fill="#3F3D56"/>
<path d="M517.541 302.331C513.152 302.387 499.934 223.956 499.934 223.956L497.956 181.69L483.513 181.205V180.254C483.513 178.347 482.755 176.517 481.406 175.168C480.057 173.819 478.227 173.062 476.32 173.062H448.812C446.985 173.062 445.227 173.759 443.895 175.01C442.563 176.262 441.758 177.973 441.643 179.797L430.317 179.416L410.701 241.737C410.701 241.737 428.776 299.643 420.052 325.162C420.052 325.162 505.047 332.461 521.318 316.26C521.318 316.26 521.929 302.274 517.541 302.331Z" fill="#3F3D56"/>
<path d="M435.185 187.182L430.317 179.417C430.317 179.417 414.479 175.502 407.958 185.997C401.438 196.492 382.271 253.358 382.271 253.358L402.054 260.34L424.504 228.867L435.185 187.182Z" fill="#3F3D56"/>
<path d="M484.676 227.841H443.471V267.733H484.676V227.841Z" fill="#3F3D56"/>
<path d="M411.856 242.259L397.521 240.742C396.616 242.673 396.162 244.785 396.193 246.918C396.224 249.05 396.74 251.148 397.702 253.052C398.664 254.956 400.046 256.616 401.744 257.906C403.441 259.197 405.411 260.085 407.502 260.502L464.225 271.823L458.308 253.601L411.856 242.259Z" fill="#FFB6B6"/>
<path d="M464.397 272.033C470.824 272.033 476.034 266.823 476.034 260.396C476.034 253.969 470.824 248.759 464.397 248.759C457.97 248.759 452.76 253.969 452.76 260.396C452.76 266.823 457.97 272.033 464.397 272.033Z" fill="#FFB6B6"/>
<path d="M449.869 272.388L406.656 262.513C403.525 261.789 400.633 260.269 398.262 258.1C395.89 255.93 394.119 253.186 393.119 250.131L391.373 244.745L402.588 235.92L453.969 250.281L449.869 272.388Z" fill="#3F3D56"/>
</g>
<defs>
<clipPath id="clip0_793_14">
<rect width="900" height="580" fill="white"/>
</clipPath>
</defs>
</svg>
