<svg width="900" height="580" viewBox="0 0 900 580" fill="none" xmlns="http://www.w3.org/2000/svg">
<path d="M216.388 568.934C216.379 568.962 216.379 568.999 216.369 569.027H153.344C152.158 568.308 150.991 567.561 149.844 566.805C142.758 562.196 136.214 556.862 130.327 550.898C123.578 543.995 118.003 536.116 113.805 527.55C105.49 510.522 102.933 491.151 109.37 473.647C109.37 473.646 109.371 473.645 109.371 473.643C109.371 473.642 109.372 473.641 109.373 473.64C109.374 473.639 109.375 473.639 109.376 473.638C109.377 473.638 109.379 473.638 109.38 473.638C109.536 473.199 109.711 472.751 109.886 472.303C110.148 472.741 110.401 473.171 110.673 473.6L110.683 473.61C114.296 479.446 118.394 484.994 122.936 490.199V490.208C123.286 490.61 123.636 491.011 123.996 491.403C123.996 491.404 123.996 491.405 123.997 491.407C123.997 491.408 123.998 491.409 123.999 491.41C124 491.411 124.001 491.411 124.002 491.412C124.003 491.412 124.004 491.412 124.006 491.412C135.034 503.79 148.358 514.096 163.302 521.809C163.351 521.837 163.39 521.855 163.438 521.883C163.488 521.912 163.54 521.937 163.594 521.958C163.604 521.967 163.613 521.967 163.623 521.977C166.939 523.694 170.343 525.263 173.805 526.682V526.691C176.528 527.821 179.299 528.847 182.09 529.8C188.041 531.807 194.46 533.637 200.158 536.278C205.701 538.846 210.583 542.178 213.763 547.192C214.006 547.602 214.249 548.004 214.473 548.414L212.615 560.756L216.32 560.737L215.97 566.805L215.873 568.56L216.388 568.934Z" fill="#F0F0F0"/>
<path d="M200.828 569.027H199.496C199.369 568.28 199.243 567.543 199.097 566.806C198.719 564.787 198.206 562.795 197.56 560.84C197.269 559.963 196.938 559.104 196.559 558.254C194.41 553.419 190.714 549.171 185.249 547.752C183.658 547.347 182.023 547.124 180.377 547.089C177.12 546.958 173.813 547.36 170.575 547.528C169.778 547.565 168.97 547.593 168.193 547.584H168.173C163.962 547.651 159.785 546.842 155.93 545.213C151.169 543.024 146.834 540.069 143.113 536.475C140.678 534.237 138.364 531.881 136.179 529.417V529.408C135.888 529.1 135.606 528.782 135.324 528.456C130.175 522.516 125.675 516.084 121.894 509.262C119.967 505.814 118.236 502.267 116.711 498.638C116.691 498.606 116.675 498.571 116.662 498.536C113.25 490.534 110.803 482.183 109.369 473.647C109.369 473.646 109.369 473.645 109.37 473.644C109.37 473.643 109.371 473.641 109.372 473.641C109.373 473.64 109.374 473.639 109.375 473.639C109.376 473.638 109.378 473.638 109.379 473.638C109.301 473.255 109.243 472.863 109.184 472.48C109.058 471.687 110.371 471.65 110.487 472.443C110.546 472.835 110.604 473.209 110.672 473.601L110.682 473.61C112.062 481.783 114.377 489.786 117.586 497.471V497.481C117.752 497.873 117.917 498.256 118.082 498.638C122.647 509.267 128.896 519.155 136.607 527.952L136.617 527.97C136.695 528.064 136.782 528.148 136.87 528.241C136.874 528.245 136.876 528.249 136.878 528.254C136.88 528.259 136.88 528.264 136.88 528.269C136.889 528.26 136.889 528.269 136.889 528.269C138.688 530.313 140.575 532.274 142.539 534.178C146.172 537.863 150.385 540.975 155.026 543.402C158.9 545.307 163.188 546.311 167.541 546.333C167.979 546.333 168.416 546.342 168.854 546.333C169.204 546.333 169.554 546.324 169.904 546.305C173.201 546.156 176.546 545.754 179.862 545.81C181.37 545.838 182.873 545.988 184.355 546.258C186.789 546.759 189.085 547.748 191.092 549.161C193.1 550.573 194.774 552.378 196.005 554.455C197.241 556.462 198.227 558.602 198.941 560.831C199.184 561.559 199.389 562.297 199.593 563.043V563.053C199.904 564.248 200.176 565.461 200.41 566.684C200.421 566.724 200.427 566.765 200.429 566.806C200.575 567.543 200.701 568.29 200.828 569.027Z" fill="white"/>
<path d="M136.68 529.067C133.346 531.45 129.239 532.618 125.092 532.362C120.944 532.107 117.026 530.444 114.038 527.672C113.435 527.109 114.318 526.183 114.921 526.747C117.699 529.334 121.349 530.882 125.212 531.112C129.075 531.343 132.896 530.24 135.986 528.003C136.658 527.518 137.348 528.584 136.68 529.067Z" fill="white"/>
<path d="M167.488 546.717C168.793 538.658 166.886 530.422 162.147 523.653C161.677 522.983 162.785 522.318 163.255 522.987C168.173 530.04 170.139 538.614 168.762 546.998C168.63 547.797 167.357 547.512 167.488 546.717V546.717Z" fill="white"/>
<path d="M117.235 497.648C118.725 496.984 120.02 495.975 121.003 494.712C121.986 493.448 122.627 491.971 122.869 490.411C122.99 489.611 124.263 489.897 124.143 490.692C123.868 492.414 123.158 494.045 122.074 495.443C120.991 496.841 119.568 497.963 117.929 498.711C117.78 498.794 117.605 498.82 117.437 498.783C117.27 498.746 117.124 498.649 117.028 498.512C116.937 498.371 116.908 498.201 116.946 498.039C116.985 497.877 117.089 497.737 117.235 497.648H117.235Z" fill="white"/>
<path d="M225.899 527.961L225.364 532.694L216.855 532.573L215.571 541.105L215.348 542.571V542.58L214.472 548.415L212.615 560.756L216.32 560.738L215.97 566.806L215.873 568.561L216.388 568.934L216.505 569.028L216.544 569.056C216.437 569.261 216.32 569.466 216.203 569.681C216.271 569.457 216.32 569.252 216.369 569.028H191.746C191.289 568.29 190.842 567.553 190.404 566.806C186.605 560.457 183.255 553.87 180.378 547.089C180.203 546.669 180.019 546.249 179.863 545.82V545.81C177.305 539.606 175.279 533.212 173.805 526.691V526.682C173.006 523.111 172.399 519.503 171.986 515.872C170.932 506.487 171.421 497.002 173.435 487.763C173.451 487.717 173.464 487.67 173.474 487.623C177.354 469.988 186.816 453.688 201.801 443.363C202.424 442.915 203.066 442.495 203.717 442.084C203.727 442.075 203.727 442.075 203.737 442.075C203.738 442.075 203.739 442.075 203.74 442.074C203.742 442.074 203.743 442.073 203.743 442.072C203.744 442.071 203.745 442.07 203.746 442.069C203.746 442.068 203.746 442.067 203.746 442.066C204.155 441.814 204.553 441.562 204.962 441.31C204.903 441.814 204.835 442.318 204.787 442.822C204.001 449.565 203.793 456.36 204.164 463.136V463.154C204.174 463.677 204.203 464.2 204.242 464.732V464.751C205.302 481.032 209.493 496.984 216.602 511.801C216.614 511.84 216.63 511.878 216.651 511.913C216.67 511.96 216.69 511.997 216.709 512.044C219.368 517.556 222.44 522.875 225.899 527.961V527.961Z" fill="#F0F0F0"/>
<path d="M205.368 441.77C205.173 442.114 204.97 442.47 204.786 442.822C203.334 445.458 201.997 448.151 200.776 450.9C198.593 455.756 196.778 460.757 195.343 465.863C195.227 466.261 195.112 466.668 195.007 467.074C191.976 478.214 190.764 489.739 191.413 501.236C191.414 501.35 191.422 501.453 191.432 501.565C191.587 504.248 191.855 506.923 192.237 509.588C192.824 514.628 194.235 519.548 196.415 524.168C196.721 524.771 197.044 525.362 197.382 525.931C198.225 527.324 199.204 528.638 200.305 529.854C201.098 530.743 201.953 531.58 202.864 532.358C203.414 532.836 203.98 533.301 204.573 533.744C204.915 534 205.266 534.254 205.617 534.509C205.908 534.698 206.19 534.898 206.481 535.087C209.5 537.07 212.756 538.835 215.57 541.108L215.349 542.575C212.606 540.205 209.296 538.411 206.251 536.451C204.343 535.239 202.557 533.859 200.915 532.329C200.7 532.119 200.475 531.909 200.268 531.688C199.157 530.589 198.154 529.394 197.271 528.119C196.821 527.482 196.397 526.823 195.997 526.131C193.58 521.632 191.976 516.772 191.254 511.758C190.713 508.559 190.34 505.336 190.137 502.101C190.101 501.68 190.077 501.268 190.06 500.844C189.679 493.127 190.12 485.392 191.375 477.761C192.96 468.081 195.832 458.636 199.922 449.658C201.09 447.088 202.364 444.557 203.743 442.066C203.919 441.724 204.106 441.391 204.301 441.046C204.697 440.336 205.764 441.06 205.368 441.77Z" fill="white"/>
<path d="M190.757 502.118C186.601 502.094 182.589 500.653 179.438 498.051C176.287 495.45 174.201 491.858 173.554 487.917C173.426 487.119 174.711 486.891 174.84 487.689C175.435 491.361 177.378 494.706 180.318 497.123C183.258 499.539 187 500.868 190.871 500.868C191.712 500.869 191.594 502.119 190.757 502.118V502.118Z" fill="white"/>
<path d="M204.287 534.017C210.383 528.336 214.025 520.658 214.487 512.514C214.532 511.707 215.834 511.817 215.789 512.623C215.292 521.097 211.485 529.079 205.127 534.977C204.521 535.539 203.683 534.575 204.287 534.017H204.287Z" fill="white"/>
<path d="M194.939 465.791C196.545 466.122 198.212 466.065 199.789 465.625C201.366 465.185 202.805 464.375 203.976 463.269C204.575 462.7 205.412 463.665 204.817 464.23C203.517 465.446 201.927 466.338 200.186 466.828C198.444 467.318 196.604 467.392 194.826 467.041C194.656 467.022 194.499 466.941 194.389 466.815C194.278 466.689 194.222 466.527 194.231 466.362C194.247 466.197 194.331 466.044 194.463 465.937C194.596 465.83 194.767 465.778 194.939 465.791H194.939Z" fill="white"/>
<path d="M396.155 569.784C396.156 569.93 396.126 570.074 396.068 570.209C396.01 570.344 395.925 570.467 395.817 570.57C395.71 570.674 395.582 570.755 395.442 570.811C395.301 570.867 395.15 570.895 394.998 570.895H122.431C122.279 570.895 122.128 570.866 121.988 570.81C121.847 570.754 121.72 570.672 121.612 570.569C121.505 570.466 121.42 570.344 121.362 570.209C121.303 570.074 121.273 569.93 121.273 569.784C121.273 569.638 121.303 569.493 121.362 569.359C121.42 569.224 121.505 569.101 121.612 568.998C121.72 568.895 121.847 568.813 121.988 568.757C122.128 568.702 122.279 568.673 122.431 568.673H394.998C395.15 568.672 395.301 568.701 395.442 568.757C395.582 568.812 395.71 568.894 395.817 568.997C395.925 569.1 396.01 569.223 396.068 569.358C396.126 569.493 396.156 569.638 396.155 569.784V569.784Z" fill="#CCCCCC"/>
<path d="M741.445 112.546H565.222C564.466 112.547 563.718 112.405 563.02 112.128C562.322 111.852 561.687 111.445 561.153 110.933C560.618 110.42 560.194 109.812 559.905 109.142C559.616 108.472 559.467 107.754 559.467 107.029C559.467 106.304 559.616 105.586 559.905 104.916C560.194 104.246 560.618 103.638 561.153 103.125C561.687 102.613 562.322 102.206 563.02 101.93C563.718 101.653 564.466 101.511 565.222 101.512H741.445C742.2 101.511 742.949 101.653 743.647 101.93C744.345 102.206 744.979 102.613 745.514 103.125C746.048 103.638 746.472 104.246 746.762 104.916C747.051 105.586 747.2 106.304 747.2 107.029C747.2 107.754 747.051 108.472 746.762 109.142C746.472 109.812 746.048 110.42 745.514 110.933C744.979 111.445 744.345 111.852 743.647 112.128C742.949 112.405 742.2 112.547 741.445 112.546Z" fill="#8D8D92"/>
<path d="M741.444 134.349H565.221C563.698 134.347 562.237 133.765 561.161 132.73C560.085 131.696 559.48 130.293 559.48 128.831C559.48 127.369 560.085 125.967 561.161 124.932C562.237 123.898 563.698 123.315 565.221 123.313H741.444C742.967 123.315 744.427 123.898 745.503 124.932C746.58 125.967 747.184 127.369 747.184 128.831C747.184 130.293 746.58 131.696 745.503 132.73C744.427 133.765 742.967 134.347 741.444 134.349V134.349Z" fill="#8D8D92"/>
<path d="M641.609 156.149H565.221C563.698 156.148 562.237 155.565 561.161 154.531C560.085 153.496 559.48 152.094 559.48 150.632C559.48 149.17 560.085 147.767 561.161 146.733C562.237 145.698 563.698 145.116 565.221 145.114H641.609C642.365 145.113 643.113 145.255 643.811 145.532C644.509 145.809 645.144 146.215 645.678 146.728C646.213 147.24 646.637 147.849 646.926 148.519C647.215 149.189 647.364 149.907 647.364 150.632C647.364 151.357 647.215 152.075 646.926 152.745C646.637 153.415 646.213 154.023 645.678 154.536C645.144 155.048 644.509 155.455 643.811 155.731C643.113 156.008 642.365 156.15 641.609 156.149V156.149Z" fill="#8D8D92"/>
<path d="M741.443 236.535H565.22C563.696 236.535 562.234 235.953 561.156 234.919C560.078 233.884 559.473 232.481 559.473 231.017C559.473 229.554 560.078 228.151 561.156 227.116C562.234 226.081 563.696 225.5 565.22 225.5H741.443C742.968 225.5 744.429 226.081 745.507 227.116C746.585 228.151 747.191 229.554 747.191 231.017C747.191 232.481 746.585 233.884 745.507 234.919C744.429 235.953 742.968 236.535 741.443 236.535Z" fill="#E6E6E6"/>
<path d="M741.444 258.336H565.22C563.696 258.336 562.234 257.755 561.156 256.72C560.078 255.685 559.473 254.282 559.473 252.818C559.473 251.355 560.078 249.952 561.156 248.917C562.234 247.882 563.696 247.301 565.22 247.301H741.444C742.968 247.301 744.43 247.882 745.508 248.917C746.586 249.952 747.191 251.355 747.191 252.818C747.191 254.282 746.586 255.685 745.508 256.72C744.43 257.755 742.968 258.336 741.444 258.336V258.336Z" fill="#E6E6E6"/>
<path d="M641.609 280.137H565.22C563.696 280.137 562.234 279.555 561.156 278.521C560.078 277.486 559.473 276.082 559.473 274.619C559.473 273.156 560.078 271.752 561.156 270.718C562.234 269.683 563.696 269.102 565.22 269.102H641.609C642.364 269.101 643.112 269.243 643.811 269.52C644.509 269.796 645.143 270.203 645.678 270.715C646.212 271.228 646.636 271.836 646.926 272.506C647.215 273.176 647.364 273.894 647.364 274.619C647.364 275.344 647.215 276.062 646.926 276.732C646.636 277.402 646.212 278.011 645.678 278.523C645.143 279.036 644.509 279.442 643.811 279.719C643.112 279.996 642.364 280.138 641.609 280.137V280.137Z" fill="#E6E6E6"/>
<path d="M741.443 367.338H565.22C564.465 367.338 563.718 367.196 563.021 366.918C562.323 366.641 561.69 366.235 561.156 365.722C560.622 365.21 560.199 364.602 559.91 363.932C559.621 363.263 559.473 362.546 559.473 361.821C559.473 361.096 559.621 360.379 559.91 359.71C560.199 359.04 560.622 358.432 561.156 357.92C561.69 357.407 562.323 357.001 563.021 356.724C563.718 356.446 564.465 356.304 565.22 356.304H741.443C742.198 356.304 742.945 356.446 743.643 356.724C744.34 357.001 744.974 357.407 745.507 357.92C746.041 358.432 746.464 359.04 746.753 359.71C747.042 360.379 747.191 361.096 747.191 361.821C747.191 362.546 747.042 363.263 746.753 363.932C746.464 364.602 746.041 365.21 745.507 365.722C744.974 366.235 744.34 366.641 743.643 366.918C742.945 367.196 742.198 367.338 741.443 367.338V367.338Z" fill="#E6E6E6"/>
<path d="M741.444 389.14H565.221C563.698 389.138 562.237 388.556 561.161 387.521C560.085 386.487 559.48 385.084 559.48 383.622C559.48 382.16 560.085 380.758 561.161 379.723C562.237 378.689 563.698 378.106 565.221 378.104H741.444C742.967 378.106 744.427 378.689 745.503 379.723C746.58 380.758 747.184 382.16 747.184 383.622C747.184 385.084 746.58 386.487 745.503 387.521C744.427 388.556 742.967 389.138 741.444 389.14Z" fill="#E6E6E6"/>
<path d="M641.609 410.941H565.22C563.696 410.941 562.234 410.36 561.156 409.325C560.078 408.291 559.473 406.887 559.473 405.424C559.473 403.961 560.078 402.557 561.156 401.522C562.234 400.488 563.696 399.906 565.22 399.906H641.609C642.364 399.905 643.112 400.047 643.811 400.324C644.509 400.601 645.143 401.007 645.678 401.52C646.212 402.032 646.636 402.641 646.926 403.311C647.215 403.981 647.364 404.699 647.364 405.424C647.364 406.149 647.215 406.867 646.926 407.537C646.636 408.207 646.212 408.815 645.678 409.328C645.143 409.84 644.509 410.247 643.811 410.523C643.112 410.8 642.364 410.942 641.609 410.941V410.941Z" fill="#E6E6E6"/>
<path d="M494.918 296.521H388.828C385.984 296.517 383.259 295.432 381.248 293.502C379.238 291.572 378.107 288.955 378.104 286.226V219.412C378.107 216.683 379.238 214.066 381.248 212.136C383.259 210.206 385.984 209.12 388.828 209.117H494.918C497.761 209.12 500.487 210.206 502.497 212.136C504.508 214.066 505.639 216.683 505.642 219.412V286.226C505.639 288.955 504.508 291.572 502.497 293.502C500.487 295.432 497.761 296.517 494.918 296.521Z" fill="#E6E6E6"/>
<path d="M487.461 217.465H396.285C393.696 217.467 391.214 218.455 389.383 220.212C387.552 221.969 386.521 224.352 386.518 226.837V278.796C386.521 281.282 387.551 283.665 389.382 285.423C391.213 287.18 393.696 288.17 396.285 288.173H454.425C465.772 288.162 476.651 283.83 484.675 276.127C492.699 268.424 497.212 257.98 497.223 247.087V226.837C497.221 224.352 496.191 221.97 494.361 220.213C492.531 218.456 490.049 217.467 487.461 217.465V217.465Z" fill="white"/>
<path d="M461.694 235.032L461.422 235.504C463.847 229.766 461.642 222.695 457.315 218.368C452.989 214.041 446.974 212.063 441.051 211.278C436.654 210.696 432.091 210.713 427.91 212.259C421.856 214.498 417.231 219.68 413.369 225.072C411.602 227.538 409.866 230.349 410.042 233.432C410.205 236.292 411.974 238.719 413.422 241.146C414.871 243.573 416.08 246.584 415.041 249.233C414.421 250.811 413.112 251.948 412.05 253.239C410.987 254.53 410.113 256.275 410.627 257.895C410.854 258.515 411.246 259.068 411.763 259.499C412.279 259.93 412.904 260.225 413.575 260.355C414.875 260.563 416.204 260.533 417.492 260.266L451.251 255.37C453.545 255.037 455.721 254.177 457.594 252.862C459.467 251.547 460.981 249.817 462.006 247.82C463.032 245.822 463.54 243.616 463.485 241.389C463.431 239.163 462.817 236.982 461.694 235.032V235.032Z" fill="#2F2E41"/>
<path d="M436.584 255.143C445.699 255.143 453.089 248.049 453.089 239.298C453.089 230.547 445.699 223.453 436.584 223.453C427.468 223.453 420.078 230.547 420.078 239.298C420.078 248.049 427.468 255.143 436.584 255.143Z" fill="#FFB9B9"/>
<path d="M479.654 280.256C472.339 285.41 463.498 288.184 454.424 288.174H403.776C403.674 288.094 403.577 288.015 403.475 287.931L408.198 275.278C409.266 273.031 410.95 271.105 413.071 269.707C415.192 268.308 417.67 267.491 420.238 267.341L423.243 267.164L430.408 261.232C430.408 261.232 449.715 260.57 449.429 260.253L461.124 267.006L461.114 266.959L465.711 267.23C468.28 267.378 470.757 268.196 472.879 269.594C475 270.992 476.684 272.919 477.751 275.166L479.654 280.256Z" fill="#8D8D92"/>
<path d="M452.242 224.592C451.816 222.428 449.517 221.438 447.547 220.959C441.834 219.56 435.891 219.246 430.053 220.037C425.797 220.619 421.44 221.904 418.352 225.093C415.862 227.779 414.451 231.228 414.373 234.823C414.247 236.972 414.747 239.112 415.817 241.004C416.296 241.884 417.005 242.63 417.875 243.169C418.744 243.707 419.745 244.019 420.778 244.073L420.976 244.735C429.263 243.626 436.961 238.676 441.809 231.339C440.899 234.458 439.088 237.266 436.586 239.439C442.181 237.289 447.044 233.691 450.634 229.045C451.614 227.796 452.566 226.238 452.242 224.592Z" fill="#2F2E41"/>
<path d="M494.918 172.533H388.828C385.984 172.53 383.259 171.445 381.248 169.514C379.238 167.584 378.107 164.968 378.104 162.238V95.4249C378.107 92.6955 379.238 90.0787 381.248 88.1487C383.259 86.2186 385.984 85.133 388.828 85.1299H494.918C497.761 85.133 500.487 86.2186 502.497 88.1486C504.508 90.0787 505.639 92.6955 505.642 95.4249V162.238C505.639 164.968 504.508 167.584 502.497 169.514C500.487 171.445 497.761 172.53 494.918 172.533Z" fill="#CCCCCC"/>
<path d="M487.461 93.4785H396.285C393.696 93.4815 391.215 94.4697 389.384 96.2266C387.553 97.9834 386.522 100.365 386.518 102.851V154.81C386.521 157.296 387.551 159.679 389.382 161.436C391.213 163.194 393.696 164.183 396.285 164.187H454.425C465.773 164.178 476.653 159.846 484.678 152.143C492.702 144.44 497.214 133.994 497.223 123.1V102.851C497.221 100.366 496.191 97.9835 494.361 96.2264C492.531 94.4694 490.049 93.4811 487.461 93.4785V93.4785Z" fill="white"/>
<path d="M419.959 103.558C424.253 103.558 427.734 100.216 427.734 96.094C427.734 91.9717 424.253 88.6299 419.959 88.6299C415.665 88.6299 412.184 91.9717 412.184 96.094C412.184 100.216 415.665 103.558 419.959 103.558Z" fill="#2F2E41"/>
<path d="M432.398 131.922C443.277 131.922 452.095 123.457 452.095 113.013C452.095 102.57 443.277 94.1045 432.398 94.1045C421.52 94.1045 412.701 102.57 412.701 113.013C412.701 123.457 421.52 131.922 432.398 131.922Z" fill="#2F2E41"/>
<path d="M434.029 131.917C442.869 131.917 450.036 125.037 450.036 116.551C450.036 108.065 442.869 101.186 434.029 101.186C425.19 101.186 418.023 108.065 418.023 116.551C418.023 125.037 425.19 131.917 434.029 131.917Z" fill="#9E616A"/>
<path d="M444.898 100.888C442.093 99.2465 438.88 98.3585 435.596 98.317C432.311 98.2754 429.075 99.0817 426.226 100.652C423.377 102.222 421.02 104.497 419.401 107.241C417.782 109.985 416.961 113.096 417.023 116.249C425.179 118.215 433.747 119.719 442.445 116.719L444.499 111.893L445.71 116.723C448.358 117.762 451.014 118.641 453.67 116.713C453.778 113.569 453.025 110.452 451.486 107.675C449.946 104.898 447.675 102.558 444.898 100.888V100.888Z" fill="#2F2E41"/>
<path d="M412.72 75.831C409.99 74.7125 406.989 74.3497 404.055 74.7835C401.122 75.2173 398.373 76.4305 396.121 78.2859C393.918 80.1941 392.241 82.5959 391.239 85.2772C390.237 87.9585 389.942 90.8361 390.38 93.6534C391.262 99.3838 394.89 104.318 398.235 109.139C401.58 113.96 404.848 119.243 404.844 125.035C404.842 129.207 403.116 133.208 400.045 136.16C396.974 139.112 392.809 140.775 388.463 140.783C393.564 142.891 398.887 145.04 404.434 144.79C409.982 144.541 415.796 141.117 416.701 135.857C417.353 132.068 415.416 128.372 413.8 124.858C411.169 119.131 409.267 113.121 408.136 106.957C407.596 104.015 407.245 100.923 408.244 98.0938C409.04 95.9975 410.516 94.202 412.455 92.9723C414.394 91.7426 416.694 91.1436 419.015 91.2637L420.847 89.6807C421.161 86.8475 420.547 83.9907 419.09 81.5083C417.634 79.0259 415.407 77.0414 412.72 75.831V75.831Z" fill="#2F2E41"/>
<path d="M476.369 158.361C469.742 162.183 462.156 164.197 454.425 164.187H399.558L399.471 164.117L404.194 151.459C405.262 149.212 406.947 147.287 409.068 145.889C411.189 144.492 413.666 143.675 416.234 143.527L419.239 143.35L426.404 137.417C426.404 137.417 445.711 136.751 445.425 136.434L457.12 143.187L457.11 143.145L461.707 143.415C464.276 143.562 466.754 144.378 468.875 145.775C470.996 147.173 472.681 149.099 473.747 151.347L476.369 158.361Z" fill="#8D8D92"/>
<path d="M494.918 427.325H388.828C385.984 427.322 383.259 426.237 381.248 424.306C379.238 422.376 378.107 419.76 378.104 417.03V350.217C378.107 347.487 379.238 344.871 381.248 342.941C383.259 341.011 385.984 339.925 388.828 339.922H494.918C497.761 339.925 500.487 341.011 502.497 342.941C504.508 344.871 505.639 347.487 505.642 350.217V417.03C505.639 419.76 504.508 422.376 502.497 424.306C500.487 426.237 497.761 427.322 494.918 427.325Z" fill="#E6E6E6"/>
<path d="M487.46 348.27H396.285C393.696 348.272 391.214 349.26 389.383 351.017C387.552 352.774 386.521 355.156 386.518 357.642V409.601C386.521 412.087 387.551 414.47 389.382 416.227C391.213 417.985 393.696 418.974 396.285 418.978H454.425C465.772 418.967 476.652 414.635 484.675 406.932C492.699 399.229 497.212 388.785 497.223 377.891V357.642C497.221 355.157 496.191 352.774 494.361 351.017C492.531 349.26 490.049 348.272 487.46 348.27V348.27Z" fill="white"/>
<path d="M441.791 381.323C453.919 381.323 463.751 371.885 463.751 360.241C463.751 348.598 453.919 339.159 441.791 339.159C429.662 339.159 419.83 348.598 419.83 360.241C419.83 371.885 429.662 381.323 441.791 381.323Z" fill="#2F2E41"/>
<path d="M441.802 384.093C452.637 384.093 461.42 375.661 461.42 365.259C461.42 354.858 452.637 346.426 441.802 346.426C430.967 346.426 422.184 354.858 422.184 365.259C422.184 375.661 430.967 384.093 441.802 384.093Z" fill="#FFB8B8"/>
<path d="M481.041 410.045C473.482 415.837 464.095 418.988 454.423 418.979H405.498L410.139 406.55C411.207 404.302 412.891 402.376 415.012 400.978C417.133 399.58 419.611 398.762 422.179 398.613L425.184 398.436L432.349 392.503C432.349 392.503 451.656 391.841 451.37 391.524L463.065 398.277L463.055 398.231L467.652 398.501C470.221 398.65 472.698 399.467 474.819 400.865C476.941 402.264 478.625 404.19 479.692 406.438L481.041 410.045Z" fill="#8D8D92"/>
<path d="M462.499 358.654C462.636 357.248 462.7 355.836 462.688 354.424C462.768 351.631 462.235 348.853 461.123 346.27C459.756 343.411 457.318 341.15 454.295 339.937C451.297 338.777 447.948 338.78 444.953 339.945C442.318 338.204 439.264 337.137 436.08 336.844C434.485 336.721 432.883 336.97 431.41 337.571C429.937 338.171 428.637 339.104 427.621 340.29C427.186 340.945 426.691 341.562 426.143 342.134C424.576 343.527 422.194 343.326 420.111 343.041C421.045 343.81 421.98 344.579 422.914 345.348C421.783 345.631 420.652 345.915 419.521 346.199C420.841 346.967 422.161 347.736 423.481 348.504C419.649 350.712 417.907 355.531 418.367 359.908C418.802 364.052 420.886 367.842 423.378 371.21C424.371 369.196 424.157 366.787 424.141 364.52C424.132 363.784 424.179 363.049 424.281 362.32C432.7 364.258 441.497 365.501 450.418 362.424L452.209 358.218C452.46 358.242 452.711 358.266 452.963 358.291L454 362.428C456.351 363.351 458.708 364.157 461.065 363.31C461.18 363.949 461.249 364.601 461.302 365.227C461.504 364.478 461.68 363.723 461.838 362.964C462.15 362.804 462.448 362.621 462.731 362.417C462.788 361.158 462.71 359.898 462.499 358.654V358.654Z" fill="#2F2E41"/>
<path d="M791.437 28.3943H333.858C333.178 28.3936 332.527 28.1342 332.046 27.6729C331.566 27.2116 331.296 26.5862 331.295 25.9338V11.4605C331.296 10.8082 331.566 10.1827 332.046 9.72145C332.527 9.26017 333.178 9.00071 333.858 9H791.437C792.116 9.00071 792.768 9.26017 793.248 9.72145C793.729 10.1827 793.999 10.8082 794 11.4605V25.9338C793.999 26.5862 793.729 27.2116 793.248 27.6729C792.768 28.1342 792.116 28.3936 791.437 28.3943V28.3943Z" fill="#E4E4E4"/>
<path d="M346.168 21.4846C348.178 21.4846 349.807 19.9206 349.807 17.9913C349.807 16.0621 348.178 14.498 346.168 14.498C344.158 14.498 342.529 16.0621 342.529 17.9913C342.529 19.9206 344.158 21.4846 346.168 21.4846Z" fill="white"/>
<path d="M359.981 21.4846C361.99 21.4846 363.62 19.9206 363.62 17.9913C363.62 16.0621 361.99 14.498 359.981 14.498C357.971 14.498 356.342 16.0621 356.342 17.9913C356.342 19.9206 357.971 21.4846 359.981 21.4846Z" fill="white"/>
<path d="M373.793 21.4846C375.803 21.4846 377.432 19.9206 377.432 17.9913C377.432 16.0621 375.803 14.498 373.793 14.498C371.784 14.498 370.154 16.0621 370.154 17.9913C370.154 19.9206 371.784 21.4846 373.793 21.4846Z" fill="white"/>
<path d="M777.904 15.5872H761.998C761.686 15.5872 761.386 15.4681 761.165 15.256C760.944 15.0438 760.82 14.7562 760.82 14.4562C760.82 14.1562 760.944 13.8686 761.165 13.6565C761.386 13.4444 761.686 13.3252 761.998 13.3252H777.904C778.216 13.3252 778.516 13.4444 778.737 13.6565C778.958 13.8686 779.082 14.1562 779.082 14.4562C779.082 14.7562 778.958 15.0438 778.737 15.256C778.516 15.4681 778.216 15.5872 777.904 15.5872V15.5872Z" fill="white"/>
<path d="M777.904 19.8284H761.998C761.844 19.8284 761.691 19.7992 761.548 19.7423C761.405 19.6855 761.275 19.6022 761.165 19.4972C761.056 19.3921 760.969 19.2675 760.91 19.1302C760.851 18.993 760.82 18.8459 760.82 18.6974C760.82 18.5489 760.851 18.4018 760.91 18.2646C760.969 18.1274 761.056 18.0027 761.165 17.8977C761.275 17.7926 761.405 17.7093 761.548 17.6525C761.691 17.5957 761.844 17.5664 761.998 17.5664H777.904C778.058 17.5664 778.211 17.5957 778.354 17.6525C778.497 17.7093 778.627 17.7926 778.737 17.8977C778.846 18.0027 778.933 18.1274 778.992 18.2646C779.051 18.4018 779.082 18.5489 779.082 18.6974C779.082 18.8459 779.051 18.993 778.992 19.1302C778.933 19.2675 778.846 19.3921 778.737 19.4972C778.627 19.6022 778.497 19.6855 778.354 19.7423C778.211 19.7992 778.058 19.8284 777.904 19.8284V19.8284Z" fill="white"/>
<path d="M777.904 24.0697H761.998C761.686 24.0697 761.386 23.9505 761.165 23.7384C760.944 23.5263 760.82 23.2386 760.82 22.9386C760.82 22.6387 760.944 22.351 761.165 22.1389C761.386 21.9268 761.686 21.8076 761.998 21.8076H777.904C778.216 21.8076 778.516 21.9268 778.737 22.1389C778.958 22.351 779.082 22.6387 779.082 22.9386C779.082 23.2386 778.958 23.5263 778.737 23.7384C778.516 23.9505 778.216 24.0697 777.904 24.0697V24.0697Z" fill="white"/>
<path d="M698.026 157.652C701.661 157.652 704.607 154.823 704.607 151.334C704.607 147.845 701.661 145.017 698.026 145.017C694.392 145.017 691.445 147.845 691.445 151.334C691.445 154.823 694.392 157.652 698.026 157.652Z" fill="#8D8D92"/>
<path d="M719.397 157.652C723.032 157.652 725.978 154.823 725.978 151.334C725.978 147.845 723.032 145.017 719.397 145.017C715.763 145.017 712.816 147.845 712.816 151.334C712.816 154.823 715.763 157.652 719.397 157.652Z" fill="#8D8D92"/>
<path d="M740.766 157.652C744.401 157.652 747.347 154.823 747.347 151.334C747.347 147.845 744.401 145.017 740.766 145.017C737.132 145.017 734.186 147.845 734.186 151.334C734.186 154.823 737.132 157.652 740.766 157.652Z" fill="#8D8D92"/>
<path d="M698.026 280.746C701.661 280.746 704.607 277.918 704.607 274.429C704.607 270.94 701.661 268.111 698.026 268.111C694.392 268.111 691.445 270.94 691.445 274.429C691.445 277.918 694.392 280.746 698.026 280.746Z" fill="#E6E6E6"/>
<path d="M719.397 280.746C723.032 280.746 725.978 277.918 725.978 274.429C725.978 270.94 723.032 268.111 719.397 268.111C715.763 268.111 712.816 270.94 712.816 274.429C712.816 277.918 715.763 280.746 719.397 280.746Z" fill="#E6E6E6"/>
<path d="M740.766 280.746C744.401 280.746 747.347 277.918 747.347 274.429C747.347 270.94 744.401 268.111 740.766 268.111C737.132 268.111 734.186 270.94 734.186 274.429C734.186 277.918 737.132 280.746 740.766 280.746Z" fill="#E6E6E6"/>
<path d="M698.026 411.783C701.661 411.783 704.607 408.954 704.607 405.465C704.607 401.976 701.661 399.147 698.026 399.147C694.392 399.147 691.445 401.976 691.445 405.465C691.445 408.954 694.392 411.783 698.026 411.783Z" fill="#E6E6E6"/>
<path d="M719.397 411.783C723.032 411.783 725.978 408.954 725.978 405.465C725.978 401.976 723.032 399.147 719.397 399.147C715.763 399.147 712.816 401.976 712.816 405.465C712.816 408.954 715.763 411.783 719.397 411.783Z" fill="#E6E6E6"/>
<path d="M740.766 411.783C744.401 411.783 747.347 408.954 747.347 405.465C747.347 401.976 744.401 399.147 740.766 399.147C737.132 399.147 734.186 401.976 734.186 405.465C734.186 408.954 737.132 411.783 740.766 411.783Z" fill="#E6E6E6"/>
<path d="M510.713 156.785L476.792 136.167C476.144 135.774 475.398 135.555 474.632 135.534C473.866 135.513 473.107 135.691 472.438 136.049C471.768 136.406 471.211 136.931 470.825 137.567C470.439 138.203 470.239 138.927 470.246 139.663L470.58 175.214C470.589 176.158 470.938 177.071 471.568 177.797C472.198 178.523 473.07 179.018 474.037 179.197C475.003 179.376 476.004 179.228 476.87 178.779C477.737 178.33 478.414 177.607 478.789 176.733L483.202 166.427L495.507 189.717C496.092 190.819 497.108 191.653 498.333 192.037C499.558 192.42 500.891 192.321 502.04 191.762C503.189 191.202 504.059 190.228 504.461 189.053C504.862 187.878 504.761 186.598 504.18 185.494L491.595 161.675L507.724 164.281C508.695 164.438 509.693 164.268 510.548 163.799C511.403 163.33 512.062 162.591 512.415 161.708C512.767 160.825 512.79 159.852 512.479 158.955C512.169 158.058 511.545 157.291 510.713 156.785V156.785Z" fill="#3F3D56"/>
<path d="M207.639 378.131C208.463 377.27 209.081 376.247 209.448 375.132C209.815 374.017 209.924 372.839 209.765 371.68C209.607 370.52 209.186 369.409 208.531 368.423C207.877 367.437 207.005 366.6 205.978 365.973L212.805 338.32L198.356 343.388L194.088 368.87C193.104 370.597 192.814 372.611 193.273 374.529C193.732 376.447 194.908 378.137 196.579 379.279C198.249 380.42 200.298 380.934 202.336 380.722C204.375 380.511 206.261 379.589 207.639 378.131V378.131Z" fill="#FFB8B8"/>
<path d="M242.387 262.254L236.588 276.569C236.588 276.569 239.074 290.883 234.931 294.064C230.789 297.245 232.446 297.245 232.446 299.631C232.304 301.342 231.787 303.006 230.931 304.513C230.075 306.02 228.897 307.337 227.476 308.379C224.162 310.765 209.251 359.276 209.251 359.276H194.34C194.821 355.579 194.821 351.839 194.34 348.142C193.511 342.575 196.825 328.26 198.482 325.875C200.139 323.489 198.482 320.308 198.482 315.536C198.482 310.765 201.795 308.379 201.795 300.426C201.795 292.474 211.736 230.443 210.908 223.286C210.079 216.129 219.192 209.767 219.192 209.767H227.476L242.387 262.254Z" fill="#E6E6E6"/>
<path d="M212.126 552.303H222.859L227.967 512.559H212.125L212.126 552.303Z" fill="#FFB6B6"/>
<path d="M208.623 545.246L225.771 544.264V551.317L242.074 562.126C242.88 562.66 243.486 563.427 243.805 564.315C244.124 565.203 244.14 566.165 243.848 567.062C243.557 567.959 242.975 568.743 242.187 569.3C241.398 569.857 240.445 570.157 239.467 570.157H219.051L215.532 563.18L214.158 570.157H206.461L208.623 545.246Z" fill="#2F2E41"/>
<path d="M272.417 552.303H283.15L288.258 512.559H272.416L272.417 552.303Z" fill="#FFB6B6"/>
<path d="M268.916 545.246L286.064 544.264V551.317L302.367 562.126C303.173 562.66 303.779 563.427 304.098 564.315C304.417 565.203 304.432 566.165 304.141 567.062C303.85 567.959 303.268 568.743 302.48 569.3C301.691 569.857 300.738 570.157 299.76 570.157H279.344L275.825 563.18L274.451 570.157H266.754L268.916 545.246Z" fill="#2F2E41"/>
<path d="M207.495 518.03H207.612L213.566 453.407C212.23 450.933 211.552 448.181 211.592 445.395C211.632 442.609 212.39 439.876 213.797 437.439L214.092 436.925L213.326 433.515C212.342 429.134 212.793 424.568 214.619 420.443L212.655 360.162C205.775 317.358 238.563 289.442 238.563 289.442H287.679L298.224 324.222C302.183 361.252 314.564 400.201 312.924 436.099C311.677 463.407 297.647 487.916 292.868 514.51L293.17 514.657C294.256 515.016 294.721 516.461 294.21 517.882C293.699 519.304 292.404 520.165 291.319 519.805L265.379 518.939C264.293 518.579 263.828 517.135 264.339 515.713C264.85 514.292 266.145 513.431 267.23 513.791L268.994 514.647L281.764 449.488L282.182 438.097L281.322 425.175L260.814 369.853L245.765 441.328L230.392 518.749C230.816 519.118 231.113 519.601 231.245 520.135C231.377 520.67 231.337 521.23 231.131 521.742C230.924 522.254 230.561 522.694 230.088 523.003C229.616 523.313 229.057 523.478 228.485 523.476H207.495C207.122 523.476 206.753 523.406 206.409 523.269C206.065 523.132 205.752 522.932 205.489 522.679C205.226 522.426 205.017 522.126 204.874 521.795C204.732 521.465 204.658 521.111 204.658 520.753C204.658 520.396 204.732 520.041 204.874 519.711C205.017 519.381 205.226 519.08 205.489 518.828C205.752 518.575 206.065 518.374 206.409 518.237C206.753 518.1 207.122 518.03 207.495 518.03V518.03Z" fill="#2F2E41"/>
<path d="M203.424 318.514C201.811 318.514 200.895 318.211 200.54 317.56C200.02 316.604 200.923 315.356 201.969 313.91C202.744 312.966 203.356 311.908 203.781 310.777C204.406 308.376 208.627 247.719 206.102 235.599C205.518 232.795 206.021 229.201 207.596 224.916C211.898 213.214 217.771 209.617 229.47 202.453C230.42 201.872 231.409 201.264 232.437 200.631C233.767 199.81 233.693 197.09 233.615 194.209C233.528 191.007 233.437 187.696 235.071 185.627L235.178 185.492L235.349 185.453C239.301 184.576 252.593 182.948 260.465 185.465L260.573 185.501L260.655 185.578C262.524 187.373 262.695 190.851 262.86 194.213C262.994 196.973 263.122 199.58 264.18 200.712C272.268 209.366 281.441 209.198 281.534 209.196L281.988 209.183L282.033 209.617C285.551 243.969 291.223 295.818 292.428 297.859C292.491 297.952 292.526 298.06 292.529 298.172C292.533 298.283 292.505 298.393 292.448 298.49C290.678 301.663 209.501 318.514 203.424 318.514Z" fill="#E6E6E6"/>
<path d="M256.251 175.729C269.499 175.729 280.239 165.419 280.239 152.701C280.239 139.983 269.499 129.673 256.251 129.673C243.003 129.673 232.264 139.983 232.264 152.701C232.264 165.419 243.003 175.729 256.251 175.729Z" fill="#FFB8B8"/>
<path d="M190.354 142.42C194.41 137.88 196.338 131.856 199.581 126.7C202.823 121.544 208.465 116.93 214.426 118.129C218.535 118.957 221.71 122.437 223.318 126.318C224.925 130.198 225.226 134.478 225.508 138.67C225.409 130.055 231.321 121.702 239.466 118.953C247.611 116.204 257.358 119.271 262.476 126.192C264.71 124.205 267.625 123.074 270.669 123.012C273.714 122.951 276.676 123.964 278.995 125.859C283.572 129.787 284.585 137.263 281.219 142.273C279.528 144.711 276.969 146.472 274.022 147.227C271.074 147.981 267.941 147.677 265.211 146.371L263.319 148.041C263.809 149.827 263.63 151.721 262.813 153.392C261.995 155.063 260.592 156.406 258.848 157.185C256.034 158.276 252.061 158.094 251.007 160.93C250.271 162.911 251.647 165.026 253.11 166.548C254.573 168.07 256.311 169.642 256.486 171.749C256.752 174.928 253.33 177.155 250.22 177.825C246.407 178.557 242.452 178.18 238.864 176.742C235.275 175.304 232.215 172.871 230.075 169.754C229.992 169.631 229.901 169.509 229.803 169.386C227.378 166.408 225.61 162.987 224.609 159.332C223.607 155.677 223.392 151.864 223.977 148.126C224.221 146.657 223.976 145.565 222.921 145.217C218.362 143.714 205.589 146.869 201.724 149.721C197.858 152.572 194.763 156.346 191.039 159.382C187.316 162.417 182.571 164.759 177.843 163.932C174.057 163.27 170.836 160.631 168.669 157.448C166.626 154.154 165.099 150.589 164.139 146.867C172.511 151.511 183.971 149.567 190.354 142.42Z" fill="#2F2E41"/>
<path d="M294.707 378.131C293.883 377.27 293.265 376.247 292.898 375.132C292.531 374.017 292.422 372.839 292.581 371.68C292.739 370.52 293.16 369.409 293.815 368.423C294.469 367.437 295.341 366.6 296.368 365.973L289.541 338.32L303.99 343.388L308.258 368.87C309.242 370.597 309.532 372.611 309.073 374.529C308.613 376.447 307.437 378.137 305.767 379.279C304.097 380.42 302.048 380.934 300.01 380.722C297.971 380.511 296.084 379.589 294.707 378.131H294.707Z" fill="#FFB8B8"/>
<path d="M259.961 262.254L265.76 276.569C265.76 276.569 263.275 290.883 267.417 294.064C271.559 297.245 269.902 297.245 269.902 299.631C270.044 301.342 270.561 303.006 271.417 304.513C272.273 306.02 273.451 307.337 274.872 308.379C278.186 310.765 293.097 359.276 293.097 359.276H308.008C307.527 355.579 307.527 351.839 308.008 348.142C308.837 342.575 305.523 328.26 303.866 325.875C302.21 323.489 303.866 320.308 303.866 315.536C303.866 310.765 300.553 308.379 300.553 300.426C300.553 292.474 290.612 230.443 291.44 223.286C292.269 216.129 283.156 209.767 283.156 209.767H274.872L259.961 262.254Z" fill="#E6E6E6"/>
</svg>
