<svg width="900" height="580" viewBox="0 0 900 580" fill="none" xmlns="http://www.w3.org/2000/svg">
<path d="M696.103 335.671C688.762 338.377 675.868 340.601 660.945 342.389C620.369 347.258 564.765 348.986 564.765 348.986C564.765 348.986 278.923 372.693 64.6905 284.523C64.6905 284.523 33.5298 268.188 62.4363 246.202C66.8875 242.917 71.6196 240.03 76.5777 237.576L76.9309 237.223C80.2189 234.184 83.7722 231.445 87.5482 229.04C98.6465 221.864 117.386 213.358 140.199 217.213L702.866 308.215C702.866 308.215 723.416 325.58 696.103 335.671Z" fill="#3F3D56"/>
<path d="M583.992 294.426L701.782 210.854L753.697 219.834L702.864 308.214C702.864 308.214 585.345 309.153 583.992 294.426Z" fill="#3F3D56"/>
<path d="M287.445 243.654L522.071 177.854L559.889 185.758L453.904 233.435L420.782 270.494L287.445 243.654Z" fill="#3F3D56"/>
<path d="M660.945 342.388C620.369 347.258 564.765 348.986 564.765 348.986C564.765 348.986 278.923 372.693 64.6905 284.523C64.6905 284.523 33.5298 268.187 62.4363 246.201L62.534 246.607C62.534 246.607 108.76 277.85 329.628 303.932L660.945 342.388Z" fill="#8D8D92"/>
<path d="M623.233 340.586L728.129 383.416L754.481 380.493L691.738 333.334C691.738 333.334 615.846 317.142 623.233 340.586Z" fill="#3F3D56"/>
<path d="M100.57 251.183C95.566 251.266 84.0996 242.872 76.9688 237.222C80.2567 234.183 83.81 231.445 87.5861 229.039C93.3343 233.45 103.561 240.588 109.249 240.31C117.462 239.972 108.107 251.048 100.57 251.183Z" fill="#8D8D92"/>
<path d="M577.118 488.634L509.77 492.158L320.416 364.48L285.265 340.773L268.193 329.254C300.226 302.203 430.917 339.51 430.917 339.51C433.42 341.622 434.216 345.131 434.103 349.008C433.886 356.267 430.474 364.788 429.159 367.853C428.844 368.605 428.648 369.003 428.648 369.003L577.118 488.634Z" fill="#3F3D56"/>
<path d="M355.32 422.435L343.635 429.829L350.714 416.957C348.709 415.358 346.229 414.472 343.665 414.44H343.478C342.667 414.456 341.857 414.395 341.058 414.259L337.106 416.769L338.796 413.688C335.996 412.706 333.577 410.865 331.883 408.429L324.813 412.937L329.276 404.807C325.143 399.84 319.568 396.797 313.429 396.797C306.073 396.797 299.52 401.17 295.29 407.993C294.036 410.036 292.262 411.71 290.15 412.845C288.039 413.98 285.664 414.536 283.268 414.455H282.877C274.754 414.455 268.172 423.66 268.172 435.021C268.172 446.382 274.754 455.587 282.877 455.587C284.662 455.581 286.418 455.14 287.994 454.302C290.759 452.96 293.783 452.234 296.856 452.175C299.93 452.115 302.979 452.723 305.795 453.956C308.176 455.019 310.754 455.568 313.361 455.568C315.969 455.568 318.547 455.019 320.928 453.956C323.72 452.746 326.74 452.15 329.782 452.208C332.825 452.267 335.82 452.978 338.563 454.294C340.13 455.112 341.869 455.542 343.635 455.549C351.758 455.549 358.34 446.344 358.34 434.983C358.399 430.614 357.36 426.299 355.32 422.435Z" fill="#F2F2F2"/>
<path opacity="0.03" d="M333.339 452.528C329.096 451.726 324.71 452.202 320.738 453.896C318.359 454.961 315.782 455.512 313.175 455.512C310.569 455.512 307.992 454.961 305.613 453.896C302.798 452.659 299.748 452.05 296.674 452.109C293.6 452.169 290.576 452.897 287.812 454.242C286.232 455.077 284.474 455.518 282.687 455.526C275.474 455.526 269.47 448.253 268.223 438.665C269.666 437.617 270.891 436.297 271.829 434.78C276.06 427.965 282.612 423.592 289.968 423.592C297.325 423.592 303.809 427.875 308.032 434.637C309.292 436.676 311.058 438.354 313.158 439.508C315.258 440.663 317.621 441.255 320.017 441.227H320.205C325.946 441.212 330.92 445.811 333.339 452.528Z" fill="black"/>
<path d="M685.187 412.667L673.503 420.061L680.581 407.189C678.576 405.59 676.096 404.705 673.533 404.672H673.345C672.534 404.688 671.724 404.628 670.925 404.492L666.973 407.002L668.664 403.921C665.863 402.938 663.445 401.098 661.751 398.661L654.68 403.169L659.143 395.039C655.011 390.072 649.435 387.029 643.296 387.029C635.94 387.029 629.388 391.402 625.157 398.225C623.903 400.268 622.129 401.943 620.018 403.078C617.906 404.213 615.531 404.768 613.135 404.687H612.744C604.621 404.687 598.039 413.892 598.039 425.253C598.039 436.614 604.621 445.819 612.744 445.819C614.529 445.813 616.285 445.372 617.861 444.534C620.627 443.193 623.65 442.467 626.724 442.407C629.797 442.348 632.846 442.955 635.662 444.189C638.043 445.251 640.621 445.8 643.229 445.8C645.836 445.8 648.414 445.251 650.795 444.189C653.587 442.978 656.607 442.382 659.65 442.441C662.692 442.499 665.687 443.21 668.431 444.527C669.997 445.344 671.736 445.774 673.503 445.782C681.625 445.782 688.208 436.577 688.208 425.216C688.266 420.846 687.227 416.532 685.187 412.667V412.667Z" fill="#F2F2F2"/>
<path opacity="0.03" d="M663.207 442.761C658.963 441.958 654.578 442.434 650.605 444.128C648.226 445.194 645.649 445.744 643.043 445.744C640.436 445.744 637.859 445.194 635.48 444.128C632.665 442.892 629.615 442.282 626.541 442.342C623.467 442.401 620.443 443.129 617.679 444.474C616.1 445.31 614.341 445.751 612.554 445.759C605.341 445.759 599.337 438.485 598.09 428.897C599.533 427.849 600.758 426.53 601.697 425.013C605.927 418.197 612.479 413.824 619.835 413.824C627.192 413.824 633.676 418.107 637.899 424.87C639.163 426.914 640.934 428.595 643.042 429.75C645.149 430.905 647.519 431.494 649.922 431.46H650.11C655.813 431.445 660.787 436.043 663.207 442.761Z" fill="black"/>
<path d="M685.187 166.206L673.503 173.6L680.581 160.729C678.576 159.129 676.096 158.244 673.533 158.211H673.345C672.534 158.227 671.724 158.167 670.925 158.031L666.973 160.541L668.664 157.46C665.863 156.477 663.445 154.637 661.751 152.2L654.68 156.709L659.143 148.578C655.011 143.612 649.435 140.568 643.296 140.568C635.94 140.568 629.388 144.942 625.157 151.764C623.903 153.807 622.129 155.482 620.018 156.617C617.906 157.752 615.531 158.307 613.135 158.226H612.744C604.621 158.226 598.039 167.431 598.039 178.792C598.039 190.154 604.621 199.358 612.744 199.358C614.529 199.353 616.285 198.912 617.861 198.073C620.627 196.732 623.65 196.006 626.724 195.946C629.797 195.887 632.846 196.494 635.662 197.728C638.04 198.796 640.617 199.352 643.224 199.358C645.832 199.365 648.411 198.822 650.795 197.765C653.587 196.555 656.607 195.959 659.65 196.017C662.692 196.076 665.687 196.787 668.431 198.103C669.997 198.921 671.736 199.351 673.503 199.358C681.625 199.358 688.208 190.154 688.208 178.792C688.272 174.41 687.234 170.082 685.187 166.206V166.206Z" fill="#F2F2F2"/>
<path opacity="0.03" d="M663.207 196.301C658.963 195.498 654.578 195.974 650.605 197.668C648.226 198.734 645.649 199.284 643.043 199.284C640.436 199.284 637.859 198.734 635.48 197.668C632.665 196.432 629.615 195.822 626.541 195.882C623.467 195.941 620.443 196.669 617.679 198.014C616.1 198.85 614.341 199.291 612.554 199.299C605.341 199.299 599.337 192.025 598.09 182.437C599.533 181.389 600.758 180.07 601.697 178.553C605.927 171.737 612.479 167.364 619.835 167.364C627.192 167.364 633.676 171.647 637.899 178.41C639.163 180.454 640.934 182.135 643.042 183.29C645.149 184.445 647.519 185.034 649.922 185H650.11C655.813 184.985 660.787 189.583 663.207 196.301Z" fill="black"/>
<path d="M202.77 139.614L196.946 143.303L200.478 136.886C199.48 136.084 198.242 135.639 196.961 135.624H196.871C196.466 135.628 196.061 135.598 195.661 135.534L193.693 136.781L194.534 135.278C193.137 134.789 191.93 133.871 191.085 132.656L187.561 134.91L189.815 130.86C188.878 129.647 187.682 128.66 186.315 127.968C184.947 127.277 183.443 126.899 181.911 126.862C178.244 126.862 174.975 129.041 172.894 132.445C172.267 133.467 171.381 134.304 170.324 134.87C169.268 135.437 168.08 135.712 166.883 135.669H166.687C162.637 135.669 159.354 140.267 159.354 145.933C159.354 151.599 162.637 156.19 166.687 156.19C167.578 156.187 168.455 155.968 169.242 155.551C170.621 154.879 172.13 154.516 173.664 154.486C175.197 154.457 176.719 154.761 178.124 155.378C179.306 155.904 180.586 156.175 181.881 156.175C183.175 156.175 184.455 155.904 185.638 155.378C187.031 154.774 188.538 154.476 190.056 154.506C191.574 154.536 193.068 154.892 194.437 155.551C195.217 155.955 196.082 156.169 196.961 156.175C201.011 156.175 204.295 151.584 204.295 145.918C204.323 143.722 203.799 141.554 202.77 139.614Z" fill="#F2F2F2"/>
<path opacity="0.03" d="M191.807 154.628C189.689 154.223 187.499 154.461 185.518 155.312C184.334 155.835 183.055 156.106 181.761 156.108C180.452 156.108 179.159 155.829 177.966 155.289C176.561 154.675 175.039 154.373 173.506 154.404C171.972 154.435 170.464 154.799 169.085 155.47C168.3 155.886 167.426 156.106 166.537 156.108C162.938 156.108 159.94 152.479 159.316 147.7C160.034 147.174 160.646 146.516 161.12 145.762C163.224 142.358 166.492 140.179 170.137 140.179C173.781 140.179 177.035 142.335 179.153 145.694C179.785 146.715 180.671 147.555 181.725 148.131C182.779 148.706 183.964 148.998 185.165 148.978H185.262C188.095 148.978 190.597 151.277 191.807 154.628Z" fill="black"/>
<path d="M721.236 507.05L715.413 510.74L718.945 504.323C717.947 503.52 716.708 503.076 715.428 503.06H715.338C714.933 503.064 714.528 503.034 714.128 502.97L712.159 504.217L713.001 502.715C711.604 502.225 710.397 501.307 709.552 500.092L706.028 502.346L708.282 498.296C707.345 497.084 706.149 496.096 704.781 495.405C703.414 494.713 701.909 494.335 700.377 494.299C696.711 494.299 693.442 496.478 691.361 499.882C690.734 500.904 689.847 501.74 688.791 502.307C687.735 502.873 686.547 503.149 685.349 503.105H685.154C681.104 503.105 677.82 507.704 677.82 513.369C677.82 519.035 681.104 523.626 685.154 523.626C686.045 523.623 686.921 523.404 687.709 522.987C689.088 522.316 690.597 521.953 692.131 521.923C693.664 521.893 695.186 522.197 696.59 522.815C697.773 523.34 699.053 523.612 700.347 523.612C701.642 523.612 702.922 523.34 704.104 522.815C705.498 522.21 707.004 521.913 708.523 521.943C710.041 521.973 711.535 522.329 712.903 522.987C713.684 523.391 714.549 523.605 715.428 523.611C719.478 523.611 722.762 519.02 722.762 513.354C722.79 511.158 722.266 508.99 721.236 507.05V507.05Z" fill="#F2F2F2"/>
<path opacity="0.03" d="M710.274 522.064C708.156 521.658 705.966 521.896 703.985 522.748C702.801 523.27 701.522 523.541 700.228 523.544C698.919 523.544 697.625 523.264 696.433 522.725C695.028 522.11 693.506 521.808 691.972 521.839C690.439 521.87 688.931 522.234 687.551 522.905C686.767 523.322 685.893 523.541 685.004 523.544C681.405 523.544 678.407 519.915 677.783 515.136C678.501 514.609 679.113 513.951 679.587 513.197C681.69 509.793 684.959 507.614 688.603 507.614C692.248 507.614 695.501 509.771 697.62 513.13C698.252 514.151 699.138 514.991 700.192 515.566C701.246 516.142 702.431 516.434 703.631 516.413H703.729C706.562 516.413 709.064 518.712 710.274 522.064Z" fill="black"/>
<path d="M180.227 526.586L174.403 530.276L177.935 523.859C176.937 523.057 175.699 522.612 174.418 522.596H174.328C173.923 522.6 173.518 522.57 173.118 522.506L171.15 523.753L171.991 522.251C170.594 521.761 169.387 520.844 168.542 519.628L165.018 521.882L167.272 517.832C166.335 516.62 165.139 515.632 163.772 514.941C162.404 514.249 160.9 513.871 159.368 513.835C155.701 513.835 152.432 516.014 150.351 519.418C149.724 520.44 148.838 521.277 147.781 521.843C146.725 522.409 145.537 522.685 144.34 522.641H144.144C140.094 522.641 136.811 527.24 136.811 532.906C136.811 538.571 140.094 543.162 144.144 543.162C145.035 543.159 145.912 542.94 146.699 542.524C148.078 541.852 149.587 541.489 151.121 541.459C152.654 541.429 154.176 541.733 155.581 542.351C156.763 542.876 158.043 543.148 159.338 543.148C160.632 543.148 161.912 542.876 163.095 542.351C164.488 541.746 165.995 541.449 167.513 541.479C169.031 541.509 170.525 541.865 171.894 542.524C172.674 542.928 173.539 543.141 174.418 543.147C178.468 543.147 181.752 538.556 181.752 532.891C181.781 530.694 181.256 528.526 180.227 526.586V526.586Z" fill="#F2F2F2"/>
<path opacity="0.03" d="M169.264 541.601C167.147 541.195 164.956 541.433 162.975 542.285C161.791 542.807 160.512 543.079 159.218 543.081C157.909 543.081 156.616 542.802 155.423 542.262C154.018 541.647 152.496 541.345 150.963 541.376C149.429 541.408 147.921 541.771 146.542 542.442C145.757 542.859 144.883 543.078 143.994 543.081C140.395 543.081 137.397 539.452 136.773 534.673C137.491 534.146 138.103 533.488 138.577 532.734C140.681 529.33 143.949 527.151 147.594 527.151C151.238 527.151 154.492 529.308 156.611 532.667C157.242 533.688 158.128 534.528 159.182 535.103C160.236 535.679 161.421 535.971 162.622 535.95H162.719C165.552 535.95 168.054 538.25 169.264 541.601Z" fill="black"/>
<path d="M449.245 63.2639L437.561 70.6577L444.639 57.7862C442.635 56.187 440.155 55.3013 437.591 55.2689H437.403C436.593 55.2848 435.783 55.2244 434.984 55.0886L431.031 57.5983L432.722 54.5175C429.922 53.5347 427.503 51.6942 425.809 49.2577L418.739 53.7661L423.202 45.6359C419.069 40.6692 413.494 37.626 407.355 37.626C399.998 37.626 393.446 41.9991 389.216 48.8219C387.961 50.865 386.188 52.5393 384.076 53.6744C381.964 54.8095 379.59 55.3649 377.193 55.284H376.803C368.68 55.284 362.098 64.4887 362.098 75.8499C362.098 87.2111 368.68 96.4158 376.803 96.4158C378.587 96.4102 380.344 95.9691 381.92 95.1309C384.685 93.7893 387.709 93.0636 390.782 93.0039C393.855 92.9443 396.905 93.552 399.72 94.7853C402.099 95.8538 404.676 96.4094 407.283 96.4158C409.89 96.4223 412.47 95.8795 414.854 94.8229C417.646 93.6127 420.666 93.0166 423.708 93.0749C426.751 93.1333 429.745 93.8447 432.489 95.161C434.055 95.9783 435.795 96.4086 437.561 96.4158C445.684 96.4158 452.266 87.2111 452.266 75.8499C452.331 71.4676 451.292 67.1394 449.245 63.2639V63.2639Z" fill="#F2F2F2"/>
<path opacity="0.03" d="M427.267 93.3575C423.024 92.5547 418.638 93.0306 414.666 94.725C412.287 95.7902 409.71 96.3408 407.103 96.3408C404.497 96.3408 401.919 95.7902 399.54 94.725C396.726 93.4883 393.676 92.8786 390.602 92.9383C387.528 92.998 384.504 93.7256 381.739 95.0707C380.16 95.9064 378.402 96.3472 376.615 96.3556C369.401 96.3556 363.398 89.082 362.15 79.4941C363.594 78.4459 364.819 77.1264 365.757 75.6093C369.988 68.7941 376.54 64.4209 383.896 64.4209C391.252 64.4209 397.737 68.7039 401.96 75.4665C403.223 77.5103 404.995 79.1917 407.102 80.3467C409.209 81.5016 411.58 82.0907 413.982 82.0564H414.17C419.873 82.0413 424.848 86.6399 427.267 93.3575Z" fill="black"/>
<path d="M847.475 192.212L841.651 195.902L845.183 189.485C844.185 188.683 842.947 188.238 841.666 188.222H841.576C841.171 188.226 840.766 188.196 840.366 188.132L838.398 189.379L839.239 187.877C837.842 187.387 836.635 186.47 835.79 185.254L832.266 187.508L834.521 183.458C833.583 182.246 832.387 181.258 831.02 180.567C829.652 179.875 828.148 179.497 826.616 179.461C822.949 179.461 819.68 181.64 817.599 185.044C816.972 186.066 816.086 186.903 815.029 187.469C813.973 188.035 812.785 188.311 811.588 188.267H811.392C807.342 188.267 804.059 192.866 804.059 198.532C804.059 204.197 807.342 208.788 811.392 208.788C812.283 208.785 813.16 208.566 813.947 208.15C815.326 207.478 816.835 207.115 818.369 207.085C819.903 207.055 821.424 207.359 822.829 207.977C824.011 208.502 825.291 208.774 826.586 208.774C827.88 208.774 829.16 208.502 830.343 207.977C831.736 207.372 833.243 207.075 834.761 207.105C836.279 207.135 837.773 207.491 839.142 208.15C839.922 208.554 840.787 208.767 841.666 208.773C845.716 208.773 849 204.182 849 198.517C849.029 196.32 848.504 194.152 847.475 192.212V192.212Z" fill="#F2F2F2"/>
<path opacity="0.03" d="M836.512 207.226C834.394 206.82 832.203 207.058 830.222 207.91C829.039 208.432 827.759 208.704 826.465 208.706C825.169 208.7 823.889 208.421 822.708 207.887C821.303 207.273 819.781 206.97 818.248 207.001C816.714 207.033 815.206 207.396 813.827 208.067C813.042 208.484 812.168 208.703 811.28 208.706C807.68 208.706 804.682 205.077 804.059 200.298C804.777 199.771 805.388 199.113 805.862 198.359C807.966 194.955 811.235 192.776 814.879 192.776C818.523 192.776 821.777 194.933 823.896 198.292C824.524 199.308 825.404 200.144 826.451 200.719C827.497 201.294 828.675 201.589 829.869 201.575H829.967C832.8 201.575 835.302 203.875 836.512 207.226Z" fill="black"/>
</svg>
