<svg width="900" height="580" viewBox="0 0 900 580" fill="none" xmlns="http://www.w3.org/2000/svg">
<path d="M265.97 323.935C260.309 293.636 269.222 259.167 293.994 240.827C292.59 274.316 303.077 307.223 323.599 333.724C331.551 343.916 341.456 354.424 341.149 367.347C340.957 375.389 336.609 382.88 330.878 388.523C325.147 394.167 318.087 398.236 311.112 402.241L310.026 403.93C289.578 380.867 271.631 354.233 265.97 323.935Z" fill="#F0F0F0"/>
<path d="M294.447 241.29C284.039 264.583 281.235 290.563 286.433 315.54C287.457 320.937 289.325 326.139 291.968 330.954C294.695 335.562 298.606 339.355 303.294 341.94C307.617 344.438 312.329 346.492 315.969 349.998C317.806 351.82 319.237 354.009 320.168 356.423C321.1 358.837 321.51 361.42 321.373 364.004C321.199 370.45 318.718 376.45 316.089 382.232C313.17 388.653 310.036 395.275 310.225 402.494C310.248 403.368 308.889 403.353 308.867 402.479C308.537 389.921 317.617 379.835 319.64 367.784C320.584 362.161 319.839 356.22 315.886 351.861C312.429 348.05 307.572 345.927 303.173 343.435C298.563 340.981 294.623 337.435 291.699 333.106C288.819 328.441 286.753 323.32 285.592 317.962C282.783 305.941 281.883 293.554 282.922 281.253C284.031 267.208 287.535 253.456 293.281 240.592C293.637 239.796 294.8 240.499 294.446 241.29L294.447 241.29Z" fill="white"/>
<path d="M284.285 307.596C279.976 307.899 275.7 306.661 272.219 304.102C268.739 301.543 266.282 297.831 265.286 293.628C265.087 292.776 266.401 292.428 266.6 293.28C267.52 297.196 269.809 300.654 273.055 303.03C276.301 305.406 280.289 306.544 284.299 306.238C285.171 306.172 285.152 307.531 284.285 307.596V307.596Z" fill="white"/>
<path d="M300.935 340.962C306.784 334.347 309.926 325.771 309.733 316.942C309.713 316.068 311.071 316.083 311.091 316.957C311.275 326.144 307.987 335.063 301.885 341.933C301.303 342.587 300.356 341.613 300.935 340.962V340.962Z" fill="white"/>
<path d="M285.622 268.051C287.314 268.281 289.036 268.088 290.634 267.487C292.233 266.887 293.657 265.9 294.779 264.613C295.353 263.952 296.299 264.927 295.73 265.584C294.483 266.999 292.909 268.088 291.144 268.755C289.38 269.422 287.479 269.647 285.608 269.41C285.429 269.402 285.261 269.327 285.136 269.199C285.011 269.072 284.939 268.902 284.936 268.723C284.938 268.543 285.012 268.372 285.141 268.246C285.269 268.12 285.442 268.05 285.622 268.051H285.622Z" fill="white"/>
<path d="M395.3 265.889C394.954 266.312 394.607 266.735 394.264 267.17C389.637 272.884 385.481 278.964 381.839 285.351C381.55 285.841 381.264 286.341 380.989 286.838C372.377 302.319 366.715 319.264 364.29 336.813C363.331 343.797 362.905 350.843 363.016 357.892C363.169 367.626 364.109 378.168 361.125 387.121C360.824 388.058 360.466 388.976 360.052 389.869L312.171 405.124C312.045 405.104 311.921 405.096 311.795 405.076L309.911 405.772C309.88 405.409 309.855 405.032 309.824 404.669C309.805 404.458 309.797 404.244 309.778 404.034C309.769 403.892 309.76 403.751 309.744 403.623C309.74 403.576 309.738 403.529 309.738 403.493C309.722 403.366 309.72 403.246 309.707 403.13C309.565 401.021 309.433 398.909 309.323 396.79C309.32 396.779 309.32 396.779 309.327 396.765C308.505 380.626 309.024 364.276 312.007 348.525C312.097 348.051 312.183 347.566 312.295 347.086C313.679 339.993 315.64 333.026 318.16 326.253C319.551 322.549 321.129 318.917 322.888 315.373C327.449 306.223 333.422 297.847 340.586 290.553C354.87 276.015 373.645 266.206 393.763 265.897C394.277 265.89 394.782 265.885 395.3 265.889Z" fill="#F0F0F0"/>
<path d="M395.387 266.531C373.053 278.862 355.172 297.918 344.285 320.991C341.853 325.916 340.213 331.194 339.424 336.63C338.827 341.951 339.666 347.334 341.853 352.22C343.801 356.818 346.326 361.295 347.122 366.285C347.492 368.846 347.316 371.456 346.606 373.944C345.897 376.432 344.669 378.742 343.004 380.722C338.984 385.764 333.391 389.061 327.81 392.095C321.614 395.464 315.124 398.865 310.929 404.742C310.421 405.454 309.346 404.624 309.853 403.913C317.152 393.687 330.474 391.1 339.344 382.697C343.483 378.776 346.466 373.583 345.934 367.723C345.468 362.598 342.869 357.979 340.856 353.342C338.653 348.606 337.642 343.403 337.913 338.186C338.422 332.728 339.857 327.395 342.155 322.418C347.15 311.129 353.889 300.696 362.125 291.5C371.467 280.954 382.543 272.083 394.876 265.271C395.64 264.85 396.145 266.112 395.387 266.531V266.531Z" fill="white"/>
<path d="M347.353 313.355C343.73 311.003 341.061 307.44 339.823 303.301C338.585 299.163 338.858 294.719 340.593 290.763C340.947 289.964 342.206 290.477 341.851 291.277C340.228 294.957 339.974 299.097 341.135 302.948C342.296 306.799 344.796 310.109 348.182 312.279C348.918 312.752 348.084 313.825 347.353 313.355H347.353Z" fill="white"/>
<path d="M340.558 350.019C349.211 348.259 356.883 343.302 362.044 336.137C362.555 335.427 363.63 336.257 363.12 336.967C357.735 344.413 349.741 349.555 340.732 351.366C339.873 351.538 339.703 350.19 340.558 350.019V350.019Z" fill="white"/>
<path d="M372.228 282.585C373.44 283.787 374.932 284.67 376.569 285.153C378.207 285.636 379.939 285.705 381.609 285.353C382.465 285.171 382.634 286.519 381.784 286.701C379.936 287.08 378.024 287.002 376.213 286.472C374.403 285.942 372.75 284.977 371.398 283.661C371.261 283.548 371.171 283.386 371.148 283.209C371.125 283.032 371.171 282.853 371.275 282.709C371.386 282.567 371.548 282.474 371.726 282.451C371.904 282.428 372.085 282.476 372.228 282.585V282.585Z" fill="white"/>
<path d="M470.509 100.206C470.67 100.911 470.774 101.627 470.822 102.349L526.96 134.735L540.606 126.88L555.152 145.923L532.347 162.177C530.505 163.49 528.287 164.17 526.025 164.115C523.763 164.06 521.58 163.273 519.804 161.872L461.916 116.203C459.303 117.17 456.458 117.319 453.759 116.63C451.06 115.94 448.635 114.446 446.806 112.344C444.977 110.243 443.831 107.635 443.521 104.866C443.211 102.098 443.751 99.3006 445.069 96.8465C446.387 94.3924 448.421 92.3979 450.901 91.1281C453.38 89.8583 456.188 89.3735 458.949 89.7382C461.711 90.1028 464.296 91.2997 466.361 93.1695C468.426 95.0393 469.873 97.4935 470.509 100.206V100.206Z" fill="#FFB6B6"/>
<path d="M527.741 131.159C527.919 130.333 528.273 129.555 528.779 128.879C529.285 128.202 529.931 127.642 530.673 127.238L556.592 113.117C560.043 110.512 564.387 109.382 568.67 109.975C572.953 110.568 576.827 112.835 579.441 116.28C582.055 119.724 583.196 124.065 582.614 128.35C582.032 132.635 579.775 136.514 576.337 139.137L555.564 160.24C554.971 160.842 554.256 161.309 553.466 161.61C552.676 161.911 551.831 162.038 550.987 161.982C550.144 161.927 549.323 161.69 548.579 161.289C547.836 160.887 547.187 160.33 546.678 159.655L528.794 135.942C528.284 135.268 527.927 134.491 527.745 133.666C527.563 132.84 527.562 131.986 527.741 131.159V131.159Z" fill="#3F3D56"/>
<path d="M574.043 49.0619C577.772 37.1774 586.252 26.2774 597.98 22.2597C609.708 18.2422 626.882 24.3623 635.699 33.1496C651.827 49.2234 655.763 104.443 644.682 121.893C642.478 121.776 634.873 121.69 632.642 121.606L629.487 111.089V121.502C612.075 120.964 593.948 121.301 575.812 121.65C574.186 109.295 570.314 60.9463 574.043 49.0619Z" fill="#2F2E41"/>
<path d="M569.054 547.91H553.174L545.619 486.655L569.057 486.656L569.054 547.91Z" fill="#FFB6B6"/>
<path d="M708.074 538.035L692.707 542.04L669.945 484.671L692.626 478.761L708.074 538.035Z" fill="#FFB6B6"/>
<path d="M620.559 171.691L624.158 181.047L623.438 190.402L553.014 214.794L556.508 173.85L564.424 164.493L620.559 171.691Z" fill="#FFB6B6"/>
<path d="M598.291 87.4979C612.183 87.4979 623.444 76.2366 623.444 62.3452C623.444 48.4537 612.183 37.1924 598.291 37.1924C584.4 37.1924 573.139 48.4537 573.139 62.3452C573.139 76.2366 584.4 87.4979 598.291 87.4979Z" fill="#FFB7B7"/>
<path d="M581.01 29.5911C585.843 26.6448 591.379 25.051 597.038 24.9764C602.698 24.9018 608.274 26.3491 613.183 29.167C618.092 31.9849 622.154 36.0699 624.944 40.9949C627.733 45.9199 629.149 51.5039 629.042 57.1632C615.331 60.6675 600.72 62.1332 585.237 58.0072L581.697 49.3449L579.611 58.0136C574.874 61.3457 570.302 61.3397 565.895 57.9956C565.708 52.3523 567.005 46.7588 569.658 41.7742C572.31 36.7897 576.225 32.5887 581.01 29.5911Z" fill="#2F2E41"/>
<path d="M576.157 578.065H564.889L562.877 567.426L557.726 578.065H527.838C526.405 578.065 525.01 577.607 523.856 576.758C522.702 575.909 521.85 574.713 521.424 573.346C520.997 571.978 521.019 570.51 521.486 569.155C521.954 567.801 522.841 566.632 524.02 565.818L547.888 549.334V538.578L572.992 540.076L576.157 578.065Z" fill="#2F2E41"/>
<path d="M723.948 565.059L713.043 567.901L708.413 558.114L706.112 569.708L677.191 577.247C675.805 577.608 674.339 577.517 673.008 576.987C671.677 576.456 670.551 575.514 669.793 574.298C669.036 573.082 668.687 571.656 668.797 570.228C668.908 568.799 669.472 567.444 670.407 566.359L689.345 544.388L686.632 533.98L711.303 529.098L723.948 565.059Z" fill="#2F2E41"/>
<path d="M706.125 499.514L659.575 403.84L644.962 287.392C655.037 268.68 636.326 230.606 636.326 230.606V214.62L563.842 228.294V228.295C549.017 268.73 541.828 311.567 542.64 354.627L545.561 509.419H544.645C543.124 509.419 541.666 510.023 540.591 511.098C539.516 512.173 538.912 513.631 538.912 515.151C538.912 516.672 539.516 518.13 540.591 519.205C541.666 520.28 543.124 520.884 544.645 520.884H573.308C574.828 520.884 576.286 520.28 577.361 519.205C578.436 518.13 579.04 516.672 579.04 515.151C579.04 513.631 578.436 512.173 577.361 511.098C576.286 510.023 574.828 509.419 573.308 509.419H572.569L593.145 312.496L617.071 409.672L674.89 499.146C673.415 499.261 672.042 499.943 671.059 501.049C670.077 502.155 669.561 503.598 669.62 505.076C669.68 506.554 670.309 507.952 671.378 508.976C672.446 509.999 673.869 510.569 675.348 510.565H704.011C705.344 510.566 706.636 510.103 707.664 509.254C708.692 508.405 709.391 507.224 709.642 505.914C709.892 504.605 709.678 503.249 709.036 502.081C708.394 500.912 707.365 500.005 706.125 499.514H706.125Z" fill="#2F2E41"/>
<path d="M642.879 240.406H642.879C642.64 239.47 642.112 238.634 641.37 238.017C640.627 237.4 639.708 237.034 638.745 236.972C637.79 226.049 631.477 155.995 631.237 153.939L631.227 153.853L629.4 114.805C629.333 113.386 628.747 112.042 627.752 111.029C626.758 110.016 625.425 109.405 624.008 109.312L614.353 108.681C614.221 108.677 614.095 108.621 614.003 108.526C613.911 108.431 613.86 108.303 613.86 108.171C613.86 107.105 613.65 106.049 613.242 105.064C612.834 104.079 612.236 103.184 611.482 102.43C610.728 101.676 609.833 101.078 608.848 100.67C607.863 100.262 606.807 100.052 605.741 100.052H577.157C575.305 100.053 573.518 100.729 572.13 101.954C570.742 103.179 569.848 104.869 569.618 106.706C569.605 106.832 569.545 106.949 569.45 107.034C569.355 107.118 569.231 107.163 569.104 107.16L569.101 107.16C565.853 107.093 562.688 108.193 560.182 110.259C557.675 112.326 555.993 115.223 555.439 118.424C551.531 141.161 543.7 192.764 547.572 221.453C548.92 231.44 548.307 246.46 547.797 254.816C547.747 255.624 547.856 256.433 548.119 257.199C548.382 257.964 548.793 258.67 549.329 259.276C548.189 259.604 547.221 260.363 546.629 261.391C546.038 262.419 545.868 263.637 546.157 264.788H546.157C546.455 265.967 547.208 266.98 548.252 267.604C549.297 268.228 550.546 268.411 551.725 268.114L639.553 245.973C640.732 245.676 641.745 244.923 642.369 243.878C642.992 242.834 643.176 241.585 642.879 240.406V240.406Z" fill="#3F3D56"/>
<path d="M497.724 404.568C497.708 402.004 496.784 399.528 495.117 397.581C493.449 395.633 491.146 394.338 488.615 393.927L332.901 368.357C331.407 368.109 329.879 368.177 328.414 368.556L291.921 377.992L270.983 383.412L232.342 393.401C230.009 394.007 227.944 395.37 226.469 397.276C224.994 399.182 224.194 401.524 224.193 403.934V567.1C224.205 569.587 225.065 571.997 226.63 573.93C228.196 575.863 230.374 577.204 232.804 577.732L391.41 575.936C392.155 576.096 392.915 576.175 393.676 576.172C394.786 576.174 395.89 576.006 396.948 575.673L491.18 578.018C493.404 577.324 495.345 575.932 496.715 574.048C498.085 572.163 498.811 569.888 498.785 567.558L497.724 404.568Z" fill="white"/>
<path d="M497.724 404.568C497.708 402.004 496.784 399.528 495.117 397.581C493.449 395.633 491.146 394.338 488.615 393.927L332.901 368.357C331.407 368.109 329.879 368.177 328.414 368.556L291.921 377.992L270.983 383.412L232.342 393.401C230.009 394.007 227.944 395.37 226.469 397.276C224.994 399.182 224.194 401.524 224.193 403.934V567.1C224.205 569.587 225.065 571.997 226.63 573.93C228.196 575.863 230.374 577.204 232.804 577.732L391.41 575.936C392.155 576.096 392.915 576.175 393.676 576.172C394.786 576.174 395.89 576.006 396.948 575.673L491.18 578.018C493.404 577.324 495.345 575.932 496.715 574.048C498.085 572.163 498.811 569.888 498.785 567.558L497.724 404.568ZM490.364 575.426L396.133 577.667C394.788 578.086 393.359 578.155 391.981 577.867L233.366 575.077C231.544 574.679 229.911 573.672 228.738 572.222C227.565 570.772 226.921 568.965 226.913 567.1V403.934C226.914 402.263 227.427 400.633 228.383 399.264C229.34 397.894 230.693 396.851 232.261 396.274C232.509 396.181 232.764 396.102 233.022 396.039L273.902 385.47L298.076 379.216L329.094 371.194C329.759 371.016 330.445 370.928 331.133 370.931C331.576 370.931 332.019 370.967 332.456 371.04L488.171 396.61C489.424 396.815 490.612 397.31 491.641 398.054C492.669 398.798 493.511 399.772 494.099 400.897C494.687 402.038 494.997 403.302 495.005 404.586L496.066 567.576C496.085 569.324 495.541 571.031 494.514 572.445C493.487 573.859 492.032 574.904 490.364 575.426V575.426Z" fill="#CCCCCC"/>
<path d="M494.099 400.896C493.993 400.966 493.877 401.018 493.754 401.05L447.953 413.432L433.695 417.284L393.142 428.243C393.026 428.271 392.907 428.287 392.788 428.288C392.706 428.287 392.625 428.281 392.543 428.27L229.025 398.458L228.481 398.358C228.127 398.292 227.813 398.088 227.609 397.791C227.405 397.494 227.327 397.128 227.391 396.773C227.456 396.419 227.658 396.104 227.954 395.898C228.25 395.693 228.616 395.612 228.971 395.675L232.261 396.273L392.734 425.533L427.685 416.088L447.237 410.803L492.331 398.612L493.047 398.422C493.357 398.34 493.685 398.37 493.975 398.506C494.265 398.641 494.498 398.875 494.634 399.165C494.669 399.234 494.696 399.307 494.715 399.382C494.79 399.667 494.77 399.969 494.659 400.242C494.548 400.515 494.351 400.744 494.099 400.896Z" fill="#CCCCCC"/>
<path d="M394.147 576.489C393.402 576.489 392.794 575.888 392.787 579.727L391.428 431.527C391.421 426.191 392.024 425.576 392.775 425.569H392.787C393.533 425.569 394.14 426.169 394.147 431.503L395.507 579.703C395.514 575.867 394.91 576.481 394.159 576.489H394.147Z" fill="#CCCCCC"/>
<path d="M448.338 578.209L433.694 578.364L427.685 416.089L274.345 385.579C274.195 385.552 274.047 385.516 273.901 385.47C272.723 385.135 271.694 384.409 270.982 383.413L291.921 377.992L298.075 379.216L443.574 408.158C444.339 408.309 445.063 408.624 445.695 409.081C446.327 409.537 446.853 410.126 447.236 410.805C447.689 411.593 448.329 577.267 448.338 578.209Z" fill="#CCCCCC"/>
<path d="M565.63 107.551C565.618 105.619 564.921 103.753 563.665 102.285C562.408 100.817 560.672 99.8413 558.764 99.5312L441.41 80.2602C440.285 80.0739 439.133 80.1251 438.028 80.4105L410.526 87.5219L394.745 91.6069L365.624 99.135C363.866 99.5916 362.309 100.619 361.198 102.055C360.086 103.492 359.483 105.257 359.482 107.073V203.257C359.491 205.132 360.139 206.948 361.319 208.404C362.499 209.861 364.14 210.872 365.972 211.27L485.506 236.703C486.067 236.824 486.64 236.883 487.214 236.881C488.05 236.882 488.882 236.756 489.68 236.505L560.698 214.078C562.374 213.555 563.837 212.506 564.869 211.086C565.901 209.665 566.449 207.95 566.429 206.195L565.63 107.551Z" fill="white"/>
<path d="M440.08 87.3223C439.995 87.3222 439.909 87.3332 439.826 87.355L367.421 106.08C367.202 106.136 367.007 106.265 366.868 106.444C366.73 106.623 366.654 106.844 366.654 107.07V203.253C366.655 203.487 366.736 203.714 366.883 203.896C367.031 204.079 367.236 204.205 367.465 204.255L486.998 229.687C487.171 229.723 487.351 229.715 487.52 229.662L558.539 207.235C558.748 207.17 558.931 207.039 559.06 206.861C559.188 206.684 559.256 206.47 559.254 206.251L558.458 107.607C558.456 107.366 558.369 107.133 558.212 106.95C558.055 106.766 557.838 106.645 557.6 106.606L440.246 87.3356C440.191 87.3269 440.136 87.3224 440.08 87.3223V87.3223Z" fill="#3F3D56"/>
<path d="M565.63 107.551C565.618 105.619 564.921 103.753 563.665 102.285C562.408 100.817 560.672 99.8413 558.764 99.5312L441.41 80.2602C440.285 80.0739 439.133 80.1251 438.028 80.4105L410.526 87.5219L394.745 91.6069L365.624 99.135C363.866 99.5916 362.309 100.619 361.198 102.055C360.086 103.492 359.483 105.257 359.482 107.073V203.257C359.491 205.132 360.139 206.948 361.319 208.404C362.499 209.861 364.14 210.872 365.972 211.27L485.506 236.703C486.067 236.824 486.64 236.883 487.214 236.881C488.05 236.882 488.882 236.756 489.68 236.505L560.698 214.078C562.374 213.555 563.837 212.506 564.869 211.086C565.901 209.665 566.449 207.95 566.429 206.195L565.63 107.551ZM560.083 212.124L489.065 234.551C488.052 234.867 486.975 234.919 485.936 234.702L366.396 209.269C365.022 208.969 363.792 208.211 362.907 207.118C362.023 206.025 361.538 204.663 361.532 203.257V107.073C361.533 105.814 361.92 104.586 362.64 103.554C363.361 102.521 364.381 101.735 365.562 101.301C365.75 101.23 365.941 101.171 366.136 101.123L396.945 93.1577L415.164 88.4441L438.541 82.3984C439.042 82.2646 439.559 82.198 440.078 82.2003C440.412 82.2001 440.746 82.2276 441.075 82.2822L558.43 101.553C559.374 101.708 560.269 102.081 561.045 102.642C561.82 103.203 562.455 103.936 562.897 104.785C563.341 105.645 563.575 106.597 563.581 107.565L564.38 206.209C564.395 207.525 563.985 208.812 563.211 209.878C562.437 210.943 561.34 211.731 560.083 212.124V212.124Z" fill="#3F3D56"/>
<path d="M562.898 104.784C562.818 104.836 562.73 104.875 562.638 104.9L528.12 114.231L517.374 117.135L486.811 125.394C486.724 125.415 486.634 125.427 486.544 125.428C486.483 125.427 486.421 125.422 486.36 125.414L363.124 102.946L362.714 102.871C362.447 102.821 362.21 102.667 362.056 102.443C361.902 102.219 361.843 101.944 361.892 101.676C361.94 101.409 362.093 101.172 362.316 101.017C362.54 100.862 362.815 100.801 363.083 100.849L365.563 101.3L486.504 123.351L512.845 116.233L527.58 112.25L561.566 103.062L562.105 102.919C562.339 102.857 562.586 102.88 562.805 102.982C563.023 103.084 563.199 103.26 563.301 103.479C563.327 103.531 563.348 103.586 563.362 103.643C563.418 103.858 563.404 104.085 563.32 104.291C563.236 104.496 563.088 104.669 562.898 104.784Z" fill="#3F3D56"/>
<path d="M487.569 237.12C487.299 237.12 487.04 237.013 486.848 236.823C486.656 236.633 486.547 236.374 486.544 236.104L485.52 124.413C485.517 124.141 485.623 123.88 485.813 123.686C486.004 123.492 486.263 123.381 486.535 123.379H486.544C486.814 123.379 487.074 123.486 487.266 123.676C487.457 123.866 487.566 124.124 487.569 124.394L488.594 236.086C488.596 236.357 488.49 236.619 488.3 236.813C488.11 237.007 487.85 237.117 487.578 237.12H487.569Z" fill="#3F3D56"/>
<path d="M528.118 223.531L517.373 226.435L512.843 116.232L397.279 93.2382C397.165 93.2182 397.054 93.1908 396.944 93.1563C396.056 92.9035 395.281 92.3567 394.744 91.6055L410.524 87.5205L415.163 88.4427L524.819 110.255C525.395 110.369 525.94 110.606 526.417 110.95C526.893 111.295 527.289 111.738 527.578 112.25C527.92 112.844 528.111 222.821 528.118 223.531Z" fill="#3F3D56"/>
<path d="M523.305 160.699C523.855 161.169 524.366 161.682 524.835 162.232L589.208 154.714L595.469 140.268L618.506 146.866L609.908 173.518C609.214 175.671 607.839 177.541 605.992 178.847C604.144 180.152 601.923 180.823 599.661 180.759L525.957 178.664C524.438 180.999 522.244 182.816 519.667 183.874C517.09 184.932 514.252 185.18 511.53 184.585C508.809 183.991 506.333 182.582 504.432 180.545C502.53 178.509 501.294 175.943 500.887 173.187C500.48 170.431 500.922 167.617 502.154 165.118C503.386 162.619 505.349 160.555 507.782 159.199C510.216 157.844 513.005 157.261 515.778 157.529C518.55 157.797 521.176 158.903 523.305 160.699V160.699Z" fill="#FFB6B6"/>
<path d="M587.7 151.379C587.35 150.61 587.17 149.775 587.172 148.929C587.174 148.084 587.359 147.25 587.713 146.483L600.081 119.683C601.296 115.534 604.107 112.035 607.898 109.955C611.689 107.875 616.149 107.382 620.302 108.586C624.455 109.79 627.962 112.592 630.052 116.377C632.142 120.162 632.647 124.621 631.454 128.778L627.381 158.107C627.264 158.944 626.969 159.746 626.515 160.459C626.06 161.172 625.458 161.778 624.748 162.237C624.038 162.696 623.238 162.996 622.402 163.118C621.566 163.239 620.713 163.179 619.902 162.941L591.399 154.589C590.588 154.351 589.838 153.942 589.199 153.388C588.561 152.834 588.049 152.149 587.7 151.379V151.379Z" fill="#3F3D56"/>
<path d="M803.635 579.403H97.0409C96.6795 579.402 96.3333 579.258 96.0781 579.002C95.8229 578.746 95.6797 578.399 95.6797 578.038C95.6797 577.677 95.8229 577.33 96.0781 577.074C96.3333 576.818 96.6795 576.674 97.0409 576.673H803.635C803.997 576.673 804.344 576.817 804.6 577.073C804.856 577.329 805 577.676 805 578.038C805 578.4 804.856 578.747 804.6 579.003C804.344 579.259 803.997 579.403 803.635 579.403Z" fill="#CACACA"/>
<path d="M233.386 434.348C256.062 434.348 274.444 415.965 274.444 393.29C274.444 370.614 256.062 352.231 233.386 352.231C210.71 352.231 192.328 370.614 192.328 393.29C192.328 415.965 210.71 434.348 233.386 434.348Z" fill="#3F3D56"/>
<path d="M227.786 414.658C227.077 414.658 226.377 414.493 225.743 414.176C225.109 413.859 224.557 413.399 224.132 412.831L212.931 397.896C212.204 396.927 211.892 395.709 212.064 394.51C212.235 393.311 212.876 392.229 213.845 391.502C214.814 390.775 216.032 390.463 217.231 390.635C218.43 390.806 219.512 391.447 220.238 392.416L227.567 402.186L246.388 373.954C246.72 373.453 247.148 373.022 247.646 372.687C248.145 372.351 248.705 372.117 249.294 371.998C249.883 371.88 250.49 371.878 251.079 371.994C251.669 372.111 252.23 372.342 252.73 372.675C253.23 373.009 253.659 373.437 253.993 373.937C254.327 374.437 254.559 374.997 254.676 375.587C254.793 376.176 254.793 376.783 254.675 377.372C254.557 377.962 254.323 378.522 253.989 379.021L231.586 412.625C231.181 413.232 230.636 413.734 229.997 414.088C229.357 414.441 228.643 414.637 227.913 414.657C227.87 414.658 227.828 414.658 227.786 414.658Z" fill="white"/>
<path d="M408.21 175.208C408.082 175.207 407.955 175.193 407.831 175.165L372.288 167.139C371.844 167.039 371.458 166.765 371.215 166.38C370.971 165.994 370.891 165.528 370.991 165.084C371.092 164.639 371.364 164.253 371.749 164.009C372.135 163.765 372.601 163.684 373.045 163.784L408.588 171.809C409 171.903 409.364 172.145 409.609 172.489C409.855 172.834 409.965 173.257 409.918 173.677C409.871 174.098 409.671 174.486 409.356 174.769C409.041 175.051 408.633 175.207 408.21 175.208V175.208Z" fill="white"/>
<path d="M271.424 498.223C271.299 498.249 271.171 498.261 271.044 498.259L234.612 497.646C234.156 497.637 233.723 497.448 233.406 497.121C233.09 496.793 232.917 496.353 232.924 495.897C232.932 495.442 233.12 495.008 233.447 494.691C233.774 494.374 234.213 494.2 234.669 494.206L271.101 494.82C271.524 494.827 271.929 494.99 272.24 495.277C272.55 495.564 272.744 495.956 272.784 496.377C272.824 496.798 272.707 497.219 272.456 497.56C272.205 497.901 271.838 498.137 271.424 498.223V498.223Z" fill="#E6E6E6"/>
<path d="M284.035 517.715C283.91 517.74 283.783 517.753 283.655 517.75L247.223 517.137C246.768 517.128 246.334 516.94 246.018 516.612C245.701 516.284 245.528 515.844 245.535 515.389C245.543 514.933 245.731 514.499 246.058 514.182C246.385 513.865 246.825 513.691 247.28 513.697L283.712 514.311C284.135 514.318 284.54 514.481 284.851 514.768C285.161 515.056 285.355 515.447 285.395 515.868C285.435 516.289 285.319 516.711 285.068 517.051C284.817 517.392 284.449 517.628 284.035 517.715V517.715Z" fill="#E6E6E6"/>
</svg>
