<svg width="900" height="580" viewBox="0 0 900 580" fill="none" xmlns="http://www.w3.org/2000/svg">
<path d="M485.556 247.968H414.442C408.786 247.962 403.363 245.712 399.363 241.712C395.364 237.713 393.114 232.29 393.107 226.634V93.4555C393.114 87.7992 395.364 82.3764 399.363 78.3769C403.363 74.3773 408.786 72.1275 414.442 72.1211H485.556C491.213 72.1275 496.636 74.3773 500.635 78.3769C504.635 82.3764 506.884 87.7992 506.891 93.4555V226.634C506.884 232.29 504.635 237.713 500.635 241.712C496.636 245.712 491.213 247.962 485.556 247.968V247.968Z" fill="#F2F2F2"/>
<path d="M813.331 19.7549H86.6688C75.3557 19.766 64.5092 24.265 56.5097 32.2645C48.5101 40.2641 44.0111 51.1106 44 62.4237V261.545C44.0111 272.858 48.5101 283.704 56.5097 291.704C64.5092 299.703 75.3557 304.202 86.6688 304.213H813.331C824.644 304.202 835.491 299.703 843.49 291.704C851.49 283.704 855.989 272.858 856 261.545V62.4237C855.989 51.1106 851.49 40.2641 843.49 32.2645C835.491 24.265 824.644 19.766 813.331 19.7549V19.7549ZM853.414 261.545C853.4 272.171 849.173 282.358 841.659 289.873C834.145 297.387 823.958 301.614 813.331 301.627H86.6688C76.0423 301.614 65.855 297.387 58.341 289.873C50.8269 282.358 46.5995 272.171 46.586 261.545V62.4237C46.5995 51.7972 50.8269 41.6099 58.341 34.0958C65.855 26.5818 76.0423 22.3544 86.6688 22.3409H813.331C823.958 22.3544 834.145 26.5818 841.659 34.0958C849.173 41.6099 853.4 51.7972 853.414 62.4237V261.545Z" fill="#3F3D56"/>
<path d="M158.752 207.886C155.683 207.886 152.684 206.976 150.132 205.271C147.58 203.567 145.592 201.143 144.417 198.308C143.243 195.473 142.936 192.353 143.534 189.343C144.133 186.334 145.611 183.569 147.781 181.399C149.951 179.229 152.715 177.751 155.725 177.153C158.735 176.554 161.855 176.861 164.69 178.036C167.525 179.21 169.948 181.199 171.653 183.75C173.358 186.302 174.268 189.302 174.268 192.37C174.263 196.484 172.627 200.428 169.718 203.337C166.81 206.245 162.866 207.882 158.752 207.886V207.886ZM158.752 179.44C156.195 179.44 153.695 180.199 151.569 181.62C149.442 183.04 147.785 185.06 146.807 187.422C145.828 189.785 145.572 192.385 146.071 194.893C146.57 197.401 147.801 199.705 149.609 201.513C151.418 203.322 153.722 204.553 156.23 205.052C158.738 205.551 161.338 205.295 163.7 204.316C166.063 203.337 168.082 201.68 169.503 199.554C170.924 197.428 171.682 194.928 171.682 192.37C171.678 188.942 170.315 185.656 167.891 183.232C165.467 180.808 162.18 179.444 158.752 179.44V179.44Z" fill="#3F3D56"/>
<path d="M158.242 172.975C157.899 172.975 157.57 172.839 157.328 172.596C157.085 172.354 156.949 172.025 156.949 171.682V156.813C156.949 156.47 157.085 156.141 157.328 155.898C157.57 155.656 157.899 155.52 158.242 155.52C158.585 155.52 158.914 155.656 159.156 155.898C159.399 156.141 159.535 156.47 159.535 156.813V171.682C159.535 172.025 159.399 172.354 159.156 172.596C158.914 172.839 158.585 172.975 158.242 172.975Z" fill="#3F3D56"/>
<path d="M138.065 193.154H123.195C122.852 193.154 122.524 193.018 122.281 192.776C122.039 192.533 121.902 192.204 121.902 191.861C121.902 191.518 122.039 191.19 122.281 190.947C122.524 190.705 122.852 190.568 123.195 190.568H138.065C138.408 190.568 138.737 190.705 138.979 190.947C139.222 191.19 139.358 191.518 139.358 191.861C139.358 192.204 139.222 192.533 138.979 192.776C138.737 193.018 138.408 193.154 138.065 193.154Z" fill="#3F3D56"/>
<path d="M192.371 193.154H177.502C177.159 193.154 176.83 193.018 176.588 192.776C176.345 192.533 176.209 192.204 176.209 191.861C176.209 191.518 176.345 191.19 176.588 190.947C176.83 190.705 177.159 190.568 177.502 190.568H192.371C192.714 190.568 193.043 190.705 193.286 190.947C193.528 191.19 193.664 191.518 193.664 191.861C193.664 192.204 193.528 192.533 193.286 192.776C193.043 193.018 192.714 193.154 192.371 193.154Z" fill="#3F3D56"/>
<path d="M177.092 179.016C176.834 179.016 176.583 178.939 176.369 178.795C176.156 178.652 175.99 178.447 175.894 178.209C175.797 177.97 175.774 177.708 175.827 177.456C175.88 177.204 176.007 176.974 176.192 176.795L182.418 170.754C182.665 170.515 182.996 170.384 183.338 170.389C183.681 170.394 184.008 170.535 184.247 170.781C184.486 171.027 184.617 171.358 184.612 171.701C184.606 172.044 184.465 172.371 184.219 172.61L177.992 178.651C177.751 178.886 177.428 179.017 177.092 179.016V179.016Z" fill="#3F3D56"/>
<path d="M139.12 179.016C138.783 179.016 138.46 178.885 138.219 178.651L131.992 172.61C131.87 172.492 131.773 172.35 131.706 172.195C131.638 172.039 131.602 171.871 131.6 171.701C131.597 171.532 131.628 171.363 131.691 171.205C131.753 171.047 131.846 170.903 131.965 170.781C132.083 170.659 132.224 170.562 132.38 170.495C132.536 170.427 132.703 170.391 132.873 170.389C133.043 170.386 133.211 170.417 133.369 170.48C133.527 170.542 133.671 170.635 133.793 170.754L140.02 176.795C140.205 176.974 140.332 177.204 140.385 177.456C140.438 177.708 140.415 177.97 140.318 178.209C140.221 178.447 140.055 178.652 139.842 178.795C139.629 178.939 139.377 179.016 139.12 179.016Z" fill="#3F3D56"/>
<path d="M134.185 214.35C133.931 214.35 133.683 214.275 133.471 214.135C133.259 213.994 133.094 213.795 132.995 213.561C132.896 213.327 132.868 213.069 132.915 212.819C132.961 212.569 133.081 212.339 133.258 212.156L139.485 205.744C139.724 205.498 140.05 205.357 140.393 205.352C140.736 205.347 141.067 205.478 141.313 205.717C141.559 205.956 141.7 206.283 141.705 206.626C141.711 206.969 141.579 207.3 141.34 207.546L135.113 213.958C134.993 214.082 134.849 214.181 134.689 214.248C134.53 214.316 134.358 214.35 134.185 214.35V214.35Z" fill="#3F3D56"/>
<path d="M184.612 215.644C184.439 215.644 184.268 215.61 184.109 215.543C183.95 215.476 183.806 215.377 183.686 215.254L176.166 207.548C176.048 207.427 175.954 207.283 175.891 207.125C175.828 206.968 175.797 206.799 175.799 206.629C175.801 206.46 175.837 206.292 175.903 206.136C175.97 205.98 176.067 205.839 176.189 205.72C176.31 205.601 176.454 205.508 176.612 205.445C176.769 205.382 176.938 205.351 177.107 205.353C177.277 205.355 177.445 205.39 177.601 205.457C177.757 205.524 177.898 205.621 178.017 205.742L185.537 213.448C185.714 213.63 185.835 213.86 185.882 214.11C185.929 214.36 185.902 214.619 185.803 214.853C185.704 215.088 185.539 215.288 185.327 215.428C185.115 215.569 184.866 215.644 184.612 215.644Z" fill="#3F3D56"/>
<path d="M158.242 228.574C157.899 228.574 157.57 228.437 157.328 228.195C157.085 227.952 156.949 227.624 156.949 227.281V212.411C156.949 212.068 157.085 211.739 157.328 211.497C157.57 211.254 157.899 211.118 158.242 211.118C158.585 211.118 158.914 211.254 159.156 211.497C159.399 211.739 159.535 212.068 159.535 212.411V227.281C159.535 227.624 159.399 227.952 159.156 228.195C158.914 228.437 158.585 228.574 158.242 228.574Z" fill="#3F3D56"/>
<path d="M327.377 216.936H284.214C279.806 216.862 275.603 215.058 272.511 211.914C269.42 208.77 267.687 204.537 267.688 200.127C267.687 195.718 269.42 191.485 272.511 188.341C275.603 185.197 279.806 183.393 284.214 183.319H287.515C289.153 179.851 291.739 176.918 294.974 174.858C298.209 172.799 301.961 171.698 305.796 171.682C311.01 171.729 316.011 173.761 319.781 177.364C323.551 180.966 325.807 185.87 326.092 191.077H327.377C330.769 191.132 334.004 192.519 336.383 194.938C338.762 197.357 340.095 200.614 340.095 204.006C340.095 207.399 338.762 210.656 336.383 213.075C334.004 215.494 330.769 216.88 327.377 216.936V216.936ZM284.214 185.905C280.492 185.979 276.947 187.51 274.34 190.17C271.734 192.829 270.274 196.404 270.274 200.127C270.274 203.851 271.734 207.426 274.34 210.085C276.947 212.745 280.492 214.276 284.214 214.35H327.377C330.083 214.294 332.66 213.18 334.554 211.246C336.448 209.313 337.509 206.713 337.509 204.006C337.509 201.3 336.448 198.7 334.554 196.767C332.66 194.833 330.083 193.718 327.377 193.663H324.838C324.495 193.663 324.166 193.526 323.924 193.284C323.681 193.041 323.545 192.712 323.545 192.37C323.586 187.617 321.74 183.042 318.413 179.649C315.086 176.255 310.548 174.32 305.796 174.268C302.321 174.286 298.927 175.324 296.037 177.254C293.147 179.183 290.886 181.919 289.537 185.122C289.437 185.354 289.271 185.552 289.06 185.691C288.849 185.83 288.601 185.905 288.349 185.905H284.214Z" fill="#3F3D56"/>
<path d="M471.554 192.443L470.547 190.061C472.503 189.235 474.225 187.939 475.562 186.289C476.898 184.638 477.808 182.684 478.21 180.599C478.612 178.514 478.495 176.362 477.868 174.333C477.241 172.304 476.125 170.46 474.617 168.965C473.108 167.47 471.255 166.369 469.221 165.76C467.186 165.151 465.033 165.052 462.952 165.473C460.87 165.893 458.924 166.82 457.285 168.17C455.647 169.521 454.366 171.255 453.556 173.218L451.166 172.232C452.138 169.876 453.675 167.796 455.641 166.175C457.607 164.554 459.942 163.442 462.44 162.938C464.938 162.434 467.521 162.552 469.963 163.283C472.404 164.014 474.627 165.334 476.437 167.128C478.247 168.922 479.587 171.134 480.339 173.569C481.091 176.004 481.232 178.586 480.749 181.088C480.267 183.59 479.175 185.935 477.572 187.915C475.968 189.896 473.901 191.451 471.554 192.443V192.443Z" fill="#3F3D56"/>
<path d="M473.486 216.936H430.324C425.915 216.862 421.712 215.058 418.621 211.914C415.529 208.77 413.797 204.537 413.797 200.127C413.797 195.718 415.529 191.485 418.621 188.341C421.712 185.197 425.915 183.393 430.324 183.319H433.625C435.262 179.851 437.848 176.918 441.083 174.858C444.318 172.799 448.07 171.698 451.905 171.682C457.12 171.729 462.12 173.761 465.89 177.364C469.66 180.966 471.917 185.87 472.201 191.077H473.486C476.879 191.132 480.113 192.519 482.492 194.938C484.871 197.357 486.205 200.614 486.205 204.006C486.205 207.399 484.871 210.656 482.492 213.075C480.113 215.494 476.879 216.88 473.486 216.936V216.936ZM430.324 185.905C426.601 185.979 423.056 187.51 420.45 190.17C417.843 192.829 416.383 196.404 416.383 200.127C416.383 203.851 417.843 207.426 420.45 210.085C423.056 212.745 426.601 214.276 430.324 214.35H473.486C476.193 214.294 478.769 213.18 480.664 211.246C482.558 209.313 483.619 206.713 483.619 204.006C483.619 201.3 482.558 198.7 480.664 196.767C478.769 194.833 476.193 193.718 473.486 193.663H470.947C470.604 193.663 470.276 193.526 470.033 193.284C469.791 193.041 469.654 192.712 469.654 192.37C469.695 187.617 467.85 183.042 464.522 179.649C461.195 176.255 456.657 174.32 451.905 174.268C448.43 174.286 445.037 175.324 442.146 177.254C439.256 179.183 436.996 181.919 435.646 185.122C435.546 185.354 435.38 185.552 435.169 185.691C434.958 185.83 434.711 185.905 434.458 185.905H430.324Z" fill="#3F3D56"/>
<path d="M619.594 210.472H614.404C614.061 210.472 613.732 210.335 613.49 210.093C613.247 209.85 613.111 209.522 613.111 209.179C613.111 208.836 613.247 208.507 613.49 208.264C613.732 208.022 614.061 207.886 614.404 207.886H619.594C622.3 207.83 624.877 206.715 626.771 204.781C628.665 202.848 629.726 200.249 629.726 197.542C629.726 194.835 628.665 192.236 626.771 190.302C624.877 188.368 622.3 187.254 619.594 187.198H617.055C616.712 187.198 616.383 187.061 616.141 186.819C615.898 186.576 615.762 186.248 615.762 185.905C615.803 181.152 613.957 176.578 610.63 173.184C607.302 169.791 602.765 167.855 598.012 167.803C594.537 167.821 591.144 168.86 588.254 170.789C585.363 172.719 583.103 175.454 581.753 178.657C581.654 178.889 581.488 179.087 581.277 179.226C581.066 179.366 580.818 179.44 580.565 179.44H576.431C572.708 179.514 569.163 181.046 566.557 183.705C563.951 186.364 562.491 189.939 562.491 193.663C562.491 197.386 563.951 200.961 566.557 203.62C569.163 206.28 572.708 207.811 576.431 207.886H580.44C580.783 207.886 581.111 208.022 581.354 208.264C581.596 208.507 581.733 208.836 581.733 209.179C581.733 209.522 581.596 209.85 581.354 210.093C581.111 210.335 580.783 210.472 580.44 210.472H576.431C572.022 210.397 567.82 208.593 564.728 205.449C561.637 202.305 559.904 198.072 559.904 193.663C559.904 189.253 561.637 185.02 564.728 181.876C567.82 178.732 572.022 176.928 576.431 176.854H579.732C581.37 173.386 583.956 170.453 587.191 168.393C590.426 166.334 594.178 165.233 598.012 165.217C603.227 165.265 608.227 167.296 611.998 170.899C615.768 174.502 618.024 179.405 618.309 184.612H619.594C622.986 184.668 626.22 186.054 628.6 188.473C630.979 190.892 632.312 194.149 632.312 197.542C632.312 200.934 630.979 204.191 628.6 206.61C626.22 209.029 622.986 210.416 619.594 210.472V210.472Z" fill="#3F3D56"/>
<path d="M597.797 216.053C597.454 216.053 597.125 215.917 596.883 215.674C596.64 215.432 596.504 215.103 596.504 214.76V199.891C596.504 199.548 596.64 199.219 596.883 198.976C597.125 198.734 597.454 198.598 597.797 198.598C598.14 198.598 598.469 198.734 598.711 198.976C598.954 199.219 599.09 199.548 599.09 199.891V214.76C599.09 215.103 598.954 215.432 598.711 215.674C598.469 215.917 598.14 216.053 597.797 216.053V216.053Z" fill="#3F3D56"/>
<path d="M588.746 223.811C588.403 223.811 588.074 223.675 587.832 223.432C587.589 223.19 587.453 222.861 587.453 222.518V207.648C587.453 207.306 587.589 206.977 587.832 206.734C588.074 206.492 588.403 206.355 588.746 206.355C589.089 206.355 589.418 206.492 589.66 206.734C589.903 206.977 590.039 207.306 590.039 207.648V222.518C590.039 222.861 589.903 223.19 589.66 223.432C589.418 223.675 589.089 223.811 588.746 223.811Z" fill="#3F3D56"/>
<path d="M606.85 227.69C606.507 227.69 606.178 227.554 605.935 227.311C605.693 227.069 605.557 226.74 605.557 226.397V211.527C605.557 211.184 605.693 210.856 605.935 210.613C606.178 210.371 606.507 210.234 606.85 210.234C607.193 210.234 607.521 210.371 607.764 210.613C608.006 210.856 608.143 211.184 608.143 211.527V226.397C608.143 226.74 608.006 227.069 607.764 227.311C607.521 227.554 607.193 227.69 606.85 227.69V227.69Z" fill="#3F3D56"/>
<path d="M765.703 210.472H760.513C760.17 210.472 759.841 210.335 759.599 210.093C759.356 209.85 759.22 209.522 759.22 209.179C759.22 208.836 759.356 208.507 759.599 208.264C759.841 208.022 760.17 207.886 760.513 207.886H765.703C768.409 207.83 770.986 206.715 772.88 204.781C774.775 202.848 775.835 200.249 775.835 197.542C775.835 194.835 774.775 192.236 772.88 190.302C770.986 188.368 768.409 187.254 765.703 187.198H763.164C762.821 187.198 762.492 187.061 762.25 186.819C762.007 186.576 761.871 186.248 761.871 185.905C761.912 181.152 760.066 176.578 756.739 173.184C753.412 169.791 748.874 167.855 744.122 167.803C740.647 167.821 737.253 168.86 734.363 170.789C731.473 172.719 729.212 175.454 727.863 178.657C727.763 178.889 727.597 179.087 727.386 179.226C727.175 179.366 726.928 179.44 726.675 179.44H722.541C718.818 179.514 715.273 181.046 712.666 183.705C710.06 186.364 708.6 189.939 708.6 193.663C708.6 197.386 710.06 200.961 712.666 203.62C715.273 206.28 718.818 207.811 722.541 207.886H726.549C726.892 207.886 727.221 208.022 727.463 208.264C727.706 208.507 727.842 208.836 727.842 209.179C727.842 209.522 727.706 209.85 727.463 210.093C727.221 210.335 726.892 210.472 726.549 210.472H722.541C718.132 210.397 713.929 208.593 710.837 205.449C707.746 202.305 706.014 198.072 706.014 193.663C706.014 189.253 707.746 185.02 710.837 181.876C713.929 178.732 718.132 176.928 722.541 176.854H725.842C727.479 173.386 730.065 170.453 733.3 168.393C736.535 166.334 740.287 165.233 744.122 165.217C749.336 165.265 754.337 167.296 758.107 170.899C761.877 174.502 764.134 179.405 764.418 184.612H765.703C769.095 184.668 772.33 186.054 774.709 188.473C777.088 190.892 778.422 194.149 778.422 197.542C778.422 200.934 777.088 204.191 774.709 206.61C772.33 209.029 769.095 210.416 765.703 210.472V210.472Z" fill="#3F3D56"/>
<path d="M741.894 207.239C743.5 207.239 744.803 205.937 744.803 204.33C744.803 202.723 743.5 201.421 741.894 201.421C740.287 201.421 738.984 202.723 738.984 204.33C738.984 205.937 740.287 207.239 741.894 207.239Z" fill="#3F3D56"/>
<path d="M751.591 211.118C753.198 211.118 754.5 209.816 754.5 208.209C754.5 206.602 753.198 205.3 751.591 205.3C749.984 205.3 748.682 206.602 748.682 208.209C748.682 209.816 749.984 211.118 751.591 211.118Z" fill="#3F3D56"/>
<path d="M735.429 215.644C737.035 215.644 738.338 214.341 738.338 212.734C738.338 211.128 737.035 209.825 735.429 209.825C733.822 209.825 732.52 211.128 732.52 212.734C732.52 214.341 733.822 215.644 735.429 215.644Z" fill="#3F3D56"/>
<path d="M745.773 222.109C747.379 222.109 748.682 220.806 748.682 219.199C748.682 217.593 747.379 216.29 745.773 216.29C744.166 216.29 742.863 217.593 742.863 219.199C742.863 220.806 744.166 222.109 745.773 222.109Z" fill="#3F3D56"/>
<path d="M195.281 112.205H120.287C117.544 112.205 114.913 111.115 112.973 109.175C111.033 107.235 109.943 104.604 109.943 101.861C109.943 99.1172 111.033 96.4861 112.973 94.5463C114.913 92.6064 117.544 91.5166 120.287 91.5166H195.281C198.024 91.5166 200.655 92.6064 202.595 94.5463C204.535 96.4861 205.625 99.1172 205.625 101.861C205.625 104.604 204.535 107.235 202.595 109.175C200.655 111.115 198.024 112.205 195.281 112.205Z" fill="#8D8D92"/>
<path d="M341.388 112.205H266.395C263.651 112.205 261.02 111.115 259.08 109.175C257.141 107.235 256.051 104.604 256.051 101.861C256.051 99.1172 257.141 96.4861 259.08 94.5463C261.02 92.6064 263.651 91.5166 266.395 91.5166H341.388C344.132 91.5166 346.763 92.6064 348.703 94.5463C350.642 96.4861 351.732 99.1172 351.732 101.861C351.732 104.604 350.642 107.235 348.703 109.175C346.763 111.115 344.132 112.205 341.388 112.205Z" fill="#8D8D92"/>
<path d="M487.498 112.205H412.504C409.761 112.205 407.13 111.115 405.19 109.175C403.25 107.235 402.16 104.604 402.16 101.861C402.16 99.1172 403.25 96.4861 405.19 94.5463C407.13 92.6064 409.761 91.5166 412.504 91.5166H487.498C490.241 91.5166 492.872 92.6064 494.812 94.5463C496.752 96.4861 497.842 99.1172 497.842 101.861C497.842 104.604 496.752 107.235 494.812 109.175C492.872 111.115 490.241 112.205 487.498 112.205Z" fill="#8D8D92"/>
<path d="M633.605 112.205H558.612C555.868 112.205 553.237 111.115 551.297 109.175C549.357 107.235 548.268 104.604 548.268 101.861C548.268 99.1172 549.357 96.4861 551.297 94.5463C553.237 92.6064 555.868 91.5166 558.612 91.5166H633.605C636.349 91.5166 638.98 92.6064 640.919 94.5463C642.859 96.4861 643.949 99.1172 643.949 101.861C643.949 104.604 642.859 107.235 640.919 109.175C638.98 111.115 636.349 112.205 633.605 112.205Z" fill="#8D8D92"/>
<path d="M779.713 112.205H704.719C701.976 112.205 699.345 111.115 697.405 109.175C695.465 107.235 694.375 104.604 694.375 101.861C694.375 99.1172 695.465 96.4861 697.405 94.5463C699.345 92.6064 701.976 91.5166 704.719 91.5166H779.713C782.456 91.5166 785.087 92.6064 787.027 94.5463C788.967 96.4861 790.057 99.1172 790.057 101.861C790.057 104.604 788.967 107.235 787.027 109.175C785.087 111.115 782.456 112.205 779.713 112.205Z" fill="#8D8D92"/>
<path d="M227.605 233.746C227.263 233.746 226.934 233.61 226.691 233.367C226.449 233.125 226.312 232.796 226.312 232.453V134.186C226.312 133.843 226.449 133.514 226.691 133.271C226.934 133.029 227.263 132.893 227.605 132.893C227.948 132.893 228.277 133.029 228.52 133.271C228.762 133.514 228.898 133.843 228.898 134.186V232.453C228.898 232.796 228.762 233.125 228.52 233.367C228.277 233.61 227.948 233.746 227.605 233.746Z" fill="#E6E6E6"/>
<path d="M373.713 232.453C373.37 232.453 373.041 232.317 372.799 232.074C372.556 231.832 372.42 231.503 372.42 231.16V132.893C372.42 132.55 372.556 132.221 372.799 131.978C373.041 131.736 373.37 131.6 373.713 131.6C374.056 131.6 374.385 131.736 374.627 131.978C374.87 132.221 375.006 132.55 375.006 132.893V231.16C375.006 231.503 374.87 231.832 374.627 232.074C374.385 232.317 374.056 232.453 373.713 232.453Z" fill="#E6E6E6"/>
<path d="M527.58 232.453C527.237 232.453 526.908 232.317 526.666 232.074C526.423 231.832 526.287 231.503 526.287 231.16V132.893C526.287 132.55 526.423 132.221 526.666 131.978C526.908 131.736 527.237 131.6 527.58 131.6C527.923 131.6 528.252 131.736 528.494 131.978C528.737 132.221 528.873 132.55 528.873 132.893V231.16C528.873 231.503 528.737 231.832 528.494 232.074C528.252 232.317 527.923 232.453 527.58 232.453Z" fill="#E6E6E6"/>
<path d="M673.688 232.453C673.345 232.453 673.016 232.317 672.773 232.074C672.531 231.832 672.395 231.503 672.395 231.16V132.893C672.395 132.55 672.531 132.221 672.773 131.978C673.016 131.736 673.345 131.6 673.688 131.6C674.03 131.6 674.359 131.736 674.602 131.978C674.844 132.221 674.981 132.55 674.981 132.893V231.16C674.981 231.503 674.844 231.832 674.602 232.074C674.359 232.317 674.03 232.453 673.688 232.453Z" fill="#E6E6E6"/>
<path d="M657.144 559.106C647.229 558.695 638.195 554.693 634.108 548.493C633.917 548.203 633.737 547.909 633.568 547.611C632.076 544.969 631.61 541.932 633.241 539.33C634.873 536.727 638.948 534.75 643.04 535.16C647.133 535.571 650.328 538.835 648.635 541.419C648.256 536.197 647.947 530.711 652.156 526.166C654.474 523.791 657.496 522.229 660.774 521.712C669.257 520.221 674.889 525.017 676.017 529.86C676.849 533.435 675.699 537.071 674.555 540.605C678.082 536.433 686.473 534.577 692.899 536.547C699.324 538.518 702.89 544.04 700.694 548.62C698.108 554.015 689.486 556.804 681.477 558.278C674.864 559.495 664.947 559.43 657.144 559.106Z" fill="#F2F2F2"/>
<path d="M311.916 559.106C302 558.695 292.966 554.693 288.88 548.493C288.689 548.203 288.508 547.909 288.34 547.611C286.847 544.969 286.382 541.932 288.013 539.33C289.644 536.727 293.719 534.75 297.812 535.16C301.905 535.571 305.1 538.835 303.406 541.419C303.028 536.197 302.718 530.711 306.928 526.166C309.245 523.791 312.268 522.229 315.546 521.712C324.028 520.221 329.66 525.017 330.788 529.86C331.621 533.435 330.471 537.071 329.326 540.605C332.854 536.433 341.245 534.577 347.67 536.547C354.096 538.518 357.661 544.04 355.466 548.62C352.879 554.015 344.257 556.804 336.248 558.278C329.635 559.495 319.718 559.43 311.916 559.106Z" fill="#F2F2F2"/>
<path d="M431.002 544.938H415.151L407.609 483.795L431.005 483.796L431.002 544.938Z" fill="#FFB8B8"/>
<path d="M435.042 560.305L383.93 560.303V559.657C383.93 557.044 384.444 554.457 385.444 552.044C386.444 549.63 387.909 547.437 389.757 545.589C391.604 543.742 393.797 542.277 396.211 541.277C398.625 540.277 401.212 539.763 403.824 539.763H403.826L435.043 539.764L435.042 560.305Z" fill="#2F2E41"/>
<path d="M608.084 530.108L593.141 535.399L565.619 480.282L587.672 472.473L608.084 530.108Z" fill="#FFB8B8"/>
<path d="M617.022 543.242L568.842 560.305L568.626 559.695C567.754 557.233 567.375 554.622 567.512 552.013C567.648 549.404 568.297 546.848 569.422 544.49C570.546 542.132 572.125 540.018 574.066 538.27C576.008 536.522 578.274 535.173 580.737 534.301L580.738 534.3L610.165 523.879L617.022 543.242Z" fill="#2F2E41"/>
<path d="M430.56 524.41C430.204 524.41 429.849 524.378 429.499 524.314L410.115 520.79C408.795 520.546 407.6 519.856 406.73 518.835C405.859 517.813 405.366 516.524 405.334 515.183C402.516 384.701 416.369 297.018 446.507 234.169C447.044 233.056 447.922 232.145 449.013 231.568C450.104 230.99 451.352 230.778 452.573 230.96L522.28 241.024C523.553 241.209 524.728 241.81 525.624 242.733C526.519 243.656 527.084 244.85 527.23 246.127L533.376 300.308C533.41 300.6 533.471 300.889 533.56 301.169L600.394 501.414C600.849 502.871 600.717 504.449 600.024 505.81C599.332 507.17 598.134 508.206 596.688 508.695L578.627 514.715C577.298 515.152 575.856 515.097 574.564 514.562C573.271 514.027 572.213 513.046 571.582 511.797L481.178 341.333C480.999 340.974 480.713 340.68 480.359 340.491C480.005 340.302 479.602 340.227 479.204 340.276C478.806 340.326 478.433 340.497 478.137 340.768C477.84 341.038 477.635 341.393 477.549 341.785L436.223 519.837C435.944 521.132 435.23 522.292 434.199 523.124C433.169 523.956 431.885 524.41 430.56 524.41Z" fill="#2F2E41"/>
<path d="M375.468 128.492C375.627 129.19 375.73 129.899 375.778 130.613L431.321 162.656L444.822 154.883L459.215 173.725L436.651 189.807C434.829 191.106 432.634 191.779 430.396 191.724C428.158 191.67 425.998 190.891 424.241 189.505L366.966 144.32C364.381 145.277 361.566 145.424 358.896 144.742C356.225 144.06 353.826 142.581 352.016 140.502C350.207 138.423 349.073 135.842 348.766 133.103C348.459 130.364 348.993 127.596 350.298 125.168C351.602 122.74 353.614 120.767 356.068 119.511C358.521 118.254 361.299 117.775 364.031 118.135C366.764 118.496 369.321 119.68 371.364 121.53C373.408 123.38 374.839 125.809 375.468 128.492V128.492Z" fill="#FFB8B8"/>
<path d="M432.083 159.453C432.251 158.633 432.593 157.86 433.086 157.185C433.579 156.51 434.213 155.949 434.943 155.541L460.431 141.289C463.818 138.675 468.103 137.51 472.347 138.05C476.591 138.591 480.447 140.792 483.07 144.171C485.694 147.551 486.87 151.833 486.341 156.078C485.812 160.323 483.621 164.186 480.249 166.818L459.926 187.921C459.346 188.524 458.643 188.994 457.865 189.3C457.087 189.606 456.252 189.741 455.417 189.695C454.582 189.649 453.767 189.424 453.027 189.035C452.287 188.646 451.639 188.101 451.129 187.439L433.177 164.173C432.666 163.511 432.304 162.747 432.115 161.932C431.926 161.118 431.915 160.272 432.083 159.453Z" fill="#8D8D92"/>
<path d="M491.439 125.298C508.978 125.298 523.196 111.08 523.196 93.5405C523.196 76.0014 508.978 61.7832 491.439 61.7832C473.9 61.7832 459.682 76.0014 459.682 93.5405C459.682 111.08 473.9 125.298 491.439 125.298Z" fill="#FFB8B8"/>
<path d="M522.362 247.798C522.046 247.797 521.732 247.772 521.42 247.721L452.694 236.454C451.917 236.326 451.174 236.043 450.511 235.62C449.847 235.198 449.276 234.645 448.832 233.996C448.388 233.346 448.08 232.613 447.927 231.841C447.774 231.07 447.78 230.275 447.943 229.505L451.287 213.742C449.575 211.189 435.638 188.987 452.613 168.132C452.287 160.724 454.866 153.48 459.801 147.945C464.735 142.409 471.636 139.018 479.033 138.494L514.55 135.796C519.12 135.449 523.705 136.205 527.921 138C532.137 139.794 535.86 142.576 538.778 146.109C541.695 149.643 543.721 153.825 544.685 158.305C545.649 162.784 545.523 167.43 544.317 171.851L528.035 243.272C527.74 244.556 527.018 245.703 525.988 246.525C524.958 247.347 523.68 247.795 522.362 247.798V247.798Z" fill="#8D8D92"/>
<path d="M586.542 307.522C587.707 305.859 588.494 303.961 588.847 301.961C589.2 299.961 589.11 297.908 588.584 295.947C588.057 293.986 587.107 292.164 585.8 290.609C584.494 289.055 582.862 287.806 581.02 286.951L541.89 166.642L519.213 177.402L562.028 294.545C560.796 297.734 560.776 301.265 561.973 304.467C563.17 307.67 565.5 310.322 568.521 311.922C571.543 313.521 575.046 313.957 578.368 313.146C581.689 312.335 584.597 310.334 586.542 307.522V307.522Z" fill="#FFB8B8"/>
<path d="M550.546 186.671L520.434 195.767C519.577 196.026 518.675 196.097 517.788 195.976C516.901 195.855 516.051 195.543 515.296 195.064C514.54 194.584 513.897 193.947 513.409 193.197C512.922 192.446 512.602 191.599 512.472 190.714L507.9 159.688C506.599 155.297 507.093 150.568 509.273 146.54C511.454 142.512 515.143 139.514 519.531 138.202C523.92 136.89 528.649 137.373 532.682 139.544C536.715 141.714 539.723 145.396 541.045 149.782L554.379 178.054C554.76 178.864 554.963 179.746 554.973 180.641C554.982 181.536 554.799 182.423 554.435 183.24C554.072 184.058 553.536 184.788 552.865 185.38C552.194 185.972 551.403 186.412 550.546 186.671H550.546Z" fill="#8D8D92"/>
<path d="M460.57 94.7669C467.62 97.4538 475.294 98.0579 482.678 96.5073C490.062 94.9567 496.844 91.3167 502.218 86.0207C498.887 94.8213 499.818 132.147 499.818 132.147C499.818 132.147 529.359 118.122 533.367 115.67C557.038 101.183 524.391 38.1639 497.232 48.1024C492.632 49.7857 488.791 51.7664 486.93 56.2973C482.875 51.295 475.198 50.21 469.293 52.7794C463.389 55.3487 459.191 60.9167 456.934 66.9478C455.152 71.8146 454.459 77.013 454.904 82.1767C455.35 87.3403 456.922 92.3434 459.511 96.8333L460.57 94.7669Z" fill="black"/>
</svg>
