<svg width="900" height="580" viewBox="0 0 900 580" fill="none" xmlns="http://www.w3.org/2000/svg">
<path d="M432.686 14.6611L414.338 24.6725L188.278 148.016L169.929 158.027C161.026 162.898 154.418 171.102 151.556 180.838C148.694 190.575 149.81 201.049 154.661 209.964L323.003 518.495C327.873 527.398 336.077 534.006 345.814 536.869C355.55 539.731 366.025 538.614 374.939 533.763L374.986 533.737L637.649 390.423L637.696 390.397C646.6 385.526 653.207 377.323 656.07 367.586C658.932 357.849 657.815 347.375 652.964 338.461L484.623 29.9293C479.752 21.026 471.548 14.4183 461.812 11.5559C452.075 8.69351 441.601 9.81024 432.686 14.6611V14.6611Z" fill="#F2F2F2"/>
<path d="M437.965 24.3338L416.232 36.1916L196.94 155.842L175.208 167.7C168.867 171.169 164.162 177.011 162.124 183.944C160.085 190.878 160.881 198.337 164.335 204.685L332.676 513.217C336.145 519.557 341.987 524.262 348.921 526.301C355.854 528.339 363.313 527.544 369.662 524.089L369.709 524.064L632.371 380.749L632.419 380.723C638.759 377.254 643.465 371.412 645.503 364.479C647.541 357.545 646.746 350.086 643.292 343.738L474.95 35.2068C471.482 28.8665 465.64 24.161 458.706 22.1227C451.772 20.0843 444.313 20.8795 437.965 24.3338V24.3338Z" fill="white"/>
<path d="M441.588 120.103L343.625 173.554C342.141 174.363 340.396 174.55 338.774 174.074C337.152 173.597 335.786 172.495 334.976 171.011C334.166 169.527 333.979 167.782 334.456 166.16C334.933 164.538 336.035 163.172 337.519 162.362L435.482 108.912C436.966 108.102 438.711 107.915 440.333 108.392C441.955 108.868 443.321 109.97 444.13 111.454C444.94 112.938 445.127 114.683 444.65 116.305C444.174 117.927 443.072 119.293 441.588 120.103H441.588Z" fill="#F2F2F2"/>
<path d="M474.975 126.393L353.93 192.438C352.445 193.248 350.701 193.435 349.079 192.958C347.457 192.481 346.09 191.379 345.281 189.895C344.471 188.411 344.284 186.666 344.761 185.044C345.238 183.422 346.339 182.056 347.823 181.247L468.869 115.202C469.603 114.801 470.41 114.548 471.242 114.459C472.075 114.37 472.916 114.446 473.72 114.682C474.523 114.918 475.271 115.31 475.923 115.835C476.575 116.361 477.116 117.009 477.517 117.744C477.918 118.479 478.171 119.286 478.26 120.118C478.349 120.95 478.273 121.792 478.037 122.595C477.801 123.398 477.409 124.147 476.884 124.799C476.358 125.45 475.71 125.992 474.975 126.393H474.975Z" fill="#F2F2F2"/>
<path d="M303.353 151.304L213.036 200.582C212.325 200.97 211.798 201.625 211.569 202.402C211.341 203.179 211.43 204.015 211.818 204.726L250.277 275.213C250.665 275.924 251.32 276.451 252.097 276.68C252.874 276.908 253.71 276.819 254.421 276.431L344.737 227.152C345.448 226.764 345.976 226.11 346.205 225.333C346.433 224.555 346.343 223.719 345.956 223.008L307.497 152.522C307.109 151.811 306.454 151.283 305.677 151.055C304.9 150.826 304.064 150.916 303.353 151.304V151.304Z" fill="#F2F2F2"/>
<path d="M490.197 209.539L357.322 282.038C356.587 282.439 355.781 282.691 354.948 282.78C354.116 282.869 353.274 282.794 352.471 282.558C351.668 282.322 350.919 281.93 350.268 281.404C349.616 280.879 349.074 280.23 348.673 279.495C348.272 278.76 348.02 277.954 347.931 277.121C347.842 276.289 347.917 275.447 348.153 274.644C348.389 273.841 348.781 273.092 349.307 272.441C349.832 271.789 350.481 271.247 351.216 270.846L484.09 198.347C485.574 197.537 487.319 197.35 488.941 197.827C490.563 198.304 491.929 199.406 492.739 200.89C493.549 202.374 493.736 204.119 493.259 205.741C492.782 207.363 491.681 208.729 490.197 209.539H490.197Z" fill="#F2F2F2"/>
<path d="M523.582 215.83L367.625 300.923C366.141 301.733 364.396 301.92 362.774 301.443C361.152 300.966 359.786 299.864 358.976 298.38C358.166 296.896 357.979 295.151 358.456 293.529C358.933 291.907 360.035 290.541 361.519 289.732L517.475 204.638C518.959 203.828 520.704 203.641 522.326 204.118C523.948 204.595 525.315 205.697 526.124 207.181C526.934 208.665 527.121 210.41 526.644 212.032C526.167 213.654 525.066 215.02 523.582 215.83H523.582Z" fill="#F2F2F2"/>
<path d="M306.716 341.413C321.651 341.413 333.759 329.305 333.759 314.369C333.759 299.433 321.651 287.325 306.716 287.325C291.78 287.325 279.672 299.433 279.672 314.369C279.672 329.305 291.78 341.413 306.716 341.413Z" fill="#F2F2F2"/>
<path d="M711.345 141.791H412.021C401.872 141.802 392.143 145.839 384.966 153.015C377.79 160.191 373.754 169.921 373.742 180.07V531.539C373.754 541.687 377.79 551.417 384.966 558.593C392.143 565.77 401.872 569.806 412.021 569.818H711.345C721.494 569.806 731.224 565.77 738.4 558.593C745.576 551.417 749.613 541.687 749.624 531.539V180.07C749.613 169.921 745.576 160.191 738.4 153.015C731.224 145.839 721.494 141.802 711.345 141.791V141.791Z" fill="#E6E6E6"/>
<path d="M711.346 152.811H412.021C404.794 152.819 397.865 155.693 392.755 160.804C387.644 165.914 384.77 172.843 384.762 180.07V531.539C384.77 538.766 387.644 545.695 392.755 550.805C397.865 555.915 404.794 558.79 412.021 558.798H711.346C718.573 558.79 725.501 555.915 730.612 550.805C735.722 545.694 738.596 538.766 738.605 531.539V180.07C738.596 172.843 735.722 165.914 730.612 160.804C725.501 155.693 718.573 152.819 711.346 152.811V152.811Z" fill="white"/>
<path d="M668.658 238.614H557.062C555.371 238.614 553.75 237.943 552.555 236.747C551.359 235.552 550.688 233.93 550.688 232.24C550.688 230.549 551.359 228.928 552.555 227.732C553.75 226.537 555.371 225.865 557.062 225.865H668.658C669.496 225.864 670.326 226.028 671.1 226.348C671.874 226.668 672.578 227.138 673.17 227.73C673.763 228.322 674.233 229.025 674.554 229.799C674.875 230.572 675.04 231.402 675.04 232.24C675.04 233.077 674.875 233.907 674.554 234.681C674.233 235.455 673.763 236.158 673.17 236.75C672.578 237.342 671.874 237.811 671.1 238.131C670.326 238.451 669.496 238.615 668.658 238.614Z" fill="#8D8D92"/>
<path d="M694.953 260.128H557.062C555.371 260.128 553.75 259.456 552.555 258.261C551.359 257.065 550.688 255.444 550.688 253.753C550.688 252.063 551.359 250.441 552.555 249.246C553.75 248.05 555.371 247.379 557.062 247.379H694.953C696.643 247.379 698.265 248.05 699.46 249.246C700.656 250.441 701.327 252.063 701.327 253.753C701.327 255.444 700.656 257.065 699.46 258.261C698.265 259.456 696.643 260.128 694.953 260.128V260.128Z" fill="#8D8D92"/>
<path d="M532.363 199.793H429.478C428.668 199.793 427.891 200.115 427.319 200.688C426.746 201.261 426.424 202.037 426.424 202.847V283.143C426.424 283.953 426.746 284.73 427.319 285.303C427.891 285.875 428.668 286.197 429.478 286.198H532.363C533.173 286.197 533.95 285.875 534.523 285.303C535.096 284.73 535.417 283.953 535.418 283.143V202.847C535.417 202.037 535.096 201.261 534.523 200.688C533.95 200.115 533.173 199.793 532.363 199.793V199.793Z" fill="#E6E6E6"/>
<path d="M457.7 249.101C457.742 255.879 455.243 262.428 450.697 267.455C446.198 272.393 439.501 275.667 432.742 274.312C426.519 273.065 421.461 267.625 422.092 261.045C422.197 259.62 422.611 258.235 423.306 256.986C424.001 255.737 424.96 254.655 426.116 253.815C427.272 252.975 428.598 252.397 430 252.121C431.402 251.846 432.848 251.88 434.236 252.22C440.148 253.754 442.503 262.275 437.577 266.274C436.395 267.234 434.696 265.555 435.889 264.587C439.146 261.943 438.14 256.159 434.209 254.709C429.633 253.02 424.784 256.652 424.455 261.331C424.065 266.878 428.314 271.056 433.526 272.039C439.163 273.103 444.753 270.218 448.573 266.235C452.951 261.61 455.367 255.469 455.313 249.101C455.324 248.791 455.454 248.498 455.677 248.283C455.9 248.068 456.197 247.948 456.506 247.948C456.816 247.948 457.113 248.068 457.336 248.283C457.558 248.498 457.689 248.791 457.7 249.101V249.101Z" fill="#2F2E41"/>
<path d="M481.001 264.27C504.511 264.27 523.57 245.211 523.57 221.701C523.57 198.191 504.511 179.132 481.001 179.132C457.491 179.132 438.432 198.191 438.432 221.701C438.432 245.211 457.491 264.27 481.001 264.27Z" fill="#8D8D92"/>
<path d="M478.822 239.864L478.777 238.273C481.737 238.191 484.346 238.005 486.306 236.573C486.862 236.144 487.319 235.6 487.646 234.979C487.973 234.357 488.162 233.672 488.201 232.971C488.235 232.543 488.17 232.112 488.011 231.713C487.852 231.314 487.603 230.956 487.284 230.669C485.982 229.57 483.888 229.926 482.362 230.625L481.045 231.229L483.57 212.783L485.146 212.999L482.999 228.69C485.073 228.08 486.994 228.343 488.311 229.454C488.816 229.895 489.212 230.447 489.469 231.067C489.726 231.687 489.836 232.358 489.79 233.027C489.744 233.969 489.492 234.89 489.052 235.724C488.613 236.559 487.996 237.287 487.245 237.858C484.726 239.699 481.452 239.79 478.822 239.864Z" fill="#2F2E41"/>
<path d="M501.511 214.353H492.943V215.943H501.511V214.353Z" fill="#2F2E41"/>
<path d="M474.466 214.353H465.898V215.943H474.466V214.353Z" fill="#2F2E41"/>
<path d="M457.422 286.198C460.613 284.174 464.061 282.587 467.675 281.481C467.33 280.256 467.335 278.958 467.691 277.735C468.17 276.19 469.137 274.842 470.445 273.892C471.754 272.941 473.335 272.44 474.953 272.462H485.325C486.945 272.441 488.528 272.944 489.84 273.895C491.151 274.847 492.12 276.196 492.603 277.743C492.958 278.963 492.963 280.258 492.618 281.481C496.231 282.589 499.68 284.175 502.871 286.198H457.422Z" fill="#2F2E41"/>
<path d="M529.764 205.902C528.989 204.963 528.035 204.187 526.957 203.619C526.011 203.125 524.961 202.866 523.894 202.863C522.43 202.881 521.008 203.36 519.83 204.231C516.593 206.522 514.35 211.462 514.35 217.181C514.35 224.355 517.881 230.305 522.471 231.339C522.938 231.444 523.415 231.497 523.894 231.498C529.152 231.498 533.439 225.079 533.439 217.181C533.439 212.599 532 208.519 529.764 205.902Z" fill="#3F3D56"/>
<path d="M442.333 203.89H442.325C441.261 203.23 440.037 202.875 438.785 202.864C437.718 202.867 436.668 203.126 435.723 203.62C434.645 204.188 433.691 204.963 432.915 205.903L432.907 205.911C430.68 208.528 429.24 212.608 429.24 217.181C429.24 223.354 431.849 228.619 435.508 230.632C436.509 231.193 437.637 231.491 438.785 231.499C439.04 231.499 439.295 231.483 439.549 231.451H439.556C444.456 230.862 448.33 224.69 448.33 217.181C448.33 211.168 445.84 206.006 442.333 203.89Z" fill="#3F3D56"/>
<path d="M436.104 229.262C436.294 229.262 436.481 229.216 436.649 229.13C436.817 229.043 436.963 228.918 437.073 228.764C437.184 228.61 437.256 228.432 437.284 228.245C437.312 228.058 437.296 227.866 437.235 227.687C434.955 220.906 434.269 213.69 435.231 206.601C436.192 199.512 438.776 192.74 442.78 186.812C446.784 180.883 452.102 175.958 458.319 172.419C464.537 168.88 471.486 166.822 478.628 166.405C485.77 165.988 492.912 167.224 499.499 170.016C506.085 172.809 511.939 177.082 516.606 182.504C521.273 187.927 524.626 194.352 526.406 201.282C528.185 208.211 528.343 215.457 526.867 222.457C526.802 222.767 526.862 223.09 527.035 223.355C527.207 223.62 527.478 223.806 527.788 223.871C528.098 223.936 528.421 223.876 528.686 223.703C528.951 223.53 529.136 223.259 529.202 222.95C530.755 215.59 530.59 207.971 528.719 200.686C526.849 193.4 523.324 186.644 518.417 180.942C513.511 175.241 507.356 170.747 500.431 167.812C493.506 164.876 485.997 163.576 478.488 164.015C470.978 164.453 463.672 166.617 457.135 170.339C450.598 174.06 445.008 179.239 440.798 185.473C436.589 191.706 433.873 198.827 432.863 206.28C431.853 213.734 432.575 221.32 434.974 228.45C435.054 228.686 435.206 228.892 435.409 229.037C435.611 229.183 435.855 229.262 436.104 229.262Z" fill="#3F3D56"/>
<path d="M502.386 194.12C504.071 196.421 503.24 199.522 501.464 201.506C499.153 204.087 495.468 204.25 492.268 203.771C488.677 203.233 484.869 201.551 481.233 202.685C478.135 203.651 475.925 206.461 472.706 207.167C469.851 207.793 466.437 206.964 465.437 203.922C464.956 202.459 467.259 201.833 467.738 203.287C468.385 205.256 471.181 205.216 472.782 204.671C475.348 203.797 477.326 201.672 479.849 200.657C482.823 199.46 486.05 200 489.078 200.682C491.933 201.325 495.217 202.277 498.061 201.077C500.165 200.189 501.839 197.39 500.325 195.324C499.417 194.084 501.486 192.893 502.386 194.12V194.12Z" fill="#2F2E41"/>
<path d="M668.489 340.406H517.122C516.285 340.406 515.456 340.241 514.683 339.921C513.91 339.601 513.207 339.131 512.615 338.539C512.023 337.947 511.554 337.244 511.233 336.471C510.913 335.698 510.748 334.869 510.748 334.032C510.748 333.195 510.913 332.366 511.233 331.592C511.554 330.819 512.023 330.116 512.615 329.524C513.207 328.932 513.91 328.463 514.683 328.142C515.456 327.822 516.285 327.657 517.122 327.657H668.489C670.178 327.659 671.798 328.332 672.992 329.527C674.186 330.722 674.856 332.342 674.856 334.032C674.856 335.721 674.186 337.341 672.992 338.537C671.798 339.732 670.178 340.404 668.489 340.406V340.406Z" fill="#E6E6E6"/>
<path d="M694.785 361.919H517.124C516.286 361.92 515.456 361.756 514.682 361.436C513.908 361.116 513.204 360.646 512.612 360.054C512.019 359.462 511.549 358.759 511.228 357.985C510.907 357.212 510.742 356.382 510.742 355.544C510.742 354.707 510.907 353.877 511.228 353.103C511.549 352.329 512.019 351.626 512.612 351.034C513.204 350.442 513.908 349.973 514.682 349.653C515.456 349.333 516.286 349.169 517.124 349.17H694.785C695.622 349.169 696.452 349.333 697.226 349.653C698.001 349.973 698.704 350.442 699.297 351.034C699.889 351.626 700.36 352.329 700.68 353.103C701.001 353.877 701.166 354.707 701.166 355.544C701.166 356.382 701.001 357.212 700.68 357.985C700.36 358.759 699.889 359.462 699.297 360.054C698.704 360.646 698.001 361.116 697.226 361.436C696.452 361.756 695.622 361.92 694.785 361.919Z" fill="#E6E6E6"/>
<path d="M668.489 417.728H517.122C515.432 417.728 513.811 417.057 512.615 415.861C511.42 414.666 510.748 413.045 510.748 411.354C510.748 409.663 511.42 408.042 512.615 406.847C513.811 405.651 515.432 404.979 517.122 404.979H668.489C670.179 404.979 671.801 405.651 672.996 406.847C674.192 408.042 674.863 409.663 674.863 411.354C674.863 413.045 674.192 414.666 672.996 415.861C671.801 417.057 670.179 417.728 668.489 417.728V417.728Z" fill="#E6E6E6"/>
<path d="M694.783 439.243H517.122C515.432 439.243 513.811 438.571 512.615 437.376C511.42 436.181 510.748 434.559 510.748 432.869C510.748 431.178 511.42 429.557 512.615 428.361C513.811 427.166 515.432 426.494 517.122 426.494H694.783C696.474 426.494 698.095 427.166 699.291 428.361C700.486 429.557 701.158 431.178 701.158 432.869C701.158 434.559 700.486 436.181 699.291 437.376C698.095 438.571 696.474 439.243 694.783 439.243Z" fill="#E6E6E6"/>
<path d="M457.216 371.592C472.151 371.592 484.259 359.484 484.259 344.549C484.259 329.613 472.151 317.505 457.216 317.505C442.28 317.505 430.172 329.613 430.172 344.549C430.172 359.484 442.28 371.592 457.216 371.592Z" fill="#E6E6E6"/>
<path d="M457.216 449.541C472.151 449.541 484.259 437.434 484.259 422.498C484.259 407.562 472.151 395.454 457.216 395.454C442.28 395.454 430.172 407.562 430.172 422.498C430.172 437.434 442.28 449.541 457.216 449.541Z" fill="#E6E6E6"/>
<path d="M668.489 495.679H517.122C515.432 495.679 513.811 495.007 512.615 493.812C511.42 492.616 510.748 490.995 510.748 489.304C510.748 487.614 511.42 485.992 512.615 484.797C513.811 483.601 515.432 482.93 517.122 482.93H668.489C670.179 482.93 671.801 483.601 672.996 484.797C674.192 485.992 674.863 487.614 674.863 489.304C674.863 490.995 674.192 492.616 672.996 493.812C671.801 495.007 670.179 495.679 668.489 495.679V495.679Z" fill="#E6E6E6"/>
<path d="M694.783 517.192H517.122C515.432 517.192 513.811 516.521 512.615 515.325C511.42 514.13 510.748 512.508 510.748 510.818C510.748 509.127 511.42 507.506 512.615 506.31C513.811 505.115 515.432 504.443 517.122 504.443H694.783C696.474 504.443 698.095 505.115 699.291 506.31C700.486 507.506 701.158 509.127 701.158 510.818C701.158 512.508 700.486 514.13 699.291 515.325C698.095 516.521 696.474 517.192 694.783 517.192V517.192Z" fill="#E6E6E6"/>
<path d="M457.216 527.491C472.151 527.491 484.259 515.383 484.259 500.447C484.259 485.511 472.151 473.403 457.216 473.403C442.28 473.403 430.172 485.511 430.172 500.447C430.172 515.383 442.28 527.491 457.216 527.491Z" fill="#E6E6E6"/>
</svg>
