<svg width="673" height="480" viewBox="0 0 673 480" fill="none" xmlns="http://www.w3.org/2000/svg">
<g clip-path="url(#clip0_1010_2)">
<path d="M445.875 466.996C445.875 466.996 446.814 471.163 446.814 471.201C447.039 472.477 445.612 473.791 444.447 473.942C439.752 474.617 428.669 470.788 433.027 468.723C433.44 468.535 436.446 466.658 437.084 465.306C438.174 462.866 445.912 439.551 445.912 439.551L457.032 444.657L445.875 466.996Z" fill="#F7A491"/>
<path d="M447.716 475.443C447.716 475.443 447.978 468.009 446.1 466.958C444.748 466.207 442.118 468.46 439.939 468.16C437.798 467.897 434.079 466.132 434.079 466.132C425.589 469.361 412.628 474.73 415.296 475.443C422.471 477.508 447.716 475.443 447.716 475.443Z" fill="#05173E"/>
<path d="M471.232 325.79C472.998 324.626 499.332 307.731 500.459 306.717L520.519 278.934L535.809 281.524C535.809 281.524 512.781 315.615 511.804 316.967C510.827 318.281 481.713 327.892 477.618 330.483C477.618 330.483 475.778 333.487 474.763 333.975C472.923 334.913 469.429 334.237 466.574 333.862C465.935 333.787 465.372 333.637 464.883 333.487C463.381 332.998 462.742 331.196 463.644 329.882L465.522 327.141L471.232 325.79Z" fill="#F7A491"/>
<path d="M509.888 292.037C509.888 292.037 515.298 295.641 517.326 296.618C519.806 297.819 527.845 300.86 527.845 300.86C527.845 300.86 532.015 288.207 533.668 282.05C535.659 274.616 539.979 264.291 539.002 264.254C536.335 264.179 531.902 266.131 529.085 268.309C518.829 276.343 509.888 292.037 509.888 292.037Z" fill="#F7971E"/>
<path d="M589.567 444.506C589.567 444.506 601.175 449.688 601.212 449.688C602.339 450.363 605.307 451.79 606.208 452.541C609.589 455.357 590.618 464.968 591.971 460.388C592.084 459.975 591.821 458.135 590.769 457.046C589.116 455.394 583.781 452.654 583.781 452.654L589.567 444.506Z" fill="#F7A491"/>
<path d="M528.897 327.892C528.897 327.892 514.133 338.93 513.945 339.081C493.284 355.15 463.907 384.623 461.728 388.227C456.469 397.012 441.066 451.903 441.066 451.903L452.749 456.333L480.135 397.688L544.712 353.723L528.897 327.892Z" fill="#016589"/>
<path d="M513.081 329.694L545.877 344.6L546.177 358.754L545.088 414.884C545.088 414.884 561.918 422.28 566.2 424.57C572.849 428.099 591.558 440.639 591.558 440.639C591.558 440.639 584.946 454.155 584.908 454.231C584.908 454.231 526.079 427.949 524.163 426.072C521.421 423.369 510.001 344.45 510.001 344.45L513.081 329.694Z" fill="#65B3C6"/>
<path d="M560.565 267.22C560.565 267.22 565.637 269.322 567.59 271.312C573.112 277.019 567.891 288.508 566.163 293.051C558.048 314.451 549.821 325.79 548.281 333.975C546.741 342.122 546.44 355 546.44 355C546.44 355 516.8 349.781 506.394 342.159C506.394 342.159 511.766 323.425 513.081 318.656C514.358 313.888 523.299 282.764 528.333 274.729C529.761 272.476 532.503 267.295 538.063 264.629C540.58 263.428 545.426 263.128 547.267 263.203C553.165 263.428 560.565 267.22 560.565 267.22Z" fill="#FFD800"/>
<path d="M558.687 252.202L557.147 266.018C557.147 266.018 547.342 274.203 543.247 271.65C539.791 269.51 543.923 261.776 543.923 261.776C543.923 261.776 547.98 254.793 548.394 250.888C548.807 246.983 558.687 252.202 558.687 252.202Z" fill="#F7A491"/>
<path d="M548.394 250.888C548.807 246.983 558.649 252.202 558.649 252.202L558.537 253.366C558.048 254.004 557.485 254.567 556.884 254.905C553.878 256.783 549.784 257.308 546.553 256.557C547.455 254.605 548.243 252.502 548.394 250.888Z" fill="#F48C7F"/>
<path d="M561.617 231.778C561.918 231.665 563.721 247.471 559.513 251.714C555.306 255.956 547.267 257.195 544.487 253.704C541.406 249.837 541.97 232.904 548.469 228.624C554.93 224.306 561.617 231.778 561.617 231.778Z" fill="#F7A491"/>
<path d="M551.098 220.214C556.02 221.303 559.138 224.344 560.265 225.658C562.481 225.958 565.524 227.272 568.529 232.453C572.248 238.836 569.205 245.707 564.622 249.011C560.039 252.315 558.161 256.632 558.161 256.632L558.574 252.24C558.086 250.7 558.724 251.001 558.95 249.386C559.063 248.41 559.325 247.359 559.739 246.533C560.866 244.28 557.522 242.666 556.583 240.751C555.869 239.287 555.945 235.945 554.818 233.505L553.465 231.627C553.465 231.627 550.347 229.112 547.192 229.713C544.074 230.313 544.787 218.825 551.098 220.214Z" fill="#05173E"/>
<path d="M556.696 243.567C556.621 245.482 557.485 247.096 558.612 247.133C559.739 247.171 560.715 245.669 560.791 243.754C560.866 241.84 560.002 240.225 558.875 240.188C557.748 240.113 556.771 241.652 556.696 243.567Z" fill="#F7A491"/>
<path d="M587.838 470.975C588.702 468.46 590.318 464.443 591.971 460.313C591.971 460.313 595.99 457.685 597.794 456.145C599.597 454.568 598.357 450.101 599.935 449.162C601.776 448.073 607.674 452.729 607.598 452.954C600.536 468.835 595.615 473.378 593.173 475.293C592.121 476.119 587.162 475.781 584.533 475.669C583.293 475.631 582.692 474.054 583.593 473.228C584.72 472.214 586.448 471.539 587.838 470.975Z" fill="#05173E"/>
<path d="M588.59 331.722H483.892C482.652 331.722 481.601 330.708 481.601 329.432C481.601 328.193 482.615 327.141 483.892 327.141H588.59C589.83 327.141 590.881 328.155 590.881 329.432C590.844 330.671 589.83 331.722 588.59 331.722Z" fill="#05173E"/>
<path d="M278.629 325.865C278.666 326.24 274.459 328.118 274.309 327.517C274.196 326.916 274.234 325.978 274.91 325.79C275.586 325.602 275.774 325.302 275.774 325.302C275.774 325.302 272.768 325.602 271.717 325.039C270.702 324.476 269.801 324.438 269.801 324.438L264.842 321.397C264.842 321.397 266.833 320.308 268.336 320.346C269.463 320.346 273.557 321.435 274.309 321.773C274.609 321.923 276.149 322.824 277.089 323.537C278.328 324.438 278.629 325.64 278.629 325.865Z" fill="#F7A491"/>
<path d="M660.004 440.564C659.966 440.564 659.928 440.564 659.891 440.564C659.365 440.527 647.118 439.926 641.07 432.117C638.027 428.174 637.088 423.219 638.328 417.362C639.793 410.341 644.564 403.845 649.184 397.575C658.163 385.373 666.615 373.847 654.106 357.891C643.925 344.938 627.321 338.48 615.187 335.364C601.926 331.947 590.994 331.684 590.881 331.647H590.844H427.505C426.265 331.647 425.213 330.633 425.213 329.357C425.213 328.118 426.228 327.066 427.505 327.066H591.032C591.708 327.066 602.715 327.404 616.314 330.896C624.428 332.998 631.791 335.777 638.178 339.193C646.254 343.511 652.828 348.842 657.675 355.037C672.325 373.697 661.957 387.776 652.828 400.204C648.32 406.361 644.038 412.18 642.761 418.225C641.821 422.693 642.46 426.41 644.639 429.226C649.41 435.383 659.966 435.909 660.079 435.909C661.318 435.946 662.295 437.035 662.258 438.274C662.22 439.626 661.206 440.564 660.004 440.564Z" fill="#016589"/>
<path d="M30.3896 390.667C29.0372 390.667 27.6097 390.592 26.107 390.479C24.8673 390.367 23.9282 389.278 24.0033 388.039C24.116 386.8 25.2054 385.861 26.4451 385.937C44.3268 387.326 48.985 380.267 55.3337 363.86C61.119 348.917 50.5252 312.536 50.4125 312.161C50.112 311.11 50.6004 309.983 51.5771 309.495L101.691 284.453C102.405 284.115 103.231 284.153 103.907 284.528L169.536 324.326L226.825 325.489L316.458 326.353H316.496L336.181 326.766C337.42 326.804 338.435 327.817 338.397 329.094C338.36 330.333 337.345 331.309 336.106 331.309H336.068L316.383 330.896L226.712 330.032H226.674L168.747 328.831C168.334 328.831 167.958 328.718 167.62 328.493L102.667 289.071L55.3713 312.724C57.5502 320.571 65.2513 351.02 59.6539 365.512C53.8311 380.568 48.4591 390.667 30.3896 390.667Z" fill="#016589"/>
<path d="M170.592 239.249C170.536 240.782 171.735 242.07 173.269 242.126C174.803 242.182 176.092 240.985 176.148 239.451C176.204 237.918 175.006 236.629 173.471 236.574C171.937 236.518 170.648 237.715 170.592 239.249Z" fill="#07345A"/>
<path d="M195.269 329.432C189.221 328.568 158.191 325.452 156.913 322.936C155.448 320.083 161.684 290.197 161.76 290.423L176.636 297.444C176.636 297.444 170.475 313.7 171.752 315.427C172.278 316.103 195.945 321.697 199.025 322.824C199.025 322.824 205.374 321.247 207.365 322.035C209.356 322.824 209.056 324.1 209.056 324.1L207.29 324.175C206.238 324.213 205.6 325.264 206.05 326.165C206.727 327.479 208.267 329.019 211.798 328.868C211.798 328.868 210.634 331.121 209.694 331.309C208.718 331.497 209.131 331.684 208.041 332.097C206.952 332.51 204.585 332.51 204.585 332.51C204.585 332.51 202.519 333.224 201.693 333.299C200.866 333.374 196.17 329.92 196.17 329.92L195.269 329.432Z" fill="#F7A491"/>
<path d="M158.153 298.382C158.153 298.382 161.835 301.536 166.606 303.826C170.062 305.516 174.945 306.267 174.945 306.267C174.945 306.267 181.444 295.003 184.562 289.972C188.469 283.665 172.053 267.445 171.978 267.483C164.427 271.425 158.153 298.382 158.153 298.382Z" fill="#FFF9EE"/>
<path d="M187.605 442.742C187.605 442.742 182.684 457.647 180.13 466.583C179.228 469.737 178.627 472.177 178.627 472.928C178.702 477.133 199.326 469.586 195.081 467.784C194.104 467.371 191.061 465.832 190.798 465.607C189.559 464.518 196.321 448.674 196.321 448.674L187.605 442.742Z" fill="#F7A491"/>
<path d="M203.646 469.699L191.362 465.757C191.362 465.757 187.155 468.047 180.092 466.62C180.092 466.62 178.101 469.211 177.688 472.778C177.575 473.791 178.101 475.744 179.115 475.894C181.783 476.269 187.605 475.932 194.555 476.119C194.555 476.119 201.693 476.87 207.966 474.805C214.277 472.703 203.646 469.699 203.646 469.699Z" fill="#05173E"/>
<path d="M287.87 442.854C287.87 442.854 304.324 462.978 304.399 465.869C304.475 470.074 323.934 468.911 319.689 467.108C318.712 466.695 315.669 465.156 315.406 464.931C314.167 463.842 301.169 438.462 301.169 438.462L287.87 442.854Z" fill="#F7A491"/>
<path d="M328.292 469.061L315.782 465.156C315.782 465.156 311.462 467.371 304.437 465.944C304.437 465.944 302.596 468.911 302.296 472.74C302.258 473.416 301.92 475.368 302.559 475.481C304.963 475.856 311.575 475.706 319.05 475.856C319.05 475.856 329.118 475.969 335.429 473.904C341.703 471.839 328.292 469.061 328.292 469.061Z" fill="#05173E"/>
<path d="M196.884 339.344L194.179 349.443L195.119 353.911C195.119 353.911 205.487 395.773 204.773 398.664C203.872 402.381 181.257 455.47 181.257 455.47C181.257 455.47 183.022 458.023 187.568 458.698C191.512 459.299 194.555 458.886 194.555 458.886C194.555 458.886 226.148 407.337 227.426 401.705C228.252 398.064 225.097 335.476 225.097 335.476L196.884 339.344Z" fill="#FF5B51"/>
<path d="M227.801 328.343C227.801 328.343 274.309 381.431 277.276 385.524C279.117 388.077 309.283 452.804 309.283 452.804C306.203 454.794 300.042 457.685 296.097 458.698C288.359 448.862 268.411 418.601 266.983 415.259C265.293 411.279 263.151 405.497 261.048 402.757C258.906 399.978 195.081 353.798 195.081 353.798L194.217 349.443L196.283 333.336L227.801 328.343Z" fill="#FF7768"/>
<path d="M185.314 223.668C185.314 223.668 179.604 219.801 177.199 226.559C177.199 226.559 173.969 225.583 172.579 228.887C172.579 228.887 167.056 228.474 167.507 236.508C167.507 236.508 164.727 236.583 165.065 239.85C165.403 243.116 167.507 244.843 167.507 244.843C167.507 244.843 166.268 246.308 167.582 249.048C168.709 251.414 170.851 251.338 170.851 251.338C170.851 251.338 172.316 255.393 174.419 256.257C176.523 257.12 178.852 255.957 178.852 255.957C178.852 255.957 180.017 258.059 182.083 257.421C184.149 256.745 186.328 254.154 188.883 254.53C191.437 254.905 197.373 252.615 197.373 252.615C197.373 252.615 203.609 248.035 199.965 241.427C199.965 241.427 202.857 237.372 198.838 234.143C198.838 234.143 199.814 227.498 194.405 224.869C188.995 222.241 185.314 223.668 185.314 223.668Z" fill="#FF5B51"/>
<path d="M192.188 257.083L194.555 263.503C194.555 263.503 198.65 272.589 196.509 274.992C194.33 277.395 183.022 265.756 183.022 265.756L180.205 248.823L192.188 257.083Z" fill="#F7A491"/>
<path d="M181.069 254.305C184.45 259.561 190.273 261.964 194.179 262.527L192.188 257.083L180.167 248.823L181.069 254.305Z" fill="#F48C7F"/>
<path d="M175.057 225.752C172.869 226.235 171.356 227.808 171.678 229.266C172.001 230.724 174.036 231.514 176.224 231.031C178.412 230.548 179.924 228.975 179.602 227.517C179.28 226.059 177.245 225.269 175.057 225.752Z" fill="#FF5B51"/>
<path d="M182.459 231.402C187.004 228.624 192.94 230.726 194.818 235.607C195.645 237.747 196.546 240.413 197.26 243.454C198.988 250.7 196.809 258.585 193.503 259.336C190.197 260.049 180.054 257.383 177.425 247.134C175.809 240.788 177.688 234.331 182.459 231.402Z" fill="#F7A491"/>
<path d="M178.306 250.818C179.623 250.527 180.404 248.995 180.05 247.395C179.697 245.796 178.343 244.734 177.026 245.025C175.709 245.316 174.928 246.848 175.281 248.448C175.635 250.048 176.989 251.109 178.306 250.818Z" fill="#F7A491"/>
<path d="M184.788 242.027C181.895 245.406 177.65 246.495 175.321 244.43C172.992 242.365 173.405 237.935 176.298 234.556C179.19 231.177 183.435 230.088 185.765 232.153C188.094 234.218 187.68 238.648 184.788 242.027Z" fill="#FF5B51"/>
<path d="M181.367 228.986C179.476 231.457 179.292 234.491 180.957 235.764C182.621 237.036 185.503 236.065 187.394 233.595C189.285 231.124 189.469 228.09 187.804 226.817C186.14 225.545 183.258 226.516 181.367 228.986Z" fill="#FF5B51"/>
<path d="M171.301 267.933C165.591 273.49 171.001 284.716 172.767 289.146C181.106 310.021 191.775 321.284 193.391 329.244C194.968 337.203 193.09 349.593 193.09 349.593C193.09 349.593 224.834 344.412 235.615 336.978C235.615 336.978 228.853 318.769 227.538 314.113C226.224 309.458 216.982 279.084 211.836 271.275C210.371 269.06 207.553 264.029 201.805 261.401C201.355 261.175 200.829 260.912 200.228 260.875C197.072 260.612 173.33 265.981 171.301 267.933Z" fill="#FFF9EE"/>
<path d="M270.965 323.65C269.237 322.561 243.241 306.792 242.152 305.854L222.392 279.948L207.328 282.351C207.328 282.351 230.018 314.151 230.995 315.427C231.934 316.666 256.54 324.401 260.522 326.804C260.522 326.804 265.293 331.346 265.894 331.947C267.584 333.637 272.618 332.548 275.436 332.36C277.577 332.21 280.169 330.483 280.169 330.483C280.169 330.483 277.239 329.469 276.375 328.23L275.548 325.001L270.965 323.65Z" fill="#F7A491"/>
<path d="M230.769 288.17C230.769 288.17 225.172 291.662 223.106 292.638C220.551 293.802 212.249 296.768 212.249 296.768C212.249 296.768 206.389 284.866 203.834 279.197C200.716 272.288 199.288 260.875 200.265 260.875C203.008 260.8 208.041 262.902 210.972 265.042C221.565 272.852 230.769 288.17 230.769 288.17Z" fill="#E6E6E6"/>
<path d="M73.3657 312.837L70.3979 317.155L74.0419 326.954L83.5086 314.526L73.3657 312.837Z" fill="#F7A491"/>
<path d="M71.4873 314.264C71.4873 314.264 75.3942 308.369 77.4604 304.202C79.1884 300.672 80.9165 296.58 85.8377 293.539C89.3314 291.399 89.8198 309.42 89.8198 309.42L82.5694 322.711C81.0668 319.257 74.8683 316.216 71.4873 314.264Z" fill="#FF5B51"/>
<path d="M69.5339 303.864L70.8863 301.386C70.8863 301.386 65.4767 300.86 64.237 300.823C62.246 300.785 64.7629 306.191 64.7629 306.191L63.1476 308.482C63.1476 308.482 63.974 328.531 69.2333 332.51C74.4926 336.49 76.7466 333.487 78.1742 330.295C79.4514 327.292 70.999 316.742 69.5339 303.864Z" fill="#F48C7F"/>
<path d="M143.728 233.092C140.647 218.524 118.784 221.19 115.741 232.341C112.66 243.454 112.285 240.788 92.7124 245.744C73.1403 250.738 73.7413 268.759 73.7413 268.759L76.1831 273.828L94.8537 280.398C94.8537 280.398 137.003 280.886 137.83 256.369C138.13 246.383 146.808 247.659 143.728 233.092Z" fill="#05173E"/>
<path d="M72.727 417.211L79.4514 464.781L80.09 467.259L63.1851 468.685C63.1851 468.685 69.9847 464.555 69.9095 463.804C69.346 457.61 57.3248 414.02 57.3248 414.02L72.727 417.211Z" fill="#F7A491"/>
<path d="M101.24 279.61C106.499 273.039 102.893 260.162 95.2293 257.421C90.6087 255.769 86.9647 255.356 81.1419 258.359C76.5964 260.687 73.7789 264.667 73.7037 269.735C73.6286 276.005 77.4228 280.323 81.217 284.603C82.0811 285.579 85.6874 285.767 91.3976 285.166C97.4458 283.514 96.8823 284.303 101.24 279.61Z" fill="#05173E"/>
<path d="M101.616 352.184L125.808 374.223C125.808 374.223 112.322 383.947 107.251 387.551C102.179 391.155 75.8826 413.757 75.3191 414.658C74.9059 415.334 76.3334 437.899 77.7234 450.626C74.7932 452.841 68.2566 453.292 64.3873 453.329C59.9544 436.322 55.7845 409.74 55.7845 406.811C55.747 400.692 101.616 352.184 101.616 352.184Z" fill="#012968"/>
<path d="M162.699 458.999C161.872 458.098 150.79 451.903 144.855 449.462C146.996 446.309 149.513 444.431 151.016 440.902C155.035 443.906 164.727 449.8 167.056 450.363C172.616 451.64 173.405 452.954 173.405 452.954C173.405 452.954 166.38 471.464 164.539 472.665C162.699 473.829 166.005 462.641 162.699 458.999Z" fill="#F7A491"/>
<path d="M165.817 450.101C165.854 448.636 172.391 450.476 173.894 450.851C175.584 451.302 176.636 452.766 176.673 452.992C176.824 453.667 168.409 473.754 165.742 477.208C165.554 477.433 164.99 477.846 164.878 477.921C161.196 479.723 161.158 462.528 162.811 460.087C164.314 457.947 165.591 456.633 165.817 450.101Z" fill="#05173E"/>
<path d="M158.604 441.953C147.484 431.328 133.81 423.106 132.12 421.604C132.383 417.512 133.209 377.752 131.819 367.427C129.715 352.034 120.662 350.382 120.061 341.596C120.061 341.521 119.986 340.582 120.098 340.582L95.4547 345.651C95.4547 345.651 98.3849 354.624 99.6622 358.904C99.6246 358.904 107.964 424.495 111.871 429.263C113.374 430.878 131.331 442.479 151.692 453.329C151.692 453.329 153.457 451.94 154.772 450.026C157.026 446.909 159.205 442.517 158.604 441.953Z" fill="#016589"/>
<path d="M85.4245 295.491C84.7483 296.092 83.0954 297.744 81.8932 297.969C81.8557 297.969 79.1133 306.604 76.6715 316.329C76.2958 317.042 83.1329 329.094 84.5229 331.835C88.9557 340.545 97.5585 355.6 97.7463 355.638C102.179 356.464 121.376 345.088 121.939 342.535C121.977 342.46 117.957 336.002 115.628 328.831C112.81 320.196 108.641 294.703 108.753 293.877L104.959 287.832C102.254 288.132 88.5049 292.788 85.4245 295.491Z" fill="#FF7768"/>
<path d="M90.9843 284.453C90.9843 284.453 92.5245 292.075 93.9145 294.778C95.342 297.443 93.7642 304.352 87.8663 306.83C81.9684 309.27 85.988 298.457 85.4245 295.491C84.861 292.525 81.5176 284.002 81.5176 284.002L90.9843 284.453Z" fill="#F7A491"/>
<path d="M83.1329 288.283C82.2689 285.917 81.5176 283.965 81.5176 283.965L90.9468 284.416C90.9468 284.416 91.2473 285.992 91.7357 287.945C88.5801 290.085 85.5372 289.822 83.1329 288.283Z" fill="#F48C7F"/>
<path d="M85.8753 263.728C85.8753 263.728 89.6319 264.179 92.224 267.408C94.8537 270.637 97.4458 280.623 90.496 286.143C83.5462 291.662 77.0472 285.542 76.2958 279.009C75.5445 272.439 76.0329 263.578 85.8753 263.728Z" fill="#F7A491"/>
<path d="M74.5298 273.539C73.6489 274.003 73.5784 275.599 74.3722 277.103C75.166 278.607 76.5236 279.449 77.4044 278.985C78.2853 278.521 78.3558 276.925 77.562 275.421C76.7682 273.917 75.4106 273.074 74.5298 273.539Z" fill="#F7A491"/>
<path d="M79.3763 464.743C80.7663 464.33 81.743 471.651 81.8557 473.191C82.0059 474.918 80.3155 475.331 80.0901 475.443C79.5266 475.781 58.1512 476.157 53.2676 475.556C52.8168 475.518 51.6522 474.955 51.5771 474.692C50.8258 472.402 64.5751 464.818 68.5947 465.381C71.1868 465.794 73.1403 466.695 79.3763 464.743Z" fill="#05173E"/>
<path d="M84.7483 263.616C84.7483 263.616 90.496 273.603 94.7034 274.128C98.9109 274.654 99.3992 279.91 99.3992 279.91C99.3992 279.91 98.0468 267.746 93.9145 265.38C89.7822 262.977 84.7483 263.616 84.7483 263.616Z" fill="#05173E"/>
<path d="M96.1268 273.772C94.9486 273.528 93.6995 274.745 93.337 276.491C92.9744 278.237 93.6356 279.851 94.8138 280.095C95.992 280.339 97.241 279.122 97.6036 277.376C97.9662 275.63 97.3049 274.017 96.1268 273.772Z" fill="#F7A491"/>
<path d="M30.3896 390.667C29.0372 390.667 27.6097 390.592 26.107 390.479C24.8673 390.367 23.9282 389.278 24.0033 388.039C24.116 386.8 25.2054 385.861 26.4451 385.937C44.3268 387.326 48.985 380.267 55.3337 363.86C61.119 348.917 50.5252 312.537 50.4125 312.161L49.8866 310.321L101.728 284.415C102.855 283.852 104.208 284.303 104.771 285.429C105.335 286.556 104.884 287.907 103.757 288.47L55.3337 312.687C57.5126 320.534 65.2137 350.982 59.6163 365.475C53.8311 380.568 48.4591 390.667 30.3896 390.667Z" fill="#016589"/>
<path d="M85.725 309.308C82.9827 314.601 76.3334 322.411 73.4784 325.978C68.8952 321.284 63.7111 319.708 60.0671 316.216C58.0385 314.264 59.2031 311.598 58.865 310.697L56.7237 311.147C54.0941 311.598 53.6808 308.519 53.6808 308.519C48.4215 308.181 46.8813 315.052 48.1961 315.915C49.5485 316.779 49.9242 316.366 54.0189 319.144C55.4464 320.121 71.1492 340.282 74.9059 340.582C76.9345 340.733 89.5568 327.742 92.5621 321.134C90.6087 316.028 90.1579 312.649 85.725 309.308Z" fill="#F7A491"/>
<path d="M106.424 288.883C108.641 291.249 109.204 295.191 109.016 298.232C108.753 302.925 105.673 307.205 102.855 310.997C99.0987 316.103 96.2436 319.595 91.0595 324.926C87.2653 321.472 84.0345 318.656 79.4139 315.578C79.4139 315.578 90.2706 296.205 91.7732 294.177C95.9055 288.658 101.691 283.89 106.424 288.883Z" fill="#FF5B51"/>
<path d="M69.609 300.56C69.609 300.56 68.9704 306.342 67.5053 306.379C66.7915 306.379 67.6931 302.024 67.4677 301.949C66.7915 301.724 67.2423 306.116 66.228 306.454C65.2137 306.792 65.7021 302.474 65.5143 302.474C65.2889 302.474 65.2513 306.417 64.2746 306.867C63.2978 307.318 63.8613 304.089 63.6359 303.676C63.4105 303.263 62.6216 307.092 62.0206 306.529C61.4195 306.004 61.72 303 61.72 303C61.72 303 61.9079 302.174 62.1333 301.724C62.3211 301.423 63.2603 300.485 64.1619 300.184C65.0635 299.846 68.9704 299.584 69.609 300.56Z" fill="#F7A491"/>
<path d="M543.397 332.398C549.558 331.497 581.077 328.606 582.391 325.902C583.856 322.824 574.615 291.361 574.502 291.587L557.485 298.87C557.485 298.87 568.604 315.991 567.29 317.83C566.764 318.581 542.759 324.551 539.603 325.752C539.603 325.752 533.179 324.063 531.151 324.926C529.122 325.752 529.423 327.141 529.423 327.141C529.423 327.141 533.292 327.667 532.503 329.357C531.827 330.783 529.873 331.835 526.342 331.684C526.342 331.684 527.882 334.65 528.822 334.838C529.798 335.026 529.423 335.214 530.512 335.664C531.601 336.115 534.006 336.115 534.006 336.115C534.006 336.115 536.072 336.903 536.936 336.941C537.762 337.016 542.533 333.299 542.533 333.299L543.397 332.398Z" fill="#F7A491"/>
<path d="M578.898 302.85C578.898 302.85 577.094 305.854 572.474 308.219C569.13 309.946 563.571 310.847 563.571 310.847C563.571 310.847 558.123 299.171 555.081 294.027C551.286 287.569 564.472 269.36 567.553 271.125C574.427 275.067 578.898 302.85 578.898 302.85Z" fill="#F7971E"/>
<path d="M465.297 331.872C465.297 331.872 469.767 328.305 471.082 328.193C472.397 328.042 472.434 328.831 472.359 329.319C472.284 329.807 469.992 331.271 469.992 331.271C469.992 331.271 473.223 328.793 474.2 328.568C475.214 328.38 475.74 329.019 475.627 329.469C475.515 329.882 473.261 331.91 473.261 331.91C473.261 331.91 476.642 328.606 477.581 328.906C478.52 329.244 476.116 333.637 473.975 334.237C471.833 334.801 464.508 333.599 464.095 333.149C463.756 332.66 465.297 331.872 465.297 331.872Z" fill="#F7A491"/>
<path d="M462.442 328.756C462.404 329.169 466.574 330.821 466.724 330.145C466.874 329.469 467.025 328.868 466.311 328.643C465.597 328.418 465.409 328.118 465.409 328.118C465.409 328.118 467.588 327.705 468.64 327.104C469.692 326.466 472.509 326.391 472.509 326.391L474.613 323.95C474.613 323.95 471.871 323.5 470.331 323.5C469.128 323.5 467.551 324.175 467.025 324.476C466.687 324.626 464.996 325.377 464.057 326.165C462.78 327.217 462.442 328.531 462.442 328.756Z" fill="#F7A491"/>
<path d="M340.764 334.801L329.531 332.736V325.339L340.764 323.049V334.801Z" fill="#05173E"/>
<path d="M419.804 335.326L431.036 333.261V325.865L419.804 323.537V335.326Z" fill="#05173E"/>
<path d="M393.77 308.294H373.484V314.601H393.77V308.294Z" fill="#FF7768"/>
<path d="M397.339 342.535H372.019V348.842H397.339V342.535Z" fill="#FF7768"/>
<path d="M376.114 301.311H351.32C344.107 301.311 338.284 307.13 338.284 314.339V343.473C338.284 350.682 344.107 356.501 351.32 356.501H376.114V301.311Z" fill="#FF7768"/>
<path d="M412.178 301.311H384.303V356.501H412.178C419.39 356.501 425.213 350.682 425.213 343.473V314.339C425.213 307.168 419.39 301.311 412.178 301.311Z" fill="#FF7768"/>
<path d="M375.738 359.092H371.193C370.066 359.092 369.126 358.153 369.126 357.027V299.809C369.126 298.682 370.066 297.744 371.193 297.744H375.738C376.865 297.744 377.804 298.682 377.804 299.809V357.027C377.804 358.153 376.903 359.092 375.738 359.092Z" fill="#016589"/>
<path d="M390.915 359.092H386.369C385.242 359.092 384.303 358.153 384.303 357.027V299.809C384.303 298.682 385.242 297.744 386.369 297.744H390.915C392.042 297.744 392.981 298.682 392.981 299.809V357.027C392.981 358.153 392.08 359.092 390.915 359.092Z" fill="#016589"/>
<path d="M430.397 271.875L424.95 281.374L418.226 279.497L412.779 288.245L403.087 286.631L403.725 282.951L410.938 284.153L416.535 275.142L423.147 276.982L427.167 269.998L430.397 271.875Z" fill="#65B3C6"/>
<path d="M330.508 304.652L320.065 301.311L320.515 294.327L310.823 290.836L310.373 281.036L314.092 280.886L314.43 288.17L324.422 291.774L323.972 298.645L331.635 301.085L330.508 304.652Z" fill="#65B3C6"/>
<path d="M331.109 363.335L327.39 373.659L320.44 372.946L316.571 382.482L306.766 382.558L306.729 378.841L314.054 378.766L318.036 368.929L324.873 369.642L327.616 362.096L331.109 363.335Z" fill="#65B3C6"/>
<path d="M423.034 395.698L412.365 393.07V386.087L402.448 383.271L401.358 373.509L405.04 373.096L405.904 380.342L416.085 383.271L416.122 390.142L423.936 392.094L423.034 395.698Z" fill="#65B3C6"/>
<path d="M448.392 377.189L437.798 380.117L434.379 374.035L424.349 376.438L418.602 368.516L421.607 366.338L425.927 372.233L436.22 369.755L439.639 375.724L447.377 373.584L448.392 377.189Z" fill="#65B3C6"/>
<path d="M638.253 481H11.9069C9.76562 481 8 479.761 8 478.222C8 476.682 9.72806 475.443 11.9069 475.443H638.253C640.394 475.443 642.16 476.682 642.16 478.222C642.122 479.761 640.394 481 638.253 481Z" fill="#F5DAA2"/>
<path d="M495.65 125.676L497.04 115.276L489.264 108.218C488.362 107.429 488.813 105.928 489.978 105.74L500.309 103.863L504.591 94.2887C505.08 93.1999 506.62 93.1248 507.183 94.176L512.18 103.412L522.623 104.538C523.825 104.651 524.351 106.115 523.525 106.979L516.274 114.563L518.416 124.85C518.679 126.014 517.439 126.953 516.387 126.427L506.92 121.884L497.829 127.103C496.777 127.704 495.5 126.878 495.65 125.676Z" fill="#FF7768"/>
<path d="M274.346 174.71L272.205 179.778L266.608 179.966L264.617 185.785L258.606 184.171L256.051 190.666L250.341 189.84L246.848 195.66L249.064 196.974L251.656 192.618L257.704 193.482L260.146 187.25L266.27 188.902L268.486 182.481L273.933 182.294L275.924 177.601L279.53 178.239L279.981 175.686L274.346 174.71Z" fill="#65B3C6"/>
<path d="M403.688 120.382L408.045 123.724L413.004 121.171L417.587 125.263L422.058 120.908L427.43 125.338L432.05 121.809L437.911 125.226L436.633 127.441L432.238 124.888L427.392 128.605L422.208 124.362L417.662 128.792L412.591 124.287L407.745 126.765L403.725 123.649L400.87 125.977L399.255 123.987L403.688 120.382Z" fill="#65B3C6"/>
<path d="M223.031 136.414C227.276 142.646 225.66 151.094 219.462 155.337C213.226 159.579 204.773 157.965 200.528 151.77C196.283 145.537 197.899 137.09 204.097 132.847C210.295 128.605 218.785 130.219 223.031 136.414Z" fill="#FFBF91"/>
<path d="M206.952 150.005C209.206 153.347 213.752 154.173 217.095 151.92C220.438 149.667 221.265 145.124 219.011 141.783L206.952 150.005Z" fill="#EFEFEF"/>
<path d="M391.14 -1L390.164 3.84328L382.237 3.09238L379.908 9.96308L373.897 10.4136L374.123 13.4547L382.162 12.8916L384.341 6.35878L392.606 7.10967L394.108 -0.13647L391.14 -1Z" fill="#FFBF91"/>
<path d="M604.894 142.646L609.777 142.609C609.777 142.609 615.976 137.991 616.201 136.339C616.389 134.687 615.45 131.158 616.389 130.745C617.366 130.332 619.394 129.994 620.634 132.209C621.536 133.823 620.709 139.605 621.273 140.018C621.648 140.281 624.428 140.319 626.494 140.319C627.847 140.319 629.086 141.107 629.688 142.308C630.101 143.134 629.913 144.148 629.199 144.749L628.11 145.65L628.974 146.814C629.612 147.677 629.425 148.916 628.561 149.555L627.696 150.23L628.298 150.906C629.049 151.807 628.861 153.159 627.922 153.797L627.133 154.323L627.246 154.548C627.697 155.449 627.434 156.575 626.569 157.139L625.781 157.664L612.745 157.777C611.505 157.777 610.303 157.552 609.176 157.064L604.593 156.313C604.105 156.238 603.729 155.787 603.729 155.299L603.842 143.698C603.917 143.097 604.368 142.646 604.894 142.646Z" fill="#016589"/>
<path d="M255.488 53.853L260.146 55.3172C260.146 55.3172 267.472 52.8392 268.185 51.3374C268.899 49.8357 269.049 46.1938 270.101 46.0812C271.153 45.9685 273.182 46.2689 273.708 48.7844C274.083 50.5866 271.491 55.8428 271.904 56.406C272.167 56.7439 274.835 57.6825 276.788 58.3208C278.065 58.7338 279.005 59.8601 279.23 61.2117C279.38 62.1128 278.854 63.0139 278.028 63.3518L276.713 63.8774L277.164 65.2666C277.502 66.2803 276.938 67.4066 275.924 67.7445L274.91 68.12L275.248 68.946C275.699 70.0348 275.098 71.2737 274.008 71.6116L273.107 71.8745L273.144 72.0997C273.294 73.1134 272.693 74.0896 271.717 74.3524L270.815 74.6152L258.381 70.7106C257.216 70.3351 256.127 69.7344 255.225 68.946L251.093 66.8434C250.642 66.6182 250.454 66.0926 250.604 65.6045L254.286 54.6039C254.398 53.9656 254.962 53.6652 255.488 53.853Z" fill="#FF7768"/>
<path d="M204.886 57.6449L204.773 49.9858L211.047 45.5555C211.761 45.0674 211.573 43.9411 210.746 43.6783L203.421 41.3881L201.129 34.0668C200.866 33.2408 199.777 33.0531 199.251 33.7665L194.818 40.0364L187.155 39.9238C186.29 39.9238 185.765 40.9 186.29 41.6133L190.874 47.7707L188.394 55.0168C188.131 55.8428 188.92 56.6312 189.747 56.3684L196.997 53.928L203.158 58.5085C203.909 59.0341 204.886 58.5085 204.886 57.6449Z" fill="#65B3C6"/>
<path d="M118.145 136.602L121.563 132.246L119.911 126.953C119.723 126.352 120.324 125.789 120.887 126.014L126.109 127.929L130.655 124.737C131.18 124.362 131.894 124.775 131.857 125.376L131.631 130.932L136.064 134.236C136.552 134.612 136.44 135.4 135.801 135.588L130.467 137.09L128.701 142.346C128.513 142.947 127.687 143.059 127.349 142.534L124.268 137.916L118.708 137.841C118.107 137.841 117.769 137.127 118.145 136.602Z" fill="#016589"/>
<path d="M495.049 31.4011L498.468 27.0459L496.815 21.7521C496.627 21.1514 497.228 20.5882 497.792 20.8135L503.013 22.7283L507.559 19.537C508.085 19.1615 508.799 19.5745 508.761 20.1752L508.536 25.7319L512.968 29.0358C513.457 29.4113 513.344 30.1997 512.706 30.3874L507.371 31.8892L505.605 37.1455C505.418 37.7462 504.591 37.8588 504.253 37.3332L501.173 32.7152L495.613 32.6401C494.974 32.6401 494.636 31.9268 495.049 31.4011Z" fill="#65B3C6"/>
<path d="M103.682 34.7802L105.598 29.599L102.405 25.0561C102.029 24.5305 102.442 23.8171 103.043 23.8547L108.603 24.0799L111.909 19.6496C112.285 19.1616 113.073 19.2742 113.261 19.9125L114.764 25.2438L120.023 27.046C120.624 27.2337 120.737 28.0597 120.211 28.3976L115.59 31.4763L115.515 37.0329C115.515 37.6711 114.764 38.009 114.276 37.6336L109.918 34.217L104.621 35.869C104.02 35.9441 103.456 35.3809 103.682 34.7802Z" fill="#FF7768"/>
<path d="M618.23 231.215L611.58 229.788L609.852 235.87L603.241 234.781L600.874 240.375L595.765 240.338V242.929L602.565 242.966L604.818 237.635L611.693 238.799L613.421 232.829L619.432 234.105L618.23 231.215Z" fill="#65B3C6"/>
<path d="M261.799 215.896L266.307 210.828L271.303 214.695L275.962 209.889L281.221 213.005L285.316 209.964L286.818 212.029L281.371 216.084L276.412 213.155L271.566 218.149L266.645 214.319L262.55 218.937L261.799 215.896Z" fill="#FFBF91"/>
<path d="M40.3823 213.118L45.1908 215.746L49.6988 212.405L54.883 215.709L58.5645 210.678L64.6127 214.169L68.5947 209.964L74.9435 212.367L74.0419 214.77L69.2709 212.968L65.101 217.436L59.2782 214.057L55.5216 219.163L49.8115 215.521L45.4162 218.787L40.9458 216.347L38.504 219.088L36.5881 217.398L40.3823 213.118Z" fill="#FFBF91"/>
<path d="M427.693 52.3887L428.106 56.5186L421.569 57.9078L421.419 63.99L416.686 65.8673L417.625 68.2701L423.936 65.7922L424.086 60.0103L430.886 58.546L430.285 52.3511L427.693 52.3887Z" fill="#016589"/>
<path d="M504.929 183.157L508.385 185.447L505.305 191.417L509.963 195.397L508.385 200.202L510.827 201.028L512.931 194.533L508.536 190.779L511.729 184.584L506.545 181.13L504.929 183.157Z" fill="#FFBF91"/>
<path d="M473.524 213.568L477.431 212.179L480.361 218.224L486.334 216.91L489.264 221.077L491.368 219.576L487.461 214.019L481.788 215.258L478.745 208.988L472.885 211.09L473.524 213.568Z" fill="#FF7768"/>
<path d="M97.596 168.965L101.728 168.928L102.555 175.573L108.603 176.287L110.031 181.13L112.51 180.416L110.594 173.921L104.846 173.245L104.02 166.337L97.7839 166.412L97.596 168.965Z" fill="#65B3C6"/>
<path d="M576.869 116.665C587.575 116.665 596.253 107.992 596.253 97.2922C596.253 86.5928 587.575 77.9191 576.869 77.9191C566.163 77.9191 557.485 86.5928 557.485 97.2922C557.485 107.992 566.163 116.665 576.869 116.665Z" fill="#FFE1C8"/>
<path d="M590.13 97.1045L582.466 101.084L581.415 109.644C581.339 110.32 580.475 110.621 579.987 110.133L573.826 104.088L565.336 105.74C564.66 105.89 564.096 105.177 564.435 104.538L568.304 96.8041L564.134 89.2576C563.796 88.6569 564.322 87.906 564.998 88.0187L573.526 89.2952L579.424 82.9877C579.912 82.462 580.738 82.7248 580.851 83.4382L582.279 91.9609L590.092 95.6027C590.731 95.9031 590.769 96.7666 590.13 97.1045Z" fill="#FFBF91"/>
<path d="M330.921 95.9407L324.836 100.033C324.159 100.484 324.347 101.572 325.099 101.873L332.199 104.764L334.415 112.498C334.64 113.324 335.692 113.587 336.143 112.911L340.463 106.791L347.901 107.467C348.728 107.542 349.179 106.603 348.69 105.89L344.22 99.207L346.624 91.9234C346.887 91.1349 346.173 90.3089 345.384 90.5342L338.322 92.5241L332.349 87.3429C331.71 86.7797 330.771 87.1927 330.809 88.0562L330.921 95.9407Z" fill="#016589"/>
</g>
<defs>
<clipPath id="clip0_1010_2">
<rect width="672.531" height="480" fill="white"/>
</clipPath>
</defs>
</svg>
