<svg width="300" height="168" viewBox="0 0 300 168" fill="none" xmlns="http://www.w3.org/2000/svg">
<g clip-path="url(#clip0_1309_2079)">
<rect width="300" height="168" rx="20" fill="white"/>
<rect x="-18" y="-5" width="58" height="178" rx="2" fill="#555CB8"/>
<rect x="47" y="76" width="242" height="83" rx="2" fill="#555CB8"/>
<path d="M81.9932 105.828V130H77.0293V105.828H81.9932ZM89.4307 105.828V109.729H69.708V105.828H89.4307Z" fill="white"/>
<path d="M97.9957 104.5V130H93.2145V104.5H97.9957ZM97.3151 120.388H96.0036C96.0146 119.137 96.1806 117.986 96.5016 116.935C96.8226 115.872 97.2819 114.953 97.8795 114.179C98.4772 113.393 99.1911 112.784 100.021 112.353C100.862 111.921 101.792 111.705 102.81 111.705C103.696 111.705 104.498 111.832 105.217 112.087C105.948 112.33 106.573 112.729 107.093 113.282C107.625 113.825 108.034 114.538 108.322 115.424C108.61 116.309 108.754 117.383 108.754 118.645V130H103.939V118.611C103.939 117.814 103.823 117.189 103.59 116.735C103.369 116.271 103.043 115.944 102.611 115.756C102.19 115.557 101.67 115.457 101.05 115.457C100.364 115.457 99.7776 115.584 99.2907 115.839C98.8148 116.093 98.4329 116.448 98.1452 116.901C97.8574 117.344 97.6471 117.864 97.5143 118.462C97.3815 119.06 97.3151 119.701 97.3151 120.388Z" fill="white"/>
<path d="M122.017 130.332C120.622 130.332 119.372 130.111 118.265 129.668C117.158 129.214 116.217 128.589 115.443 127.792C114.679 126.995 114.092 126.071 113.683 125.02C113.273 123.957 113.069 122.828 113.069 121.633V120.969C113.069 119.607 113.262 118.362 113.65 117.233C114.037 116.104 114.59 115.125 115.31 114.295C116.04 113.465 116.926 112.828 117.966 112.386C119.006 111.932 120.18 111.705 121.486 111.705C122.758 111.705 123.887 111.915 124.872 112.336C125.857 112.757 126.682 113.354 127.346 114.129C128.021 114.904 128.53 115.833 128.873 116.918C129.216 117.992 129.388 119.187 129.388 120.504V122.496H115.111V119.309H124.69V118.943C124.69 118.279 124.568 117.687 124.324 117.167C124.092 116.636 123.738 116.215 123.262 115.905C122.786 115.595 122.177 115.44 121.436 115.44C120.805 115.44 120.263 115.579 119.809 115.855C119.355 116.132 118.984 116.52 118.697 117.018C118.42 117.516 118.21 118.102 118.066 118.777C117.933 119.441 117.866 120.172 117.866 120.969V121.633C117.866 122.352 117.966 123.016 118.165 123.625C118.376 124.234 118.669 124.759 119.045 125.202C119.433 125.645 119.897 125.988 120.44 126.231C120.993 126.475 121.618 126.597 122.316 126.597C123.179 126.597 123.981 126.431 124.723 126.099C125.476 125.756 126.123 125.241 126.665 124.555L128.99 127.078C128.613 127.62 128.099 128.141 127.446 128.639C126.804 129.137 126.029 129.546 125.121 129.867C124.214 130.177 123.179 130.332 122.017 130.332Z" fill="white"/>
<path d="M138.252 115.756V130H133.454V112.037H137.953L138.252 115.756ZM137.588 120.388H136.26C136.26 119.137 136.409 117.986 136.708 116.935C137.018 115.872 137.466 114.953 138.053 114.179C138.65 113.393 139.386 112.784 140.261 112.353C141.135 111.921 142.148 111.705 143.299 111.705C144.096 111.705 144.826 111.827 145.49 112.07C146.154 112.303 146.724 112.674 147.2 113.183C147.687 113.681 148.063 114.334 148.329 115.142C148.595 115.938 148.727 116.896 148.727 118.014V130H143.946V118.545C143.946 117.726 143.836 117.095 143.614 116.652C143.393 116.21 143.077 115.9 142.668 115.723C142.269 115.546 141.788 115.457 141.224 115.457C140.604 115.457 140.061 115.584 139.597 115.839C139.143 116.093 138.767 116.448 138.468 116.901C138.169 117.344 137.948 117.864 137.804 118.462C137.66 119.06 137.588 119.701 137.588 120.388ZM148.279 119.84L146.569 120.056C146.569 118.882 146.713 117.792 147.001 116.785C147.3 115.778 147.737 114.893 148.312 114.129C148.899 113.365 149.624 112.773 150.487 112.353C151.351 111.921 152.347 111.705 153.476 111.705C154.339 111.705 155.125 111.832 155.833 112.087C156.541 112.33 157.144 112.723 157.643 113.266C158.152 113.797 158.539 114.494 158.805 115.357C159.081 116.221 159.22 117.278 159.22 118.528V130H154.422V118.528C154.422 117.698 154.311 117.067 154.09 116.636C153.879 116.193 153.57 115.889 153.16 115.723C152.762 115.546 152.286 115.457 151.732 115.457C151.157 115.457 150.653 115.573 150.222 115.806C149.79 116.027 149.43 116.337 149.143 116.735C148.855 117.134 148.639 117.599 148.495 118.13C148.351 118.65 148.279 119.22 148.279 119.84Z" fill="white"/>
<path d="M172.549 130.332C171.155 130.332 169.904 130.111 168.797 129.668C167.691 129.214 166.75 128.589 165.975 127.792C165.211 126.995 164.625 126.071 164.215 125.02C163.806 123.957 163.601 122.828 163.601 121.633V120.969C163.601 119.607 163.795 118.362 164.182 117.233C164.57 116.104 165.123 115.125 165.842 114.295C166.573 113.465 167.458 112.828 168.499 112.386C169.539 111.932 170.712 111.705 172.018 111.705C173.291 111.705 174.42 111.915 175.405 112.336C176.39 112.757 177.214 113.354 177.878 114.129C178.554 114.904 179.063 115.833 179.406 116.918C179.749 117.992 179.92 119.187 179.92 120.504V122.496H165.643V119.309H175.222V118.943C175.222 118.279 175.1 117.687 174.857 117.167C174.625 116.636 174.27 116.215 173.794 115.905C173.319 115.595 172.71 115.44 171.968 115.44C171.337 115.44 170.795 115.579 170.341 115.855C169.888 116.132 169.517 116.52 169.229 117.018C168.952 117.516 168.742 118.102 168.598 118.777C168.465 119.441 168.399 120.172 168.399 120.969V121.633C168.399 122.352 168.499 123.016 168.698 123.625C168.908 124.234 169.201 124.759 169.578 125.202C169.965 125.645 170.43 125.988 170.972 126.231C171.526 126.475 172.151 126.597 172.848 126.597C173.711 126.597 174.514 126.431 175.255 126.099C176.008 125.756 176.655 125.241 177.198 124.555L179.522 127.078C179.146 127.62 178.631 128.141 177.978 128.639C177.336 129.137 176.561 129.546 175.654 129.867C174.746 130.177 173.711 130.332 172.549 130.332Z" fill="white"/>
<path d="M201.55 130H196.287L196.32 126.115H201.55C202.856 126.115 203.957 125.822 204.853 125.235C205.75 124.638 206.425 123.769 206.879 122.629C207.344 121.489 207.576 120.111 207.576 118.495V117.316C207.576 116.077 207.443 114.987 207.178 114.046C206.923 113.105 206.541 112.314 206.032 111.672C205.523 111.03 204.898 110.549 204.156 110.228C203.415 109.896 202.562 109.729 201.599 109.729H196.187V105.828H201.599C203.215 105.828 204.693 106.105 206.032 106.658C207.382 107.201 208.55 107.981 209.535 108.999C210.52 110.017 211.278 111.235 211.809 112.651C212.352 114.057 212.623 115.623 212.623 117.35V118.495C212.623 120.211 212.352 121.777 211.809 123.193C211.278 124.61 210.52 125.827 209.535 126.846C208.561 127.853 207.393 128.633 206.032 129.187C204.682 129.729 203.188 130 201.55 130ZM199.109 105.828V130H194.129V105.828H199.109Z" fill="white"/>
<path d="M226.999 125.949V117.947C226.999 117.372 226.904 116.879 226.716 116.47C226.528 116.049 226.235 115.723 225.836 115.49C225.449 115.258 224.945 115.142 224.326 115.142C223.794 115.142 223.335 115.236 222.948 115.424C222.56 115.601 222.262 115.861 222.051 116.204C221.841 116.536 221.736 116.929 221.736 117.383H216.955C216.955 116.619 217.132 115.894 217.486 115.208C217.84 114.522 218.355 113.919 219.03 113.398C219.705 112.867 220.507 112.452 221.437 112.153C222.378 111.854 223.429 111.705 224.591 111.705C225.986 111.705 227.225 111.938 228.31 112.402C229.395 112.867 230.247 113.564 230.867 114.494C231.498 115.424 231.813 116.586 231.813 117.98V125.667C231.813 126.652 231.874 127.46 231.996 128.091C232.117 128.711 232.294 129.253 232.527 129.718V130H227.696C227.463 129.513 227.286 128.904 227.165 128.174C227.054 127.432 226.999 126.691 226.999 125.949ZM227.629 119.06L227.663 121.766H224.99C224.359 121.766 223.811 121.838 223.346 121.981C222.881 122.125 222.499 122.33 222.201 122.596C221.902 122.85 221.68 123.149 221.537 123.492C221.404 123.835 221.337 124.212 221.337 124.621C221.337 125.031 221.431 125.401 221.62 125.733C221.808 126.054 222.079 126.309 222.433 126.497C222.787 126.674 223.202 126.763 223.678 126.763C224.398 126.763 225.023 126.619 225.554 126.331C226.085 126.043 226.495 125.689 226.783 125.269C227.082 124.848 227.236 124.45 227.248 124.073L228.509 126.099C228.332 126.552 228.089 127.023 227.779 127.51C227.48 127.997 227.098 128.456 226.633 128.888C226.168 129.308 225.61 129.657 224.957 129.934C224.304 130.199 223.529 130.332 222.632 130.332C221.492 130.332 220.457 130.105 219.528 129.651C218.609 129.187 217.879 128.55 217.336 127.742C216.805 126.923 216.54 125.993 216.54 124.953C216.54 124.012 216.717 123.177 217.071 122.446C217.425 121.716 217.945 121.102 218.631 120.604C219.329 120.094 220.197 119.713 221.238 119.458C222.278 119.192 223.485 119.06 224.857 119.06H227.629Z" fill="white"/>
<path d="M241.64 115.955V130H236.859V112.037H241.358L241.64 115.955ZM247.052 111.921L246.969 116.354C246.736 116.32 246.454 116.293 246.122 116.271C245.801 116.237 245.508 116.221 245.242 116.221C244.567 116.221 243.981 116.309 243.483 116.486C242.996 116.652 242.586 116.901 242.254 117.233C241.933 117.565 241.69 117.969 241.524 118.445C241.369 118.921 241.28 119.464 241.258 120.072L240.295 119.773C240.295 118.611 240.411 117.543 240.644 116.569C240.876 115.584 241.214 114.727 241.656 113.996C242.11 113.266 242.664 112.701 243.317 112.303C243.97 111.904 244.717 111.705 245.558 111.705C245.823 111.705 246.095 111.727 246.371 111.771C246.648 111.805 246.875 111.854 247.052 111.921Z" fill="white"/>
<path d="M255.451 104.483V130H250.67V104.483H255.451ZM266.773 112.037L258.97 120.936L254.787 125.169L253.044 121.716L256.364 117.499L261.029 112.037H266.773ZM261.809 130L256.497 121.699L259.801 118.811L267.321 130H261.809Z" fill="white"/>
<rect width="76" height="45" rx="2" transform="matrix(1 0 0 -1 213 71)" fill="#555CB8"/>
<rect width="78" height="45" rx="2" transform="matrix(1 0 0 -1 129 71)" fill="#555CB8"/>
<rect width="76" height="45" rx="2" transform="matrix(1 0 0 -1 47 71)" fill="#555CB8"/>
<rect x="47" y="9" width="242" height="11" rx="2" fill="#555CB8"/>
</g>
<defs>
<clipPath id="clip0_1309_2079">
<rect width="300" height="168" rx="20" fill="white"/>
</clipPath>
</defs>
</svg>
