<svg width="300" height="168" viewBox="0 0 300 168" fill="none" xmlns="http://www.w3.org/2000/svg">
<rect width="300" height="168" rx="20" fill="white"/>
<path d="M63.75 90L56.6406 71.8359H33.75L26.7188 90H20L42.5781 32.6562H48.1641L70.625 90H63.75ZM54.5703 65.8594L47.9297 48.1641C47.0703 45.9245 46.1849 43.1771 45.2734 39.9219C44.7005 42.4219 43.8802 45.1693 42.8125 48.1641L36.0938 65.8594H54.5703ZM103.828 90L102.539 83.9062H102.227C100.091 86.5885 97.9557 88.4115 95.8203 89.375C93.7109 90.3125 91.0677 90.7812 87.8906 90.7812C83.6458 90.7812 80.3125 89.6875 77.8906 87.5C75.4948 85.3125 74.2969 82.2005 74.2969 78.1641C74.2969 69.5182 81.2109 64.987 95.0391 64.5703L102.305 64.3359V61.6797C102.305 58.3203 101.576 55.8464 100.117 54.2578C98.6849 52.6432 96.3802 51.8359 93.2031 51.8359C89.6354 51.8359 85.599 52.9297 81.0938 55.1172L79.1016 50.1562C81.2109 49.0104 83.5156 48.112 86.0156 47.4609C88.5417 46.8099 91.0677 46.4844 93.5938 46.4844C98.6979 46.4844 102.474 47.6172 104.922 49.8828C107.396 52.1484 108.633 55.7812 108.633 60.7812V90H103.828ZM89.1797 85.4297C93.2161 85.4297 96.3802 84.3229 98.6719 82.1094C100.99 79.8958 102.148 76.7969 102.148 72.8125V68.9453L95.6641 69.2188C90.5078 69.401 86.7839 70.2083 84.4922 71.6406C82.2266 73.0469 81.0938 75.2474 81.0938 78.2422C81.0938 80.5859 81.7969 82.3698 83.2031 83.5938C84.6354 84.8177 86.6276 85.4297 89.1797 85.4297Z" fill="#4D4D4D"/>
<path d="M50.1465 124.968C50.1465 129.767 48.9297 133.54 46.4961 136.288C44.0762 139.036 40.7061 140.41 36.3857 140.41C31.9697 140.41 28.5586 139.063 26.1523 136.37C23.7598 133.663 22.5635 129.849 22.5635 124.927C22.5635 120.046 23.7666 116.266 26.1729 113.586C28.5791 110.893 31.9971 109.546 36.4268 109.546C40.7334 109.546 44.0967 110.913 46.5166 113.647C48.9365 116.382 50.1465 120.155 50.1465 124.968ZM26.2549 124.968C26.2549 129.028 27.1162 132.111 28.8389 134.217C30.5752 136.309 33.0908 137.354 36.3857 137.354C39.708 137.354 42.2168 136.309 43.9121 134.217C45.6074 132.125 46.4551 129.042 46.4551 124.968C46.4551 120.935 45.6074 117.879 43.9121 115.801C42.2305 113.709 39.7354 112.663 36.4268 112.663C33.1045 112.663 30.5752 113.716 28.8389 115.821C27.1162 117.913 26.2549 120.962 26.2549 124.968ZM68.0588 140.41C66.5959 140.41 65.2561 140.144 64.0393 139.61C62.8362 139.063 61.8245 138.229 61.0041 137.108H60.758C60.9221 138.421 61.0041 139.665 61.0041 140.841V150.09H57.5998V117.523H60.3684L60.8401 120.6H61.0041C61.8791 119.369 62.8977 118.48 64.0598 117.934C65.2219 117.387 66.5549 117.113 68.0588 117.113C71.0393 117.113 73.3362 118.132 74.9495 120.169C76.5764 122.206 77.3899 125.063 77.3899 128.741C77.3899 132.433 76.5627 135.304 74.9084 137.354C73.2678 139.392 70.9846 140.41 68.0588 140.41ZM67.5666 120.005C65.2698 120.005 63.6086 120.641 62.5832 121.912C61.5578 123.184 61.0315 125.207 61.0041 127.982V128.741C61.0041 131.899 61.5305 134.162 62.5832 135.529C63.636 136.883 65.3245 137.56 67.6487 137.56C69.5901 137.56 71.1077 136.773 72.2014 135.201C73.3088 133.629 73.8625 131.462 73.8625 128.7C73.8625 125.897 73.3088 123.751 72.2014 122.261C71.1077 120.757 69.5627 120.005 67.5666 120.005ZM94.1128 140.41C90.7905 140.41 88.1655 139.398 86.2378 137.375C84.3237 135.352 83.3667 132.542 83.3667 128.946C83.3667 125.323 84.2554 122.445 86.0327 120.313C87.8237 118.18 90.2231 117.113 93.2309 117.113C96.0473 117.113 98.2759 118.043 99.9165 119.902C101.557 121.748 102.377 124.188 102.377 127.224V129.377H86.894C86.9624 132.016 87.6255 134.019 88.8833 135.386C90.1548 136.753 91.9389 137.437 94.2358 137.437C96.6557 137.437 99.0483 136.931 101.414 135.919V138.954C100.21 139.474 99.0688 139.843 97.9888 140.062C96.9223 140.294 95.6304 140.41 94.1128 140.41ZM93.1899 119.964C91.3852 119.964 89.9429 120.552 88.8628 121.728C87.7964 122.903 87.1675 124.53 86.9761 126.608H98.727C98.727 124.462 98.2485 122.821 97.2915 121.687C96.3345 120.538 94.9673 119.964 93.1899 119.964ZM124.842 140L124.842 125.46C124.842 123.628 124.426 122.261 123.592 121.358C122.758 120.456 121.452 120.005 119.675 120.005C117.323 120.005 115.6 120.641 114.507 121.912C113.413 123.184 112.866 125.282 112.866 128.208L112.866 140H109.462L109.462 117.523H112.23L112.784 120.6H112.948C113.645 119.492 114.623 118.638 115.881 118.036C117.138 117.421 118.54 117.113 120.085 117.113C122.792 117.113 124.829 117.77 126.196 119.082C127.563 120.381 128.247 122.466 128.247 125.337V140H124.842ZM166.122 132.022C166.122 134.661 165.165 136.719 163.251 138.195C161.337 139.672 158.739 140.41 155.458 140.41C151.904 140.41 149.169 139.952 147.255 139.036V135.673C148.486 136.192 149.825 136.603 151.275 136.903C152.724 137.204 154.159 137.354 155.581 137.354C157.905 137.354 159.655 136.917 160.831 136.042C162.007 135.153 162.595 133.923 162.595 132.351C162.595 131.312 162.383 130.464 161.959 129.808C161.549 129.138 160.852 128.522 159.867 127.962C158.897 127.401 157.413 126.766 155.417 126.055C152.628 125.057 150.632 123.874 149.429 122.507C148.239 121.14 147.645 119.355 147.645 117.154C147.645 114.844 148.513 113.005 150.249 111.638C151.986 110.271 154.282 109.587 157.14 109.587C160.12 109.587 162.862 110.134 165.363 111.228L164.277 114.263C161.802 113.224 159.396 112.704 157.058 112.704C155.212 112.704 153.77 113.101 152.731 113.894C151.692 114.687 151.172 115.787 151.172 117.195C151.172 118.234 151.363 119.089 151.746 119.759C152.129 120.415 152.772 121.023 153.674 121.584C154.59 122.131 155.985 122.739 157.858 123.409C161.002 124.53 163.162 125.733 164.338 127.019C165.528 128.304 166.122 129.972 166.122 132.022ZM186.824 140L186.147 136.801H185.983C184.862 138.209 183.741 139.166 182.62 139.672C181.512 140.164 180.124 140.41 178.456 140.41C176.228 140.41 174.478 139.836 173.206 138.688C171.949 137.539 171.32 135.905 171.32 133.786C171.32 129.247 174.95 126.868 182.209 126.649L186.024 126.526V125.132C186.024 123.368 185.641 122.069 184.875 121.235C184.123 120.388 182.914 119.964 181.246 119.964C179.372 119.964 177.253 120.538 174.888 121.687L173.842 119.082C174.95 118.48 176.16 118.009 177.472 117.667C178.798 117.325 180.124 117.154 181.451 117.154C184.13 117.154 186.113 117.749 187.398 118.938C188.697 120.128 189.346 122.035 189.346 124.66V140H186.824ZM179.133 137.601C181.252 137.601 182.914 137.02 184.117 135.857C185.333 134.695 185.942 133.068 185.942 130.977V128.946L182.538 129.09C179.831 129.186 177.875 129.609 176.672 130.361C175.483 131.1 174.888 132.255 174.888 133.827C174.888 135.058 175.257 135.994 175.996 136.637C176.747 137.279 177.793 137.601 179.133 137.601ZM213.021 140V125.46C213.021 123.628 212.604 122.261 211.77 121.358C210.936 120.456 209.631 120.005 207.853 120.005C205.502 120.005 203.779 120.641 202.685 121.912C201.591 123.184 201.045 125.282 201.045 128.208V140H197.64V117.523H200.409L200.963 120.6H201.127C201.824 119.492 202.801 118.638 204.059 118.036C205.317 117.421 206.718 117.113 208.263 117.113C210.97 117.113 213.008 117.77 214.375 119.082C215.742 120.381 216.425 122.466 216.425 125.337V140H213.021ZM239.198 133.868C239.198 135.96 238.419 137.573 236.86 138.708C235.302 139.843 233.114 140.41 230.298 140.41C227.317 140.41 224.993 139.938 223.325 138.995V135.837C224.405 136.384 225.56 136.814 226.791 137.129C228.035 137.443 229.231 137.601 230.38 137.601C232.157 137.601 233.524 137.32 234.481 136.76C235.438 136.186 235.917 135.317 235.917 134.155C235.917 133.28 235.534 132.535 234.768 131.92C234.017 131.291 232.54 130.553 230.339 129.705C228.247 128.926 226.757 128.249 225.868 127.675C224.993 127.087 224.337 126.424 223.899 125.686C223.476 124.947 223.264 124.065 223.264 123.04C223.264 121.208 224.009 119.766 225.499 118.713C226.989 117.646 229.033 117.113 231.631 117.113C234.051 117.113 236.416 117.605 238.726 118.59L237.517 121.358C235.261 120.429 233.217 119.964 231.385 119.964C229.771 119.964 228.555 120.217 227.734 120.723C226.914 121.229 226.504 121.926 226.504 122.814C226.504 123.416 226.654 123.929 226.955 124.353C227.269 124.776 227.768 125.18 228.452 125.563C229.136 125.945 230.448 126.499 232.39 127.224C235.056 128.194 236.853 129.172 237.783 130.156C238.726 131.141 239.198 132.378 239.198 133.868Z" fill="#7D7D7D"/>
</svg>
