<svg width="300" height="168" viewBox="0 0 300 168" fill="none" xmlns="http://www.w3.org/2000/svg">
<rect width="300" height="168" rx="20" fill="white"/>
<path d="M75.52 81.24C75.7333 81.6667 75.84 82.12 75.84 82.6C75.84 83.4 75.52 84.0667 74.88 84.6C74.2933 85.1333 73.5733 85.4 72.72 85.4C71.3867 85.4 70.4533 84.76 69.92 83.48L64.24 70.52H34.08L28.32 83.48C27.7867 84.76 26.8533 85.4 25.52 85.4C24.6667 85.4 23.92 85.1333 23.28 84.6C22.64 84.0133 22.32 83.32 22.32 82.52C22.32 82.0933 22.4267 81.6667 22.64 81.24L45.52 30.36C45.84 29.6133 46.32 29.0533 46.96 28.68C47.6 28.3067 48.2933 28.12 49.04 28.12C49.84 28.12 50.56 28.3333 51.2 28.76C51.84 29.1333 52.32 29.6667 52.64 30.36L75.52 81.24ZM36.48 65.08H61.84L49.12 36.36L36.48 65.08ZM100.045 45.08C109.805 45.08 114.685 50.2 114.685 60.44V82.2C114.685 83.16 114.392 83.9333 113.805 84.52C113.272 85.1067 112.525 85.4 111.565 85.4C110.605 85.4 109.832 85.1067 109.245 84.52C108.658 83.9333 108.365 83.16 108.365 82.2V78.36C107.352 80.6533 105.805 82.44 103.725 83.72C101.645 84.9467 99.245 85.56 96.525 85.56C94.0183 85.56 91.6983 85.0533 89.565 84.04C87.485 83.0267 85.8317 81.6133 84.605 79.8C83.3783 77.9867 82.765 75.9867 82.765 73.8C82.765 70.8667 83.5117 68.6 85.005 67C86.4983 65.3467 88.9517 64.1733 92.365 63.48C95.7783 62.7333 100.525 62.36 106.605 62.36H108.365V59.72C108.365 56.52 107.698 54.1733 106.365 52.68C105.085 51.1867 102.978 50.44 100.045 50.44C96.4183 50.44 92.7383 51.4267 89.005 53.4C87.565 54.3067 86.5517 54.76 85.965 54.76C85.325 54.76 84.7917 54.52 84.365 54.04C83.9383 53.56 83.725 52.9467 83.725 52.2C83.725 51.4533 83.9383 50.8133 84.365 50.28C84.845 49.6933 85.5917 49.1067 86.605 48.52C88.4717 47.4533 90.5783 46.6267 92.925 46.04C95.325 45.4 97.6983 45.08 100.045 45.08ZM97.405 80.44C100.605 80.44 103.218 79.3733 105.245 77.24C107.325 75.0533 108.365 72.2533 108.365 68.84V66.52H106.925C102.232 66.52 98.6583 66.7333 96.205 67.16C93.7517 67.5333 91.9917 68.2 90.925 69.16C89.9117 70.0667 89.405 71.4267 89.405 73.24C89.405 75.32 90.1517 77.0533 91.645 78.44C93.1917 79.7733 95.1117 80.44 97.405 80.44Z" fill="#4D4D4D"/>
<path d="M25.292 137.294C24.2 137.294 23.654 136.72 23.654 135.572L23.654 108.86C23.654 107.684 24.158 107.096 25.166 107.096C25.586 107.096 25.908 107.18 26.132 107.348C26.356 107.488 26.608 107.754 26.888 108.146L44.192 131.204L44.192 108.776C44.192 107.656 44.738 107.096 45.83 107.096C46.866 107.096 47.384 107.656 47.384 108.776L47.384 135.614C47.384 136.734 46.922 137.294 45.998 137.294C45.578 137.294 45.242 137.21 44.99 137.042C44.738 136.874 44.472 136.608 44.192 136.244L26.888 113.102L26.888 135.572C26.888 136.72 26.356 137.294 25.292 137.294ZM62.7658 137.378C57.8658 137.378 55.4158 134.676 55.4158 129.272V118.016C55.4158 116.868 55.9758 116.294 57.0958 116.294C58.2438 116.294 58.8178 116.868 58.8178 118.016V129.23C58.8178 131.05 59.1818 132.394 59.9098 133.262C60.6658 134.13 61.8418 134.564 63.4378 134.564C65.1738 134.564 66.5878 133.99 67.6798 132.842C68.7718 131.666 69.3178 130.112 69.3178 128.18V118.016C69.3178 116.868 69.8918 116.294 71.0398 116.294C72.1598 116.294 72.7198 116.868 72.7198 118.016V135.53C72.7198 136.706 72.1738 137.294 71.0818 137.294C69.9618 137.294 69.4018 136.706 69.4018 135.53V133.556C68.7578 134.788 67.8478 135.74 66.6718 136.412C65.5238 137.056 64.2218 137.378 62.7658 137.378ZM82.0248 137.294C80.9048 137.294 80.3448 136.706 80.3448 135.53V118.016C80.3448 116.868 80.8908 116.294 81.9828 116.294C83.1028 116.294 83.6628 116.868 83.6628 118.016V120.074C84.3348 118.786 85.2868 117.82 86.5188 117.176C87.7508 116.532 89.1368 116.21 90.6768 116.21C95.5208 116.21 97.9428 118.898 97.9428 124.274V135.53C97.9428 136.706 97.3828 137.294 96.2628 137.294C95.1148 137.294 94.5408 136.706 94.5408 135.53V124.484C94.5408 122.58 94.1628 121.194 93.4068 120.326C92.6788 119.43 91.5028 118.982 89.8788 118.982C88.0028 118.982 86.5048 119.57 85.3848 120.746C84.2928 121.894 83.7468 123.434 83.7468 125.366V135.53C83.7468 136.706 83.1728 137.294 82.0248 137.294ZM107.156 111.674C105.672 111.674 104.93 110.974 104.93 109.574C104.93 108.202 105.672 107.516 107.156 107.516C108.64 107.516 109.382 108.202 109.382 109.574C109.382 110.974 108.64 111.674 107.156 111.674ZM107.156 137.21C106.036 137.21 105.476 136.594 105.476 135.362V118.184C105.476 116.98 106.036 116.378 107.156 116.378C108.304 116.378 108.878 116.98 108.878 118.184V135.362C108.878 136.594 108.304 137.21 107.156 137.21ZM124.688 137.378C122.28 137.378 120.474 136.748 119.27 135.488C118.066 134.2 117.464 132.352 117.464 129.944V119.234H114.65C113.67 119.234 113.18 118.786 113.18 117.89C113.18 117.022 113.67 116.588 114.65 116.588H117.464V111.758C117.464 110.61 118.038 110.036 119.186 110.036C120.306 110.036 120.866 110.61 120.866 111.758V116.588H126.158C127.138 116.588 127.628 117.022 127.628 117.89C127.628 118.786 127.138 119.234 126.158 119.234H120.866V129.608C120.866 131.204 121.202 132.422 121.874 133.262C122.546 134.074 123.638 134.48 125.15 134.48C125.682 134.48 126.13 134.424 126.494 134.312C126.858 134.2 127.18 134.144 127.46 134.144C127.712 134.116 127.922 134.2 128.09 134.396C128.258 134.592 128.342 134.928 128.342 135.404C128.342 135.74 128.272 136.048 128.132 136.328C128.02 136.608 127.81 136.804 127.502 136.916C127.166 137.028 126.718 137.126 126.158 137.21C125.626 137.322 125.136 137.378 124.688 137.378ZM140.72 137.378C138.732 137.378 137.01 136.944 135.554 136.076C134.098 135.208 132.964 133.99 132.152 132.422C131.368 130.826 130.976 128.95 130.976 126.794C130.976 124.638 131.368 122.776 132.152 121.208C132.964 119.612 134.098 118.38 135.554 117.512C137.01 116.644 138.732 116.21 140.72 116.21C142.68 116.21 144.388 116.644 145.844 117.512C147.328 118.38 148.462 119.612 149.246 121.208C150.058 122.776 150.464 124.638 150.464 126.794C150.464 128.95 150.058 130.826 149.246 132.422C148.462 133.99 147.328 135.208 145.844 136.076C144.388 136.944 142.68 137.378 140.72 137.378ZM140.72 134.648C142.624 134.648 144.15 133.976 145.298 132.632C146.446 131.26 147.02 129.314 147.02 126.794C147.02 124.246 146.446 122.3 145.298 120.956C144.15 119.612 142.624 118.94 140.72 118.94C138.788 118.94 137.248 119.612 136.1 120.956C134.98 122.3 134.42 124.246 134.42 126.794C134.42 129.314 134.98 131.26 136.1 132.632C137.248 133.976 138.788 134.648 140.72 134.648Z" fill="#7D7D7D"/>
</svg>
