<svg width="300" height="168" viewBox="0 0 300 168" fill="none" xmlns="http://www.w3.org/2000/svg">
<g clip-path="url(#clip0_928_2541)">
<rect width="300" height="168" rx="20" fill="white"/>
<rect x="-18" y="-5" width="58" height="178" rx="2" fill="#414345"/>
<rect x="47" y="76" width="242" height="83" rx="2" fill="#414345"/>
<rect width="76" height="45" rx="2" transform="matrix(1 0 0 -1 213 71)" fill="#414345"/>
<rect width="78" height="45" rx="2" transform="matrix(1 0 0 -1 129 71)" fill="#414345"/>
<rect width="76" height="45" rx="2" transform="matrix(1 0 0 -1 47 71)" fill="#414345"/>
<path d="M89.6973 132H84.4346L84.4678 128.115H89.6973C91.0033 128.115 92.1045 127.822 93.001 127.235C93.8975 126.638 94.5726 125.769 95.0264 124.629C95.4912 123.489 95.7236 122.111 95.7236 120.495V119.316C95.7236 118.077 95.5908 116.987 95.3252 116.046C95.0706 115.105 94.6888 114.314 94.1797 113.672C93.6706 113.03 93.0452 112.549 92.3037 112.228C91.5622 111.896 90.71 111.729 89.7471 111.729H84.335V107.828H89.7471C91.363 107.828 92.8405 108.105 94.1797 108.658C95.5299 109.201 96.6976 109.981 97.6826 110.999C98.6676 112.017 99.4258 113.235 99.957 114.651C100.499 116.057 100.771 117.623 100.771 119.35V120.495C100.771 122.211 100.499 123.777 99.957 125.193C99.4258 126.61 98.6676 127.827 97.6826 128.846C96.7087 129.853 95.541 130.633 94.1797 131.187C92.8294 131.729 91.3353 132 89.6973 132ZM87.2568 107.828V132H82.2764V107.828H87.2568Z" fill="white"/>
<path d="M115.146 127.949V119.947C115.146 119.372 115.052 118.879 114.864 118.47C114.676 118.049 114.382 117.723 113.984 117.49C113.597 117.258 113.093 117.142 112.473 117.142C111.942 117.142 111.483 117.236 111.095 117.424C110.708 117.601 110.409 117.861 110.199 118.204C109.989 118.536 109.883 118.929 109.883 119.383H105.102C105.102 118.619 105.279 117.894 105.633 117.208C105.988 116.522 106.502 115.919 107.177 115.398C107.853 114.867 108.655 114.452 109.585 114.153C110.525 113.854 111.577 113.705 112.739 113.705C114.133 113.705 115.373 113.938 116.458 114.402C117.542 114.867 118.395 115.564 119.014 116.494C119.645 117.424 119.961 118.586 119.961 119.98V127.667C119.961 128.652 120.021 129.46 120.143 130.091C120.265 130.711 120.442 131.253 120.674 131.718V132H115.843C115.611 131.513 115.434 130.904 115.312 130.174C115.201 129.432 115.146 128.691 115.146 127.949ZM115.777 121.06L115.81 123.766H113.137C112.506 123.766 111.959 123.838 111.494 123.981C111.029 124.125 110.647 124.33 110.348 124.596C110.049 124.85 109.828 125.149 109.684 125.492C109.551 125.835 109.485 126.212 109.485 126.621C109.485 127.031 109.579 127.401 109.767 127.733C109.955 128.054 110.227 128.309 110.581 128.497C110.935 128.674 111.35 128.763 111.826 128.763C112.545 128.763 113.171 128.619 113.702 128.331C114.233 128.043 114.643 127.689 114.93 127.269C115.229 126.848 115.384 126.45 115.395 126.073L116.657 128.099C116.48 128.552 116.236 129.023 115.926 129.51C115.628 129.997 115.246 130.456 114.781 130.888C114.316 131.308 113.757 131.657 113.104 131.934C112.451 132.199 111.676 132.332 110.78 132.332C109.64 132.332 108.605 132.105 107.675 131.651C106.757 131.187 106.026 130.55 105.484 129.742C104.953 128.923 104.687 127.993 104.687 126.953C104.687 126.012 104.864 125.177 105.218 124.446C105.573 123.716 106.093 123.102 106.779 122.604C107.476 122.094 108.345 121.713 109.385 121.458C110.426 121.192 111.632 121.06 113.005 121.06H115.777Z" fill="white"/>
<path d="M129.787 117.955V132H125.006V114.037H129.505L129.787 117.955ZM135.199 113.921L135.116 118.354C134.884 118.32 134.602 118.293 134.27 118.271C133.949 118.237 133.656 118.221 133.39 118.221C132.715 118.221 132.128 118.309 131.63 118.486C131.143 118.652 130.734 118.901 130.402 119.233C130.081 119.565 129.837 119.969 129.671 120.445C129.516 120.921 129.428 121.464 129.406 122.072L128.443 121.773C128.443 120.611 128.559 119.543 128.791 118.569C129.024 117.584 129.361 116.727 129.804 115.996C130.258 115.266 130.811 114.701 131.464 114.303C132.117 113.904 132.864 113.705 133.705 113.705C133.971 113.705 134.242 113.727 134.519 113.771C134.796 113.805 135.022 113.854 135.199 113.921Z" fill="white"/>
<path d="M143.599 106.483V132H138.817V106.483H143.599ZM154.921 114.037L147.118 122.936L142.934 127.169L141.191 123.716L144.512 119.499L149.177 114.037H154.921ZM149.957 132L144.644 123.699L147.948 120.811L155.469 132H149.957Z" fill="white"/>
<path d="M170.739 107.828H174.956L181.165 125.575L187.374 107.828H191.591L182.859 132H179.472L170.739 107.828ZM168.465 107.828H172.665L173.429 125.127V132H168.465V107.828ZM189.665 107.828H193.882V132H188.902V125.127L189.665 107.828Z" fill="white"/>
<path d="M198.546 123.201V122.853C198.546 121.535 198.734 120.324 199.11 119.217C199.487 118.099 200.034 117.131 200.754 116.312C201.473 115.493 202.359 114.856 203.41 114.402C204.461 113.938 205.668 113.705 207.029 113.705C208.39 113.705 209.602 113.938 210.665 114.402C211.727 114.856 212.618 115.493 213.338 116.312C214.068 117.131 214.622 118.099 214.998 119.217C215.374 120.324 215.562 121.535 215.562 122.853V123.201C215.562 124.507 215.374 125.719 214.998 126.837C214.622 127.944 214.068 128.912 213.338 129.742C212.618 130.561 211.733 131.198 210.681 131.651C209.63 132.105 208.424 132.332 207.062 132.332C205.701 132.332 204.489 132.105 203.427 131.651C202.375 131.198 201.484 130.561 200.754 129.742C200.034 128.912 199.487 127.944 199.11 126.837C198.734 125.719 198.546 124.507 198.546 123.201ZM203.327 122.853V123.201C203.327 123.954 203.393 124.657 203.526 125.31C203.659 125.963 203.869 126.538 204.157 127.036C204.456 127.523 204.843 127.905 205.319 128.182C205.795 128.458 206.376 128.597 207.062 128.597C207.726 128.597 208.296 128.458 208.772 128.182C209.248 127.905 209.63 127.523 209.918 127.036C210.206 126.538 210.416 125.963 210.549 125.31C210.693 124.657 210.764 123.954 210.764 123.201V122.853C210.764 122.122 210.693 121.436 210.549 120.794C210.416 120.141 210.2 119.565 209.901 119.067C209.613 118.558 209.232 118.16 208.756 117.872C208.28 117.584 207.704 117.44 207.029 117.44C206.354 117.44 205.778 117.584 205.303 117.872C204.838 118.16 204.456 118.558 204.157 119.067C203.869 119.565 203.659 120.141 203.526 120.794C203.393 121.436 203.327 122.122 203.327 122.853Z" fill="white"/>
<path d="M230.469 128.082V106.5H235.284V132H230.951L230.469 128.082ZM219.114 123.234V122.886C219.114 121.513 219.269 120.268 219.579 119.15C219.888 118.021 220.342 117.053 220.94 116.245C221.538 115.437 222.274 114.812 223.148 114.369C224.022 113.926 225.018 113.705 226.136 113.705C227.188 113.705 228.106 113.926 228.892 114.369C229.689 114.812 230.364 115.443 230.917 116.262C231.482 117.07 231.936 118.027 232.279 119.134C232.622 120.229 232.871 121.43 233.026 122.736V123.5C232.871 124.751 232.622 125.913 232.279 126.986C231.936 128.06 231.482 129.001 230.917 129.809C230.364 130.605 229.689 131.225 228.892 131.668C228.095 132.111 227.166 132.332 226.103 132.332C224.985 132.332 223.989 132.105 223.115 131.651C222.251 131.198 221.521 130.561 220.923 129.742C220.337 128.923 219.888 127.96 219.579 126.854C219.269 125.747 219.114 124.54 219.114 123.234ZM223.895 122.886V123.234C223.895 123.976 223.95 124.668 224.061 125.31C224.183 125.951 224.376 126.521 224.642 127.02C224.919 127.507 225.273 127.888 225.705 128.165C226.147 128.431 226.684 128.563 227.315 128.563C228.134 128.563 228.809 128.381 229.34 128.016C229.872 127.639 230.276 127.125 230.552 126.472C230.84 125.819 231.006 125.066 231.05 124.214V122.039C231.017 121.342 230.917 120.716 230.751 120.163C230.597 119.599 230.364 119.117 230.054 118.719C229.755 118.32 229.379 118.01 228.925 117.789C228.483 117.568 227.957 117.457 227.348 117.457C226.728 117.457 226.197 117.601 225.754 117.889C225.312 118.165 224.952 118.547 224.675 119.034C224.41 119.521 224.21 120.097 224.078 120.761C223.956 121.414 223.895 122.122 223.895 122.886Z" fill="white"/>
<path d="M248.647 132.332C247.252 132.332 246.001 132.111 244.895 131.668C243.788 131.214 242.847 130.589 242.072 129.792C241.309 128.995 240.722 128.071 240.313 127.02C239.903 125.957 239.698 124.828 239.698 123.633V122.969C239.698 121.607 239.892 120.362 240.279 119.233C240.667 118.104 241.22 117.125 241.94 116.295C242.67 115.465 243.555 114.828 244.596 114.386C245.636 113.932 246.809 113.705 248.115 113.705C249.388 113.705 250.517 113.915 251.502 114.336C252.487 114.757 253.312 115.354 253.976 116.129C254.651 116.904 255.16 117.833 255.503 118.918C255.846 119.992 256.018 121.187 256.018 122.504V124.496H241.74V121.309H251.319V120.943C251.319 120.279 251.198 119.687 250.954 119.167C250.722 118.636 250.368 118.215 249.892 117.905C249.416 117.595 248.807 117.44 248.066 117.44C247.435 117.44 246.892 117.579 246.439 117.855C245.985 118.132 245.614 118.52 245.326 119.018C245.05 119.516 244.839 120.102 244.695 120.777C244.563 121.441 244.496 122.172 244.496 122.969V123.633C244.496 124.352 244.596 125.016 244.795 125.625C245.005 126.234 245.299 126.759 245.675 127.202C246.062 127.645 246.527 127.988 247.069 128.231C247.623 128.475 248.248 128.597 248.945 128.597C249.809 128.597 250.611 128.431 251.353 128.099C252.105 127.756 252.753 127.241 253.295 126.555L255.619 129.078C255.243 129.62 254.728 130.141 254.075 130.639C253.433 131.137 252.659 131.546 251.751 131.867C250.844 132.177 249.809 132.332 248.647 132.332Z" fill="white"/>
<rect x="47" y="9" width="242" height="11" rx="2" fill="#414345"/>
</g>
<defs>
<clipPath id="clip0_928_2541">
<rect width="300" height="168" rx="20" fill="white"/>
</clipPath>
</defs>
</svg>
