<svg width="300" height="168" viewBox="0 0 300 168" fill="none" xmlns="http://www.w3.org/2000/svg">
<rect width="300" height="168" rx="20" fill="white"/>
<path d="M69.28 80.8C69.3867 81.2267 69.44 81.5467 69.44 81.76C69.44 82.4533 69.2 83.0133 68.72 83.44C68.24 83.8667 67.68 84.08 67.04 84.08C66.5067 84.08 66.0267 83.9467 65.6 83.68C65.2267 83.36 64.9333 82.96 64.72 82.48L58.72 67.84H32.72L26.8 82.48C26.3733 83.5467 25.6533 84.08 24.64 84.08C23.8933 84.08 23.3333 83.8933 22.96 83.52C22.5867 83.1467 22.3733 82.64 22.32 82V81.76C22.32 81.44 22.3467 81.2 22.4 81.04L43.52 29.36C43.9467 28.2933 44.7467 27.76 45.92 27.76C46.4533 27.76 46.9067 27.92 47.28 28.24C47.7067 28.5067 48.0267 28.88 48.24 29.36L69.28 80.8ZM56.8 63.12L45.6 35.76L34.56 63.12H56.8ZM112.879 43.12C113.573 43.12 114.133 43.36 114.559 43.84C115.039 44.32 115.279 44.9067 115.279 45.6V81.6C115.279 82.2933 115.039 82.88 114.559 83.36C114.133 83.7867 113.573 84 112.879 84C112.186 84 111.599 83.7867 111.119 83.36C110.693 82.88 110.479 82.2933 110.479 81.6V76.24C109.146 78.64 107.146 80.6667 104.479 82.32C101.813 83.9733 98.906 84.8 95.7594 84.8C92.186 84.8 88.9594 83.8667 86.0794 82C83.2527 80.1333 81.0127 77.5733 79.3594 74.32C77.7594 71.0667 76.9594 67.4133 76.9594 63.36C76.9594 59.3067 77.786 55.68 79.4394 52.48C81.0927 49.2267 83.3327 46.6933 86.1594 44.88C89.0394 43.0667 92.2127 42.16 95.6794 42.16C98.8794 42.16 101.813 42.9333 104.479 44.48C107.146 46.0267 109.146 48.0533 110.479 50.56V45.6C110.479 44.9067 110.693 44.32 111.119 43.84C111.599 43.36 112.186 43.12 112.879 43.12ZM96.2394 80.32C99.0127 80.32 101.493 79.6 103.679 78.16C105.919 76.6667 107.653 74.64 108.879 72.08C110.159 69.4667 110.799 66.56 110.799 63.36C110.799 60.2667 110.159 57.44 108.879 54.88C107.653 52.32 105.919 50.32 103.679 48.88C101.493 47.3867 99.0127 46.64 96.2394 46.64C93.466 46.64 90.9594 47.36 88.7194 48.8C86.5327 50.24 84.7994 52.24 83.5194 54.8C82.2927 57.3067 81.6794 60.16 81.6794 63.36C81.6794 66.56 82.2927 69.4667 83.5194 72.08C84.746 74.64 86.4527 76.6667 88.6394 78.16C90.8794 79.6 93.4127 80.32 96.2394 80.32Z" fill="#4D4D4D"/>
<path d="M52.172 139.352C52.48 139.352 52.746 139.45 52.97 139.646C53.194 139.87 53.306 140.15 53.306 140.486C53.306 140.962 53.054 141.424 52.55 141.872C52.074 142.32 51.43 142.726 50.618 143.09C49.834 143.482 48.994 143.776 48.098 143.972C47.23 144.196 46.404 144.308 45.62 144.308C43.968 144.308 42.582 144.126 41.462 143.762C40.342 143.398 39.362 142.978 38.522 142.502C37.682 142.026 36.828 141.606 35.96 141.242C35.092 140.878 34.056 140.696 32.852 140.696C32.348 140.696 31.9 140.78 31.508 140.948C31.144 141.116 30.794 141.27 30.458 141.41C30.15 141.578 29.814 141.662 29.45 141.662C29.114 141.662 28.82 141.536 28.568 141.284C28.344 141.032 28.232 140.724 28.232 140.36C28.232 139.856 28.47 139.506 28.946 139.31L36.17 136.706L40.034 136.832L33.356 139.1L33.902 138.512C35.078 138.512 36.128 138.68 37.052 139.016C37.976 139.352 38.858 139.744 39.698 140.192C40.566 140.668 41.476 141.074 42.428 141.41C43.38 141.774 44.472 141.956 45.704 141.956C46.796 141.956 47.692 141.788 48.392 141.452C49.12 141.144 49.708 140.864 50.156 140.612C50.576 140.36 50.926 140.08 51.206 139.772C51.514 139.492 51.836 139.352 52.172 139.352ZM50.156 122.3C50.156 124.512 49.806 126.542 49.106 128.39C48.434 130.21 47.468 131.806 46.208 133.178C44.948 134.522 43.45 135.572 41.714 136.328C40.006 137.056 38.13 137.42 36.086 137.42C34.042 137.42 32.152 137.056 30.416 136.328C28.708 135.572 27.224 134.522 25.964 133.178C24.704 131.806 23.724 130.21 23.024 128.39C22.352 126.542 22.016 124.512 22.016 122.3C22.016 120.088 22.352 118.072 23.024 116.252C23.724 114.404 24.704 112.808 25.964 111.464C27.224 110.092 28.708 109.042 30.416 108.314C32.152 107.558 34.042 107.18 36.086 107.18C38.13 107.18 40.006 107.558 41.714 108.314C43.45 109.042 44.948 110.092 46.208 111.464C47.468 112.808 48.434 114.404 49.106 116.252C49.806 118.072 50.156 120.088 50.156 122.3ZM47.468 122.3C47.468 119.808 46.978 117.624 45.998 115.748C45.046 113.844 43.716 112.36 42.008 111.296C40.3 110.232 38.326 109.7 36.086 109.7C33.874 109.7 31.9 110.232 30.164 111.296C28.456 112.36 27.112 113.844 26.132 115.748C25.18 117.624 24.704 119.808 24.704 122.3C24.704 124.792 25.18 126.99 26.132 128.894C27.112 130.77 28.456 132.24 30.164 133.304C31.9 134.368 33.874 134.9 36.086 134.9C38.326 134.9 40.3 134.368 42.008 133.304C43.716 132.24 45.046 130.77 45.998 128.894C46.978 126.99 47.468 124.792 47.468 122.3ZM73.1884 115.664C73.5524 115.664 73.8464 115.79 74.0704 116.042C74.3224 116.294 74.4484 116.588 74.4484 116.924V128.768C74.4484 131.54 73.6644 133.654 72.0964 135.11C70.5284 136.566 68.4144 137.294 65.7544 137.294C63.1224 137.294 61.0224 136.566 59.4544 135.11C57.9144 133.654 57.1444 131.54 57.1444 128.768L57.1444 116.924C57.1444 116.588 57.2564 116.294 57.4804 116.042C57.7324 115.79 58.0404 115.664 58.4044 115.664C58.7684 115.664 59.0624 115.79 59.2864 116.042C59.5384 116.294 59.6644 116.588 59.6644 116.924L59.6644 128.768C59.6644 130.784 60.1964 132.324 61.2604 133.388C62.3524 134.424 63.8504 134.942 65.7544 134.942C67.6864 134.942 69.1984 134.424 70.2904 133.388C71.3824 132.324 71.9284 130.784 71.9284 128.768V116.924C71.9284 116.588 72.0404 116.294 72.2644 116.042C72.4884 115.79 72.7964 115.664 73.1884 115.664ZM84.7525 135.74C84.7525 136.076 84.6265 136.37 84.3745 136.622C84.1225 136.874 83.8285 137 83.4925 137C83.1285 137 82.8205 136.874 82.5685 136.622C82.3445 136.37 82.2325 136.076 82.2325 135.74V116.42C82.2325 116.084 82.3445 115.79 82.5685 115.538C82.8205 115.286 83.1285 115.16 83.4925 115.16C83.8565 115.16 84.1505 115.286 84.3745 115.538C84.6265 115.79 84.7525 116.084 84.7525 116.42V135.74ZM83.4925 112.346C82.9045 112.346 82.4565 112.22 82.1485 111.968C81.8685 111.688 81.7285 111.296 81.7285 110.792V110.372C81.7285 109.868 81.8825 109.49 82.1905 109.238C82.5265 108.958 82.9745 108.818 83.5345 108.818C84.0665 108.818 84.4725 108.958 84.7525 109.238C85.0605 109.49 85.2145 109.868 85.2145 110.372V110.792C85.2145 111.296 85.0605 111.688 84.7525 111.968C84.4725 112.22 84.0525 112.346 83.4925 112.346ZM102.009 115.034C103.353 115.034 104.585 115.188 105.705 115.496C106.825 115.776 107.721 116.168 108.393 116.672C109.093 117.176 109.443 117.722 109.443 118.31C109.443 118.59 109.345 118.87 109.149 119.15C108.953 119.402 108.687 119.528 108.351 119.528C108.015 119.528 107.735 119.444 107.511 119.276C107.315 119.108 107.105 118.912 106.881 118.688C106.685 118.464 106.391 118.254 105.999 118.058C105.635 117.89 105.117 117.736 104.445 117.596C103.773 117.456 103.003 117.386 102.135 117.386C100.567 117.386 99.1529 117.778 97.8929 118.562C96.6329 119.346 95.6389 120.41 94.9109 121.754C94.1829 123.07 93.8189 124.554 93.8189 126.206C93.8189 127.886 94.1689 129.398 94.8689 130.742C95.5689 132.086 96.5349 133.15 97.7669 133.934C98.9989 134.69 100.441 135.068 102.093 135.068C103.213 135.068 104.081 134.97 104.697 134.774C105.313 134.578 105.845 134.354 106.293 134.102C106.825 133.794 107.203 133.5 107.427 133.22C107.679 132.912 108.001 132.758 108.393 132.758C108.757 132.758 109.023 132.87 109.191 133.094C109.387 133.29 109.485 133.556 109.485 133.892C109.485 134.34 109.149 134.844 108.477 135.404C107.833 135.936 106.937 136.412 105.789 136.832C104.641 137.224 103.325 137.42 101.841 137.42C99.7409 137.42 97.8929 136.93 96.2969 135.95C94.7289 134.97 93.4969 133.64 92.6009 131.96C91.7329 130.252 91.2989 128.334 91.2989 126.206C91.2989 124.162 91.7469 122.3 92.6429 120.62C93.5389 118.94 94.7849 117.596 96.3809 116.588C98.0049 115.552 99.8809 115.034 102.009 115.034ZM117.069 137C116.705 137 116.397 136.874 116.145 136.622C115.921 136.37 115.809 136.076 115.809 135.74V107.18C115.809 106.844 115.921 106.55 116.145 106.298C116.397 106.046 116.705 105.92 117.069 105.92C117.433 105.92 117.727 106.046 117.951 106.298C118.203 106.55 118.329 106.844 118.329 107.18V135.74C118.329 136.076 118.203 136.37 117.951 136.622C117.727 136.874 117.433 137 117.069 137ZM131.349 115.454C131.657 115.454 131.937 115.594 132.189 115.874C132.441 116.126 132.567 116.406 132.567 116.714C132.567 117.078 132.413 117.4 132.105 117.68L117.993 129.692L117.867 126.71L130.467 115.874C130.719 115.594 131.013 115.454 131.349 115.454ZM131.685 137C131.321 137 131.013 136.846 130.761 136.538L121.185 126.374L123.075 124.652L132.567 134.774C132.819 135.054 132.945 135.376 132.945 135.74C132.945 136.132 132.791 136.44 132.483 136.664C132.175 136.888 131.909 137 131.685 137ZM137.871 133.598C137.647 133.262 137.535 132.94 137.535 132.632C137.563 132.296 137.745 132.03 138.081 131.834C138.305 131.638 138.557 131.554 138.837 131.582C139.145 131.61 139.425 131.75 139.677 132.002C140.433 132.982 141.343 133.78 142.407 134.396C143.499 134.984 144.787 135.278 146.271 135.278C147.055 135.278 147.825 135.152 148.581 134.9C149.365 134.62 150.009 134.214 150.513 133.682C151.017 133.122 151.269 132.422 151.269 131.582C151.269 130.714 151.017 130.014 150.513 129.482C150.009 128.95 149.351 128.53 148.539 128.222C147.755 127.914 146.915 127.648 146.019 127.424C145.067 127.172 144.143 126.892 143.247 126.584C142.351 126.248 141.553 125.842 140.853 125.366C140.181 124.862 139.635 124.26 139.215 123.56C138.795 122.86 138.585 122.006 138.585 120.998C138.585 119.822 138.907 118.786 139.551 117.89C140.195 116.994 141.063 116.294 142.155 115.79C143.275 115.286 144.535 115.034 145.935 115.034C146.635 115.034 147.391 115.132 148.203 115.328C149.015 115.496 149.813 115.79 150.597 116.21C151.381 116.63 152.081 117.204 152.697 117.932C152.949 118.184 153.075 118.478 153.075 118.814C153.075 119.122 152.935 119.402 152.655 119.654C152.431 119.822 152.165 119.906 151.857 119.906C151.577 119.906 151.339 119.794 151.143 119.57C150.471 118.814 149.673 118.24 148.749 117.848C147.825 117.456 146.831 117.26 145.767 117.26C144.955 117.26 144.185 117.4 143.457 117.68C142.757 117.932 142.169 118.324 141.693 118.856C141.217 119.388 140.979 120.088 140.979 120.956C141.035 121.768 141.315 122.426 141.819 122.93C142.351 123.434 143.037 123.854 143.877 124.19C144.745 124.526 145.711 124.834 146.775 125.114C147.671 125.338 148.525 125.604 149.337 125.912C150.177 126.22 150.905 126.612 151.521 127.088C152.165 127.536 152.669 128.11 153.033 128.81C153.425 129.51 153.621 130.392 153.621 131.456C153.621 132.688 153.271 133.752 152.571 134.648C151.899 135.544 150.989 136.23 149.841 136.706C148.693 137.182 147.419 137.42 146.019 137.42C144.507 137.42 143.037 137.126 141.609 136.538C140.209 135.95 138.963 134.97 137.871 133.598ZM177.962 115.538C178.326 115.538 178.62 115.664 178.844 115.916C179.096 116.168 179.222 116.476 179.222 116.84V135.74C179.222 136.076 179.096 136.37 178.844 136.622C178.592 136.874 178.298 137 177.962 137C177.598 137 177.29 136.874 177.038 136.622C176.814 136.37 176.702 136.076 176.702 135.74V130.742L177.416 130.406C177.416 131.19 177.192 131.988 176.744 132.8C176.324 133.612 175.736 134.368 174.98 135.068C174.224 135.768 173.328 136.342 172.292 136.79C171.284 137.21 170.192 137.42 169.016 137.42C167.112 137.42 165.404 136.93 163.892 135.95C162.408 134.97 161.232 133.626 160.364 131.918C159.524 130.21 159.104 128.292 159.104 126.164C159.104 123.98 159.538 122.062 160.406 120.41C161.274 118.73 162.45 117.414 163.934 116.462C165.418 115.51 167.098 115.034 168.974 115.034C170.178 115.034 171.298 115.244 172.334 115.664C173.398 116.084 174.322 116.658 175.106 117.386C175.89 118.114 176.492 118.954 176.912 119.906C177.36 120.83 177.584 121.796 177.584 122.804L176.702 122.174V116.84C176.702 116.476 176.814 116.168 177.038 115.916C177.29 115.664 177.598 115.538 177.962 115.538ZM169.226 135.068C170.71 135.068 172.026 134.69 173.174 133.934C174.322 133.15 175.218 132.086 175.862 130.742C176.534 129.37 176.87 127.844 176.87 126.164C176.87 124.512 176.534 123.028 175.862 121.712C175.218 120.396 174.322 119.346 173.174 118.562C172.026 117.778 170.71 117.386 169.226 117.386C167.77 117.386 166.454 117.764 165.278 118.52C164.13 119.276 163.22 120.312 162.548 121.628C161.904 122.944 161.582 124.456 161.582 126.164C161.582 127.844 161.904 129.37 162.548 130.742C163.22 132.086 164.13 133.15 165.278 133.934C166.426 134.69 167.742 135.068 169.226 135.068ZM197.217 115.034C199.065 115.034 200.535 115.412 201.627 116.168C202.747 116.896 203.545 117.904 204.021 119.192C204.525 120.452 204.777 121.852 204.777 123.392V135.74C204.777 136.076 204.651 136.37 204.399 136.622C204.147 136.874 203.853 137 203.517 137C203.125 137 202.817 136.874 202.593 136.622C202.369 136.37 202.257 136.076 202.257 135.74V123.518C202.257 122.398 202.075 121.376 201.711 120.452C201.347 119.528 200.745 118.786 199.905 118.226C199.093 117.666 198.015 117.386 196.671 117.386C195.467 117.386 194.319 117.666 193.227 118.226C192.163 118.786 191.295 119.528 190.623 120.452C189.951 121.376 189.615 122.398 189.615 123.518V135.74C189.615 136.076 189.489 136.37 189.237 136.622C188.985 136.874 188.691 137 188.355 137C187.963 137 187.655 136.874 187.431 136.622C187.207 136.37 187.095 136.076 187.095 135.74V116.924C187.095 116.588 187.207 116.294 187.431 116.042C187.683 115.79 187.991 115.664 188.355 115.664C188.719 115.664 189.013 115.79 189.237 116.042C189.489 116.294 189.615 116.588 189.615 116.924V120.452L188.649 121.964C188.705 121.068 188.985 120.214 189.489 119.402C190.021 118.562 190.693 117.82 191.505 117.176C192.317 116.504 193.213 115.986 194.193 115.622C195.201 115.23 196.209 115.034 197.217 115.034ZM230.234 105.92C230.598 105.92 230.892 106.046 231.116 106.298C231.368 106.522 231.494 106.816 231.494 107.18V135.74C231.494 136.076 231.368 136.37 231.116 136.622C230.864 136.874 230.57 137 230.234 137C229.87 137 229.562 136.874 229.31 136.622C229.086 136.37 228.974 136.076 228.974 135.74V130.742L229.688 130.154C229.688 130.938 229.478 131.764 229.058 132.632C228.638 133.472 228.036 134.256 227.252 134.984C226.496 135.712 225.6 136.3 224.564 136.748C223.556 137.196 222.464 137.42 221.288 137.42C219.412 137.42 217.718 136.93 216.206 135.95C214.722 134.97 213.546 133.64 212.678 131.96C211.81 130.28 211.376 128.362 211.376 126.206C211.376 124.078 211.81 122.174 212.678 120.494C213.546 118.786 214.722 117.456 216.206 116.504C217.69 115.524 219.37 115.034 221.246 115.034C222.394 115.034 223.486 115.244 224.522 115.664C225.558 116.084 226.468 116.658 227.252 117.386C228.064 118.114 228.694 118.954 229.142 119.906C229.618 120.83 229.856 121.796 229.856 122.804L228.974 122.174V107.18C228.974 106.844 229.086 106.55 229.31 106.298C229.562 106.046 229.87 105.92 230.234 105.92ZM221.498 135.068C223.01 135.068 224.326 134.69 225.446 133.934C226.594 133.15 227.49 132.1 228.134 130.784C228.806 129.44 229.142 127.914 229.142 126.206C229.142 124.526 228.806 123.028 228.134 121.712C227.49 120.368 226.594 119.318 225.446 118.562C224.298 117.778 222.982 117.386 221.498 117.386C220.042 117.386 218.726 117.778 217.55 118.562C216.402 119.318 215.492 120.368 214.82 121.712C214.176 123.028 213.854 124.526 213.854 126.206C213.854 127.886 214.176 129.398 214.82 130.742C215.492 132.086 216.402 133.15 217.55 133.934C218.726 134.69 220.042 135.068 221.498 135.068Z" fill="#7D7D7D"/>
</svg>
