<svg width="300" height="168" viewBox="0 0 300 168" fill="none" xmlns="http://www.w3.org/2000/svg">
<rect width="300" height="168" rx="20" fill="white"/>
<path d="M44.72 22.2H49.44L73.04 79H67.12L59.76 61.24H34.24L26.96 79H20.96L44.72 22.2ZM58.48 56.84L47.04 28.76L35.44 56.84H58.48ZM89.9175 79.8C87.9442 79.8 86.1042 79.48 84.3975 78.84C82.7442 78.1467 81.2775 77.2133 79.9975 76.04C78.7708 74.8667 77.8108 73.5067 77.1175 71.96C76.4242 70.36 76.0775 68.6533 76.0775 66.84C76.0775 65.0267 76.5042 63.3467 77.3575 61.8C78.2108 60.2533 79.4108 58.92 80.9575 57.8C82.5042 56.68 84.3442 55.8267 86.4775 55.24C88.6108 54.6 90.9575 54.28 93.5175 54.28C95.6508 54.28 97.8108 54.4667 99.9975 54.84C102.184 55.2133 104.131 55.7467 105.838 56.44V52.68C105.838 49 104.798 46.0933 102.718 43.96C100.638 41.7733 97.7575 40.68 94.0775 40.68C91.9442 40.68 89.7575 41.1067 87.5175 41.96C85.2775 42.8133 83.0108 44.04 80.7175 45.64L78.7975 42.04C84.1842 38.4133 89.4108 36.6 94.4775 36.6C99.7042 36.6 103.811 38.0667 106.798 41C109.784 43.9333 111.278 47.9867 111.278 53.16V71.96C111.278 73.4533 111.944 74.2 113.278 74.2V79C112.371 79.16 111.678 79.24 111.198 79.24C109.811 79.24 108.718 78.8933 107.918 78.2C107.171 77.5067 106.771 76.5467 106.718 75.32L106.558 72.04C104.638 74.5467 102.211 76.4667 99.2775 77.8C96.3975 79.1333 93.2775 79.8 89.9175 79.8ZM91.1975 75.64C94.0242 75.64 96.6108 75.1067 98.9575 74.04C101.358 72.9733 103.171 71.56 104.398 69.8C104.878 69.32 105.224 68.8133 105.438 68.28C105.704 67.6933 105.838 67.16 105.838 66.68V59.88C104.024 59.1867 102.131 58.6533 100.158 58.28C98.2375 57.9067 96.2642 57.72 94.2375 57.72C90.3975 57.72 87.2775 58.52 84.8775 60.12C82.4775 61.72 81.2775 63.8267 81.2775 66.44C81.2775 67.72 81.5175 68.92 81.9975 70.04C82.5308 71.16 83.2242 72.1467 84.0775 73C84.9842 73.8 86.0508 74.44 87.2775 74.92C88.5042 75.4 89.8108 75.64 91.1975 75.64Z" fill="#4D4D4D"/>
<path d="M23.738 134L23.738 104.18H36.338C37.626 104.18 38.802 104.46 39.866 105.02C40.958 105.552 41.896 106.266 42.68 107.162C43.464 108.03 44.066 109.024 44.486 110.144C44.934 111.264 45.158 112.398 45.158 113.546C45.158 114.638 44.99 115.688 44.654 116.696C44.346 117.676 43.898 118.572 43.31 119.384C42.75 120.168 42.064 120.84 41.252 121.4C40.44 121.932 39.53 122.296 38.522 122.492L45.83 134H42.512L35.498 122.996H26.678L26.678 134H23.738ZM26.678 120.392H36.422C37.29 120.392 38.074 120.21 38.774 119.846C39.502 119.454 40.118 118.936 40.622 118.292C41.126 117.648 41.518 116.92 41.798 116.108C42.078 115.296 42.218 114.442 42.218 113.546C42.218 112.65 42.05 111.796 41.714 110.984C41.406 110.144 40.972 109.416 40.412 108.8C39.88 108.184 39.236 107.694 38.48 107.33C37.752 106.966 36.982 106.784 36.17 106.784H26.678L26.678 120.392ZM57.0643 134.42C56.0283 134.42 55.0623 134.252 54.1663 133.916C53.2983 133.552 52.5283 133.062 51.8563 132.446C51.2123 131.83 50.7083 131.116 50.3443 130.304C49.9803 129.464 49.7983 128.568 49.7983 127.616C49.7983 126.664 50.0223 125.782 50.4703 124.97C50.9183 124.158 51.5483 123.458 52.3603 122.87C53.1723 122.282 54.1383 121.834 55.2583 121.526C56.3783 121.19 57.6103 121.022 58.9543 121.022C60.0743 121.022 61.2083 121.12 62.3563 121.316C63.5043 121.512 64.5263 121.792 65.4223 122.156V120.182C65.4223 118.25 64.8763 116.724 63.7843 115.604C62.6923 114.456 61.1803 113.882 59.2483 113.882C58.1283 113.882 56.9803 114.106 55.8043 114.554C54.6283 115.002 53.4383 115.646 52.2343 116.486L51.2263 114.596C54.0543 112.692 56.7983 111.74 59.4583 111.74C62.2023 111.74 64.3583 112.51 65.9263 114.05C67.4943 115.59 68.2783 117.718 68.2783 120.434V130.304C68.2783 131.088 68.6283 131.48 69.3283 131.48V134C68.8523 134.084 68.4883 134.126 68.2363 134.126C67.5083 134.126 66.9343 133.944 66.5143 133.58C66.1223 133.216 65.9123 132.712 65.8843 132.068L65.8003 130.346C64.7923 131.662 63.5183 132.67 61.9783 133.37C60.4663 134.07 58.8283 134.42 57.0643 134.42ZM57.7363 132.236C59.2203 132.236 60.5783 131.956 61.8103 131.396C63.0703 130.836 64.0223 130.094 64.6663 129.17C64.9183 128.918 65.1003 128.652 65.2123 128.372C65.3523 128.064 65.4223 127.784 65.4223 127.532V123.962C64.4703 123.598 63.4763 123.318 62.4403 123.122C61.4323 122.926 60.3963 122.828 59.3323 122.828C57.3163 122.828 55.6783 123.248 54.4183 124.088C53.1583 124.928 52.5283 126.034 52.5283 127.406C52.5283 128.078 52.6543 128.708 52.9063 129.296C53.1863 129.884 53.5503 130.402 53.9983 130.85C54.4743 131.27 55.0343 131.606 55.6783 131.858C56.3223 132.11 57.0083 132.236 57.7363 132.236ZM75.8351 103.34H78.6911V129.044C78.6911 129.856 78.9151 130.5 79.3631 130.976C79.8111 131.424 80.4411 131.648 81.2531 131.648C81.5611 131.648 81.9251 131.606 82.3451 131.522C82.7651 131.438 83.1571 131.326 83.5211 131.186L84.0251 133.496C83.4931 133.72 82.8351 133.902 82.0511 134.042C81.2951 134.182 80.6371 134.252 80.0771 134.252C78.7611 134.252 77.7251 133.888 76.9691 133.16C76.2131 132.404 75.8351 131.354 75.8351 130.01V103.34ZM97.8624 134.42C96.2664 134.42 94.7964 134.126 93.4524 133.538C92.1364 132.922 90.9884 132.096 90.0084 131.06C89.0284 129.996 88.2584 128.778 87.6984 127.406C87.1664 126.034 86.9004 124.564 86.9004 122.996C86.9004 121.456 87.1664 120.014 87.6984 118.67C88.2584 117.298 89.0144 116.108 89.9664 115.1C90.9464 114.064 92.1084 113.252 93.4524 112.664C94.7964 112.048 96.2524 111.74 97.8204 111.74C99.4164 111.74 100.872 112.048 102.188 112.664C103.532 113.252 104.68 114.064 105.632 115.1C106.584 116.136 107.326 117.326 107.858 118.67C108.39 120.014 108.656 121.442 108.656 122.954C108.656 123.178 108.656 123.402 108.656 123.626C108.656 123.85 108.642 124.004 108.614 124.088H89.8824C89.9664 125.264 90.2324 126.356 90.6804 127.364C91.1564 128.344 91.7584 129.198 92.4864 129.926C93.2144 130.654 94.0404 131.228 94.9644 131.648C95.9164 132.04 96.9244 132.236 97.9884 132.236C98.6884 132.236 99.3884 132.138 100.088 131.942C100.788 131.746 101.432 131.48 102.02 131.144C102.608 130.808 103.14 130.402 103.616 129.926C104.092 129.422 104.456 128.876 104.708 128.288L107.186 128.96C106.85 129.772 106.374 130.514 105.758 131.186C105.142 131.83 104.428 132.404 103.616 132.908C102.804 133.384 101.908 133.748 100.928 134C99.9484 134.28 98.9264 134.42 97.8624 134.42ZM105.926 121.904C105.842 120.728 105.562 119.664 105.086 118.712C104.638 117.732 104.05 116.892 103.322 116.192C102.622 115.492 101.796 114.946 100.844 114.554C99.9204 114.162 98.9264 113.966 97.8624 113.966C96.7984 113.966 95.7904 114.162 94.8384 114.554C93.8864 114.946 93.0464 115.492 92.3184 116.192C91.6184 116.892 91.0444 117.732 90.5964 118.712C90.1764 119.692 89.9244 120.756 89.8404 121.904H105.926ZM141.301 112.118L144.115 112.118L134.707 134H132.355L127.651 122.828L122.989 134H120.637L111.229 112.118H114.001L121.981 131.06L126.139 121.064L122.401 112.16H124.795L127.651 119.3L130.507 112.16H132.943L129.205 121.064L133.363 131.06L141.301 112.118ZM154.143 134.42C153.107 134.42 152.141 134.252 151.245 133.916C150.377 133.552 149.607 133.062 148.935 132.446C148.291 131.83 147.787 131.116 147.423 130.304C147.059 129.464 146.877 128.568 146.877 127.616C146.877 126.664 147.101 125.782 147.549 124.97C147.997 124.158 148.627 123.458 149.439 122.87C150.251 122.282 151.217 121.834 152.337 121.526C153.457 121.19 154.689 121.022 156.033 121.022C157.153 121.022 158.287 121.12 159.435 121.316C160.583 121.512 161.605 121.792 162.501 122.156V120.182C162.501 118.25 161.955 116.724 160.863 115.604C159.771 114.456 158.259 113.882 156.327 113.882C155.207 113.882 154.059 114.106 152.883 114.554C151.707 115.002 150.517 115.646 149.313 116.486L148.305 114.596C151.133 112.692 153.877 111.74 156.537 111.74C159.281 111.74 161.437 112.51 163.005 114.05C164.573 115.59 165.357 117.718 165.357 120.434V130.304C165.357 131.088 165.707 131.48 166.407 131.48V134C165.931 134.084 165.567 134.126 165.315 134.126C164.587 134.126 164.013 133.944 163.593 133.58C163.201 133.216 162.991 132.712 162.963 132.068L162.879 130.346C161.871 131.662 160.597 132.67 159.057 133.37C157.545 134.07 155.907 134.42 154.143 134.42ZM154.815 132.236C156.299 132.236 157.657 131.956 158.889 131.396C160.149 130.836 161.101 130.094 161.745 129.17C161.997 128.918 162.179 128.652 162.291 128.372C162.431 128.064 162.501 127.784 162.501 127.532V123.962C161.549 123.598 160.555 123.318 159.519 123.122C158.511 122.926 157.475 122.828 156.411 122.828C154.395 122.828 152.757 123.248 151.497 124.088C150.237 124.928 149.607 126.034 149.607 127.406C149.607 128.078 149.733 128.708 149.985 129.296C150.265 129.884 150.629 130.402 151.077 130.85C151.553 131.27 152.113 131.606 152.757 131.858C153.401 132.11 154.087 132.236 154.815 132.236ZM173.515 140.72C173.739 140.748 173.949 140.762 174.145 140.762C174.369 140.79 174.579 140.804 174.775 140.804C175.279 140.804 175.671 140.734 175.951 140.594C176.259 140.454 176.553 140.146 176.833 139.67C177.113 139.194 177.421 138.508 177.757 137.612C178.121 136.716 178.625 135.512 179.269 134L169.735 112.118H172.675L180.781 131.354L188.299 112.118H191.029L179.689 140.342C179.381 141.154 178.863 141.854 178.135 142.442C177.435 143.058 176.469 143.366 175.237 143.366C174.957 143.366 174.691 143.352 174.439 143.324C174.187 143.324 173.879 143.296 173.515 143.24V140.72Z" fill="#7D7D7D"/>
</svg>
