<svg width="300" height="168" viewBox="0 0 300 168" fill="none" xmlns="http://www.w3.org/2000/svg">
<g clip-path="url(#clip0_928_2533)">
<rect width="300" height="168" rx="20" fill="white"/>
<rect x="-16" y="-6" width="56" height="180" rx="2" fill="black"/>
<rect x="47" y="76" width="242" height="83" rx="2" fill="black"/>
<rect width="76" height="45" rx="2" transform="matrix(1 0 0 -1 213 71)" fill="black"/>
<rect width="78" height="45" rx="2" transform="matrix(1 0 0 -1 129 71)" fill="black"/>
<rect width="76" height="45" rx="2" transform="matrix(1 0 0 -1 47 71)" fill="black"/>
<path d="M72.5986 117.673V121.558H59.9814V117.673H72.5986ZM61.459 107.828V132H56.4785V107.828H61.459ZM76.1514 107.828V132H71.1875V107.828H76.1514Z" fill="white"/>
<path d="M86.5924 114.037V132H81.7946V114.037H86.5924ZM81.4957 109.355C81.4957 108.658 81.7392 108.083 82.2262 107.629C82.7132 107.175 83.3662 106.948 84.1852 106.948C84.9931 106.948 85.6406 107.175 86.1276 107.629C86.6256 108.083 86.8746 108.658 86.8746 109.355C86.8746 110.053 86.6256 110.628 86.1276 111.082C85.6406 111.536 84.9931 111.763 84.1852 111.763C83.3662 111.763 82.7132 111.536 82.2262 111.082C81.7392 110.628 81.4957 110.053 81.4957 109.355Z" fill="white"/>
<path d="M103.276 114.037H107.609V131.402C107.609 133.04 107.243 134.429 106.513 135.569C105.794 136.72 104.786 137.589 103.491 138.176C102.197 138.773 100.691 139.072 98.9759 139.072C98.2233 139.072 97.4264 138.973 96.5852 138.773C95.7552 138.574 94.9583 138.264 94.1946 137.844C93.442 137.423 92.8111 136.892 92.302 136.25L94.4104 133.428C94.9638 134.07 95.6057 134.568 96.3362 134.922C97.0667 135.287 97.8746 135.47 98.76 135.47C99.6233 135.47 100.354 135.309 100.951 134.988C101.549 134.678 102.008 134.219 102.329 133.61C102.65 133.013 102.811 132.288 102.811 131.436V118.188L103.276 114.037ZM91.1897 123.234V122.886C91.1897 121.513 91.3557 120.268 91.6878 119.15C92.0309 118.021 92.5123 117.053 93.1321 116.245C93.763 115.437 94.5266 114.812 95.4231 114.369C96.3196 113.926 97.3323 113.705 98.4612 113.705C99.6565 113.705 100.658 113.926 101.466 114.369C102.274 114.812 102.938 115.443 103.458 116.262C103.978 117.07 104.382 118.027 104.67 119.134C104.969 120.229 105.201 121.43 105.367 122.736V123.5C105.201 124.751 104.952 125.913 104.62 126.986C104.288 128.06 103.851 129.001 103.309 129.809C102.767 130.605 102.091 131.225 101.283 131.668C100.487 132.111 99.5348 132.332 98.428 132.332C97.3212 132.332 96.3196 132.105 95.4231 131.651C94.5377 131.198 93.7796 130.561 93.1487 129.742C92.5179 128.923 92.0309 127.96 91.6878 126.854C91.3557 125.747 91.1897 124.54 91.1897 123.234ZM95.971 122.886V123.234C95.971 123.976 96.0429 124.668 96.1868 125.31C96.3307 125.951 96.552 126.521 96.8509 127.02C97.1608 127.507 97.5426 127.888 97.9964 128.165C98.4612 128.431 99.0091 128.563 99.6399 128.563C100.514 128.563 101.228 128.381 101.782 128.016C102.335 127.639 102.75 127.125 103.027 126.472C103.303 125.819 103.464 125.066 103.508 124.214V122.039C103.486 121.342 103.392 120.716 103.226 120.163C103.06 119.599 102.827 119.117 102.529 118.719C102.23 118.32 101.842 118.01 101.366 117.789C100.891 117.568 100.326 117.457 99.6731 117.457C99.0423 117.457 98.4944 117.601 98.0296 117.889C97.5758 118.165 97.194 118.547 96.8841 119.034C96.5852 119.521 96.3583 120.097 96.2034 120.761C96.0485 121.414 95.971 122.122 95.971 122.886Z" fill="white"/>
<path d="M117.352 106.5V132H112.571V106.5H117.352ZM116.672 122.388H115.36C115.371 121.137 115.537 119.986 115.858 118.935C116.179 117.872 116.639 116.953 117.236 116.179C117.834 115.393 118.548 114.784 119.378 114.353C120.219 113.921 121.149 113.705 122.167 113.705C123.052 113.705 123.855 113.832 124.574 114.087C125.305 114.33 125.93 114.729 126.45 115.282C126.981 115.825 127.391 116.538 127.679 117.424C127.966 118.309 128.11 119.383 128.11 120.645V132H123.296V120.611C123.296 119.814 123.18 119.189 122.947 118.735C122.726 118.271 122.399 117.944 121.968 117.756C121.547 117.557 121.027 117.457 120.407 117.457C119.721 117.457 119.134 117.584 118.647 117.839C118.171 118.093 117.79 118.448 117.502 118.901C117.214 119.344 117.004 119.864 116.871 120.462C116.738 121.06 116.672 121.701 116.672 122.388Z" fill="white"/>
<path d="M157.243 123.981H162.207C162.108 125.608 161.659 127.053 160.863 128.314C160.077 129.576 158.975 130.561 157.559 131.27C156.153 131.978 154.46 132.332 152.479 132.332C150.929 132.332 149.54 132.066 148.312 131.535C147.083 130.993 146.032 130.218 145.157 129.211C144.294 128.204 143.636 126.986 143.182 125.559C142.728 124.131 142.501 122.532 142.501 120.761V119.084C142.501 117.313 142.734 115.714 143.198 114.286C143.674 112.847 144.349 111.624 145.224 110.617C146.109 109.61 147.166 108.835 148.395 108.293C149.623 107.751 150.996 107.479 152.512 107.479C154.526 107.479 156.225 107.845 157.609 108.575C159.003 109.306 160.082 110.313 160.846 111.597C161.621 112.881 162.085 114.341 162.24 115.979H157.26C157.205 115.006 157.011 114.181 156.679 113.506C156.347 112.82 155.843 112.305 155.168 111.962C154.504 111.608 153.619 111.431 152.512 111.431C151.682 111.431 150.957 111.586 150.337 111.896C149.717 112.205 149.197 112.676 148.777 113.307C148.356 113.938 148.041 114.734 147.83 115.697C147.631 116.649 147.531 117.767 147.531 119.051V120.761C147.531 122.011 147.626 123.113 147.814 124.064C148.002 125.005 148.29 125.802 148.677 126.455C149.075 127.097 149.585 127.584 150.204 127.916C150.835 128.237 151.593 128.397 152.479 128.397C153.519 128.397 154.377 128.231 155.052 127.899C155.727 127.567 156.242 127.075 156.596 126.422C156.961 125.769 157.177 124.955 157.243 123.981Z" fill="white"/>
<path d="M165.775 123.201V122.853C165.775 121.535 165.963 120.324 166.34 119.217C166.716 118.099 167.264 117.131 167.983 116.312C168.703 115.493 169.588 114.856 170.639 114.402C171.691 113.938 172.897 113.705 174.259 113.705C175.62 113.705 176.832 113.938 177.894 114.402C178.957 114.856 179.848 115.493 180.567 116.312C181.298 117.131 181.851 118.099 182.227 119.217C182.604 120.324 182.792 121.535 182.792 122.853V123.201C182.792 124.507 182.604 125.719 182.227 126.837C181.851 127.944 181.298 128.912 180.567 129.742C179.848 130.561 178.962 131.198 177.911 131.651C176.86 132.105 175.653 132.332 174.292 132.332C172.931 132.332 171.719 132.105 170.656 131.651C169.605 131.198 168.714 130.561 167.983 129.742C167.264 128.912 166.716 127.944 166.34 126.837C165.963 125.719 165.775 124.507 165.775 123.201ZM170.556 122.853V123.201C170.556 123.954 170.623 124.657 170.756 125.31C170.889 125.963 171.099 126.538 171.387 127.036C171.685 127.523 172.073 127.905 172.549 128.182C173.025 128.458 173.606 128.597 174.292 128.597C174.956 128.597 175.526 128.458 176.002 128.182C176.478 127.905 176.86 127.523 177.147 127.036C177.435 126.538 177.645 125.963 177.778 125.31C177.922 124.657 177.994 123.954 177.994 123.201V122.853C177.994 122.122 177.922 121.436 177.778 120.794C177.645 120.141 177.43 119.565 177.131 119.067C176.843 118.558 176.461 118.16 175.985 117.872C175.509 117.584 174.934 117.44 174.259 117.44C173.584 117.44 173.008 117.584 172.532 117.872C172.067 118.16 171.685 118.558 171.387 119.067C171.099 119.565 170.889 120.141 170.756 120.794C170.623 121.436 170.556 122.122 170.556 122.853Z" fill="white"/>
<path d="M191.772 117.872V132H186.991V114.037H191.473L191.772 117.872ZM191.075 122.388H189.78C189.78 121.06 189.951 119.864 190.294 118.802C190.638 117.728 191.119 116.815 191.739 116.062C192.359 115.299 193.095 114.718 193.947 114.319C194.81 113.91 195.773 113.705 196.835 113.705C197.677 113.705 198.446 113.827 199.143 114.07C199.84 114.314 200.438 114.701 200.936 115.232C201.445 115.764 201.833 116.466 202.098 117.341C202.375 118.215 202.513 119.283 202.513 120.545V132H197.699V120.528C197.699 119.731 197.588 119.112 197.367 118.669C197.145 118.226 196.819 117.916 196.387 117.739C195.967 117.551 195.446 117.457 194.827 117.457C194.185 117.457 193.626 117.584 193.15 117.839C192.685 118.093 192.298 118.448 191.988 118.901C191.689 119.344 191.462 119.864 191.307 120.462C191.152 121.06 191.075 121.701 191.075 122.388Z" fill="white"/>
<path d="M216.308 114.037V117.424H205.849V114.037H216.308ZM208.439 109.604H213.22V126.588C213.22 127.108 213.286 127.507 213.419 127.783C213.563 128.06 213.773 128.254 214.05 128.364C214.327 128.464 214.675 128.514 215.096 128.514C215.395 128.514 215.66 128.503 215.893 128.48C216.136 128.447 216.341 128.414 216.507 128.381L216.524 131.9C216.114 132.033 215.671 132.138 215.195 132.216C214.72 132.293 214.194 132.332 213.618 132.332C212.567 132.332 211.648 132.16 210.862 131.817C210.088 131.463 209.49 130.899 209.069 130.124C208.649 129.349 208.439 128.331 208.439 127.069V109.604Z" fill="white"/>
<path d="M225.172 117.955V132H220.39V114.037H224.889L225.172 117.955ZM230.584 113.921L230.501 118.354C230.268 118.32 229.986 118.293 229.654 118.271C229.333 118.237 229.04 118.221 228.774 118.221C228.099 118.221 227.512 118.309 227.014 118.486C226.527 118.652 226.118 118.901 225.786 119.233C225.465 119.565 225.221 119.969 225.055 120.445C224.9 120.921 224.812 121.464 224.79 122.072L223.827 121.773C223.827 120.611 223.943 119.543 224.176 118.569C224.408 117.584 224.746 116.727 225.188 115.996C225.642 115.266 226.195 114.701 226.848 114.303C227.501 113.904 228.248 113.705 229.09 113.705C229.355 113.705 229.626 113.727 229.903 113.771C230.18 113.805 230.407 113.854 230.584 113.921Z" fill="white"/>
<path d="M243.332 127.949V119.947C243.332 119.372 243.238 118.879 243.05 118.47C242.862 118.049 242.569 117.723 242.17 117.49C241.783 117.258 241.279 117.142 240.66 117.142C240.128 117.142 239.669 117.236 239.282 117.424C238.894 117.601 238.595 117.861 238.385 118.204C238.175 118.536 238.07 118.929 238.07 119.383H233.288C233.288 118.619 233.466 117.894 233.82 117.208C234.174 116.522 234.689 115.919 235.364 115.398C236.039 114.867 236.841 114.452 237.771 114.153C238.712 113.854 239.763 113.705 240.925 113.705C242.32 113.705 243.559 113.938 244.644 114.402C245.729 114.867 246.581 115.564 247.201 116.494C247.831 117.424 248.147 118.586 248.147 119.98V127.667C248.147 128.652 248.208 129.46 248.329 130.091C248.451 130.711 248.628 131.253 248.861 131.718V132H244.03C243.797 131.513 243.62 130.904 243.498 130.174C243.388 129.432 243.332 128.691 243.332 127.949ZM243.963 121.06L243.996 123.766H241.324C240.693 123.766 240.145 123.838 239.68 123.981C239.215 124.125 238.833 124.33 238.535 124.596C238.236 124.85 238.014 125.149 237.871 125.492C237.738 125.835 237.671 126.212 237.671 126.621C237.671 127.031 237.765 127.401 237.954 127.733C238.142 128.054 238.413 128.309 238.767 128.497C239.121 128.674 239.536 128.763 240.012 128.763C240.732 128.763 241.357 128.619 241.888 128.331C242.419 128.043 242.829 127.689 243.117 127.269C243.415 126.848 243.57 126.45 243.581 126.073L244.843 128.099C244.666 128.552 244.423 129.023 244.113 129.51C243.814 129.997 243.432 130.456 242.967 130.888C242.502 131.308 241.943 131.657 241.29 131.934C240.637 132.199 239.863 132.332 238.966 132.332C237.826 132.332 236.791 132.105 235.862 131.651C234.943 131.187 234.213 130.55 233.67 129.742C233.139 128.923 232.873 127.993 232.873 126.953C232.873 126.012 233.051 125.177 233.405 124.446C233.759 123.716 234.279 123.102 234.965 122.604C235.663 122.094 236.531 121.713 237.572 121.458C238.612 121.192 239.818 121.06 241.191 121.06H243.963Z" fill="white"/>
<path d="M262.904 127.036C262.904 126.693 262.805 126.383 262.606 126.106C262.406 125.83 262.036 125.575 261.493 125.343C260.962 125.099 260.193 124.878 259.186 124.679C258.278 124.479 257.431 124.23 256.646 123.932C255.871 123.622 255.196 123.251 254.62 122.819C254.056 122.388 253.613 121.879 253.292 121.292C252.971 120.694 252.811 120.014 252.811 119.25C252.811 118.497 252.971 117.789 253.292 117.125C253.624 116.461 254.094 115.874 254.703 115.365C255.323 114.845 256.076 114.441 256.961 114.153C257.857 113.854 258.865 113.705 259.982 113.705C261.543 113.705 262.882 113.954 264 114.452C265.129 114.95 265.992 115.636 266.59 116.511C267.199 117.374 267.503 118.359 267.503 119.466H262.722C262.722 119.001 262.622 118.586 262.423 118.221C262.235 117.844 261.936 117.551 261.526 117.341C261.128 117.119 260.608 117.009 259.966 117.009C259.435 117.009 258.975 117.103 258.588 117.291C258.201 117.468 257.902 117.712 257.691 118.021C257.492 118.32 257.393 118.652 257.393 119.018C257.393 119.294 257.448 119.543 257.559 119.765C257.68 119.975 257.874 120.169 258.14 120.346C258.405 120.523 258.748 120.689 259.169 120.844C259.601 120.988 260.132 121.12 260.763 121.242C262.058 121.508 263.214 121.856 264.232 122.288C265.251 122.709 266.059 123.284 266.656 124.015C267.254 124.734 267.553 125.68 267.553 126.854C267.553 127.65 267.376 128.381 267.022 129.045C266.667 129.709 266.158 130.29 265.494 130.788C264.83 131.275 264.033 131.657 263.104 131.934C262.185 132.199 261.15 132.332 259.999 132.332C258.328 132.332 256.911 132.033 255.749 131.436C254.598 130.838 253.724 130.08 253.126 129.161C252.539 128.231 252.246 127.28 252.246 126.306H256.778C256.801 126.959 256.967 127.484 257.276 127.883C257.597 128.281 258.001 128.569 258.488 128.746C258.986 128.923 259.523 129.012 260.099 129.012C260.718 129.012 261.233 128.929 261.643 128.763C262.052 128.586 262.362 128.353 262.572 128.065C262.794 127.767 262.904 127.424 262.904 127.036Z" fill="white"/>
<path d="M280.816 114.037V117.424H270.357V114.037H280.816ZM272.947 109.604H277.728V126.588C277.728 127.108 277.795 127.507 277.927 127.783C278.071 128.06 278.282 128.254 278.558 128.364C278.835 128.464 279.184 128.514 279.604 128.514C279.903 128.514 280.169 128.503 280.401 128.48C280.645 128.447 280.849 128.414 281.015 128.381L281.032 131.9C280.622 132.033 280.18 132.138 279.704 132.216C279.228 132.293 278.702 132.332 278.127 132.332C277.075 132.332 276.157 132.16 275.371 131.817C274.596 131.463 273.998 130.899 273.578 130.124C273.157 129.349 272.947 128.331 272.947 127.069V109.604Z" fill="white"/>
<rect x="47" y="9" width="242" height="11" rx="2" fill="black"/>
</g>
<defs>
<clipPath id="clip0_928_2533">
<rect width="300" height="168" rx="20" fill="white"/>
</clipPath>
</defs>
</svg>
