<svg width="900" height="580" viewBox="0 0 900 580" fill="none" xmlns="http://www.w3.org/2000/svg">
<path d="M436.044 329.856C436.378 329.999 436.68 330.207 436.933 330.467C437.186 330.728 437.385 331.035 437.519 331.372C437.654 331.709 437.72 332.07 437.715 332.433C437.71 332.796 437.634 333.154 437.49 333.487L433.737 342.206L434.162 342.423L431.603 348.34L431.193 348.113L417.747 379.346C417.287 380.415 416.453 381.28 415.402 381.78C414.351 382.279 413.154 382.38 412.034 382.061L391.127 376.121C390.618 375.977 390.147 375.723 389.746 375.377C389.346 375.031 389.026 374.601 388.809 374.119C388.592 373.636 388.483 373.112 388.491 372.582C388.498 372.053 388.621 371.532 388.85 371.055L409.924 327.356C410.366 326.438 411.108 325.698 412.027 325.257C412.946 324.817 413.987 324.702 414.98 324.932L435.553 329.697C435.721 329.734 435.886 329.788 436.044 329.856V329.856Z" fill="#3F3D56"/>
<path d="M418.645 328.299L429.46 330.804C429.655 330.849 429.859 330.829 430.041 330.746C430.223 330.664 430.372 330.523 430.466 330.347C430.573 330.148 430.742 329.989 430.948 329.895C431.155 329.801 431.386 329.778 431.606 329.829L433.884 330.357C434.195 330.429 434.487 330.568 434.738 330.765C434.989 330.962 435.194 331.212 435.338 331.496C435.482 331.781 435.562 332.094 435.572 332.413C435.582 332.732 435.522 333.049 435.396 333.342L415.935 378.638C415.693 379.2 415.253 379.654 414.699 379.912C414.144 380.17 413.514 380.215 412.928 380.039L392.168 373.775C391.903 373.695 391.659 373.559 391.451 373.376C391.244 373.193 391.078 372.967 390.966 372.714C390.854 372.461 390.798 372.187 390.801 371.911C390.804 371.634 390.867 371.361 390.986 371.111L411.555 327.691C411.858 327.051 412.371 326.535 413.008 326.226C413.645 325.918 414.369 325.837 415.058 325.997L417.46 326.553C417.401 326.94 417.49 327.335 417.71 327.658C417.93 327.982 418.264 328.211 418.645 328.299Z" fill="#3F3D56"/>
<path d="M367.157 565.908L380.007 565.907L386.118 516.342L367.152 516.343L367.157 565.908Z" fill="#FFB8B8"/>
<path d="M404.791 577.837L364.405 577.841L364.403 562.237L389.186 562.234C391.235 562.234 393.264 562.638 395.157 563.422C397.05 564.206 398.771 565.355 400.22 566.804C401.669 568.252 402.818 569.973 403.603 571.866C404.387 573.759 404.791 575.788 404.791 577.837V577.837L404.791 577.837Z" fill="#2F2E41"/>
<path d="M297.891 565.908L310.742 565.907L316.853 516.342L297.887 516.343L297.891 565.908Z" fill="#FFB8B8"/>
<path d="M335.527 577.837L295.141 577.841L295.14 562.237L319.922 562.234C324.061 562.234 328.03 563.878 330.956 566.804C333.883 569.73 335.527 573.698 335.527 577.837V577.837L335.527 577.837Z" fill="#2F2E41"/>
<path d="M335.525 213.55C350.773 213.55 363.133 201.19 363.133 185.942C363.133 170.695 350.773 158.335 335.525 158.335C320.278 158.335 307.918 170.695 307.918 185.942C307.918 201.19 320.278 213.55 335.525 213.55Z" fill="#FFB8B8"/>
<path d="M429.924 365.989C429.732 364.46 429.206 362.992 428.384 361.688C427.563 360.385 426.466 359.277 425.17 358.443C423.874 357.61 422.411 357.07 420.884 356.863C419.357 356.656 417.803 356.786 416.332 357.244L400.903 338.749L387.377 345.384L409.532 371.197C410.466 373.617 412.255 375.611 414.561 376.801C416.866 377.99 419.528 378.292 422.042 377.65C424.555 377.008 426.746 375.467 428.199 373.317C429.652 371.168 430.266 368.56 429.924 365.989V365.989Z" fill="#FFB8B8"/>
<path d="M297.138 384.695C297.796 383.301 298.14 381.78 298.146 380.239C298.152 378.699 297.82 377.175 297.174 375.776C296.528 374.377 295.582 373.137 294.405 372.143C293.228 371.149 291.847 370.426 290.359 370.023L287.262 346.137L272.287 344.479L277.135 378.15C276.625 380.693 277.065 383.335 278.372 385.576C279.68 387.817 281.764 389.5 284.23 390.307C286.695 391.114 289.371 390.988 291.75 389.953C294.13 388.919 296.047 387.048 297.138 384.695L297.138 384.695Z" fill="#FFB8B8"/>
<path d="M276.183 370.089C274.97 370.088 273.798 369.652 272.88 368.86C271.962 368.068 271.358 366.973 271.18 365.773L263.809 316.137C262.883 309.889 263.632 303.507 265.98 297.644L288.609 241.172C289.534 238.862 291.052 236.837 293.01 235.302C294.968 233.767 297.297 232.775 299.76 232.427C302.224 232.079 304.736 232.387 307.043 233.32C309.349 234.253 311.369 235.778 312.898 237.742H312.898C314.478 239.765 315.476 242.181 315.785 244.73C316.094 247.279 315.702 249.863 314.651 252.206L303.984 276.067C292.02 302.836 287.506 332.338 290.918 361.459C291.056 362.635 290.778 363.821 290.131 364.812C289.484 365.803 288.511 366.536 287.379 366.883L277.669 369.866C277.187 370.014 276.686 370.089 276.183 370.089Z" fill="#CCCCCC"/>
<path d="M328.805 213.55C324.649 213.639 320.522 212.849 316.695 211.23C312.867 209.611 309.425 207.201 306.595 204.157C303.766 201.113 301.612 197.505 300.276 193.569C298.94 189.634 298.452 185.46 298.844 181.323C299.236 177.185 300.499 173.178 302.551 169.563C304.602 165.949 307.395 162.809 310.746 160.351C314.097 157.893 317.93 156.171 321.994 155.3C326.057 154.429 330.259 154.428 334.324 155.296C340.395 151.61 347.453 149.129 354.528 149.76C361.603 150.391 368.599 154.591 371.245 161.183C373.89 167.774 371.048 176.463 364.47 179.142C360.253 180.859 355.49 180.026 350.99 179.334C346.489 178.641 341.58 178.189 337.663 180.511C333.746 182.834 331.985 189.06 335.493 191.964C337.353 193.564 338.681 195.692 339.3 198.066C339.919 200.439 339.801 202.945 338.96 205.25C337.197 209.809 332.385 213.472 328.805 213.55Z" fill="#2F2E41"/>
<path d="M294.15 555.921C293.475 555.922 292.806 555.787 292.183 555.524C291.561 555.262 290.997 554.877 290.525 554.393C290.054 553.909 289.684 553.336 289.438 552.707C289.192 552.077 289.074 551.405 289.092 550.73L294.003 364.347L294.538 364.334L375.723 362.564L389.741 543.8C389.817 544.903 389.532 546.001 388.927 546.927C388.322 547.852 387.431 548.555 386.39 548.928L386.236 548.959L370.302 549.933C369.63 550.16 368.918 550.243 368.212 550.176C367.506 550.11 366.822 549.896 366.204 549.548C365.585 549.2 365.048 548.726 364.625 548.157C364.202 547.587 363.903 546.935 363.749 546.243L337.775 430.022C337.689 429.639 337.473 429.298 337.163 429.057C336.853 428.817 336.469 428.692 336.077 428.704C335.685 428.717 335.309 428.865 335.015 429.124C334.721 429.384 334.526 429.737 334.464 430.125L315.276 550.834C315.089 551.977 314.518 553.023 313.657 553.797C312.795 554.571 311.695 555.028 310.538 555.092L294.406 555.915C294.32 555.919 294.235 555.921 294.15 555.921Z" fill="#2F2E41"/>
<path d="M318.044 379.774C307.941 379.774 299.118 378.248 294.247 373.893C291.116 371.094 289.762 367.288 290.222 362.581C291.954 344.886 288.954 306.1 286.132 276.679C285.486 269.779 286.218 262.82 288.287 256.206C290.356 249.591 293.719 243.455 298.182 238.152C302.476 233.016 307.762 228.798 313.724 225.752C319.686 222.706 326.201 220.894 332.879 220.425C342.173 219.763 363.938 218.219 370.703 235.547C380.865 261.575 375.895 273.511 371.088 285.055C367.004 294.861 362.781 305.003 367.958 324.046C370.817 334.576 374.28 344.934 378.329 355.067C381.132 362.254 382.539 365.862 381.24 368.218C380.215 370.077 377.659 370.887 373.301 371.73C371.877 372.006 369.996 372.406 367.756 372.882C356.367 375.303 335.332 379.774 318.044 379.774Z" fill="#CCCCCC"/>
<path d="M400.989 363.461C400.95 363.461 400.911 363.461 400.872 363.46C400.144 363.444 399.428 363.27 398.773 362.951C398.118 362.632 397.54 362.175 397.078 361.612L368.461 326.74C362.35 319.29 358.327 310.351 356.802 300.837L347.99 245.769C347.693 243.911 347.769 242.014 348.214 240.186C348.66 238.359 349.465 236.639 350.583 235.126C351.701 233.614 353.109 232.339 354.726 231.378C356.342 230.416 358.134 229.787 359.997 229.526C361.86 229.265 363.756 229.379 365.574 229.86C367.392 230.341 369.096 231.18 370.587 232.327C372.077 233.475 373.323 234.908 374.253 236.543C375.183 238.178 375.777 239.982 376.001 241.849L379.504 271.057C382.743 298.037 393.207 323.642 409.79 345.169L411.792 347.767C412.515 348.704 412.886 349.865 412.84 351.048C412.795 352.23 412.337 353.359 411.544 354.239L404.747 361.788C404.273 362.315 403.693 362.736 403.046 363.024C402.398 363.312 401.697 363.461 400.989 363.461Z" fill="#CCCCCC"/>
<path d="M522.049 310.235C512.712 310.235 503.585 307.466 495.821 302.278C488.058 297.091 482.007 289.718 478.433 281.091C474.86 272.465 473.925 262.973 475.747 253.815C477.569 244.657 482.065 236.245 488.667 229.643C495.27 223.04 503.682 218.544 512.839 216.723C521.997 214.901 531.489 215.836 540.116 219.409C548.742 222.982 556.115 229.033 561.303 236.797C566.49 244.56 569.259 253.688 569.259 263.025C569.245 275.541 564.266 287.541 555.416 296.392C546.566 305.242 534.566 310.22 522.049 310.235V310.235ZM522.049 218.064C513.157 218.064 504.464 220.7 497.07 225.641C489.676 230.581 483.913 237.603 480.51 245.819C477.107 254.035 476.217 263.075 477.952 271.797C479.687 280.518 483.969 288.53 490.257 294.818C496.545 301.106 504.556 305.388 513.278 307.123C522 308.857 531.04 307.967 539.255 304.564C547.471 301.161 554.493 295.398 559.434 288.004C564.374 280.61 567.011 271.918 567.011 263.025C566.997 251.105 562.256 239.676 553.827 231.247C545.398 222.818 533.97 218.077 522.049 218.064V218.064Z" fill="#CCCCCC"/>
<path d="M543.037 237.17L501.376 237.173C500.841 237.147 500.305 237.228 499.801 237.409C499.296 237.591 498.832 237.87 498.436 238.231C498.04 238.593 497.719 239.029 497.491 239.514C497.264 240 497.135 240.526 497.111 241.061L497.115 282.814C497.144 283.937 497.602 285.007 498.396 285.803C499.189 286.598 500.258 287.059 501.381 287.091L543.029 287.088C544.125 287.044 545.16 286.571 545.909 285.771C546.659 284.97 547.062 283.906 547.033 282.81L547.029 241.057C547.038 240.535 546.94 240.017 546.741 239.534C546.542 239.052 546.246 238.615 545.872 238.251C545.498 237.887 545.054 237.603 544.566 237.417C544.079 237.231 543.558 237.147 543.037 237.17V237.17ZM512.588 278.781L505.437 278.782L505.435 256.547L512.586 256.547L512.588 278.781ZM509.258 253.166H509.206C508.177 253.16 507.193 252.745 506.469 252.014C505.745 251.283 505.34 250.294 505.344 249.265C505.347 248.236 505.758 247.251 506.487 246.524C507.216 245.798 508.203 245.39 509.232 245.39C510.261 245.39 511.248 245.798 511.977 246.524C512.706 247.251 513.117 248.236 513.12 249.265C513.124 250.294 512.719 251.283 511.995 252.014C511.271 252.745 510.287 253.16 509.258 253.166V253.166ZM538.724 278.779L531.573 278.78L531.571 266.622C531.571 263.71 530.53 261.72 527.943 261.72C527.134 261.726 526.347 261.984 525.69 262.457C525.033 262.93 524.539 263.595 524.276 264.36C524.086 264.925 524.002 265.52 524.029 266.116L524.03 278.78L516.879 278.781L516.877 256.546L524.028 256.546L524.029 259.64C524.68 258.514 525.622 257.584 526.757 256.947C527.892 256.311 529.177 255.993 530.477 256.025C535.172 256.024 538.723 259.118 538.724 265.789V278.779Z" fill="#3F3D56"/>
<path d="M560.682 322.568C571.191 322.568 579.711 314.049 579.711 303.539C579.711 293.029 571.191 284.51 560.682 284.51C550.172 284.51 541.652 293.029 541.652 303.539C541.652 314.049 550.172 322.568 560.682 322.568Z" fill="#3F3D56"/>
<path d="M558.327 298.783C558.307 299.106 558.353 299.429 558.46 299.734C558.567 300.039 558.735 300.319 558.952 300.558C559.171 300.773 559.431 300.94 559.717 301.05C560.004 301.16 560.31 301.209 560.616 301.194C560.926 301.209 561.235 301.159 561.525 301.049C561.815 300.938 562.079 300.769 562.3 300.551C562.519 300.311 562.687 300.03 562.796 299.724C562.904 299.418 562.951 299.094 562.932 298.769C562.947 298.457 562.899 298.144 562.792 297.849C562.685 297.555 562.52 297.285 562.308 297.055C562.092 296.839 561.834 296.67 561.549 296.56C561.265 296.449 560.961 296.399 560.656 296.412C560.343 296.397 560.031 296.447 559.739 296.558C559.447 296.67 559.181 296.842 558.959 297.062C558.744 297.292 558.578 297.563 558.469 297.859C558.361 298.155 558.312 298.469 558.327 298.783V298.783ZM557.985 307.293C557.931 308.18 558.211 309.054 558.768 309.745C559.009 310.027 559.308 310.252 559.646 310.405C559.984 310.557 560.351 310.633 560.722 310.626C561.081 310.634 561.437 310.562 561.765 310.416C562.092 310.269 562.383 310.051 562.617 309.779C563.16 309.084 563.427 308.213 563.366 307.333C563.406 306.517 563.134 305.715 562.604 305.092C562.363 304.818 562.065 304.599 561.731 304.452C561.397 304.306 561.034 304.234 560.669 304.244C560.278 304.218 559.887 304.293 559.533 304.461C559.18 304.63 558.875 304.886 558.649 305.206C558.216 305.816 557.984 306.546 557.985 307.293V307.293ZM557.564 302.618C556.704 302.283 555.973 301.682 555.478 300.903C555.045 300.182 554.82 299.355 554.827 298.513C554.807 297.83 554.93 297.149 555.19 296.517C555.449 295.884 555.839 295.313 556.333 294.84C557.561 293.9 559.064 293.391 560.61 293.391C562.157 293.391 563.66 293.9 564.887 294.84C565.385 295.311 565.778 295.881 566.04 296.514C566.302 297.147 566.427 297.828 566.407 298.513C566.426 299.385 566.182 300.242 565.708 300.974C565.234 301.706 564.551 302.278 563.748 302.618C564.736 302.986 565.584 303.654 566.172 304.529C566.76 305.404 567.059 306.441 567.026 307.495C567.071 308.324 566.941 309.154 566.643 309.929C566.345 310.704 565.887 311.407 565.297 311.992C564.708 312.577 564.002 313.031 563.224 313.323C562.447 313.616 561.617 313.74 560.788 313.688C559.205 313.745 557.653 313.242 556.405 312.266C555.725 311.713 555.184 311.007 554.826 310.207C554.467 309.407 554.301 308.534 554.34 307.657C554.33 306.62 554.598 305.598 555.116 304.699C555.683 303.756 556.543 303.025 557.564 302.618V302.618Z" fill="white"/>
<path d="M628.833 138.257C619.495 138.257 610.368 135.488 602.604 130.301C594.841 125.113 588.79 117.74 585.217 109.114C581.643 100.487 580.709 90.9951 582.53 81.8373C584.352 72.6796 588.848 64.2676 595.45 57.6653C602.053 51.0629 610.465 46.5666 619.622 44.745C628.78 42.9234 638.273 43.8583 646.899 47.4315C655.525 51.0047 662.899 57.0557 668.086 64.8192C673.273 72.5828 676.042 81.7103 676.042 91.0475C676.028 103.564 671.05 115.564 662.199 124.414C653.349 133.264 641.349 138.243 628.833 138.257V138.257ZM628.833 46.086C619.94 46.086 611.247 48.7229 603.853 53.6634C596.459 58.6038 590.697 65.6258 587.294 73.8415C583.891 82.0571 583 91.0973 584.735 99.819C586.47 108.541 590.752 116.552 597.04 122.84C603.328 129.128 611.339 133.41 620.061 135.145C628.783 136.88 637.823 135.99 646.039 132.586C654.254 129.183 661.276 123.421 666.217 116.027C671.157 108.633 673.794 99.94 673.794 91.0475C673.781 79.1271 669.039 67.6988 660.61 59.2698C652.181 50.8408 640.753 46.0995 628.833 46.086V46.086Z" fill="#CCCCCC"/>
<path d="M655.81 78.1182L661.43 76.9942C661.43 76.9942 656.709 82.2772 655.81 82.6144C655.726 83.7369 655.726 84.864 655.81 85.9865C645.019 132.297 605.229 111.839 605.229 111.839C619.729 112.177 620.965 106.219 620.965 106.219C612.535 104.983 610.849 99.475 610.849 99.475C611.605 99.874 612.482 99.9799 613.312 99.7725C614.141 99.5651 614.865 99.0589 615.345 98.3509C606.24 95.9904 607.477 87.1105 607.477 87.1105C609.099 88.2822 610.996 89.0176 612.984 89.2462C611.973 88.0098 603.43 77.781 608.601 72.4981C608.601 72.4981 614.895 83.7385 631.419 84.7501L632.543 84.5253C632.352 83.7157 632.276 82.8831 632.318 82.0524C632.318 78.9222 633.561 75.9202 635.775 73.7068C637.988 71.4934 640.99 70.25 644.12 70.25C651.989 70.25 653.675 74.7461 653.675 74.7461L659.295 71.374C659.182 71.374 658.62 76.9942 655.81 78.1182Z" fill="#3F3D56"/>
<path d="M663.244 153.067C673.754 153.067 682.273 144.548 682.273 134.038C682.273 123.528 673.754 115.009 663.244 115.009C652.735 115.009 644.215 123.528 644.215 134.038C644.215 144.548 652.735 153.067 663.244 153.067Z" fill="#3F3D56"/>
<path d="M660.981 137.149C660.916 138.17 661.204 139.182 661.797 140.016C662.008 140.318 662.286 140.567 662.61 140.743C662.934 140.918 663.295 141.016 663.663 141.027C663.989 141.03 664.311 140.957 664.603 140.813C664.896 140.67 665.151 140.459 665.347 140.2C665.867 139.395 666.104 138.442 666.022 137.488C666.102 136.486 665.847 135.487 665.295 134.647C665.086 134.371 664.817 134.146 664.508 133.99C664.198 133.833 663.857 133.75 663.511 133.746C663.164 133.742 662.821 133.818 662.509 133.967C662.196 134.116 661.921 134.334 661.706 134.606C661.172 135.342 660.916 136.242 660.981 137.149V137.149ZM669.235 128.837L665.71 129.245C665.682 128.625 665.444 128.032 665.035 127.564C664.849 127.383 664.628 127.241 664.385 127.148C664.142 127.054 663.883 127.012 663.623 127.022C663.234 127.027 662.852 127.129 662.512 127.318C662.171 127.508 661.883 127.778 661.673 128.106C660.97 129.505 660.625 131.057 660.668 132.623C661.06 132.097 661.571 131.67 662.159 131.378C662.746 131.085 663.395 130.935 664.051 130.939C664.796 130.937 665.532 131.098 666.207 131.412C666.882 131.727 667.48 132.186 667.957 132.758C669.074 134.059 669.655 135.735 669.583 137.449C669.67 139.24 669.057 140.996 667.873 142.344C667.271 142.966 666.542 143.453 665.736 143.769C664.929 144.086 664.064 144.225 663.199 144.178C662.334 144.131 661.489 143.899 660.722 143.497C659.955 143.094 659.283 142.532 658.752 141.848C657.516 140.289 656.898 137.733 656.898 134.181C656.898 130.537 657.542 127.911 658.829 126.303C659.415 125.533 660.175 124.913 661.047 124.493C661.918 124.074 662.877 123.867 663.844 123.889C665.156 123.842 666.436 124.295 667.427 125.156C668.44 126.135 669.08 127.437 669.235 128.837V128.837Z" fill="white"/>
<path d="M446.739 94.4192C437.402 94.4192 428.274 91.6504 420.511 86.4629C412.747 81.2755 406.696 73.9023 403.123 65.2759C399.55 56.6495 398.615 47.1572 400.436 37.9995C402.258 28.8417 406.754 20.4298 413.357 13.8274C419.959 7.225 428.371 2.72873 437.529 0.907139C446.686 -0.914453 456.179 0.0204582 464.805 3.59364C473.432 7.16682 480.805 13.2178 485.992 20.9814C491.18 28.7449 493.948 37.8724 493.948 47.2096C493.934 59.726 488.956 71.7257 480.105 80.5761C471.255 89.4266 459.255 94.405 446.739 94.4192V94.4192ZM446.739 2.24809C437.846 2.24809 429.153 4.88503 421.76 9.82547C414.366 14.7659 408.603 21.7879 405.2 30.0036C401.797 38.2192 400.906 47.2595 402.641 55.9812C404.376 64.7028 408.658 72.7142 414.946 79.0022C421.234 85.2902 429.246 89.5723 437.967 91.3072C446.689 93.042 455.729 92.1516 463.945 88.7486C472.161 85.3456 479.183 79.5828 484.123 72.1889C489.063 64.795 491.7 56.1021 491.7 47.2096C491.687 35.2892 486.946 23.8609 478.517 15.4319C470.088 7.0029 458.659 2.26156 446.739 2.24809V2.24809Z" fill="#CCCCCC"/>
<path d="M482.01 105.47C492.405 105.47 500.833 96.9499 500.833 86.4404C500.833 75.9308 492.405 67.4111 482.01 67.4111C471.615 67.4111 463.188 75.9308 463.188 86.4404C463.188 96.9499 471.615 105.47 482.01 105.47Z" fill="#3F3D56"/>
<path fill-rule="evenodd" clip-rule="evenodd" d="M477.601 47.3952C477.599 41.4976 475.909 35.7238 472.728 30.7573C469.548 25.7909 465.011 21.8397 459.654 19.3716C454.298 16.9035 448.346 16.0218 442.505 16.8309C436.663 17.64 431.175 20.1061 426.691 23.9371C422.207 27.7681 418.915 32.8037 417.204 38.4477C415.493 44.0916 415.435 50.1077 417.037 55.7836C418.639 61.4594 421.834 66.5575 426.243 70.4741C430.652 74.3908 436.091 76.9621 441.917 77.8836V56.319H434.078V47.3952H441.917V40.5946C441.917 32.8612 446.525 28.5861 453.574 28.5861C455.889 28.6183 458.198 28.82 460.483 29.1895V36.7851H456.59C452.758 36.7851 451.56 39.1631 451.56 41.6072V47.3966H460.118L458.751 56.3203H451.56V77.8864C458.819 76.7365 465.431 73.0339 470.205 67.4444C474.978 61.855 477.601 54.7457 477.601 47.3952V47.3952Z" fill="#3F3D56"/>
<path d="M485.775 96.5898H481.942V81.9875C480.528 83.319 478.837 84.3216 476.99 84.9237V81.4077C478.176 80.9713 479.279 80.3347 480.25 79.5257C481.349 78.7025 482.187 77.5797 482.664 76.292H485.775V96.5898Z" fill="white"/>
</svg>
