<svg width="900" height="580" viewBox="0 0 900 580" fill="none" xmlns="http://www.w3.org/2000/svg">
<path d="M174.585 522.79C178.326 524.105 182.342 524.435 186.247 523.747C190.152 523.059 193.814 521.377 196.88 518.863C204.689 512.309 207.137 501.514 209.129 491.516L215.021 461.942L202.685 470.436C193.814 476.545 184.743 482.849 178.6 491.697C172.458 500.544 169.779 512.623 174.712 522.196" fill="#E6E6E6"/>
<path d="M176.49 560.652C174.938 549.341 173.34 537.883 174.432 526.45C175.399 516.296 178.497 506.38 184.804 498.247C188.152 493.938 192.225 490.247 196.841 487.338C198.045 486.579 199.153 488.486 197.954 489.243C189.967 494.29 183.789 501.744 180.311 510.529C176.47 520.299 175.853 530.949 176.515 541.327C176.915 547.603 177.764 553.838 178.618 560.065C178.685 560.347 178.643 560.643 178.5 560.895C178.357 561.147 178.124 561.335 177.848 561.421C177.566 561.497 177.265 561.459 177.011 561.315C176.757 561.17 176.57 560.932 176.491 560.651L176.49 560.652Z" fill="#F2F2F2"/>
<path d="M187.666 542.502C189.27 544.941 191.475 546.926 194.069 548.265C196.663 549.604 199.558 550.252 202.475 550.148C209.973 549.792 216.222 544.561 221.847 539.592L238.487 524.901L227.474 524.373C219.554 523.994 211.43 523.638 203.887 526.083C196.344 528.529 189.387 534.404 188.008 542.212" fill="#E6E6E6"/>
<path d="M172.102 567.155C179.577 553.929 188.247 539.229 203.739 534.531C208.046 533.229 212.563 532.763 217.045 533.157C218.458 533.279 218.105 535.457 216.695 535.335C209.181 534.712 201.682 536.696 195.46 540.953C189.472 545.029 184.81 550.696 180.864 556.704C178.447 560.385 176.282 564.222 174.117 568.053C173.425 569.278 171.402 568.393 172.102 567.155Z" fill="#F2F2F2"/>
<path d="M770.211 403.881H358.106C356.836 403.879 355.619 403.374 354.721 402.476C353.823 401.578 353.318 400.361 353.316 399.091V16.3816C353.318 15.1118 353.823 13.8945 354.721 12.9965C355.619 12.0986 356.836 11.5935 358.106 11.5918H770.211C771.481 11.5935 772.698 12.0986 773.596 12.9965C774.494 13.8945 774.999 15.1118 775.001 16.3816V399.09C774.999 400.36 774.494 401.578 773.596 402.476C772.698 403.374 771.481 403.879 770.211 403.88V403.881Z" fill="white"/>
<path d="M770.211 403.881H358.106C356.836 403.879 355.619 403.374 354.721 402.476C353.823 401.578 353.318 400.361 353.316 399.091V16.3816C353.318 15.1118 353.823 13.8945 354.721 12.9965C355.619 12.0986 356.836 11.5935 358.106 11.5918H770.211C771.481 11.5935 772.698 12.0986 773.596 12.9965C774.494 13.8945 774.999 15.1118 775.001 16.3816V399.09C774.999 400.36 774.494 401.578 773.596 402.476C772.698 403.374 771.481 403.879 770.211 403.88V403.881ZM358.106 13.504C357.345 13.5056 356.616 13.8087 356.078 14.3468C355.54 14.8849 355.237 15.6143 355.235 16.3754V399.09C355.237 399.851 355.54 400.581 356.078 401.119C356.616 401.657 357.345 401.96 358.106 401.962H770.211C770.972 401.96 771.701 401.657 772.24 401.119C772.778 400.581 773.081 399.851 773.082 399.09V16.3816C773.08 15.6206 772.777 14.8912 772.239 14.3531C771.701 13.815 770.972 13.5119 770.211 13.5102L358.106 13.504Z" fill="#CACACA"/>
<path d="M552.836 111.041C551.975 111.042 551.149 111.386 550.54 111.995C549.932 112.605 549.59 113.431 549.59 114.293C549.59 115.154 549.932 115.981 550.54 116.59C551.149 117.2 551.975 117.543 552.836 117.545H731.271C732.133 117.543 732.959 117.2 733.567 116.59C734.176 115.981 734.518 115.154 734.518 114.293C734.518 113.431 734.176 112.605 733.567 111.995C732.959 111.386 732.133 111.042 731.271 111.041H552.836Z" fill="#E4E4E4"/>
<path d="M552.834 130.553C551.973 130.555 551.148 130.898 550.54 131.508C549.931 132.118 549.59 132.944 549.59 133.805C549.59 134.666 549.931 135.492 550.54 136.101C551.148 136.711 551.973 137.054 552.834 137.056H643.929C644.79 137.054 645.615 136.711 646.223 136.101C646.831 135.492 647.173 134.666 647.173 133.805C647.173 132.944 646.831 132.118 646.223 131.508C645.615 130.898 644.79 130.555 643.929 130.553H552.834Z" fill="#E4E4E4"/>
<path d="M396.875 235.486C396.014 235.488 395.189 235.832 394.58 236.442C393.972 237.051 393.631 237.877 393.631 238.738C393.631 239.599 393.972 240.425 394.58 241.035C395.189 241.644 396.014 241.988 396.875 241.99H731.442C732.303 241.988 733.128 241.644 733.736 241.035C734.344 240.425 734.686 239.599 734.686 238.738C734.686 237.877 734.344 237.051 733.736 236.442C733.128 235.832 732.303 235.488 731.442 235.486H396.875Z" fill="#E4E4E4"/>
<path d="M396.875 254.999C396.014 255.001 395.189 255.345 394.58 255.954C393.972 256.564 393.631 257.39 393.631 258.251C393.631 259.112 393.972 259.938 394.58 260.547C395.189 261.157 396.014 261.501 396.875 261.503H644.102C644.963 261.501 645.788 261.157 646.396 260.547C647.004 259.938 647.345 259.112 647.345 258.251C647.345 257.39 647.004 256.564 646.396 255.954C645.788 255.345 644.963 255.001 644.102 254.999H396.875Z" fill="#E4E4E4"/>
<path d="M396.875 274.071C396.014 274.073 395.189 274.417 394.58 275.027C393.972 275.636 393.631 276.462 393.631 277.323C393.631 278.184 393.972 279.01 394.58 279.62C395.189 280.229 396.014 280.573 396.875 280.575H731.442C732.303 280.573 733.128 280.229 733.736 279.62C734.344 279.01 734.686 278.184 734.686 277.323C734.686 276.462 734.344 275.636 733.736 275.027C733.128 274.417 732.303 274.073 731.442 274.071H396.875Z" fill="#E4E4E4"/>
<path d="M396.875 293.584C396.014 293.586 395.189 293.93 394.58 294.539C393.972 295.149 393.631 295.975 393.631 296.836C393.631 297.697 393.972 298.523 394.58 299.132C395.189 299.742 396.014 300.086 396.875 300.088H644.102C644.963 300.086 645.788 299.742 646.396 299.132C647.004 298.523 647.345 297.697 647.345 296.836C647.345 295.975 647.004 295.149 646.396 294.539C645.788 293.93 644.963 293.586 644.102 293.584H396.875Z" fill="#E4E4E4"/>
<path d="M396.875 313.164C396.014 313.166 395.189 313.51 394.58 314.119C393.972 314.729 393.631 315.555 393.631 316.416C393.631 317.277 393.972 318.103 394.58 318.713C395.189 319.322 396.014 319.666 396.875 319.668H731.442C732.303 319.666 733.128 319.322 733.736 318.713C734.344 318.103 734.686 317.277 734.686 316.416C734.686 315.555 734.344 314.729 733.736 314.119C733.128 313.51 732.303 313.166 731.442 313.164H396.875Z" fill="#E4E4E4"/>
<path d="M396.875 332.676C396.014 332.678 395.189 333.021 394.58 333.631C393.972 334.241 393.631 335.067 393.631 335.928C393.631 336.789 393.972 337.615 394.58 338.224C395.189 338.834 396.014 339.177 396.875 339.179H644.102C644.963 339.177 645.788 338.834 646.396 338.224C647.004 337.615 647.345 336.789 647.345 335.928C647.345 335.067 647.004 334.241 646.396 333.631C645.788 333.021 644.963 332.678 644.102 332.676H396.875Z" fill="#E4E4E4"/>
<path d="M449.865 170.768C440.625 170.768 431.592 168.028 423.909 162.895C416.226 157.761 410.237 150.465 406.701 141.928C403.165 133.391 402.24 123.997 404.042 114.934C405.845 105.871 410.295 97.5463 416.828 91.0123C423.362 84.4783 431.687 80.0286 440.75 78.2259C449.813 76.4232 459.207 77.3483 467.744 80.8845C476.281 84.4206 483.577 90.4088 488.711 98.0919C493.845 105.775 496.585 114.808 496.585 124.048C496.571 136.435 491.644 148.31 482.885 157.069C474.127 165.827 462.252 170.754 449.865 170.768V170.768Z" fill="#8D8D92"/>
<path d="M308.046 347.421C307.966 345.716 307.512 344.049 306.717 342.538C305.923 341.027 304.806 339.709 303.447 338.676C302.088 337.643 300.518 336.921 298.85 336.56C297.181 336.199 295.454 336.208 293.789 336.587L278.346 314.824L262.832 320.983L285.072 351.411C285.894 354.165 287.698 356.522 290.142 358.035C292.585 359.548 295.499 360.112 298.331 359.62C301.163 359.129 303.716 357.615 305.507 355.367C307.297 353.118 308.201 350.291 308.046 347.421H308.046Z" fill="#A0616A"/>
<path d="M277.95 345.808L231.223 285.188L248.731 230.163C250.014 216.328 258.671 212.465 259.039 212.307L259.601 212.066L274.837 252.696L263.65 282.526L291.107 328.705L277.95 345.808Z" fill="#3F3D56"/>
<path d="M440.228 158.938C438.534 159.15 436.908 159.731 435.463 160.641C434.018 161.55 432.79 162.765 431.865 164.2C430.94 165.635 430.341 167.255 430.111 168.947C429.88 170.638 430.023 172.36 430.529 173.99L410.025 191.069L417.365 206.061L445.982 181.535C448.665 180.503 450.875 178.522 452.195 175.968C453.514 173.415 453.852 170.466 453.142 167.681C452.433 164.895 450.727 162.467 448.347 160.856C445.966 159.244 443.078 158.562 440.228 158.938V158.938Z" fill="#A0616A"/>
<path d="M440.942 189.07L384.117 240.344L327.902 227.143C314.01 226.933 309.489 218.601 309.303 218.246L309.02 217.704L348.349 199.373L378.955 208.219L422.873 177.274L440.942 189.07Z" fill="#3F3D56"/>
<path d="M342.513 553.581L357.781 553.58L365.043 494.689L342.51 494.69L342.513 553.581Z" fill="#A0616A"/>
<path d="M387.227 567.755L339.242 567.757L339.241 549.218L373.764 549.216C377.334 549.216 380.758 550.634 383.283 553.159C385.808 555.683 387.226 559.107 387.226 562.678L387.227 567.755L387.227 567.755Z" fill="#2F2E41"/>
<path d="M281.49 553.581L296.758 553.58L304.022 494.689L281.488 494.69L281.49 553.581Z" fill="#A0616A"/>
<path d="M326.205 567.755L278.221 567.757L278.22 549.218L312.742 549.216C314.51 549.216 316.261 549.564 317.894 550.24C319.527 550.917 321.011 551.908 322.261 553.159C323.512 554.409 324.503 555.893 325.18 557.526C325.856 559.159 326.205 560.91 326.205 562.678L326.205 567.755V567.755Z" fill="#2F2E41"/>
<path d="M276.061 338.625L277.306 425.8L278.552 540.373L305.949 537.882L319.648 379.722L337.084 537.882H365.368L368.217 378.477L358.255 343.607L276.061 338.625Z" fill="#2F2E41"/>
<path d="M329.684 350.331C299.874 350.334 272.433 336.841 272.063 336.656L271.755 336.502L269.254 276.466C268.528 274.344 254.244 232.481 251.824 219.175C249.373 205.694 284.899 193.863 289.213 192.479L290.192 181.635L330.003 177.345L335.048 191.221L349.331 196.577C350.95 197.184 352.29 198.365 353.097 199.894C353.904 201.424 354.122 203.196 353.709 204.876L345.771 237.157L365.158 343.958L360.985 344.138C350.98 348.657 340.182 350.331 329.684 350.331Z" fill="#3F3D56"/>
<path d="M325.405 166.962C339.296 159.368 344.401 141.952 336.807 128.061C329.214 114.171 311.798 109.066 297.907 116.659C284.016 124.253 278.911 141.669 286.505 155.559C294.098 169.45 311.514 174.555 325.405 166.962Z" fill="#A0616A"/>
<path d="M288.441 169.561C293.904 175.38 304.049 172.256 304.761 164.307C304.816 163.69 304.812 163.069 304.748 162.452C304.381 158.931 302.347 155.734 302.834 152.016C302.944 151.091 303.289 150.209 303.835 149.454C308.189 143.625 318.407 152.061 322.515 146.784C325.034 143.549 322.073 138.454 324.006 134.838C326.558 130.065 334.115 132.419 338.854 129.805C344.127 126.897 343.811 118.807 340.341 113.886C336.108 107.885 328.686 104.683 321.357 104.221C314.027 103.76 306.748 105.741 299.906 108.408C292.131 111.437 284.422 115.625 279.637 122.461C273.819 130.774 273.259 141.951 276.169 151.672C277.939 157.586 283.98 164.809 288.441 169.561Z" fill="#2F2E41"/>
<path d="M490.066 568.494H126.793C126.54 568.494 126.298 568.393 126.119 568.215C125.94 568.036 125.84 567.793 125.84 567.54C125.84 567.288 125.94 567.045 126.119 566.866C126.298 566.687 126.54 566.587 126.793 566.587H490.066C490.319 566.587 490.561 566.687 490.74 566.866C490.919 567.045 491.019 567.288 491.019 567.54C491.019 567.793 490.919 568.036 490.74 568.215C490.561 568.393 490.319 568.494 490.066 568.494Z" fill="#CACACA"/>
<path d="M447.167 141.695C446.325 141.696 445.513 141.377 444.897 140.803L429.491 126.493C428.844 125.891 428.462 125.056 428.43 124.172C428.398 123.288 428.718 122.428 429.32 121.78C429.922 121.132 430.756 120.749 431.64 120.716C432.524 120.683 433.385 121.002 434.033 121.603L447.082 133.724L472.899 107.907C473.208 107.595 473.576 107.348 473.982 107.179C474.387 107.009 474.822 106.922 475.261 106.921C475.701 106.92 476.136 107.006 476.542 107.174C476.948 107.342 477.317 107.588 477.628 107.899C477.938 108.209 478.184 108.578 478.352 108.984C478.52 109.39 478.606 109.826 478.605 110.265C478.604 110.704 478.516 111.139 478.347 111.544C478.177 111.95 477.93 112.318 477.618 112.627L449.528 140.717C449.218 141.028 448.85 141.274 448.445 141.441C448.04 141.609 447.606 141.695 447.167 141.695V141.695Z" fill="white"/>
</svg>
