<svg width="900" height="580" viewBox="0 0 900 580" fill="none" xmlns="http://www.w3.org/2000/svg">
<path d="M608.929 53.0551C607.867 49.9212 594.558 39.2682 602.713 37.4776L609.402 46.3957L640.151 15.6465L643.244 18.7391L608.929 53.0551Z" fill="#8D8D92"/>
<path d="M608.929 157.615C607.867 154.481 594.558 143.828 602.713 142.037L609.402 150.955L640.151 120.206L643.244 123.299L608.929 157.615Z" fill="#8D8D92"/>
<path d="M608.929 263.668C607.867 260.534 594.558 249.881 602.713 248.091L609.402 257.009L640.151 226.26L643.244 229.352L608.929 263.668Z" fill="#8D8D92"/>
<path d="M580.614 177.927C585.854 177.927 590.102 173.678 590.102 168.438C590.102 163.197 585.854 158.949 580.614 158.949C575.373 158.949 571.125 163.197 571.125 168.438C571.125 173.678 575.373 177.927 580.614 177.927Z" fill="#3F3D56"/>
<path d="M580.614 74.4999C585.854 74.4999 590.102 70.2517 590.102 65.0112C590.102 59.7707 585.854 55.5225 580.614 55.5225C575.373 55.5225 571.125 59.7707 571.125 65.0112C571.125 70.2517 575.373 74.4999 580.614 74.4999Z" fill="#3F3D56"/>
<path d="M823.999 43.1865H671.23V45.0843H823.999V43.1865Z" fill="#3F3D56"/>
<path d="M585.358 288.181C590.598 288.181 594.847 283.932 594.847 278.692C594.847 273.451 590.598 269.203 585.358 269.203C580.117 269.203 575.869 273.451 575.869 278.692C575.869 283.932 580.117 288.181 585.358 288.181Z" fill="#3F3D56"/>
<path d="M823.999 147.746H671.23V149.644H823.999V147.746Z" fill="#3F3D56"/>
<path d="M823.999 253.801H671.23V255.699H823.999V253.801Z" fill="#3F3D56"/>
<path d="M632.897 277.807H585.453V229.414H617.715V231.312H587.351V275.909H630.999V254.085H632.897V277.807Z" fill="#3F3D56"/>
<path d="M632.897 171.533H585.453V123.141H617.715V125.038H587.351V169.635H630.999V147.811H632.897V171.533Z" fill="#3F3D56"/>
<path d="M632.897 63.3613H585.453V14.9688H617.715V16.8665H587.351V61.4636H630.999V39.6395H632.897V63.3613Z" fill="#3F3D56"/>
<path d="M68.9816 442.023C73.2343 398.615 98.9378 355.284 139.835 340.128C124.723 385.087 126 433.942 143.441 478.05C150.229 495.036 159.547 513.222 154.034 530.664C150.603 541.516 141.74 549.982 131.726 555.392C121.712 560.802 110.513 563.549 99.4545 566.242L97.3129 568.109C78.6182 528.703 64.7289 485.431 68.9816 442.023Z" fill="#F0F0F0"/>
<path d="M140.267 340.935C117.176 368.19 102.642 402.999 100.101 438.683C99.5516 446.398 99.6657 454.272 101.546 461.813C103.435 469.15 107.254 475.847 112.606 481.208C117.496 486.308 123.089 490.957 126.655 497.157C130.413 503.691 130.747 511.218 128.476 518.322C125.697 527.014 119.961 534.19 114.108 541.011C107.609 548.586 100.738 556.35 98.1496 566.235C97.836 567.432 95.996 566.876 96.3092 565.68C100.813 548.482 117.129 538.355 124.63 522.776C128.13 515.507 129.461 507.138 125.807 499.656C122.611 493.113 116.848 488.313 111.852 483.193C106.606 477.817 102.536 471.874 100.331 464.632C98.0746 457.224 97.6524 449.338 98.0021 441.643C98.9253 424.199 102.585 407.009 108.849 390.702C115.893 372.051 126.077 354.744 138.958 339.527C139.755 338.586 141.059 340 140.267 340.935L140.267 340.935Z" fill="white"/>
<path d="M100.315 427.041C94.3399 425.754 89.0163 422.385 85.2953 417.535C81.5744 412.686 79.6985 406.672 80.0026 400.566C80.0173 400.318 80.128 400.084 80.3114 399.915C80.4948 399.747 80.7367 399.655 80.9859 399.661C81.2351 399.667 81.4723 399.77 81.6475 399.947C81.8226 400.125 81.9221 400.363 81.9249 400.612C81.6312 406.297 83.3791 411.899 86.8533 416.408C90.3274 420.917 95.2989 424.035 100.87 425.2C102.081 425.455 101.519 427.294 100.315 427.041V427.041Z" fill="white"/>
<path d="M109.785 478.95C120.343 472.267 127.994 461.849 131.212 449.776C131.53 448.579 133.37 449.135 133.053 450.33C129.68 462.889 121.696 473.713 110.694 480.644C109.645 481.303 108.742 479.606 109.785 478.95Z" fill="white"/>
<path d="M117.724 373.826C119.932 374.806 122.349 375.221 124.758 375.036C127.167 374.851 129.492 374.07 131.524 372.764C132.564 372.091 133.467 373.79 132.433 374.458C130.181 375.89 127.612 376.749 124.951 376.96C122.29 377.171 119.618 376.727 117.169 375.666C116.929 375.586 116.73 375.417 116.61 375.195C116.491 374.972 116.461 374.713 116.526 374.469C116.6 374.225 116.768 374.021 116.992 373.901C117.217 373.781 117.479 373.754 117.724 373.826H117.724Z" fill="white"/>
<path d="M267.631 414.13C266.994 414.568 266.356 415.007 265.718 415.462C257.177 421.403 249.132 428.028 241.664 435.272C241.077 435.823 240.492 436.39 239.922 436.957C222.115 454.601 207.739 475.397 197.524 498.29C193.467 507.403 190.11 516.811 187.481 526.434C183.851 539.723 180.972 554.421 173.387 565.411C172.609 566.567 171.759 567.673 170.844 568.723L99.7586 570.577C99.595 570.5 99.4309 570.439 99.2665 570.362L96.4316 570.566C96.5326 570.06 96.6481 569.538 96.7491 569.032C96.8064 568.739 96.8795 568.445 96.9369 568.151C96.9801 567.955 97.0242 567.759 97.0519 567.58C97.0661 567.515 97.081 567.449 97.0956 567.4C97.1234 567.221 97.1683 567.057 97.1965 566.894C97.8343 563.973 98.4938 561.05 99.1749 558.128C99.1745 558.111 99.1745 558.111 99.1899 558.095C104.437 535.837 111.587 513.822 121.852 493.592C122.161 492.984 122.469 492.359 122.811 491.749C127.488 482.657 132.901 473.961 138.996 465.75C142.347 461.265 145.923 456.952 149.711 452.828C159.518 442.191 170.937 433.164 183.549 426.076C208.694 411.95 238.077 406.023 265.539 413.535C266.241 413.728 266.928 413.921 267.631 414.13Z" fill="#F0F0F0"/>
<path d="M267.495 415.036C232.648 422.895 200.087 441.938 176.573 468.9C171.49 474.729 166.84 481.085 163.801 488.238C160.892 495.233 159.909 502.88 160.955 510.383C161.789 517.399 163.455 524.479 162.57 531.575C161.636 539.055 157.371 545.266 151.281 549.571C143.829 554.838 134.929 557.114 126.148 559.037C116.399 561.171 106.239 563.235 98.2205 569.568C97.2489 570.336 96.115 568.783 97.085 568.017C111.035 556.998 130.16 558.735 145.529 550.812C152.7 547.115 158.801 541.234 160.388 533.06C161.776 525.912 160.064 518.61 159.158 511.514C158.206 504.063 158.535 496.867 161.134 489.757C163.793 482.484 168.204 475.933 173.116 469.999C184.355 456.627 197.627 445.106 212.446 435.856C229.3 425.206 247.851 417.518 267.297 413.124C268.501 412.852 268.691 414.767 267.495 415.036H267.495Z" fill="white"/>
<path d="M183.753 459.733C179.757 455.108 177.534 449.213 177.483 443.1C177.432 436.988 179.555 431.056 183.474 426.365C184.27 425.418 185.778 426.611 184.981 427.559C181.324 431.921 179.347 437.446 179.406 443.138C179.465 448.83 181.557 454.313 185.304 458.598C186.117 459.53 184.562 460.66 183.753 459.733V459.733Z" fill="white"/>
<path d="M160.063 506.882C172.516 507.902 184.897 504.191 194.736 496.488C195.71 495.724 196.844 497.276 195.871 498.039C185.618 506.036 172.726 509.871 159.769 508.781C158.534 508.676 158.834 506.777 160.063 506.882H160.063Z" fill="white"/>
<path d="M229.691 427.725C230.865 429.836 232.544 431.624 234.579 432.926C236.614 434.228 238.941 435.005 241.35 435.186C242.585 435.275 242.283 437.174 241.056 437.085C238.395 436.873 235.827 436.012 233.575 434.578C231.324 433.145 229.458 431.181 228.14 428.86C227.998 428.652 227.94 428.397 227.978 428.147C228.017 427.898 228.149 427.672 228.348 427.517C228.554 427.367 228.811 427.305 229.063 427.344C229.314 427.383 229.54 427.52 229.691 427.725V427.725Z" fill="white"/>
<path d="M389.551 187.447C389.551 187.447 376.871 240.984 392.369 240.984C407.866 240.984 444.496 180.403 444.496 180.403L431.817 164.905L409.058 196.503L407.866 180.403L389.551 187.447Z" fill="#A0616A"/>
<path d="M441.117 182.73C447.929 182.73 453.452 177.208 453.452 170.395C453.452 163.582 447.929 158.06 441.117 158.06C434.304 158.06 428.781 163.582 428.781 170.395C428.781 177.208 434.304 182.73 441.117 182.73Z" fill="#A0616A"/>
<path d="M378.801 552.077L395.219 552.076L403.031 488.742L378.797 488.743L378.801 552.077Z" fill="#A0616A"/>
<path d="M378.221 569.205L428.714 569.203V568.565C428.713 563.353 426.643 558.354 422.957 554.669C419.272 550.983 414.273 548.912 409.061 548.912H409.06L399.837 541.915L382.628 548.913L378.221 548.913L378.221 569.205Z" fill="#2F2E41"/>
<path d="M202.18 531.591L216.871 538.922L252.143 485.743L230.459 474.922L202.18 531.591Z" fill="#A0616A"/>
<path d="M194.014 546.659L239.193 569.205L239.478 568.634C241.805 563.97 242.184 558.573 240.533 553.629C238.881 548.686 235.333 544.601 230.669 542.273L230.668 542.272L225.541 531.893L207.018 530.47L203.075 528.502L194.014 546.659Z" fill="#2F2E41"/>
<path d="M272.642 284.57C272.642 284.57 266.081 363.467 264.672 380.374C263.706 390.972 261.337 401.394 257.628 411.369C257.628 411.369 254.81 417.004 254.81 422.639L222.876 480.676C222.876 480.676 213.117 487.849 214.526 493.485C215.935 499.12 208.643 502.5 208.643 502.5L242.272 508.982C242.272 508.982 240.863 504.755 245.09 503.347C249.316 501.938 252.681 489.718 252.681 489.718L299.893 412.777L333.706 342.335C333.706 342.335 353.43 405.733 357.656 412.777C357.656 412.777 373.154 491.673 375.972 498.718C378.789 505.762 380.198 505.762 378.789 508.58C377.38 511.398 377.38 514.215 378.789 515.624C380.198 517.033 406.966 515.624 406.966 515.624L399.922 415.595L387.242 295.842L322.435 276.118L272.642 284.57Z" fill="#2F2E41"/>
<path d="M336.094 96.2228C352.434 96.2228 365.68 82.9767 365.68 66.6368C365.68 50.2969 352.434 37.0508 336.094 37.0508C319.754 37.0508 306.508 50.2969 306.508 66.6368C306.508 82.9767 319.754 96.2228 336.094 96.2228Z" fill="#A0616A"/>
<path d="M390.061 139.459L354.841 118.121C354.841 118.121 353.865 104.87 343.829 104.246C338.791 103.933 331.231 103.455 319.885 102.723C317.487 102.568 315.869 115.687 313.121 115.509L275.944 125.371L281.579 221.173C281.579 221.173 273.126 259.212 275.944 266.257C278.761 273.301 268.899 276.119 271.717 277.527C274.535 278.936 271.717 288.798 271.717 288.798C271.717 288.798 326.662 316.975 387.243 295.843L381.608 277.527C382.375 275.133 382.519 272.583 382.026 270.118C381.533 267.653 380.419 265.354 378.79 263.439C378.79 263.439 384.426 254.986 377.381 247.941C377.381 247.941 380.199 235.262 373.155 229.626L371.746 209.902L375.972 200.04L390.061 139.459Z" fill="#E6E6E6"/>
<path d="M310.421 83.5385L309.594 81.6176C309.487 81.3693 299.024 56.6346 308.298 41.3776C312.592 34.3143 320.398 30.3265 331.5 29.5259C348.871 28.2699 360.76 32.3906 366.846 41.7649C367.867 43.3537 368.441 45.1881 368.507 47.0752C368.573 48.9623 368.13 50.8324 367.224 52.4889C366.317 54.1454 364.981 55.5271 363.356 56.4888C361.731 57.4504 359.877 57.9564 357.989 57.9537H357.755L354.563 53.8093L354.378 54.2124C353.222 56.7124 350.568 58.0811 347.46 57.7813C346.931 57.7433 346.463 58.1997 346.087 59.1764C345.96 59.6036 345.721 59.9889 345.394 60.2917C345.067 60.5946 344.665 60.8039 344.229 60.8976C341.932 61.3447 338.659 58.4518 337.193 57.0099C337.137 57.3418 337.01 57.6576 336.82 57.9361C336.631 58.2146 336.385 58.4492 336.097 58.6241C334.553 59.5151 332.15 58.3512 331.46 57.9806C325.964 59.1481 322.407 58.8359 320.883 57.0535C319.85 64.3632 317.632 77.5205 314.974 78.2498C314.696 78.3137 314.404 78.2865 314.143 78.1723C313.882 78.0581 313.664 77.8629 313.522 77.6155C312.882 76.7843 312.31 76.3701 311.953 76.4864C311.088 76.7616 310.577 79.6101 310.504 81.4485L310.421 83.5385Z" fill="#2F2E41"/>
<path d="M374.565 140.868L388.619 138.585C398.743 148.312 405.639 160.911 408.377 174.681C412.604 197.223 414.013 201.449 414.013 201.449L380.2 209.902L361.885 174.681L374.565 140.868Z" fill="#E6E6E6"/>
<path d="M312.201 170.187L303.516 280.289L525.158 297.773L533.843 187.671L312.201 170.187Z" fill="white"/>
<path d="M335.881 178.719C330.457 174.845 323.57 174.565 320.939 174.621C321.742 177.126 324.236 183.551 329.66 187.426C335.097 191.31 341.976 191.581 344.602 191.527C343.8 189.023 341.306 182.595 335.881 178.719Z" fill="#8D8D92"/>
<path d="M357.279 248.778L321.69 245.97C320.638 245.887 319.58 246.012 318.577 246.338C317.574 246.664 316.645 247.184 315.842 247.869C315.04 248.554 314.381 249.39 313.902 250.33C313.422 251.27 313.133 252.295 313.05 253.346C312.967 254.398 313.092 255.455 313.418 256.459C313.744 257.462 314.264 258.391 314.949 259.193C315.634 259.996 316.47 260.655 317.41 261.134C318.35 261.613 319.375 261.902 320.426 261.985V261.985L356.016 264.793C358.139 264.96 360.243 264.277 361.863 262.894C363.483 261.511 364.487 259.541 364.655 257.417C364.822 255.293 364.139 253.19 362.756 251.57C361.373 249.949 359.403 248.945 357.279 248.778V248.778Z" fill="#8D8D92"/>
<path d="M525.105 176.969L325.567 161.228C323.246 161.045 320.912 161.321 318.697 162.04C316.483 162.76 314.432 163.908 312.662 165.42C310.892 166.932 309.437 168.778 308.38 170.852C307.323 172.926 306.685 175.189 306.502 177.509L298.828 274.722C298.459 279.411 299.967 284.054 303.021 287.631C306.075 291.207 310.424 293.425 315.112 293.796L514.651 309.538C516.972 309.721 519.306 309.444 521.52 308.725C523.734 308.006 525.785 306.857 527.555 305.345C529.326 303.834 530.781 301.988 531.838 299.913C532.895 297.839 533.533 295.577 533.715 293.256L541.008 200.859L541.155 198.971L541.387 196.034C541.57 193.713 541.294 191.379 540.574 189.165C539.855 186.951 538.707 184.9 537.195 183.129C535.683 181.359 533.837 179.904 531.763 178.847C529.688 177.79 527.426 177.152 525.105 176.969V176.969ZM519.213 261.55L517.949 277.566C517.718 280.394 516.376 283.016 514.217 284.859C512.058 286.701 509.258 287.613 506.428 287.397L479.733 285.293C476.904 285.062 474.282 283.721 472.44 281.562C470.598 279.403 469.685 276.602 469.902 273.772L471.166 257.757C471.398 254.929 472.74 252.307 474.899 250.465C477.057 248.623 479.857 247.71 482.687 247.926L509.373 250.031C512.201 250.264 514.823 251.605 516.667 253.763C518.51 255.921 519.426 258.72 519.213 261.55V261.55ZM311.283 253.199C311.49 250.607 312.717 248.204 314.694 246.515C316.671 244.827 319.237 243.992 321.829 244.193L357.417 247.002C358.703 247.102 359.956 247.453 361.106 248.037C362.255 248.621 363.279 249.426 364.117 250.405C364.956 251.385 365.593 252.52 365.992 253.746C366.392 254.972 366.546 256.265 366.446 257.55C366.345 258.836 365.993 260.089 365.408 261.238C364.823 262.387 364.017 263.41 363.037 264.247C362.057 265.085 360.921 265.721 359.695 266.12C358.469 266.518 357.176 266.671 355.891 266.57L355.872 266.575L320.284 263.766C318.999 263.664 317.746 263.31 316.598 262.724C315.45 262.137 314.428 261.33 313.592 260.349C312.756 259.367 312.122 258.231 311.725 257.004C311.329 255.777 311.179 254.484 311.283 253.199V253.199ZM318.902 173.985L318.658 172.99L319.682 172.896C320.082 172.853 329.549 172.003 336.918 177.267C344.288 182.531 346.547 191.766 346.645 192.153L346.88 193.151L345.858 193.254C344.408 193.361 342.952 193.352 341.504 193.225C336.897 192.955 332.447 191.452 328.62 188.873C321.25 183.609 318.991 174.374 318.902 173.985V173.985Z" fill="#8D8D92"/>
<path d="M489.276 272.172L477.71 271.259C476.884 271.196 476.068 271.462 475.439 272C474.81 272.538 474.42 273.303 474.355 274.128C474.29 274.953 474.555 275.77 475.092 276.4C475.629 277.03 476.393 277.421 477.218 277.487L488.785 278.4C489.61 278.463 490.426 278.197 491.055 277.659C491.684 277.121 492.074 276.356 492.139 275.531C492.204 274.706 491.939 273.889 491.402 273.259C490.866 272.629 490.101 272.238 489.276 272.172V272.172Z" fill="#8D8D92"/>
<path d="M510.629 273.856L499.063 272.944C498.238 272.881 497.422 273.147 496.794 273.685C496.165 274.223 495.776 274.988 495.711 275.813C495.646 276.637 495.91 277.454 496.447 278.084C496.983 278.713 497.747 279.105 498.572 279.172L510.138 280.084C510.963 280.147 511.779 279.881 512.407 279.343C513.036 278.805 513.425 278.04 513.49 277.215C513.555 276.391 513.291 275.574 512.754 274.944C512.218 274.314 511.454 273.923 510.629 273.856V273.856Z" fill="#8D8D92"/>
<path d="M489.909 264.165L478.342 263.252C477.518 263.189 476.701 263.456 476.073 263.994C475.445 264.532 475.055 265.297 474.99 266.121C474.925 266.946 475.19 267.763 475.726 268.392C476.262 269.022 477.026 269.413 477.851 269.48L489.417 270.393C490.243 270.456 491.059 270.19 491.688 269.652C492.317 269.114 492.707 268.349 492.772 267.524C492.837 266.699 492.572 265.882 492.035 265.252C491.498 264.622 490.734 264.231 489.909 264.165V264.165Z" fill="#8D8D92"/>
<path d="M511.262 265.849L499.696 264.937C498.871 264.873 498.054 265.14 497.425 265.678C496.797 266.216 496.407 266.981 496.342 267.806C496.277 268.631 496.542 269.448 497.078 270.078C497.615 270.707 498.38 271.099 499.205 271.165L510.771 272.078C511.596 272.141 512.413 271.875 513.042 271.337C513.671 270.799 514.06 270.034 514.125 269.209C514.191 268.384 513.926 267.567 513.389 266.937C512.852 266.307 512.087 265.916 511.262 265.849V265.849Z" fill="#8D8D92"/>
<path d="M490.54 256.157L478.973 255.245C478.148 255.181 477.332 255.447 476.703 255.985C476.074 256.523 475.684 257.289 475.619 258.113C475.554 258.938 475.819 259.756 476.356 260.385C476.892 261.015 477.657 261.406 478.482 261.473L490.049 262.385C490.873 262.448 491.689 262.182 492.318 261.644C492.946 261.106 493.336 260.341 493.401 259.516C493.466 258.692 493.201 257.875 492.665 257.245C492.128 256.615 491.364 256.224 490.54 256.157V256.157Z" fill="#8D8D92"/>
<path d="M511.893 257.841L500.327 256.929C499.502 256.866 498.686 257.133 498.057 257.67C497.429 258.208 497.04 258.973 496.975 259.798C496.909 260.623 497.174 261.439 497.71 262.069C498.247 262.699 499.011 263.09 499.835 263.157L511.402 264.07C512.227 264.133 513.043 263.866 513.671 263.328C514.299 262.79 514.689 262.025 514.754 261.201C514.819 260.376 514.554 259.559 514.018 258.93C513.482 258.3 512.718 257.908 511.893 257.841V257.841Z" fill="#8D8D92"/>
<path d="M303.537 208.184L303.389 210.076L537.621 228.476L537.769 226.584L303.537 208.184Z" fill="white"/>
<path d="M541.154 198.972L541.007 200.86L532.855 200.22L446.002 193.398L446.159 191.508L533.002 198.332L541.154 198.972Z" fill="#3F3D56"/>
<path d="M254.813 178.908C254.813 178.908 242.133 232.445 257.63 232.445C273.128 232.445 309.758 171.864 309.758 171.864L297.078 156.366L274.32 187.964L273.128 171.864L254.813 178.908Z" fill="#A0616A"/>
<path d="M306.378 174.19C313.191 174.19 318.714 168.668 318.714 161.855C318.714 155.042 313.191 149.52 306.378 149.52C299.566 149.52 294.043 155.042 294.043 161.855C294.043 168.668 299.566 174.19 306.378 174.19Z" fill="#A0616A"/>
<path d="M286.206 133.824L277.753 125.371C277.753 125.371 260.846 135.233 259.438 145.095C258.029 154.957 250.984 185.952 250.984 185.952L277.048 188.065L285.501 175.386L286.206 133.824Z" fill="#E6E6E6"/>
</svg>
