<svg width="900" height="580" viewBox="0 0 900 580" fill="none" xmlns="http://www.w3.org/2000/svg">
<path d="M649.781 432.044L596.461 408.521V388.297L615.463 388.19C618.412 388.174 621.282 387.234 623.669 385.503C626.056 383.772 627.841 381.337 628.774 378.54L642.123 338.493C642.83 336.371 643.023 334.112 642.686 331.901C642.349 329.69 641.491 327.591 640.183 325.777C638.875 323.963 637.155 322.485 635.165 321.466C633.174 320.447 630.97 319.916 628.733 319.916H596.461V301.097H636.975C640.169 301.097 643.268 300.014 645.767 298.024C648.265 296.035 650.015 293.257 650.731 290.145L659.924 250.155C660.399 248.087 660.402 245.938 659.932 243.868C659.462 241.799 658.532 239.862 657.21 238.201C655.888 236.541 654.209 235.2 652.297 234.279C650.385 233.357 648.291 232.879 646.168 232.879H596.461V228.174C596.461 226.938 596.218 225.715 595.745 224.573C595.272 223.432 594.579 222.394 593.705 221.521C592.831 220.647 591.794 219.954 590.653 219.481C589.511 219.008 588.287 218.765 587.052 218.765C585.816 218.765 584.593 219.008 583.451 219.481C582.309 219.954 581.272 220.647 580.398 221.521C579.525 222.394 578.832 223.432 578.359 224.573C577.886 225.715 577.642 226.938 577.642 228.174V232.879H244.393V228.174C244.393 225.679 243.402 223.285 241.637 221.521C239.873 219.756 237.479 218.765 234.984 218.765C232.488 218.765 230.095 219.756 228.33 221.521C226.566 223.285 225.574 225.679 225.574 228.174V232.879H186.061C183.939 232.879 181.844 233.357 179.932 234.279C178.02 235.2 176.341 236.541 175.019 238.201C173.697 239.862 172.767 241.799 172.297 243.868C171.827 245.938 171.83 248.087 172.306 250.155L181.499 290.145C182.214 293.257 183.964 296.035 186.463 298.024C188.961 300.014 192.06 301.097 195.254 301.097H225.574V319.916H203.495C201.271 319.916 199.078 320.441 197.095 321.45C195.113 322.459 193.397 323.922 192.087 325.72C190.777 327.518 189.911 329.6 189.559 331.796C189.207 333.993 189.379 336.241 190.062 338.358L203.687 380.643C204.607 383.498 206.413 385.986 208.843 387.746C211.272 389.505 214.2 390.445 217.2 390.428L225.574 390.381V408.521L182.448 432.044C180.595 432.044 178.759 432.409 177.047 433.118C175.334 433.828 173.779 434.867 172.468 436.178C171.157 437.489 170.118 439.045 169.408 440.757C168.699 442.469 168.334 444.305 168.334 446.158V446.158C168.334 449.901 169.821 453.491 172.468 456.138C175.115 458.785 178.705 460.272 182.448 460.272H225.574V563.776C225.574 566.271 226.566 568.664 228.33 570.429C230.095 572.194 232.488 573.185 234.984 573.185C237.479 573.185 239.873 572.194 241.637 570.429C243.402 568.664 244.393 566.271 244.393 563.776V460.272H577.642V563.776C577.642 566.271 578.634 568.664 580.398 570.429C582.163 572.194 584.556 573.185 587.052 573.185C589.547 573.185 591.941 572.194 593.705 570.429C595.47 568.664 596.461 566.271 596.461 563.776V460.272H649.781C653.524 460.272 657.114 458.785 659.761 456.138C662.408 453.491 663.895 449.901 663.895 446.158V446.158C663.895 444.305 663.53 442.469 662.821 440.757C662.111 439.045 661.072 437.489 659.761 436.178C658.451 434.867 656.895 433.828 655.182 433.118C653.47 432.409 651.635 432.044 649.781 432.044V432.044ZM244.393 301.097H577.642V319.916H244.393V301.097ZM244.393 408.521V390.275L577.642 388.403V408.521H244.393Z" fill="#E6E6E6"/>
<path d="M611.227 431.976C617.088 384.843 646.299 338.404 691.249 323.065C673.522 371.578 673.526 424.798 691.26 473.308C698.167 491.992 707.795 512.053 701.298 530.884C697.256 542.6 687.366 551.565 676.312 557.17C665.257 562.775 652.989 565.446 640.874 568.065L638.489 570.036C619.257 526.609 605.365 479.109 611.227 431.976Z" fill="#E6E6E6"/>
<path d="M691.695 323.957C665.785 352.971 648.976 390.451 645.197 429.225C644.38 437.607 644.281 446.182 646.113 454.445C647.946 462.711 651.938 469.648 657.603 475.872C662.782 481.562 668.738 486.782 672.443 493.632C676.349 500.852 676.499 509.055 673.825 516.724C670.554 526.107 664.106 533.755 657.54 541.016C650.251 549.077 642.551 557.334 639.453 568.021C639.077 569.315 637.09 568.657 637.465 567.364C642.856 548.771 660.905 538.21 669.512 521.463C673.529 513.649 675.215 504.577 671.449 496.329C668.157 489.115 662.019 483.727 656.726 478.011C651.168 472.009 646.906 465.425 644.711 457.479C642.465 449.35 642.229 440.753 642.828 432.387C644.328 413.424 648.801 394.815 656.081 377.241C664.279 357.138 675.856 338.586 690.31 322.387C691.205 321.385 692.585 322.962 691.695 323.957L691.695 323.957Z" fill="white"/>
<path d="M645.762 416.556C639.293 414.986 633.594 411.167 629.681 405.783C625.768 400.398 623.897 393.797 624.401 387.16C624.508 385.817 626.599 385.92 626.492 387.264C626.011 393.444 627.755 399.592 631.409 404.599C635.063 409.606 640.386 413.142 646.418 414.569C647.729 414.88 647.065 416.866 645.762 416.556L645.762 416.556Z" fill="white"/>
<path d="M654.598 473.334C666.281 466.358 674.905 455.235 678.751 442.183C679.131 440.889 681.119 441.547 680.739 442.839C676.711 456.414 667.713 467.971 655.539 475.203C654.378 475.892 653.443 474.018 654.598 473.334V473.334Z" fill="white"/>
<path d="M666.222 359.121C668.598 360.251 671.217 360.772 673.845 360.638C676.472 360.505 679.025 359.721 681.275 358.357C682.426 357.654 683.36 359.529 682.216 360.227C679.724 361.722 676.903 362.585 674.001 362.738C671.098 362.892 668.202 362.333 665.565 361.109C665.307 361.015 665.095 360.825 664.971 360.58C664.847 360.334 664.822 360.051 664.9 359.787C664.988 359.524 665.176 359.307 665.424 359.182C665.671 359.058 665.958 359.036 666.222 359.121L666.222 359.121Z" fill="white"/>
<path d="M828.265 407.252C827.558 407.711 826.852 408.17 826.145 408.647C816.678 414.872 807.733 421.856 799.397 429.53C798.743 430.113 798.089 430.714 797.453 431.314C777.568 450.016 761.328 472.247 749.558 496.878C744.883 506.683 740.962 516.83 737.827 527.23C733.498 541.593 729.947 557.511 721.378 569.26C720.498 570.496 719.542 571.676 718.516 572.794H641.08C640.904 572.705 640.728 572.634 640.551 572.546L637.459 572.688C637.583 572.14 637.724 571.574 637.848 571.027C637.919 570.709 638.007 570.391 638.078 570.073C638.13 569.861 638.184 569.649 638.219 569.454C638.236 569.384 638.254 569.313 638.272 569.26C638.307 569.066 638.36 568.889 638.396 568.712C639.173 565.55 639.974 562.388 640.798 559.225C640.798 559.207 640.798 559.207 640.816 559.19C647.159 535.109 655.568 511.347 667.316 489.616C667.67 488.963 668.023 488.291 668.412 487.638C673.762 477.872 679.901 468.56 686.768 459.794C690.544 455.006 694.56 450.413 698.8 446.031C709.778 434.731 722.465 425.228 736.395 417.87C764.169 403.206 796.322 397.588 826.004 406.545C826.763 406.775 827.506 407.004 828.265 407.252Z" fill="#E6E6E6"/>
<path d="M828.092 408.234C789.936 415.8 753.949 435.606 727.588 464.289C721.888 470.49 716.646 477.277 713.135 484.978C709.622 492.682 708.632 500.624 709.408 509.004C710.117 516.665 711.73 524.419 710.565 532.119C709.336 540.235 704.517 546.875 697.765 551.389C689.504 556.911 679.751 559.135 670.137 560.979C659.464 563.027 648.345 564.984 639.436 571.651C638.357 572.459 637.167 570.737 638.244 569.93C653.743 558.331 674.513 560.765 691.468 552.576C699.38 548.755 706.188 542.527 708.147 533.673C709.861 525.932 708.205 517.934 707.42 510.183C706.596 502.045 707.157 494.222 710.189 486.555C713.289 478.713 718.277 471.707 723.793 465.387C736.407 451.15 751.182 438.984 767.576 429.336C786.225 418.221 806.638 410.378 827.932 406.147C829.25 405.885 829.402 407.974 828.092 408.234H828.092Z" fill="white"/>
<path d="M735.662 454.513C731.443 449.364 729.191 442.884 729.309 436.228C729.427 429.573 731.907 423.176 736.305 418.181C737.199 417.173 738.807 418.514 737.912 419.523C733.808 424.168 731.498 430.126 731.401 436.324C731.304 442.522 733.426 448.55 737.383 453.321C738.242 454.358 736.516 455.544 735.662 454.513V454.513Z" fill="white"/>
<path d="M708.536 505.167C722.064 506.631 735.647 502.942 746.576 494.837C747.658 494.033 748.849 495.755 747.768 496.558C736.379 504.971 722.236 508.781 708.162 507.226C706.821 507.077 707.202 505.018 708.536 505.167V505.167Z" fill="white"/>
<path d="M786.58 420.974C787.797 423.306 789.575 425.299 791.753 426.775C793.931 428.25 796.441 429.162 799.059 429.427C800.401 429.559 800.019 431.618 798.685 431.487C795.795 431.18 793.023 430.17 790.613 428.545C788.203 426.921 786.227 424.73 784.859 422.166C784.71 421.935 784.654 421.656 784.703 421.385C784.752 421.115 784.902 420.873 785.123 420.71C785.352 420.553 785.633 420.493 785.906 420.542C786.178 420.592 786.421 420.747 786.58 420.974V420.974Z" fill="white"/>
<path d="M88.6033 473.83C92.7226 440.706 113.251 408.07 144.842 397.29C132.383 431.384 132.386 468.786 144.849 502.878C149.703 516.008 156.47 530.107 151.904 543.341C149.063 551.575 142.113 557.875 134.344 561.814C126.575 565.754 117.953 567.631 109.439 569.471L107.763 570.857C94.2467 540.337 84.4839 506.955 88.6033 473.83Z" fill="#E6E6E6"/>
<path d="M145.155 397.916C126.758 418.529 115.324 444.414 112.477 471.896C111.903 477.787 111.833 483.813 113.121 489.62C114.419 495.271 117.208 500.47 121.195 504.679C124.835 508.678 129.021 512.346 131.625 517.16C134.37 522.234 134.475 527.999 132.596 533.389C130.297 539.983 125.766 545.358 121.151 550.461C116.028 556.126 110.617 561.929 108.44 569.439C108.176 570.349 106.779 569.886 107.043 568.978C110.832 555.911 123.516 548.489 129.565 536.72C132.388 531.228 133.573 524.852 130.926 519.055C128.612 513.986 124.299 510.199 120.579 506.182C116.673 501.964 113.678 497.336 112.135 491.752C110.557 486.04 110.391 479.998 110.812 474.118C111.866 460.791 115.009 447.713 120.126 435.363C125.888 421.235 134.023 408.197 144.182 396.812C144.811 396.108 145.78 397.216 145.155 397.916V397.916Z" fill="white"/>
<path d="M112.874 462.993C108.328 461.889 104.322 459.206 101.572 455.421C98.8222 451.637 97.507 446.998 97.8614 442.334C97.9364 441.39 99.4061 441.462 99.3311 442.407C98.993 446.75 100.219 451.071 102.786 454.59C105.354 458.108 109.096 460.593 113.335 461.596C114.256 461.815 113.789 463.211 112.874 462.993V462.993Z" fill="white"/>
<path d="M119.082 502.895C127.292 497.992 133.353 490.176 136.056 481.003C136.323 480.094 137.72 480.556 137.453 481.464C134.623 491.004 128.299 499.126 119.743 504.209C118.928 504.693 118.27 503.376 119.082 502.895V502.895Z" fill="white"/>
<path d="M127.253 422.628C128.923 423.422 130.764 423.788 132.61 423.695C134.457 423.601 136.251 423.05 137.832 422.091C138.642 421.597 139.298 422.915 138.494 423.405C136.742 424.456 134.76 425.062 132.72 425.17C130.68 425.278 128.645 424.885 126.792 424.025C126.61 423.959 126.461 423.826 126.374 423.653C126.287 423.481 126.269 423.282 126.324 423.096C126.386 422.912 126.518 422.759 126.692 422.671C126.866 422.584 127.068 422.568 127.253 422.628V422.628Z" fill="white"/>
<path d="M241.134 456.454C240.638 456.776 240.141 457.099 239.644 457.434C232.991 461.809 226.704 466.717 220.846 472.11C220.387 472.52 219.927 472.942 219.48 473.364C205.505 486.508 194.092 502.131 185.82 519.441C182.535 526.332 179.779 533.463 177.576 540.772C174.533 550.866 172.038 562.053 166.016 570.31C165.397 571.179 164.726 572.008 164.004 572.793H109.584C109.46 572.731 109.336 572.682 109.212 572.62L107.039 572.719C107.126 572.334 107.225 571.937 107.312 571.552C107.362 571.328 107.424 571.105 107.474 570.881C107.511 570.732 107.548 570.583 107.573 570.447C107.585 570.397 107.598 570.348 107.61 570.31C107.635 570.174 107.673 570.049 107.697 569.925C108.244 567.703 108.807 565.48 109.386 563.258C109.386 563.245 109.386 563.245 109.398 563.233C113.856 546.31 119.766 529.61 128.022 514.338C128.271 513.879 128.519 513.407 128.792 512.947C132.552 506.084 136.867 499.54 141.693 493.379C144.346 490.015 147.168 486.787 150.148 483.707C157.863 475.766 166.779 469.087 176.57 463.916C196.088 453.61 218.685 449.662 239.545 455.957C240.079 456.118 240.601 456.28 241.134 456.454Z" fill="#E6E6E6"/>
<path d="M241.011 457.144C213.912 462.526 189.197 476.31 170.378 496.538C166.373 500.896 162.689 505.666 160.221 511.078C157.856 516.371 156.951 522.202 157.602 527.963C158.1 533.347 159.233 538.797 158.414 544.208C157.551 549.912 154.164 554.579 149.419 557.75C143.613 561.631 136.759 563.195 130.003 564.491C122.502 565.929 114.687 567.305 108.427 571.991C107.668 572.558 106.832 571.348 107.589 570.781C118.481 562.629 133.078 564.34 144.994 558.585C150.554 555.9 155.338 551.522 156.716 545.301C157.92 539.86 156.756 534.239 156.204 528.792C155.625 523.073 156.02 517.574 158.15 512.187C160.329 506.675 163.834 501.752 167.711 497.31C176.576 487.304 186.96 478.755 198.481 471.974C211.587 464.163 225.933 458.651 240.898 455.677C241.824 455.493 241.931 456.962 241.011 457.144H241.011Z" fill="white"/>
<path d="M176.054 489.668C173.089 486.05 171.506 481.496 171.589 476.819C171.672 472.141 173.414 467.646 176.506 464.135C177.134 463.427 178.264 464.369 177.635 465.078C174.75 468.342 173.128 472.53 173.059 476.886C172.991 481.241 174.482 485.478 177.263 488.831C177.867 489.56 176.654 490.394 176.054 489.668V489.668Z" fill="white"/>
<path d="M156.989 525.266C166.496 526.295 176.042 523.703 183.723 518.006C184.483 517.441 185.32 518.651 184.561 519.215C176.557 525.128 166.617 527.806 156.726 526.713C155.784 526.609 156.051 525.162 156.989 525.266V525.266Z" fill="white"/>
<path d="M211.839 466.098C212.695 467.737 213.944 469.137 215.475 470.174C217.005 471.211 218.77 471.852 220.609 472.038C221.553 472.131 221.284 473.578 220.346 473.486C218.315 473.27 216.367 472.56 214.674 471.419C212.98 470.277 211.591 468.737 210.63 466.935C210.525 466.773 210.486 466.577 210.52 466.387C210.555 466.197 210.66 466.027 210.815 465.912C210.976 465.802 211.174 465.759 211.365 465.794C211.557 465.829 211.727 465.938 211.839 466.098V466.098Z" fill="white"/>
<path d="M359.934 555.296L345.907 559.354L323.578 507.18L344.281 501.19L359.934 555.296Z" fill="#9E616A"/>
<path d="M393.482 366.215L379.01 381.651C379.01 381.651 302.793 415.419 302.793 432.785C302.793 450.151 321.124 525.403 328.842 531.192C333.491 534.698 331.389 538.473 333.696 543.82L360.68 534.086C360.68 534.086 358.75 528.297 360.68 525.403C362.609 522.509 360.68 520.579 360.68 520.579C360.68 520.579 357.785 521.544 358.75 518.65C359.715 515.755 359.715 514.791 358.75 513.826C357.785 512.861 354.891 504.178 354.891 504.178C354.891 504.178 355.856 469.446 342.349 456.904C342.349 456.904 405.059 438.573 412.778 426.031C420.496 413.489 422.425 368.144 422.425 368.144L393.482 366.215Z" fill="#2F2E41"/>
<path d="M365.653 563.294L318.912 572.94L318.79 572.349C317.794 567.524 318.756 562.501 321.463 558.385C324.171 554.269 328.402 551.397 333.227 550.401L333.228 550.401L340.429 542.161L357.696 545.351L361.777 544.509L365.653 563.294Z" fill="#2F2E41"/>
<path d="M410.963 496.697L393.062 508.698L430.2 551.611L442.329 543.479L410.963 496.697Z" fill="#9E616A"/>
<path d="M437.702 339.622C428.141 319.462 457.286 379.073 453.427 397.535C450.414 411.95 394.136 457.848 394.136 457.848C411.093 465.073 421.951 498.078 421.951 498.078C421.951 498.078 427.616 505.268 428.85 505.848C430.085 506.429 430.412 507.337 430.484 510.387C430.557 513.437 432.954 511.549 432.954 511.549C432.954 511.549 435.423 512.711 434.588 516.088C433.753 519.464 437.529 524.257 437.529 524.257L416.669 543.705C412.688 539.456 412.155 534.043 406.594 532.319C397.371 529.488 354.631 464.894 348.748 448.555C342.865 432.216 403.137 374.626 403.137 374.626L408.255 346.122L437.702 339.622Z" fill="#2F2E41"/>
<path d="M448.442 557.871L403.537 574.037L403.332 573.469C401.664 568.834 401.905 563.725 404.002 559.268C406.1 554.81 409.882 551.368 414.518 549.698L414.519 549.698L420.481 540.522L438.025 541.235L441.945 539.824L448.442 557.871Z" fill="#2F2E41"/>
<path d="M403.48 243.321L390.481 253.219L355.951 262.364C355.951 262.364 368.324 349.199 362.484 355.038C356.645 360.878 361.911 361.035 360.738 368.621C359.565 376.207 356.713 391.757 356.713 391.757C396.13 412.622 430.112 413.182 457.408 388.766C457.757 387.256 457.58 385.671 456.905 384.276C456.23 382.88 455.099 381.757 453.698 381.092C448.618 378.397 458.382 365.815 454.23 363.711C450.078 361.608 455.918 343.359 455.918 343.359L468.573 283.613L434.912 257.277L429.793 244.943L403.48 243.321Z" fill="#8D8D92"/>
<path d="M419.701 320.916C422.185 320.916 424.198 318.902 424.198 316.418C424.198 313.934 422.185 311.921 419.701 311.921C417.217 311.921 415.203 313.934 415.203 316.418C415.203 318.902 417.217 320.916 419.701 320.916Z" fill="#F2F2F2"/>
<path d="M416.788 237.812C430.989 237.812 442.5 226.3 442.5 212.1C442.5 197.899 430.989 186.388 416.788 186.388C402.588 186.388 391.076 197.899 391.076 212.1C391.076 226.3 402.588 237.812 416.788 237.812Z" fill="#9E616A"/>
<path opacity="0.1" d="M454.229 312.831L458.478 316.018L460.603 301.144L454.229 312.831Z" fill="black"/>
<path d="M357.988 262.279C357.988 262.279 352.675 261.217 349.488 270.779C346.301 280.341 330.301 330.695 330.301 337.07C330.301 343.445 407.396 357.342 407.396 357.342L399.823 330.775L364.803 319.819L357.988 262.279Z" fill="#8D8D92"/>
<path d="M410.772 353.403C417.626 353.403 423.181 347.847 423.181 340.994C423.181 334.141 417.626 328.585 410.772 328.585C403.919 328.585 398.363 334.141 398.363 340.994C398.363 347.847 403.919 353.403 410.772 353.403Z" fill="#9E616A"/>
<path opacity="0.1" d="M367.086 307.175L368.057 320.335L398.884 336.515L371.466 318.124L367.086 307.175Z" fill="black"/>
<path d="M439.621 301.994H439.221V291.039C439.221 290.206 439.057 289.382 438.739 288.612C438.42 287.843 437.953 287.144 437.364 286.555C436.776 285.967 436.077 285.5 435.307 285.181C434.538 284.862 433.713 284.698 432.881 284.698H409.671C408.838 284.698 408.014 284.862 407.244 285.181C406.475 285.5 405.776 285.967 405.187 286.555C404.598 287.144 404.131 287.843 403.813 288.612C403.494 289.382 403.33 290.206 403.33 291.039V351.14C403.33 351.973 403.494 352.797 403.813 353.567C404.131 354.336 404.598 355.035 405.187 355.624C405.776 356.212 406.475 356.679 407.244 356.998C408.014 357.317 408.838 357.481 409.671 357.481H432.881C433.713 357.481 434.538 357.317 435.307 356.998C436.077 356.679 436.775 356.212 437.364 355.624C437.953 355.035 438.42 354.336 438.739 353.567C439.057 352.797 439.221 351.973 439.221 351.14V309.792H439.621V301.994Z" fill="#F0F0F0"/>
<path d="M468.573 283.612C468.573 283.612 471.761 285.737 473.886 295.299C476.01 304.862 489.823 340.986 484.51 349.485C479.198 357.985 477.63 367.057 459.568 354.307L434.574 331.423L452.636 314.424L460.073 319.736L468.573 283.612Z" fill="#8D8D92"/>
<path d="M421.56 311.485C424.494 311.485 426.873 309.107 426.873 306.173C426.873 303.239 424.494 300.86 421.56 300.86C418.626 300.86 416.248 303.239 416.248 306.173C416.248 309.107 418.626 311.485 421.56 311.485Z" fill="#8D8D92"/>
<path d="M436.938 330.22C443.792 330.22 449.347 324.664 449.347 317.81C449.347 310.957 443.792 305.401 436.938 305.401C430.085 305.401 424.529 310.957 424.529 317.81C424.529 324.664 430.085 330.22 436.938 330.22Z" fill="#9E616A"/>
<path opacity="0.1" d="M362.801 348.722L401.088 355.89L363.811 357.321L362.801 348.722Z" fill="black"/>
<path d="M439.425 195.114C439.425 195.114 446.12 182.316 431.392 181.153C431.392 181.153 418.836 169.763 406.038 179.07C406.038 179.07 399.057 179.07 395.24 186.97C395.24 186.97 389.75 184.888 388.543 190.46C388.543 190.46 384.526 202.095 388.543 212.566C392.561 223.037 393.895 224.2 393.895 224.2C393.895 224.2 391.076 211.206 407.145 210.043C423.213 208.879 437.954 198.813 439.294 211.611C440.633 224.409 442.105 218.627 442.105 218.627C442.105 218.627 454.823 200.349 439.425 195.114Z" fill="#2F2E41"/>
<path d="M689.156 167.502H481.005C477.814 167.502 474.753 168.77 472.497 171.026C470.24 173.283 468.973 176.343 468.973 179.534V229.595C468.973 232.786 470.24 235.847 472.497 238.103C474.753 240.36 477.814 241.627 481.005 241.627H484.06V250.672C484.06 251.22 484.223 251.757 484.528 252.213C484.833 252.67 485.266 253.025 485.773 253.235C486.28 253.445 486.838 253.5 487.376 253.393C487.915 253.286 488.409 253.022 488.797 252.634L499.804 241.627H689.156C692.347 241.627 695.408 240.36 697.664 238.103C699.921 235.847 701.188 232.786 701.188 229.595V179.534C701.188 177.954 700.877 176.389 700.272 174.93C699.668 173.47 698.781 172.143 697.664 171.026C696.547 169.909 695.22 169.023 693.761 168.418C692.301 167.813 690.736 167.502 689.156 167.502V167.502Z" fill="#3F3D56"/>
<path d="M689.155 235.521H481.004C479.433 235.519 477.927 234.894 476.816 233.783C475.705 232.672 475.08 231.166 475.078 229.595V179.534C475.08 177.962 475.705 176.456 476.816 175.345C477.927 174.234 479.433 173.609 481.004 173.607H639.095C653.939 173.624 668.169 179.528 678.665 190.024C689.161 200.52 695.065 214.751 695.082 229.595C695.08 231.166 694.455 232.672 693.344 233.783C692.233 234.894 690.727 235.519 689.155 235.521V235.521Z" fill="white"/>
<path d="M629.782 184.557H540.814C538.935 184.557 537.412 186.08 537.412 187.959V189.026C537.412 190.905 538.935 192.428 540.814 192.428H629.782C631.661 192.428 633.185 190.905 633.185 189.026V187.959C633.185 186.08 631.661 184.557 629.782 184.557Z" fill="#8D8D92"/>
<path d="M648.48 200.301H522.121C520.242 200.301 518.719 201.824 518.719 203.703V204.77C518.719 206.649 520.242 208.172 522.121 208.172H648.48C650.359 208.172 651.882 206.649 651.882 204.77V203.703C651.882 201.824 650.359 200.301 648.48 200.301Z" fill="#E6E6E6"/>
<path d="M648.48 216.044H522.121C520.242 216.044 518.719 217.567 518.719 219.446V220.513C518.719 222.392 520.242 223.916 522.121 223.916H648.48C650.359 223.916 651.882 222.392 651.882 220.513V219.446C651.882 217.567 650.359 216.044 648.48 216.044Z" fill="#E6E6E6"/>
<path d="M819.621 6.17285H657.375C656.143 6.17285 654.924 6.41544 653.786 6.88676C652.648 7.35808 651.614 8.04891 650.743 8.91981C649.872 9.7907 649.181 10.8246 648.71 11.9625C648.239 13.1003 647.996 14.3199 647.996 15.5515V54.572C647.996 55.8036 648.239 57.0232 648.71 58.1611C649.181 59.2989 649.872 60.3329 650.743 61.2037C651.614 62.0746 652.648 62.7655 653.786 63.2368C654.924 63.7081 656.143 63.9507 657.375 63.9507H659.756V71.0004C659.756 71.4282 659.883 71.8464 660.121 72.2021C660.358 72.5577 660.696 72.835 661.091 72.9987C661.487 73.1624 661.922 73.2052 662.341 73.1217C662.761 73.0383 663.146 72.8323 663.449 72.5298L672.028 63.9507H819.621C820.852 63.9507 822.072 63.7081 823.21 63.2368C824.347 62.7655 825.381 62.0746 826.252 61.2037C827.123 60.3329 827.814 59.2989 828.285 58.1611C828.757 57.0232 828.999 55.8036 828.999 54.572V15.5515C828.999 14.3199 828.757 13.1003 828.285 11.9625C827.814 10.8246 827.123 9.7907 826.252 8.91981C825.381 8.04891 824.347 7.35808 823.21 6.88676C822.072 6.41544 820.852 6.17285 819.621 6.17285Z" fill="#F2F2F2"/>
<path d="M819.621 59.1908H657.375C656.15 59.1895 654.976 58.7023 654.11 57.8364C653.244 56.9704 652.757 55.7963 652.756 54.5716V15.5509C652.757 14.3262 653.244 13.1521 654.11 12.2861C654.976 11.4201 656.15 10.933 657.375 10.9316H780.601C792.171 10.9448 803.263 15.5468 811.444 23.7281C819.625 31.9093 824.227 43.0016 824.24 54.5716C824.239 55.7962 823.752 56.9704 822.886 57.8364C822.02 58.7024 820.845 59.1895 819.621 59.1908V59.1908Z" fill="white"/>
<path d="M772.925 19.4668H704.41C702.715 19.4668 701.342 20.8403 701.342 22.5346V22.5347C701.342 24.229 702.715 25.6025 704.41 25.6025H772.925C774.619 25.6025 775.993 24.229 775.993 22.5346C775.993 20.8403 774.619 19.4668 772.925 19.4668Z" fill="#F2F2F2"/>
<path d="M787.497 31.7383H689.837C688.143 31.7383 686.77 33.1118 686.77 34.8061V34.8061C686.77 36.5005 688.143 37.874 689.837 37.874H787.497C789.192 37.874 790.565 36.5005 790.565 34.8061C790.565 33.1118 789.192 31.7383 787.497 31.7383Z" fill="#F2F2F2"/>
<path d="M787.497 44.0098H689.837C688.143 44.0098 686.77 45.3833 686.77 47.0776V47.0776C686.77 48.7719 688.143 50.1455 689.837 50.1455H787.497C789.192 50.1455 790.565 48.7719 790.565 47.0776C790.565 45.3833 789.192 44.0098 787.497 44.0098Z" fill="#F2F2F2"/>
<path d="M456.668 70.4707H618.914C620.145 70.4707 621.365 70.7133 622.503 71.1846C623.64 71.6559 624.674 72.3468 625.545 73.2177C626.416 74.0885 627.107 75.1224 627.578 76.2603C628.05 77.3982 628.292 78.6178 628.292 79.8494V118.87C628.292 120.101 628.05 121.321 627.578 122.459C627.107 123.597 626.416 124.631 625.545 125.502C624.674 126.372 623.64 127.063 622.503 127.535C621.365 128.006 620.145 128.249 618.914 128.249H616.532V135.298C616.532 135.726 616.405 136.144 616.168 136.5C615.93 136.856 615.592 137.133 615.197 137.297C614.802 137.46 614.367 137.503 613.947 137.42C613.528 137.336 613.142 137.13 612.84 136.828L604.261 128.249H456.668C455.436 128.249 454.217 128.006 453.079 127.535C451.941 127.063 450.907 126.372 450.036 125.502C449.165 124.631 448.474 123.597 448.003 122.459C447.532 121.321 447.289 120.101 447.289 118.87V79.8494C447.289 78.6178 447.532 77.3982 448.003 76.2603C448.474 75.1224 449.165 74.0885 450.036 73.2177C450.907 72.3468 451.941 71.6559 453.079 71.1846C454.217 70.7133 455.436 70.4707 456.668 70.4707Z" fill="#F2F2F2"/>
<path d="M452.049 118.869C452.062 107.3 456.664 96.2072 464.845 88.0259C473.026 79.8447 484.118 75.2427 495.688 75.2295H618.914C620.139 75.2309 621.313 75.718 622.179 76.584C623.045 77.4499 623.532 78.624 623.533 79.8487V118.869C623.532 120.094 623.045 121.268 622.179 122.134C621.313 123 620.139 123.487 618.914 123.489H456.668C455.443 123.487 454.269 123 453.403 122.134C452.537 121.268 452.05 120.094 452.049 118.869V118.869Z" fill="white"/>
<path d="M503.362 89.9004L571.877 89.9004C573.572 89.9004 574.945 88.5269 574.945 86.8325C574.945 85.1382 573.572 83.7647 571.877 83.7647L503.362 83.7647C501.668 83.7647 500.294 85.1382 500.294 86.8325C500.294 88.5269 501.668 89.9004 503.362 89.9004Z" fill="#F2F2F2"/>
<path d="M488.79 102.171L586.45 102.171C588.144 102.171 589.518 100.797 589.518 99.1031V99.1031C589.518 97.4087 588.144 96.0352 586.45 96.0352L488.79 96.0352C487.095 96.0352 485.722 97.4087 485.722 99.1031C485.722 100.797 487.095 102.171 488.79 102.171Z" fill="#F2F2F2"/>
<path d="M488.79 114.442L586.45 114.442C588.144 114.442 589.518 113.069 589.518 111.375C589.518 109.68 588.144 108.307 586.45 108.307L488.79 108.307C487.095 108.307 485.722 109.68 485.722 111.375C485.722 113.069 487.095 114.442 488.79 114.442Z" fill="#F2F2F2"/>
</svg>
