<svg viewBox="0 0 575 575" class="roots-wrapper"><g transform="rotate(0 0 0)"><svg viewBoxSize="575" data-root-id="0409057312136" xmlns="http://www.w3.org/2000/svg" viewBox="0 0 128 128" fill="none" height="148" width="148" y="170.22000122070312" x="213.50001525878906" preserveAspectRatio="xMinYMin" zoom="1" editorType="buyer" data-layer-role="icon" style="position: absolute; height: 148px; width: 148px; top: 170.22px; left: 213.5px;"><path opacity="0.15" fill-rule="evenodd" clip-rule="evenodd" d="M0 4C0 1.79086 1.79086 0 4 0H87.25C88.3546 0 89.25 0.89543 89.25 2C89.25 3.10457 88.3546 4 87.25 4L4 4V124H124V40.75C124 39.6454 124.895 38.75 126 38.75C127.105 38.75 128 39.6454 128 40.75V124C128 126.209 126.209 128 124 128H4C1.79086 128 0 126.209 0 124V4Z" fill="#141B38" name="Layer %{number}" zoom="1" data-layer-id="7663894412146" style="fill: rgb(255, 255, 255); fill-opacity: 1;"></path><path fill-rule="evenodd" clip-rule="evenodd" d="M98 2C98 0.89543 98.8954 0 100 0H124C126.209 0 128 1.79086 128 4V28C128 29.1046 127.105 30 126 30C124.895 30 124 29.1046 124 28V4H100C98.8954 4 98 3.10457 98 2Z" fill="#DD3260" name="Layer %{number}" zoom="1" data-layer-id="1155206812151" style="fill: rgb(165, 206, 47); fill-opacity: 1;"></path><path d="M64.183 83.8319C60.9243 83.8319 58.0297 83.2253 55.499 82.0119C53.003 80.7639 51.0443 79.0653 49.623 76.9159C48.2017 74.7319 47.491 72.2533 47.491 69.4799V44.8319C47.491 44.1386 47.7163 43.5666 48.167 43.1159C48.6523 42.6306 49.2417 42.3879 49.935 42.3879C50.663 42.3879 51.2523 42.6306 51.703 43.1159C52.1537 43.5666 52.379 44.1386 52.379 44.8319V69.4799C52.379 71.4213 52.8817 73.1373 53.887 74.6279C54.8923 76.0839 56.279 77.2453 58.047 78.1119C59.8497 78.9439 61.895 79.3599 64.183 79.3599C66.4017 79.3599 68.3777 78.9439 70.111 78.1119C71.8443 77.2453 73.1963 76.0839 74.167 74.6279C75.1723 73.1373 75.675 71.4213 75.675 69.4799V44.8319C75.675 44.1386 75.9003 43.5666 76.351 43.1159C76.8363 42.6306 77.4257 42.3879 78.119 42.3879C78.847 42.3879 79.419 42.6306 79.835 43.1159C80.2857 43.5666 80.511 44.1386 80.511 44.8319V69.4799C80.511 72.2533 79.8177 74.7319 78.431 76.9159C77.0443 79.0653 75.1203 80.7639 72.659 82.0119C70.1977 83.2253 67.3723 83.8319 64.183 83.8319Z" fill="#141B38" name="Layer %{number}" zoom="1" data-layer-id="2119272512155" style="fill: rgb(255, 255, 255); fill-opacity: 1;"></path></svg></g><g transform="rotate(0 0 0)"><svg viewBoxSize="575" data-root-id="0960008612159" xmlns="http://www.w3.org/2000/svg" y="416.2200012207031" viewBox="0 0 0 0" x="287.50001525878906" height="0" width="0" fontUrl="http://fonts.gstatic.com/s/josefinsans/v25/Qw3PZQNVED7rKGKxtqIqX5E-AVSJrOCfjY46_DjQXMFrLgTsQV0.ttf" zoom="1" editorType="buyer" data-layer-role="slogan" style="position: absolute; top: 416.22px; width: 0px; height: 0px; left: 287.5px;"><g data-horizontal-grow="center" zoom="1" root="[object Object]" style="fill: rgb(255, 255, 255); fill-opacity: 0.6;"><path d="" transform="translate(0, 0)"></path></g></svg></g><g transform="rotate(0 0 0)"><svg viewBoxSize="575" data-root-id="4362055312171" xmlns="http://www.w3.org/2000/svg" y="351.2200012207031" viewBox="5.199999809265137 4.679999828338623 398.8719787597656 53.560001373291016" x="88.06402587890625" height="53.560001373291016" width="398.8719787597656" fontUrl="http://fonts.gstatic.com/s/comfortaa/v40/1Pt_g8LJRfWJmhDAuUsSQamb1W0lwk4S4bbLPrQVIT9c2c8.ttf" zoom="1" editorType="buyer" data-layer-role="brandName" style="position: absolute; top: 351.22px; width: 398.872px; height: 53.56px; left: 88.064px;"><g data-horizontal-grow="center" zoom="1" root="[object Object]" style="fill: rgb(255, 255, 255); fill-opacity: 1;"><path d="M21.89 46.64L21.89 46.64Q17.00 46.64 13.23 44.80Q9.46 42.95 7.33 39.70Q5.20 36.45 5.20 32.29L5.20 32.29L5.20 7.64Q5.20 6.60 5.90 5.90Q6.60 5.20 7.64 5.20L7.64 5.20Q8.74 5.20 9.41 5.90Q10.09 6.60 10.09 7.64L10.09 7.64L10.09 32.29Q10.09 35.20 11.60 37.41Q13.10 39.62 15.78 40.90Q18.46 42.17 21.89 42.17L21.89 42.17Q25.22 42.17 27.82 40.90Q30.42 39.62 31.90 37.41Q33.38 35.20 33.38 32.29L33.38 32.29L33.38 7.64Q33.38 6.60 34.09 5.90Q34.79 5.20 35.83 5.20L35.83 5.20Q36.92 5.20 37.57 5.90Q38.22 6.60 38.22 7.64L38.22 7.64L38.22 32.29Q38.22 36.45 36.14 39.70Q34.06 42.95 30.37 44.80Q26.68 46.64 21.89 46.64ZM52.83 28.13L50.28 28.13Q50.39 24.96 51.92 22.46Q53.46 19.97 56.00 18.51Q58.55 17.06 61.62 17.06L61.62 17.06Q64.48 17.06 65.91 17.94Q67.34 18.82 66.98 20.18L66.98 20.18Q66.82 20.96 66.35 21.29Q65.88 21.63 65.26 21.66Q64.64 21.68 63.91 21.58L63.91 21.58Q60.74 21.06 58.24 21.74Q55.74 22.41 54.29 24.08Q52.83 25.74 52.83 28.13L52.83 28.13ZM50.44 45.81L50.44 45.81Q49.35 45.81 48.72 45.21Q48.10 44.62 48.10 43.47L48.10 43.47L48.10 19.71Q48.10 18.62 48.72 17.99Q49.35 17.37 50.44 17.37L50.44 17.37Q51.64 17.37 52.23 17.97Q52.83 18.56 52.83 19.71L52.83 19.71L52.83 43.47Q52.83 44.56 52.23 45.19Q51.64 45.81 50.44 45.81ZM87.15 46.02L87.15 46.02Q83.10 46.02 79.85 44.15Q76.60 42.28 74.72 39.00Q72.85 35.72 72.80 31.67L72.80 31.67L72.80 7.59Q72.80 6.50 73.48 5.85Q74.15 5.20 75.19 5.20L75.19 5.20Q76.28 5.20 76.93 5.85Q77.58 6.50 77.58 7.59L77.58 7.59L77.58 22.15Q79.40 19.86 82.06 18.51Q84.71 17.16 87.98 17.16L87.98 17.16Q91.83 17.16 94.90 19.06Q97.97 20.96 99.76 24.21Q101.56 27.46 101.56 31.56L101.56 31.56Q101.56 35.67 99.66 38.95Q97.76 42.22 94.51 44.12Q91.26 46.02 87.15 46.02ZM87.15 41.76L87.15 41.76Q89.91 41.76 92.12 40.43Q94.33 39.10 95.60 36.79Q96.88 34.48 96.88 31.56L96.88 31.56Q96.88 28.65 95.60 26.36Q94.33 24.08 92.12 22.75Q89.91 21.42 87.15 21.42L87.15 21.42Q84.40 21.42 82.19 22.75Q79.98 24.08 78.73 26.36Q77.48 28.65 77.48 31.56L77.48 31.56Q77.48 34.48 78.73 36.79Q79.98 39.10 82.19 40.43Q84.40 41.76 87.15 41.76ZM121.58 46.02L121.58 46.02Q117.68 46.02 114.61 44.15Q111.54 42.28 109.77 39.00Q108.00 35.72 108.00 31.62L108.00 31.62Q108.00 27.46 109.90 24.21Q111.80 20.96 115.05 19.06Q118.30 17.16 122.36 17.16L122.36 17.16Q126.46 17.16 129.69 19.06Q132.91 20.96 134.81 24.23Q136.71 27.51 136.76 31.62L136.76 31.62L134.89 32.08Q134.89 36.04 133.12 39.21Q131.35 42.38 128.36 44.20Q125.37 46.02 121.58 46.02ZM122.36 41.76L122.36 41.76Q125.16 41.76 127.35 40.43Q129.53 39.10 130.81 36.79Q132.08 34.48 132.08 31.62L132.08 31.62Q132.08 28.70 130.81 26.39Q129.53 24.08 127.35 22.75Q125.16 21.42 122.36 21.42L122.36 21.42Q119.65 21.42 117.42 22.75Q115.18 24.08 113.91 26.39Q112.63 28.70 112.63 31.62L112.63 31.62Q112.63 34.48 113.91 36.79Q115.18 39.10 117.42 40.43Q119.65 41.76 122.36 41.76ZM134.32 45.86L134.32 45.86Q133.28 45.86 132.60 45.19Q131.92 44.51 131.92 43.47L131.92 43.47L131.92 35.15L132.91 30.16L136.76 31.62L136.76 43.47Q136.76 44.51 136.06 45.19Q135.36 45.86 134.32 45.86ZM168.79 45.86L168.79 45.86Q167.75 45.86 167.05 45.16Q166.35 44.46 166.35 43.47L166.35 43.47L166.35 30.37Q166.35 27.30 165.20 25.35Q164.06 23.40 162.14 22.44Q160.21 21.48 157.72 21.48L157.72 21.48Q155.38 21.48 153.50 22.41Q151.63 23.35 150.51 24.91Q149.40 26.47 149.40 28.50L149.40 28.50L146.28 28.50Q146.33 25.22 147.94 22.65Q149.55 20.07 152.31 18.59Q155.06 17.11 158.50 17.11L158.50 17.11Q162.14 17.11 165.00 18.64Q167.86 20.18 169.52 23.14Q171.18 26.10 171.18 30.37L171.18 30.37L171.18 43.47Q171.18 44.46 170.48 45.16Q169.78 45.86 168.79 45.86ZM147.00 45.86L147.00 45.86Q145.96 45.86 145.29 45.19Q144.61 44.51 144.61 43.47L144.61 43.47L144.61 19.76Q144.61 18.67 145.29 18.02Q145.96 17.37 147.00 17.37L147.00 17.37Q148.10 17.37 148.75 18.02Q149.40 18.67 149.40 19.76L149.40 19.76L149.40 43.47Q149.40 44.51 148.75 45.19Q148.10 45.86 147.00 45.86ZM182.36 57.98L182.36 57.98Q181.32 57.98 180.65 57.30Q179.97 56.63 179.97 55.59L179.97 55.59L179.97 31.51Q180.02 27.46 181.92 24.18Q183.82 20.90 187.04 19.03Q190.27 17.16 194.32 17.16L194.32 17.16Q198.43 17.16 201.68 19.06Q204.93 20.96 206.83 24.21Q208.73 27.46 208.73 31.62L208.73 31.62Q208.73 35.72 206.93 39.00Q205.14 42.28 202.07 44.15Q199.00 46.02 195.16 46.02L195.16 46.02Q191.88 46.02 189.23 44.67Q186.58 43.32 184.76 41.03L184.76 41.03L184.76 55.59Q184.76 56.63 184.11 57.30Q183.46 57.98 182.36 57.98ZM194.32 41.76L194.32 41.76Q197.08 41.76 199.29 40.43Q201.50 39.10 202.77 36.79Q204.05 34.48 204.05 31.62L204.05 31.62Q204.05 28.70 202.77 26.39Q201.50 24.08 199.29 22.75Q197.08 21.42 194.32 21.42L194.32 21.42Q191.57 21.42 189.36 22.78Q187.15 24.13 185.90 26.42Q184.65 28.70 184.65 31.62L184.65 31.62Q184.65 34.48 185.90 36.79Q187.15 39.10 189.36 40.43Q191.57 41.76 194.32 41.76ZM221.36 28.13L218.82 28.13Q218.92 24.96 220.45 22.46Q221.99 19.97 224.54 18.51Q227.08 17.06 230.15 17.06L230.15 17.06Q233.01 17.06 234.44 17.94Q235.87 18.82 235.51 20.18L235.51 20.18Q235.35 20.96 234.88 21.29Q234.42 21.63 233.79 21.66Q233.17 21.68 232.44 21.58L232.44 21.58Q229.27 21.06 226.77 21.74Q224.28 22.41 222.82 24.08Q221.36 25.74 221.36 28.13L221.36 28.13ZM218.97 45.81L218.97 45.81Q217.88 45.81 217.26 45.21Q216.63 44.62 216.63 43.47L216.63 43.47L216.63 19.71Q216.63 18.62 217.26 17.99Q217.88 17.37 218.97 17.37L218.97 17.37Q220.17 17.37 220.77 17.97Q221.36 18.56 221.36 19.71L221.36 19.71L221.36 43.47Q221.36 44.56 220.77 45.19Q220.17 45.81 218.97 45.81ZM252.15 46.02L252.15 46.02Q247.99 46.02 244.74 44.17Q241.49 42.33 239.64 39.08Q237.80 35.83 237.80 31.62L237.80 31.62Q237.80 27.35 239.64 24.10Q241.49 20.85 244.74 19.01Q247.99 17.16 252.15 17.16L252.15 17.16Q256.31 17.16 259.56 19.01Q262.81 20.85 264.65 24.10Q266.50 27.35 266.55 31.62L266.55 31.62Q266.55 35.83 264.68 39.08Q262.81 42.33 259.58 44.17Q256.36 46.02 252.15 46.02ZM252.15 41.76L252.15 41.76Q255.01 41.76 257.19 40.46Q259.38 39.16 260.62 36.87Q261.87 34.58 261.87 31.62L261.87 31.62Q261.87 28.65 260.62 26.34Q259.38 24.02 257.19 22.72Q255.01 21.42 252.15 21.42L252.15 21.42Q249.34 21.42 247.13 22.72Q244.92 24.02 243.67 26.34Q242.42 28.65 242.42 31.62L242.42 31.62Q242.42 34.58 243.67 36.87Q244.92 39.16 247.13 40.46Q249.34 41.76 252.15 41.76ZM291.72 45.81L291.72 45.81Q291.15 45.81 290.73 45.63Q290.32 45.45 289.90 44.93L289.90 44.93L280.80 33.80L279.08 32.14L270.04 21.11Q269.36 20.38 269.36 19.50Q269.36 18.62 269.88 17.99Q270.40 17.37 271.44 17.37L271.44 17.37Q272.53 17.37 273.26 18.15L273.26 18.15L282.10 28.96L283.45 30.21L293.18 42.17Q293.90 43.06 293.85 43.89Q293.80 44.72 293.20 45.27Q292.60 45.81 291.72 45.81ZM271.60 45.81L271.60 45.81Q270.61 45.81 270.06 45.21Q269.52 44.62 269.52 43.76Q269.52 42.90 270.14 42.07L270.14 42.07L279.29 30.63L281.89 34.22L273.26 45.08Q272.64 45.81 271.60 45.81ZM292.86 21.27L284.18 32.40L281.01 29.48L289.59 18.25Q290.00 17.73 290.45 17.55Q290.89 17.37 291.46 17.37L291.46 17.37Q292.50 17.37 293.02 18.02Q293.54 18.67 293.51 19.55Q293.49 20.44 292.86 21.27L292.86 21.27ZM305.60 58.24L305.60 58.24Q305.14 58.24 304.51 57.98L304.51 57.98Q302.43 57.04 303.37 55.02L303.37 55.02L319.59 18.72Q320.53 16.74 322.56 17.58L322.56 17.58Q324.69 18.46 323.75 20.54L323.75 20.54L307.48 56.78Q306.85 58.24 305.60 58.24ZM311.64 44.77L311.64 44.77Q310.70 45.19 309.92 44.88Q309.14 44.56 308.67 43.68L308.67 43.68L296.87 20.49Q296.40 19.60 296.74 18.77Q297.08 17.94 298.01 17.58L298.01 17.58Q298.90 17.16 299.70 17.45Q300.51 17.73 300.92 18.67L300.92 18.67L312.31 41.81Q312.83 42.74 312.68 43.55Q312.52 44.36 311.64 44.77ZM331.71 45.81L331.71 45.81Q330.67 45.81 329.99 45.11Q329.32 44.41 329.32 43.37L329.32 43.37L329.32 7.64Q329.32 6.55 329.99 5.88Q330.67 5.20 331.71 5.20L331.71 5.20Q332.85 5.20 333.63 6.08L333.63 6.08L357.14 37.23L357.14 7.64Q357.14 6.55 357.84 5.88Q358.54 5.20 359.58 5.20L359.58 5.20Q360.62 5.20 361.30 5.88Q361.97 6.55 361.97 7.64L361.97 7.64L361.97 43.37Q361.97 44.41 361.30 45.11Q360.62 45.81 359.58 45.81L359.58 45.81Q359.06 45.81 358.54 45.60Q358.02 45.40 357.71 44.98L357.71 44.98L334.15 13.83L334.15 43.37Q334.15 44.41 333.48 45.11Q332.80 45.81 331.71 45.81ZM390.57 46.33L390.57 46.33Q386.36 46.33 382.69 44.75Q379.03 43.16 376.30 40.30Q373.57 37.44 372.01 33.64Q370.45 29.85 370.45 25.48L370.45 25.48Q370.45 21.16 371.98 17.39Q373.52 13.62 376.27 10.76Q379.03 7.90 382.67 6.29Q386.31 4.68 390.57 4.68L390.57 4.68Q394.47 4.68 397.44 5.75Q400.40 6.81 403.31 9.20L403.31 9.20Q403.73 9.52 403.91 9.91Q404.09 10.30 404.07 10.69Q404.04 11.08 403.88 11.44L403.88 11.44Q403.83 12.22 403.23 12.71Q402.64 13.21 401.80 13.21Q400.97 13.21 400.24 12.64L400.24 12.64Q398.27 10.92 396.08 10.04Q393.90 9.15 390.57 9.15L390.57 9.15Q387.40 9.15 384.62 10.45Q381.84 11.75 379.70 13.99Q377.57 16.22 376.38 19.19Q375.18 22.15 375.18 25.48L375.18 25.48Q375.18 28.91 376.38 31.85Q377.57 34.79 379.70 37.05Q381.84 39.31 384.62 40.56Q387.40 41.81 390.57 41.81L390.57 41.81Q393.33 41.81 395.77 40.90Q398.22 39.99 400.40 38.32L400.40 38.32Q401.23 37.70 402.06 37.78Q402.90 37.86 403.47 38.45Q404.04 39.05 404.04 40.09L404.04 40.09Q404.04 40.56 403.91 41.00Q403.78 41.44 403.31 41.81L403.31 41.81Q400.61 44.20 397.36 45.27Q394.11 46.33 390.57 46.33ZM404.04 27.46L404.04 40.09L399.36 39.10L399.36 29.38L391.82 29.38Q390.78 29.38 390.08 28.76Q389.38 28.13 389.38 27.20L389.38 27.20Q389.38 26.26 390.08 25.66Q390.78 25.06 391.82 25.06L391.82 25.06L401.65 25.06Q402.74 25.06 403.39 25.74Q404.04 26.42 404.04 27.46L404.04 27.46Z" transform="translate(0, 0)"></path></g></svg></g></svg>