<svg id="e58750f8-a2cc-45b7-b592-fd93077f5479" data-name="Layer 1" xmlns="http://www.w3.org/2000/svg" xmlns:xlink="http://www.w3.org/1999/xlink" viewBox="0 0 234.7 206.6">
  <defs>
    <clipPath id="ee1f88c7-769e-4645-991f-097b2bcf2ebe">
      <polygon points="1 1 2 1 1 2 1 1" style="fill: none"/>
    </clipPath>
    <linearGradient id="f6b1223b-7c1d-4ec2-a170-3232f01183aa" x1="176.44" y1="-110.12" x2="229.99" y2="-10.19" gradientTransform="translate(31.2 345.2) scale(1.27)" gradientUnits="userSpaceOnUse">
      <stop offset="0" stop-color="#00ac44"/>
      <stop offset="1" stop-color="#2794eb"/>
    </linearGradient>
    <clipPath id="b07e3289-77d1-49ad-9d77-eeb4e1a7c41d" transform="translate(-170.1 -171.2)">
      <polygon points="-1 -1 -2 -1 -1 -2 -1 -1" style="fill: none;clip-path: url(#ee1f88c7-769e-4645-991f-097b2bcf2ebe)"/>
    </clipPath>
    <linearGradient id="e810b33d-548e-40c4-a9e3-7be8cda75a73" x1="170.1" y1="216.5" x2="404.8" y2="216.5" gradientTransform="matrix(1, 0, 0, -1, 0, 576)" xlink:href="#f6b1223b-7c1d-4ec2-a170-3232f01183aa"/>
  </defs>
  <title>logo</title>
  <path d="M287.6,171.2a28.7,28.7,0,0,0-28.2,23.5h4.1a24.6,24.6,0,0,1,48.2,0h4.1A28.7,28.7,0,0,0,287.6,171.2Z" transform="translate(-170.1 -171.2)" style="fill: #414042"/>
  <path d="M355.3,219.8v91.1a22.2,22.2,0,0,1-22.2,22.2H242a22.1,22.1,0,0,1-22.2-22.2V219.8A22.2,22.2,0,0,1,242,197.6h91.1A22,22,0,0,1,355.3,219.8Z" transform="translate(-170.1 -171.2)" style="fill: url(#f6b1223b-7c1d-4ec2-a170-3232f01183aa)"/>
  <path d="M328.1,291h0l-27.4,42.2H242A22.1,22.1,0,0,1,219.8,311V241.1l10.9-16.4.5-.6,1.4-3h1a24.9,24.9,0,0,1,15.9,7.8,21.5,21.5,0,0,1,1.8,8.5v32.3c0,16.8,11.7,30.5,26.2,30.5h28.2c8.1,0,15.5-4.3,20.2-11.2Z" transform="translate(-170.1 -171.2)" style="fill: #231f20;opacity: 0.20000000298023224;isolation: isolate"/>
  <circle cx="139.1" cy="140.4" r="5.3" style="fill: #00ac9a"/>
  <circle cx="105.3" cy="140.4" r="5.3" style="fill: #00ac9a"/>
  <path d="M277.4,288.2c-9.1,0-16.5-8.4-16.5-18.8V253.9a1.5,1.5,0,1,1,3,0v15.5c0,8.6,6,15.6,13.3,15.6a1.5,1.5,0,0,1,1.5,1.5C278.7,287.2,278.3,288.2,277.4,288.2Z" transform="translate(-170.1 -171.2)" style="fill: #2794eb"/>
  <path d="M335,269.4a35.5,35.5,0,0,1-6.9,21.6h0c-5.3,7.4-13.5,12.1-22.5,12.1H277.4c-16.1,0-29.4-15.1-29.4-33.7V237.1c0-8.6-6-15.6-13.3-15.6-.5,0-.9-.1-1.1-.5a1.3,1.3,0,0,1-.4-1,1.5,1.5,0,0,1,1.5-1.5c6.5,0,11.9,4.2,14.7,10.3a21.5,21.5,0,0,1,1.8,8.5v32.3c0,16.8,11.7,30.5,26.2,30.5h28.2c8.1,0,15.5-4.3,20.2-11.2a33.3,33.3,0,0,0,6-19.3,1.5,1.5,0,0,1,1.5-1.5A1.4,1.4,0,0,1,335,269.4Z" transform="translate(-170.1 -171.2)" style="fill: #2794eb"/>
  <path d="M322.1,269.4a20.7,20.7,0,0,1-3.7,11.8,15.6,15.6,0,0,1-12.8,7,1.4,1.4,0,0,1-1.5-1.3v-.3a1.5,1.5,0,0,1,1.5-1.5c7.4,0,13.3-7,13.3-15.6a1.5,1.5,0,0,1,1.5-1.5A1.4,1.4,0,0,1,322.1,269.4Z" transform="translate(-170.1 -171.2)" style="fill: #00ac9a"/>
  <g style="clip-path: url(#b07e3289-77d1-49ad-9d77-eeb4e1a7c41d)">
    <path d="M286.5,391.2" transform="translate(-170.1 -171.2)" style="fill: none"/>
  </g>
  <path d="M185.2,342.7h5.6v17.8a8.8,8.8,0,0,1-2.8,7,10.9,10.9,0,0,1-7.6,2.6h0c-3.2,0-5.7-.8-7.5-2.5a8.8,8.8,0,0,1-2.8-6.9h0v-18h5.6v17.8c0,1.8.4,3.1,1.3,3.9a4.8,4.8,0,0,0,3.5,1.2h0c3.1,0,4.7-1.6,4.8-4.9h0v-18Zm21.2,6.8v5.2h-1.9c-2,0-3.4.7-4,2.1h0v13.1H195V349.7h5.1l.2,2.4a5.2,5.2,0,0,1,4.5-2.8h0l1.6.2ZM227,359.6v.3q0,4.8-2.1,7.5a6.9,6.9,0,0,1-5.8,2.7h0a6.1,6.1,0,0,1-5.2-2.5h0l-.2,2.1h-4.8V341.2h5.4v10.2a6.3,6.3,0,0,1,4.9-2.2h0a6.9,6.9,0,0,1,5.8,2.7,13.3,13.3,0,0,1,2,7.7Zm-5.4-.1h0a7.3,7.3,0,0,0-1-4.4,3.3,3.3,0,0,0-2.9-1.4h0a3.5,3.5,0,0,0-3.5,2.1h0v7.9a3.6,3.6,0,0,0,3.6,2.1h0a3.3,3.3,0,0,0,3.4-2.6h0A11.4,11.4,0,0,0,221.6,359.5Zm25.7,10.2h-5.4a7.8,7.8,0,0,1-.5-1.8h0a6.4,6.4,0,0,1-5.1,2.2h0a7.3,7.3,0,0,1-4.9-1.7,5.4,5.4,0,0,1-1.9-4.3h0a5.6,5.6,0,0,1,2.4-4.9,12,12,0,0,1,6.8-1.7h2.5v-1.1a3.1,3.1,0,0,0-.7-2.2,2.7,2.7,0,0,0-2.3-.8h0a3.3,3.3,0,0,0-2.1.6,2.2,2.2,0,0,0-.8,1.8h-5.4a5.4,5.4,0,0,1,1.1-3.2,6.4,6.4,0,0,1,3-2.3,10.5,10.5,0,0,1,4.4-.8h0a8.5,8.5,0,0,1,5.9,1.9,6.3,6.3,0,0,1,2.2,5.2h0v8.7a9.7,9.7,0,0,0,.8,4.3h0Zm-9.8-3.7h0a5.4,5.4,0,0,0,2.2-.5,3.4,3.4,0,0,0,1.5-1.4h0v-3.4h-2c-2.7,0-4.1.9-4.3,2.8h0v.3a2.2,2.2,0,0,0,.7,1.7A3.3,3.3,0,0,0,237.5,366Zm13.1-16.4h5l.2,2.3a7,7,0,0,1,5.8-2.7h0a5.9,5.9,0,0,1,4.8,1.9,8.7,8.7,0,0,1,1.6,5.6h0v13h-5.4V356.9a3.6,3.6,0,0,0-.7-2.5,3.4,3.4,0,0,0-2.5-.8h0a3.7,3.7,0,0,0-3.4,1.9h0v14.1h-5.4Zm39.4,10v.3a11.8,11.8,0,0,1-2.1,7.4,6.7,6.7,0,0,1-5.7,2.8h0a6.2,6.2,0,0,1-4.9-2.1h0v9.5h-5.4V349.7h5l.2,2a6.2,6.2,0,0,1,5.1-2.3h0a6.9,6.9,0,0,1,5.8,2.7,12.6,12.6,0,0,1,2,7.5Zm-5.3-.1h0a7.4,7.4,0,0,0-1-4.3,3.3,3.3,0,0,0-2.9-1.5h0a3.6,3.6,0,0,0-3.5,1.9h0v8.2a3.6,3.6,0,0,0,3.5,2h0Q284.7,365.8,284.7,359.5Zm20-10v5.2h-1.9c-2,0-3.4.7-4,2.1h0v13.1h-5.4V349.7h5.1v2.4a5.2,5.2,0,0,1,4.5-2.8h0l1.7.2Zm1,10.2v-.2a12.5,12.5,0,0,1,1.1-5.3,8.3,8.3,0,0,1,3.3-3.6,9.1,9.1,0,0,1,5-1.3h0a8.9,8.9,0,0,1,6.6,2.5,10.2,10.2,0,0,1,2.9,6.8h0V360a10.6,10.6,0,0,1-2.6,7.4,9.9,9.9,0,0,1-13.8,0,11.7,11.7,0,0,1-2.5-7.7Zm5.4.2h0a7.7,7.7,0,0,0,1.1,4.4,3.5,3.5,0,0,0,3.1,1.5h0a3.4,3.4,0,0,0,3-1.5,8.5,8.5,0,0,0,1.1-4.8h0a7.4,7.4,0,0,0-1.1-4.3,3.6,3.6,0,0,0-3.1-1.5h0a3.4,3.4,0,0,0-3,1.5C311.4,356.2,311.1,357.8,311.1,359.9ZM332,349.6l3.3,6,3.4-6h5.7l-5.7,9.8,6,10.2h-5.8l-3.6-6.3-3.6,6.3H326l6-10.2-5.7-9.8Zm18.7,0,3.7,12.5,3.7-12.5h5.8l-8.1,23.2-.4,1.1a6.1,6.1,0,0,1-5.9,3.9h0a6.7,6.7,0,0,1-2.4-.4h0v-4.1h.8a4.6,4.6,0,0,0,2.3-.5,3.1,3.1,0,0,0,1.2-1.5h0l.6-1.6-7-20.1Zm15.2,0h5l.2,2.3a7,7,0,0,1,5.8-2.7h0a5.9,5.9,0,0,1,4.8,1.9,8.7,8.7,0,0,1,1.6,5.6h0v13h-5.4V356.9a3.6,3.6,0,0,0-.7-2.5,3.4,3.4,0,0,0-2.5-.8h0a3.7,3.7,0,0,0-3.4,1.9h0v14.1h-5.4Zm20.6,10.2v-.2c0-3.1.7-5.6,2.2-7.4a7,7,0,0,1,5.9-2.8h0a6.2,6.2,0,0,1,5.1,2.3h0l.2-1.9h4.9v19.4a8.5,8.5,0,0,1-1.2,4.6,7.7,7.7,0,0,1-3.4,3,11.3,11.3,0,0,1-5.1,1h0a10.7,10.7,0,0,1-4.3-.9,7.2,7.2,0,0,1-3.2-2.3h0l2.4-3.3a6.3,6.3,0,0,0,4.9,2.2h0a4.9,4.9,0,0,0,3.3-1.1,4.2,4.2,0,0,0,1.2-3.2h0V368a6.2,6.2,0,0,1-4.9,2.1h0a7.2,7.2,0,0,1-5.9-2.8,13.1,13.1,0,0,1-2.1-7.5Zm5.4.1h0a7.8,7.8,0,0,0,1.1,4.3,3.4,3.4,0,0,0,3,1.5h0a3.8,3.8,0,0,0,3.5-1.8h0v-8.5a3.8,3.8,0,0,0-3.5-1.8h0a3.3,3.3,0,0,0-3,1.6A8.6,8.6,0,0,0,391.9,359.9Z" transform="translate(-170.1 -171.2)" style="fill: url(#e810b33d-548e-40c4-a9e3-7be8cda75a73)"/>
</svg>
