<?xml version="1.0" encoding="utf-8"?>
<!-- Generator: Adobe Illustrator 26.3.1, SVG Export Plug-In . SVG Version: 6.00 Build 0)  -->
<svg version="1.1" id="Layer_1" xmlns="http://www.w3.org/2000/svg" xmlns:xlink="http://www.w3.org/1999/xlink" x="0px" y="0px"
	 viewBox="0 0 575 575" style="enable-background:new 0 0 575 575;" xml:space="preserve">
<style type="text/css">
	.st0{clip-path:url(#SVGID_00000165204477249517132270000007602270979936927904_);}
	.st1{clip-path:url(#SVGID_00000009589212494542060360000010282810571093774747_);}
	.st2{fill:none;}
	.st3{fill:#64A399;}
</style>
<g transform="rotate(0 0 0)">
	<g>
		<defs>
			<polygon id="SVGID_1_" points="1,1 2,1 1,2 			"/>
		</defs>
		<defs>
			<polygon id="SVGID_00000163040975060804477250000006788650658865462202_" points="-1,-1 -2,-1 -1,-2 			"/>
		</defs>
		<clipPath id="SVGID_00000109736318385061675870000017014424613483014538_">
			<use xlink:href="#SVGID_1_"  style="overflow:visible;"/>
		</clipPath>
		
			<clipPath id="SVGID_00000040576230768147389110000017506237202832881834_" style="clip-path:url(#SVGID_00000109736318385061675870000017014424613483014538_);">
			<use xlink:href="#SVGID_00000163040975060804477250000006788650658865462202_"  style="overflow:visible;"/>
		</clipPath>
		<g style="clip-path:url(#SVGID_00000040576230768147389110000017506237202832881834_);">
			<path class="st2" d="M286.5,414.2"/>
		</g>
	</g>
</g>
<g transform="rotate(0 0 0)">
	<g>
		<path class="st3" d="M104.8,393.2L104.8,393.2c-3.3,0-6.1-0.6-8.7-1.8c-2.5-1.2-4.5-2.9-5.9-5.1c-1.4-2.2-2.1-4.6-2.1-7.4l0,0
			v-24.6c0-0.7,0.2-1.3,0.7-1.7s1-0.7,1.7-0.7l0,0c0.7,0,1.3,0.2,1.8,0.7c0.5,0.5,0.7,1,0.7,1.7l0,0v24.6c0,1.9,0.5,3.6,1.5,5.1
			c1,1.5,2.4,2.6,4.2,3.5c1.8,0.8,3.8,1.3,6.1,1.3l0,0c2.2,0,4.2-0.4,5.9-1.3c1.7-0.9,3.1-2,4.1-3.5s1.5-3.2,1.5-5.1l0,0v-24.6
			c0-0.7,0.2-1.3,0.7-1.7c0.5-0.5,1-0.7,1.7-0.7l0,0c0.7,0,1.3,0.2,1.7,0.7s0.7,1,0.7,1.7l0,0v24.6c0,2.8-0.7,5.2-2.1,7.4
			c-1.4,2.2-3.3,3.9-5.8,5.1C110.8,392.6,107.9,393.2,104.8,393.2z M135.7,374.7h-2.6c0.1-2.1,0.6-4,1.6-5.7c1-1.7,2.4-3,4.1-3.9
			c1.7-1,3.6-1.5,5.6-1.5l0,0c1.9,0,3.3,0.3,4.3,0.9s1.3,1.3,1.1,2.2l0,0c-0.1,0.5-0.3,0.9-0.6,1.1c-0.3,0.2-0.7,0.3-1.1,0.4
			c-0.4,0-0.9,0-1.3-0.1l0,0c-2.1-0.3-4-0.3-5.7,0.2c-1.7,0.4-3,1.2-4,2.3C136.2,371.7,135.7,373.1,135.7,374.7L135.7,374.7z
			 M133.3,392.4L133.3,392.4c-0.7,0-1.3-0.2-1.7-0.6c-0.4-0.4-0.6-1-0.6-1.7l0,0v-23.8c0-0.7,0.2-1.3,0.6-1.7c0.4-0.4,1-0.6,1.7-0.6
			l0,0c0.8,0,1.4,0.2,1.8,0.6c0.4,0.4,0.6,1,0.6,1.7l0,0V390c0,0.7-0.2,1.3-0.6,1.7C134.7,392.1,134.1,392.4,133.3,392.4z
			 M170,392.6L170,392.6c-2.7,0-5.1-0.6-7.3-1.9c-2.2-1.2-3.9-3-5.1-5.1c-1.2-2.2-1.9-4.6-1.9-7.3l0,0v-24.1c0-0.7,0.2-1.3,0.7-1.7
			c0.4-0.4,1-0.6,1.7-0.6l0,0c0.7,0,1.3,0.2,1.7,0.6c0.4,0.4,0.6,1,0.6,1.7l0,0v14.6c1.2-1.5,2.7-2.7,4.5-3.6
			c1.8-0.9,3.7-1.4,5.9-1.4l0,0c2.6,0,4.9,0.6,6.9,1.9c2,1.3,3.7,3,4.9,5.1c1.2,2.2,1.8,4.6,1.8,7.4l0,0c0,2.7-0.6,5.2-1.9,7.4
			c-1.3,2.2-3,3.9-5.2,5.2C175.2,391.9,172.8,392.6,170,392.6z M170,388.3L170,388.3c1.8,0,3.5-0.4,5-1.3c1.5-0.9,2.6-2.1,3.5-3.6
			c0.9-1.5,1.3-3.3,1.3-5.2l0,0c0-1.9-0.4-3.7-1.3-5.2c-0.8-1.5-2-2.7-3.5-3.6c-1.5-0.9-3.1-1.3-5-1.3l0,0c-1.8,0-3.5,0.4-5,1.3
			s-2.6,2.1-3.5,3.6c-0.8,1.5-1.2,3.3-1.2,5.2l0,0c0,1.9,0.4,3.7,1.2,5.2c0.8,1.5,2,2.8,3.5,3.6C166.5,387.9,168.2,388.3,170,388.3z
			 M204.4,392.6L204.4,392.6c-2.6,0-4.9-0.6-7-1.9s-3.7-3-4.8-5.1c-1.2-2.2-1.8-4.6-1.8-7.4l0,0c0-2.8,0.6-5.2,1.9-7.4
			c1.3-2.2,3-3.9,5.1-5.1c2.2-1.3,4.6-1.9,7.3-1.9l0,0c2.7,0,5.2,0.6,7.3,1.9c2.1,1.3,3.9,3,5.1,5.2c1.3,2.2,1.9,4.6,1.9,7.4l0,0
			l-1.9,0.5c0,2.6-0.6,5-1.8,7.1c-1.2,2.1-2.8,3.8-4.8,5C209.2,392,207,392.6,204.4,392.6z M205.2,388.3L205.2,388.3
			c1.9,0,3.5-0.4,5-1.3c1.5-0.9,2.6-2.1,3.5-3.6c0.8-1.5,1.3-3.3,1.3-5.2l0,0c0-1.9-0.4-3.7-1.3-5.2c-0.9-1.5-2-2.8-3.5-3.6
			c-1.5-0.9-3.1-1.3-5-1.3l0,0c-1.8,0-3.5,0.4-4.9,1.3c-1.5,0.9-2.7,2.1-3.5,3.6c-0.9,1.5-1.3,3.3-1.3,5.2l0,0
			c0,1.9,0.4,3.6,1.3,5.2c0.8,1.5,2,2.8,3.5,3.6C201.8,387.9,203.4,388.3,205.2,388.3z M217.2,392.4L217.2,392.4
			c-0.7,0-1.3-0.2-1.7-0.7c-0.5-0.5-0.7-1-0.7-1.7l0,0v-8.3l1-5l3.8,1.5V390c0,0.7-0.2,1.3-0.7,1.7
			C218.5,392.2,217.9,392.4,217.2,392.4z M251.7,392.4L251.7,392.4c-0.7,0-1.3-0.2-1.7-0.7c-0.5-0.5-0.7-1-0.7-1.7l0,0v-13.1
			c0-2-0.4-3.7-1.2-5c-0.8-1.3-1.8-2.3-3.1-2.9c-1.3-0.6-2.8-1-4.4-1l0,0c-1.6,0-3,0.3-4.2,0.9c-1.2,0.6-2.2,1.5-3,2.5
			c-0.7,1-1.1,2.2-1.1,3.6l0,0h-3.1c0-2.2,0.6-4.1,1.7-5.9c1.1-1.7,2.5-3.1,4.4-4.1c1.8-1,3.9-1.5,6.2-1.5l0,0
			c2.4,0,4.6,0.5,6.5,1.5c1.9,1,3.4,2.5,4.5,4.5c1.1,2,1.7,4.4,1.7,7.2l0,0V390c0,0.7-0.2,1.2-0.7,1.7
			C252.9,392.2,252.3,392.4,251.7,392.4z M229.9,392.4L229.9,392.4c-0.7,0-1.3-0.2-1.7-0.7c-0.5-0.5-0.7-1-0.7-1.7l0,0v-23.7
			c0-0.7,0.2-1.3,0.7-1.7c0.4-0.4,1-0.6,1.7-0.6l0,0c0.7,0,1.3,0.2,1.8,0.6c0.4,0.4,0.6,1,0.6,1.7l0,0V390c0,0.7-0.2,1.3-0.6,1.7
			C231.2,392.2,230.6,392.4,229.9,392.4z M265.2,404.5L265.2,404.5c-0.7,0-1.3-0.2-1.7-0.7c-0.5-0.4-0.7-1-0.7-1.7l0,0v-24.1
			c0-2.7,0.7-5.1,1.9-7.3s3-3.9,5.1-5.1c2.2-1.2,4.6-1.9,7.3-1.9l0,0c2.7,0,5.2,0.6,7.4,1.9c2.2,1.3,3.9,3,5.2,5.1
			c1.3,2.2,1.9,4.6,1.9,7.4l0,0c0,2.7-0.6,5.2-1.8,7.4c-1.2,2.2-2.8,3.9-4.9,5.1s-4.3,1.9-6.9,1.9l0,0c-2.2,0-4.2-0.4-5.9-1.3
			c-1.8-0.9-3.3-2.1-4.5-3.6l0,0v14.6c0,0.7-0.2,1.3-0.6,1.7C266.5,404.3,266,404.5,265.2,404.5z M277.2,388.3L277.2,388.3
			c1.8,0,3.5-0.4,5-1.3c1.5-0.9,2.6-2.1,3.5-3.6c0.9-1.5,1.3-3.3,1.3-5.2l0,0c0-1.9-0.4-3.7-1.3-5.2c-0.8-1.5-2-2.8-3.5-3.6
			s-3.1-1.3-5-1.3l0,0c-1.8,0-3.5,0.5-5,1.4c-1.5,0.9-2.6,2.1-3.5,3.6c-0.8,1.5-1.3,3.3-1.2,5.2l0,0c0,1.9,0.4,3.6,1.2,5.2
			c0.8,1.5,2,2.8,3.5,3.6C273.7,387.9,275.4,388.3,277.2,388.3z M304.2,374.7h-2.5c0.1-2.1,0.6-4,1.6-5.7c1-1.7,2.4-3,4.1-3.9
			c1.7-1,3.6-1.5,5.6-1.5l0,0c1.9,0,3.3,0.3,4.3,0.9s1.3,1.3,1.1,2.2l0,0c-0.1,0.5-0.3,0.9-0.6,1.1c-0.3,0.2-0.7,0.3-1.1,0.4
			c-0.4,0-0.9,0-1.4-0.1l0,0c-2.1-0.3-4-0.3-5.7,0.2c-1.7,0.4-3,1.2-4,2.3C304.7,371.7,304.2,373.1,304.2,374.7L304.2,374.7z
			 M301.8,392.4L301.8,392.4c-0.7,0-1.3-0.2-1.7-0.6c-0.4-0.4-0.6-1-0.6-1.7l0,0v-23.8c0-0.7,0.2-1.3,0.6-1.7c0.4-0.4,1-0.6,1.7-0.6
			l0,0c0.8,0,1.4,0.2,1.8,0.6c0.4,0.4,0.6,1,0.6,1.7l0,0V390c0,0.7-0.2,1.3-0.6,1.7C303.2,392.1,302.6,392.4,301.8,392.4z
			 M335,392.6L335,392.6c-2.8,0-5.2-0.6-7.4-1.8c-2.2-1.2-3.9-2.9-5.1-5.1c-1.2-2.2-1.8-4.7-1.8-7.5l0,0c0-2.8,0.6-5.4,1.8-7.5
			c1.2-2.2,2.9-3.9,5.1-5.1c2.2-1.2,4.6-1.9,7.4-1.9l0,0c2.8,0,5.2,0.6,7.4,1.9c2.2,1.2,3.9,2.9,5.1,5.1c1.2,2.2,1.9,4.7,1.9,7.5
			l0,0c0,2.8-0.6,5.3-1.9,7.5c-1.2,2.2-2.9,3.9-5.1,5.1C340.3,391.9,337.8,392.6,335,392.6z M335,388.3L335,388.3
			c1.9,0,3.6-0.4,5-1.3c1.5-0.9,2.6-2.1,3.4-3.6c0.8-1.5,1.2-3.3,1.2-5.2l0,0c0-2-0.4-3.7-1.2-5.3c-0.8-1.5-2-2.8-3.4-3.6
			c-1.5-0.9-3.1-1.3-5-1.3l0,0c-1.9,0-3.5,0.4-5,1.3s-2.6,2.1-3.5,3.6c-0.8,1.5-1.2,3.3-1.2,5.3l0,0c0,2,0.4,3.7,1.2,5.2
			s2,2.7,3.5,3.6S333.1,388.3,335,388.3z M374.6,392.4L374.6,392.4c-0.4,0-0.7-0.1-1-0.2c-0.3-0.1-0.5-0.4-0.8-0.7l0,0l-9.1-11.1
			l-1.7-1.7l-9-11c-0.5-0.5-0.7-1-0.7-1.6s0.2-1.1,0.5-1.5c0.3-0.4,0.9-0.6,1.6-0.6l0,0c0.7,0,1.3,0.3,1.8,0.8l0,0l8.8,10.8l1.3,1.2
			l9.7,12c0.5,0.6,0.7,1.2,0.7,1.7c0,0.6-0.2,1-0.7,1.4C375.7,392.2,375.2,392.4,374.6,392.4z M354.5,392.4L354.5,392.4
			c-0.7,0-1.2-0.2-1.5-0.6c-0.4-0.4-0.5-0.9-0.5-1.4s0.2-1.1,0.6-1.7l0,0l9.2-11.4l2.6,3.6l-8.6,10.9
			C355.7,392.1,355.2,392.4,354.5,392.4z M375.7,367.8l-8.7,11.1l-3.2-2.9l8.6-11.2c0.3-0.3,0.6-0.6,0.9-0.7c0.3-0.1,0.6-0.2,1-0.2
			l0,0c0.7,0,1.2,0.2,1.6,0.6c0.3,0.4,0.5,0.9,0.5,1.5C376.4,366.7,376.1,367.3,375.7,367.8L375.7,367.8z M388.5,404.8L388.5,404.8
			c-0.3,0-0.7-0.1-1.1-0.3l0,0c-1.4-0.6-1.8-1.6-1.1-3l0,0l16.2-36.3c0.6-1.3,1.6-1.7,3-1.1l0,0c1.4,0.6,1.8,1.6,1.2,3l0,0
			l-16.3,36.2C389.9,404.3,389.3,404.8,388.5,404.8z M394.5,391.3L394.5,391.3c-0.6,0.3-1.2,0.3-1.7,0.1c-0.5-0.2-0.9-0.6-1.2-1.2
			l0,0L379.7,367c-0.3-0.6-0.4-1.2-0.1-1.7c0.2-0.6,0.7-0.9,1.3-1.2l0,0c0.6-0.3,1.2-0.3,1.7-0.1c0.5,0.2,0.9,0.6,1.2,1.2l0,0
			l11.4,23.1c0.3,0.6,0.5,1.2,0.4,1.7C395.4,390.6,395.1,391,394.5,391.3z M414.6,392.4L414.6,392.4c-0.7,0-1.3-0.2-1.7-0.7
			c-0.4-0.5-0.7-1-0.7-1.7l0,0v-35.7c0-0.7,0.2-1.3,0.7-1.8c0.5-0.5,1-0.7,1.7-0.7l0,0c0.8,0,1.4,0.3,1.9,0.9l0,0l23.5,31.2v-29.6
			c0-0.7,0.2-1.3,0.7-1.8c0.5-0.5,1-0.7,1.7-0.7l0,0c0.7,0,1.3,0.2,1.7,0.7c0.4,0.4,0.7,1,0.7,1.8l0,0v35.7c0,0.7-0.2,1.3-0.7,1.7
			c-0.5,0.5-1,0.7-1.7,0.7l0,0c-0.3,0-0.7-0.1-1-0.2c-0.3-0.1-0.6-0.3-0.8-0.6l0,0L417,360.4v29.5c0,0.7-0.2,1.3-0.7,1.7
			C415.9,392.1,415.3,392.4,414.6,392.4z M473.4,392.9L473.4,392.9c-2.8,0-5.4-0.5-7.9-1.6c-2.4-1.1-4.6-2.5-6.4-4.5
			c-1.8-1.9-3.2-4.1-4.3-6.7c-1-2.5-1.6-5.2-1.6-8.2l0,0c0-2.9,0.5-5.6,1.5-8.1c1-2.5,2.5-4.7,4.3-6.6c1.8-1.9,4-3.4,6.4-4.5
			c2.4-1.1,5.1-1.6,7.9-1.6l0,0c2.6,0,4.9,0.4,6.9,1.1c2,0.7,3.9,1.9,5.9,3.5l0,0c0.3,0.2,0.5,0.4,0.6,0.7s0.2,0.5,0.2,0.8
			c0,0.3-0.1,0.5-0.2,0.8l0,0c0,0.5-0.2,0.9-0.6,1.3c-0.4,0.3-0.9,0.5-1.4,0.5c-0.6,0-1.1-0.2-1.6-0.6l0,0c-1.3-1.1-2.7-2-4.2-2.6
			c-1.5-0.6-3.3-0.9-5.5-0.9l0,0c-2.1,0-4.1,0.4-6,1.3c-1.9,0.9-3.5,2-4.9,3.5c-1.4,1.5-2.5,3.2-3.3,5.2c-0.8,2-1.2,4.1-1.2,6.3l0,0
			c0,2.3,0.4,4.4,1.2,6.4c0.8,2,1.9,3.7,3.3,5.2c1.4,1.5,3.1,2.7,4.9,3.5c1.9,0.8,3.8,1.2,6,1.2l0,0c1.8,0,3.6-0.3,5.2-0.9
			c1.6-0.6,3.2-1.5,4.6-2.6l0,0c0.6-0.4,1.1-0.6,1.7-0.5c0.6,0.1,1,0.3,1.4,0.7c0.4,0.4,0.6,0.9,0.6,1.6l0,0c0,0.3,0,0.6-0.1,0.9
			s-0.3,0.6-0.6,0.8l0,0c-1.8,1.6-3.8,2.7-6,3.5C478.1,392.5,475.8,392.9,473.4,392.9z M486.9,374v12.6l-4.7-1v-9.7h-7.5
			c-0.7,0-1.3-0.2-1.7-0.6c-0.5-0.4-0.7-0.9-0.7-1.6l0,0c0-0.6,0.2-1.1,0.7-1.5s1-0.6,1.7-0.6l0,0h9.8c0.7,0,1.3,0.2,1.7,0.7
			S486.9,373.3,486.9,374L486.9,374z"/>
	</g>
</g>
<image style="overflow:visible;" width="892" height="637" xlink:href="35D46A346FB28EAC.png"  transform="matrix(0.1698 0 0 0.1698 213.2626 230.9842)">
</image>
</svg>
