<?xml version="1.0" encoding="utf-8"?>
<!-- Generator: Adobe Illustrator 26.3.1, SVG Export Plug-In . SVG Version: 6.00 Build 0)  -->
<svg version="1.1" id="Layer_1" xmlns="http://www.w3.org/2000/svg" xmlns:xlink="http://www.w3.org/1999/xlink" x="0px" y="0px"
	 viewBox="0 0 488.9 416.2" style="enable-background:new 0 0 488.9 416.2;" xml:space="preserve">
<style type="text/css">
	.st0{fill:#64A399;}
</style>
<path class="st0" d="M60.8,290.9L60.8,290.9c-3,0.1-6-0.6-8.7-1.8c-2.4-1.1-4.4-2.9-5.9-5.1c-1.4-2.2-2.2-4.8-2.1-7.4l0,0v-24.6
	c0-0.7,0.2-1.3,0.7-1.7c0.5-0.5,1.1-0.7,1.7-0.7l0,0c0.7,0,1.3,0.2,1.8,0.7c0.5,0.5,0.7,1.1,0.7,1.7l0,0v24.6c0,1.8,0.5,3.6,1.5,5.2
	c1.1,1.5,2.5,2.7,4.2,3.5c1.9,0.9,4,1.3,6.1,1.3l0,0c2,0,4.1-0.4,5.9-1.3c1.6-0.8,3.1-2,4.1-3.5c1-1.5,1.5-3.3,1.5-5.1l0,0v-24.7
	c0-1.3,1-2.4,2.4-2.4c0,0,0,0,0.1,0l0,0c0.7,0,1.3,0.2,1.7,0.7c0.4,0.5,0.7,1.1,0.7,1.7l0,0v24.6c0,2.6-0.7,5.2-2.1,7.4
	c-1.4,2.2-3.4,4-5.8,5.1C66.7,290.3,63.8,291,60.8,290.9z M91.8,272.4h-2.6c0.1-4,2.2-7.7,5.7-9.6c1.7-1,3.7-1.5,5.6-1.5l0,0
	c1.5-0.1,3,0.2,4.3,0.9c0.9,0.4,1.3,1.3,1.1,2.2l0,0c-0.1,0.4-0.3,0.8-0.6,1.1c-0.3,0.2-0.7,0.4-1.1,0.4c-0.5,0-0.9,0-1.4-0.1l0,0
	c-1.9-0.4-3.8-0.3-5.7,0.2c-1.5,0.4-2.9,1.2-3.9,2.3C92.3,269.5,91.7,270.9,91.8,272.4L91.8,272.4z M89.4,290.1L89.4,290.1
	c-0.6,0-1.2-0.2-1.7-0.6c-0.4-0.5-0.6-1.1-0.6-1.7l0,0V264c-0.1-1.2,0.8-2.2,1.9-2.3c0.1,0,0.3,0,0.4,0l0,0c0.7-0.1,1.3,0.2,1.8,0.6
	c0.4,0.5,0.6,1.1,0.6,1.7l0,0v23.8c0.1,1.2-0.7,2.2-1.9,2.3C89.8,290.1,89.6,290.1,89.4,290.1L89.4,290.1z M126.1,290.3L126.1,290.3
	c-2.6,0-5.1-0.6-7.3-1.9c-2.1-1.2-3.9-3-5.1-5.1c-1.3-2.2-1.9-4.8-1.9-7.3l0,0v-24.1c0-0.7,0.2-1.3,0.7-1.7c0.5-0.4,1.1-0.7,1.7-0.6
	l0,0c0.6,0,1.3,0.2,1.7,0.6c0.4,0.5,0.7,1.1,0.6,1.7l0,0v14.6c1.2-1.5,2.7-2.8,4.5-3.6c1.8-0.9,3.9-1.4,5.9-1.4l0,0
	c2.4,0,4.8,0.6,6.9,1.9c2,1.3,3.7,3,4.9,5.1c1.2,2.3,1.8,4.8,1.8,7.4l0,0c0,2.6-0.6,5.1-1.9,7.4c-1.2,2.1-3,3.9-5.1,5.2
	C131.2,289.7,128.7,290.3,126.1,290.3L126.1,290.3z M126.1,286L126.1,286c3.5,0,6.8-1.9,8.4-5c0.9-1.6,1.3-3.4,1.3-5.2l0,0
	c0-1.8-0.4-3.6-1.3-5.2c-1.7-3.1-5-4.9-8.5-4.9l0,0c-1.8,0-3.5,0.4-5,1.3c-1.5,0.9-2.6,2.1-3.5,3.6c-0.8,1.6-1.3,3.4-1.2,5.2l0,0
	c0,1.8,0.4,3.6,1.2,5.2C119.3,284.2,122.5,286.2,126.1,286L126.1,286z M160.5,290.3L160.5,290.3c-2.5,0-4.9-0.6-7-1.9
	c-2-1.3-3.7-3-4.8-5.1c-1.2-2.3-1.8-4.8-1.8-7.4l0,0c0-2.6,0.6-5.2,1.9-7.4c2.6-4.4,7.3-7.1,12.5-7l0,0c5.1-0.1,9.9,2.6,12.4,7.1
	c1.3,2.2,2,4.8,2,7.4l0,0l-1.9,0.5c0,2.5-0.6,4.9-1.8,7.1c-1.1,2.1-2.8,3.8-4.8,5C165.3,289.7,162.9,290.3,160.5,290.3L160.5,290.3z
	 M161.3,286L161.3,286c1.8,0,3.5-0.4,5-1.3c1.5-0.9,2.6-2.1,3.5-3.6c0.9-1.6,1.3-3.4,1.3-5.2l0,0c0-1.8-0.4-3.6-1.3-5.2
	c-0.8-1.5-2-2.8-3.5-3.6c-1.5-0.9-3.2-1.4-5-1.3l0,0c-3.5,0-6.8,1.9-8.4,5c-0.9,1.6-1.3,3.4-1.3,5.2l0,0c0,1.8,0.4,3.6,1.3,5.2
	C154.5,284.2,157.8,286.1,161.3,286L161.3,286z M173.3,290.1L173.3,290.1c-1.3,0.1-2.3-0.9-2.4-2.2c0-0.1,0-0.1,0-0.2l0,0v-8.3l1-5
	l3.9,1.5v11.9c0,0.6-0.2,1.3-0.7,1.7C174.6,289.9,173.9,290.2,173.3,290.1L173.3,290.1z M207.8,290.1L207.8,290.1
	c-0.7,0-1.3-0.2-1.7-0.7c-0.5-0.4-0.7-1.1-0.7-1.7l0,0v-13.1c0.1-1.7-0.3-3.5-1.1-5c-0.7-1.3-1.8-2.3-3.1-2.9c-1.4-0.7-2.9-1-4.4-1
	l0,0c-1.5,0-2.9,0.3-4.2,0.9c-1.2,0.6-2.2,1.4-3,2.5c-0.7,1-1.1,2.3-1.1,3.6h-3.1c0-2.1,0.6-4.1,1.7-5.9c1.1-1.7,2.6-3.1,4.4-4.1
	c1.9-1,4-1.5,6.2-1.5l0,0c2.3,0,4.5,0.5,6.5,1.5c1.9,1,3.5,2.6,4.5,4.5c1.2,2.2,1.7,4.7,1.7,7.2l0,0v13.1
	C210.1,289.1,209,290.1,207.8,290.1L207.8,290.1L207.8,290.1z M186,290.1L186,290.1c-0.6,0-1.3-0.2-1.7-0.7
	c-0.5-0.5-0.7-1.1-0.7-1.7l0,0V264c0-0.7,0.2-1.3,0.7-1.7c0.5-0.4,1.1-0.7,1.7-0.6l0,0c0.6,0,1.3,0.2,1.8,0.6
	c0.4,0.5,0.7,1.1,0.6,1.7l0,0v23.7c0,0.6-0.2,1.3-0.6,1.7C187.3,289.9,186.6,290.2,186,290.1L186,290.1z M221.3,302.3L221.3,302.3
	c-1.3,0-2.4-1-2.4-2.2c0,0,0-0.1,0-0.1l0,0v-24.1c0-2.6,0.7-5.1,2-7.3c1.2-2.1,3-3.9,5.1-5.1c2.2-1.3,4.7-1.9,7.3-1.9l0,0
	c2.6,0,5.1,0.6,7.4,1.9c2.1,1.2,3.9,3,5.1,5.1c1.3,2.3,1.9,4.8,1.9,7.4l0,0c0,2.6-0.6,5.1-1.8,7.4c-1.1,2.1-2.8,3.9-4.9,5.1
	c-2.1,1.3-4.5,1.9-6.9,1.9l0,0c-2.1,0-4.1-0.4-5.9-1.4c-1.7-0.9-3.3-2.1-4.5-3.6l0,0v14.6c0,0.6-0.2,1.3-0.6,1.7
	C222.6,302.1,222,302.3,221.3,302.3L221.3,302.3z M233.3,286L233.3,286c3.5,0,6.8-1.9,8.5-5c0.9-1.6,1.3-3.4,1.3-5.2l0,0
	c0-1.8-0.4-3.6-1.3-5.2c-1.7-3.1-4.9-5-8.5-5l0,0c-1.8,0-3.5,0.4-5,1.4c-1.5,0.9-2.6,2.1-3.5,3.6c-0.9,1.6-1.3,3.4-1.2,5.2l0,0
	c0,1.8,0.4,3.6,1.2,5.2C226.5,284.1,229.8,286.1,233.3,286L233.3,286z M260.3,272.4h-2.5c0.1-4,2.2-7.7,5.7-9.6
	c1.7-1,3.6-1.5,5.6-1.4l0,0c1.5-0.1,3,0.2,4.3,0.9c0.9,0.4,1.3,1.3,1.1,2.2l0,0c-0.1,0.4-0.3,0.8-0.6,1.1c-0.3,0.2-0.7,0.4-1.1,0.4
	c-0.5,0-0.9,0-1.4-0.1l0,0c-1.9-0.4-3.8-0.3-5.7,0.2c-1.5,0.4-2.9,1.2-4,2.3C260.8,269.5,260.3,270.9,260.3,272.4L260.3,272.4z
	 M258,290.1L258,290.1c-0.6,0-1.2-0.2-1.7-0.6c-0.4-0.5-0.7-1.1-0.6-1.7l0,0V264c0-0.6,0.2-1.3,0.6-1.7c0.5-0.4,1.1-0.7,1.7-0.6l0,0
	c0.7-0.1,1.3,0.2,1.8,0.6c0.4,0.5,0.6,1.1,0.6,1.7l0,0v23.8c0,0.6-0.2,1.2-0.6,1.7C259.3,289.9,258.6,290.1,258,290.1L258,290.1z
	 M291.1,290.3L291.1,290.3c-2.6,0-5.1-0.6-7.4-1.9c-2.1-1.2-3.9-3-5.1-5.1c-1.3-2.3-1.9-4.9-1.8-7.5l0,0c-0.1-2.6,0.6-5.2,1.8-7.5
	c1.2-2.1,3-3.9,5.1-5.1c2.3-1.2,4.8-1.9,7.4-1.8l0,0c2.6,0,5.1,0.6,7.4,1.9c2.1,1.2,3.9,3,5.1,5.1c1.3,2.3,1.9,4.9,1.9,7.5l0,0
	c0.1,2.6-0.6,5.2-1.9,7.5c-1.2,2.1-3,3.9-5.1,5.1C296.2,289.7,293.7,290.4,291.1,290.3L291.1,290.3z M291.1,286L291.1,286
	c1.8,0,3.5-0.4,5-1.3c1.5-0.9,2.6-2.1,3.4-3.6c0.9-1.6,1.3-3.4,1.2-5.2l0,0c0-1.8-0.4-3.7-1.2-5.3c-0.8-1.5-2-2.8-3.4-3.6
	c-1.5-0.9-3.2-1.3-5-1.3l0,0c-1.8,0-3.5,0.4-5,1.3c-1.5,0.9-2.7,2.1-3.5,3.6c-0.9,1.6-1.3,3.4-1.2,5.3l0,0c0,1.8,0.4,3.6,1.2,5.2
	c0.8,1.5,2,2.7,3.4,3.6C287.6,285.6,289.3,286.1,291.1,286L291.1,286z M330.7,290.1L330.7,290.1c-0.3,0-0.7-0.1-1-0.2
	c-0.3-0.2-0.6-0.4-0.8-0.7l0,0l-9.1-11.1l-1.7-1.7l-9-11c-0.8-0.8-0.9-2.2-0.2-3.1c0.4-0.4,1-0.7,1.6-0.6l0,0c0.7,0,1.4,0.3,1.8,0.8
	l0,0l8.8,10.8l1.4,1.2l9.7,12c0.4,0.5,0.7,1.1,0.7,1.7c0,0.5-0.3,1-0.6,1.4C331.8,289.9,331.2,290.1,330.7,290.1L330.7,290.1z
	 M310.6,290.1L310.6,290.1c-0.6,0-1.1-0.2-1.5-0.6c-0.4-0.4-0.6-0.9-0.5-1.5c0-0.6,0.2-1.2,0.6-1.7l0,0l9.1-11.4l2.6,3.6l-8.6,10.9
	C311.8,289.9,311.2,290.1,310.6,290.1L310.6,290.1z M331.8,265.5l-8.8,11.1l-3.1-2.9l8.6-11.2c0.2-0.3,0.5-0.5,0.9-0.7
	c0.3-0.1,0.7-0.2,1-0.2l0,0c0.6,0,1.2,0.2,1.6,0.6c0.3,0.4,0.5,1,0.5,1.5C332.4,264.4,332.2,265,331.8,265.5L331.8,265.5z
	 M344.6,302.5L344.6,302.5c-0.4,0-0.7-0.1-1.1-0.3l0,0c-1.1-0.3-1.7-1.4-1.4-2.5c0.1-0.2,0.1-0.4,0.2-0.5l0,0l16.2-36.3
	c0.3-1.1,1.5-1.7,2.6-1.3c0.1,0,0.3,0.1,0.4,0.2l0,0c1.1,0.3,1.7,1.4,1.4,2.4c-0.1,0.2-0.1,0.4-0.2,0.6l0,0l-16.3,36.2
	C346.2,302,345.4,302.5,344.6,302.5L344.6,302.5z M350.6,289.1L350.6,289.1c-0.5,0.3-1.2,0.3-1.7,0.1c-0.5-0.2-1-0.7-1.2-1.2l0,0
	l-11.8-23.2c-0.3-0.5-0.3-1.2-0.1-1.7c0.2-0.6,0.7-1,1.3-1.2l0,0c0.5-0.3,1.1-0.3,1.7-0.1c0.6,0.2,1,0.7,1.2,1.2l0,0l11.4,23.1
	c0.3,0.5,0.5,1.1,0.4,1.7C351.5,288.4,351.1,288.8,350.6,289.1L350.6,289.1z M370.7,290.1L370.7,290.1c-0.6,0-1.3-0.2-1.7-0.7
	c-0.4-0.5-0.7-1.1-0.7-1.7l0,0v-35.7c0-0.7,0.2-1.3,0.7-1.8c0.5-0.5,1.1-0.7,1.7-0.7l0,0c0.7,0,1.4,0.3,1.9,0.9l0,0l23.5,31.1v-29.6
	c0-0.7,0.2-1.3,0.7-1.8c0.5-0.5,1.1-0.7,1.7-0.7l0,0c0.6,0,1.3,0.2,1.7,0.7c0.5,0.5,0.7,1.1,0.7,1.8l0,0v35.7c0,0.6-0.2,1.3-0.7,1.7
	c-0.4,0.5-1.1,0.7-1.7,0.7l0,0c-0.3,0-0.7-0.1-1-0.2c-0.3-0.1-0.6-0.3-0.8-0.6l0,0l-23.6-31.2v29.5c0,0.6-0.2,1.3-0.7,1.7
	C372,289.9,371.3,290.1,370.7,290.1L370.7,290.1z M429.5,290.6L429.5,290.6c-2.7,0-5.4-0.5-7.9-1.6c-2.4-1-4.6-2.6-6.4-4.5
	c-3.8-4-5.9-9.3-5.8-14.8l0,0c0-2.8,0.5-5.5,1.5-8.1c1-2.5,2.5-4.7,4.3-6.6c1.8-1.9,4-3.4,6.4-4.5c2.5-1.1,5.2-1.6,7.9-1.6l0,0
	c2.3,0,4.7,0.3,6.9,1.1c2.1,0.8,4.1,2,5.9,3.5l0,0c0.3,0.2,0.5,0.4,0.6,0.7c0.1,0.2,0.2,0.5,0.2,0.8c0,0.3-0.1,0.5-0.2,0.8l0,0
	c0,0.5-0.3,1-0.6,1.3c-0.4,0.3-0.9,0.5-1.4,0.5c-0.6,0-1.1-0.2-1.6-0.6l0,0c-1.2-1.1-2.6-2-4.2-2.6c-1.8-0.6-3.6-0.9-5.5-0.9l0,0
	c-2.1,0-4.1,0.4-6,1.3c-1.8,0.9-3.5,2.1-4.9,3.5c-1.4,1.5-2.6,3.3-3.3,5.2c-0.8,2-1.2,4.1-1.2,6.3l0,0c0,4.3,1.6,8.4,4.5,11.6
	c1.4,1.5,3.1,2.7,4.9,3.5c1.9,0.8,3.9,1.3,6,1.2l0,0c1.8,0,3.5-0.3,5.2-0.9c1.7-0.6,3.2-1.5,4.6-2.6l0,0c0.5-0.4,1.1-0.6,1.7-0.5
	c0.5,0,1,0.3,1.4,0.7c0.4,0.5,0.6,1,0.6,1.6l0,0c0,0.3,0,0.6-0.1,0.9c-0.1,0.3-0.3,0.6-0.6,0.8l0,0c-1.7,1.6-3.7,2.7-6,3.5
	C434.1,290.2,431.8,290.6,429.5,290.6L429.5,290.6z M443,271.7v12.6l-4.7-1v-9.7h-7.5c-0.6,0-1.3-0.2-1.7-0.6
	c-0.5-0.4-0.7-1-0.7-1.6l0,0c0-0.6,0.3-1.2,0.7-1.5c0.5-0.4,1.1-0.6,1.7-0.6h9.8c0.7,0,1.3,0.2,1.7,0.7
	C442.8,270.5,443,271.1,443,271.7L443,271.7z"/>
<image style="overflow:visible;enable-background:new    ;" width="893" height="637" xlink:href="4C0EE68F92815779.png"  transform="matrix(0.1698 0 0 0.1698 169.3485 128.7807)">
</image>
</svg>
